<svg width="45" height="34" viewBox="0 0 45 34" fill="none" xmlns="http://www.w3.org/2000/svg">
<path d="M31.1837 15.0107C31.0903 15.0107 30.9927 15.0107 30.8993 15.0107C27.9324 15.0732 25.5768 17.4857 25.6404 20.3982C25.7041 23.3107 28.1616 25.6232 31.1285 25.5607C31.137 25.5607 31.1455 25.5607 31.1497 25.5607C34.1166 25.5566 36.5148 23.1941 36.5105 20.2816C36.5105 20.2732 36.5105 20.2649 36.5105 20.2566C36.5105 17.3649 34.1294 15.0149 31.1795 15.0107H31.1837ZM32.699 20.7524C32.4358 21.1399 31.9307 21.2941 31.4936 21.1191C31.3535 21.0649 31.3365 21.1066 31.345 21.2274V21.3482C31.345 21.5121 31.4256 21.5996 31.5869 21.6107C31.7312 21.6024 31.8543 21.7149 31.8628 21.8566C31.8628 21.8649 31.8628 21.8691 31.8628 21.8774C31.8713 22.0191 31.7652 22.1399 31.6209 22.1482C31.6082 22.1482 31.5997 22.1482 31.5869 22.1482C31.4172 22.1524 31.2431 22.1482 31.0691 22.1482C30.8951 22.1482 30.7253 22.1524 30.5513 22.1482C30.4112 22.1566 30.2881 22.0482 30.2839 21.9066C30.2839 21.8982 30.2839 21.8857 30.2839 21.8774C30.2839 21.7357 30.3942 21.6191 30.5385 21.6191C30.5385 21.6191 30.5428 21.6191 30.547 21.6191C30.7168 21.6052 30.8017 21.5149 30.8017 21.3482V21.2107C30.8144 21.0941 30.7805 21.0774 30.6659 21.1191C30.1268 21.3232 29.5199 21.0566 29.3119 20.5274C29.2694 20.4232 29.2482 20.3107 29.244 20.1982C29.2185 19.7774 29.3798 19.4357 29.6557 19.1357C30.0207 18.7316 30.4664 18.3982 30.8866 18.0441C30.9885 17.9441 31.1497 17.9441 31.2516 18.0357C31.7228 18.4357 32.2321 18.7941 32.6141 19.2857C32.9791 19.7524 33.0088 20.3232 32.699 20.7566V20.7524Z" fill="white"/>
<path d="M18.6165 11.2526C17.6742 9.46922 15.7557 8.39006 13.7099 8.49422C10.8152 8.57339 8.51891 10.9151 8.54862 13.7567C8.54862 14.2817 8.62503 14.8067 8.78207 15.3067C9.6437 18.09 12.6403 19.6567 15.4756 18.8109C15.8237 18.7442 16.0826 18.4609 16.1038 18.115C16.4051 15.8692 17.254 13.7317 18.5868 11.8817C18.7396 11.7026 18.7523 11.4442 18.6165 11.2526ZM15.3737 13.7942C14.9705 14.2275 14.5673 14.665 14.1598 15.0984C14.0155 15.2484 13.8839 15.2484 13.7439 15.0984C13.3534 14.6692 12.9671 14.24 12.5851 13.8067C12.4578 13.665 12.462 13.5609 12.5851 13.4192C12.9714 12.9859 13.3576 12.5567 13.7439 12.1275C13.8797 11.9775 14.0113 11.9775 14.1513 12.1234C14.563 12.5609 14.9663 12.9984 15.3737 13.4359C15.4247 13.4817 15.4544 13.54 15.4586 13.6067C15.4586 13.6775 15.4289 13.7484 15.3737 13.7984V13.7942Z" fill="white"/>
<path d="M45.0004 21.7571C44.8094 22.9279 44.5038 24.0738 44.0963 25.1904C42.8824 28.2779 40.5564 30.8196 37.5683 32.3446C35.6753 33.3321 33.5658 33.8571 31.4223 33.8696C28.0225 33.9571 24.7076 32.7862 22.1439 30.5946C16.3247 25.6988 15.6499 17.0988 20.6371 11.3821C22.7042 9.01545 25.5395 7.41129 28.6634 6.84879C36.2058 5.49463 43.4427 10.3988 44.8221 17.8029C44.8646 18.0363 44.9028 18.2696 44.9325 18.5029C44.9495 18.6029 44.9707 18.6988 45.0004 18.7946V21.7571ZM38.4851 20.2863C38.4851 16.3154 35.2084 13.0946 31.1634 13.0904C27.1184 13.0904 23.8375 16.3071 23.8332 20.2779C23.8332 24.2488 27.1099 27.4696 31.1549 27.4738C35.1957 27.4821 38.4766 24.2696 38.4809 20.3029C38.4809 20.2946 38.4809 20.2904 38.4809 20.2821L38.4851 20.2863ZM41.2313 18.3571L42.5216 18.1779C42.7975 18.1404 42.8654 18.0196 42.8145 17.7363C42.5386 16.3113 41.9783 14.9571 41.1676 13.7446C41.0233 13.5321 40.9002 13.4821 40.6838 13.6488C40.4673 13.8154 40.1193 14.0571 39.8306 14.2488C39.6609 14.3613 39.5972 14.4613 39.716 14.6654C40.3612 15.7279 40.8238 16.8863 41.0828 18.0988C41.1125 18.2363 41.1634 18.3654 41.2356 18.3613L41.2313 18.3571ZM29.4614 10.1071C29.3977 9.72378 29.3298 9.31545 29.2704 8.91962C29.2449 8.70712 29.1261 8.66545 28.9351 8.70295C27.4495 9.02379 26.0276 9.57379 24.7245 10.3405C24.559 10.4363 24.4869 10.5363 24.6184 10.7238C24.8689 11.0571 25.115 11.3946 25.357 11.7363C25.4758 11.9113 25.6074 11.8904 25.7475 11.7863C26.7746 11.0988 27.9376 10.6321 29.16 10.4155C29.334 10.3946 29.5038 10.3488 29.4571 10.1113L29.4614 10.1071ZM33.7356 8.82795C33.57 8.80712 33.5318 8.91545 33.5106 9.03629C33.4342 9.44462 33.3536 9.85295 33.2814 10.2613C33.239 10.5071 33.3875 10.5863 33.5955 10.6446C34.6057 10.8863 35.5607 11.3154 36.4138 11.8988C36.6388 12.0529 36.7661 12.0071 36.9104 11.7988C37.1184 11.4863 37.3391 11.1863 37.5768 10.8946C37.806 10.6279 37.7211 10.4946 37.4452 10.3321C36.6133 9.85295 35.7347 9.45712 34.8222 9.14879C34.4529 9.03629 34.0879 8.95712 33.7228 8.83629L33.7313 8.82379L33.7356 8.82795ZM28.9648 30.3154C29.0242 30.1071 28.8332 30.0737 28.6592 30.0321C28.0267 29.8529 27.4155 29.6237 26.8256 29.3404C26.3969 29.1487 26.0064 28.5779 25.5989 28.7529C25.1914 28.9279 24.9877 29.4904 24.6948 29.8779L24.6439 29.9446C24.5123 30.0987 24.5717 30.1904 24.7245 30.2821C25.8578 30.9362 27.076 31.4404 28.3451 31.7737C28.5403 31.8279 28.6931 31.8237 28.7356 31.5821C28.8077 31.1529 28.8884 30.7487 28.969 30.3071L28.9648 30.3154ZM43.0013 22.5154C43.0013 22.3529 42.8824 22.3363 42.7466 22.3113C42.3561 22.2488 41.9911 22.2029 41.626 22.1113C41.3417 22.0446 41.2356 22.1321 41.1592 22.3946C40.9597 23.1113 40.6923 23.8113 40.3612 24.4821C40.2041 24.8238 39.7712 25.1571 39.9325 25.4988C40.0938 25.8404 40.5267 25.9738 40.8281 26.2196C41.0615 26.4029 41.2186 26.3904 41.3884 26.1321C41.7831 25.5488 42.1311 24.9279 42.4198 24.2863C42.6787 23.7113 42.8739 23.1113 42.997 22.4988V22.5154H43.0013ZM33.4894 30.1821C33.5488 30.5821 33.5955 30.9071 33.6464 31.2321C33.6719 31.4321 33.7483 31.5321 33.9902 31.4862C35.2296 31.2779 36.4223 30.8571 37.5131 30.2487C37.7211 30.1362 37.7381 30.0279 37.6023 29.8446C37.3519 29.5112 37.1014 29.1779 36.8722 28.8279C36.7407 28.6279 36.6218 28.6571 36.4393 28.7571C35.5989 29.2487 34.6948 29.6321 33.7568 29.9029C33.5615 29.9404 33.4512 30.0404 33.4894 30.1904V30.1821ZM20.9639 22.3071C20.5735 22.3654 20.1872 22.4363 19.7967 22.4779C19.5166 22.5071 19.4529 22.6404 19.5251 22.8863C19.8689 24.0446 20.3527 25.1571 20.9724 26.1946C21.087 26.3904 21.2101 26.4113 21.3926 26.2738C21.66 26.0696 21.9317 25.8904 22.2118 25.6988C22.4156 25.5654 22.4198 25.4196 22.3094 25.2279C21.8468 24.4113 21.5285 23.5279 21.3629 22.6071C21.3587 22.4321 21.2059 22.2904 21.0276 22.2988C21.0064 22.2988 20.9852 22.2988 20.9639 22.3071ZM20.913 17.8321C21.1889 17.8988 21.2313 17.7029 21.278 17.5196C21.4775 16.7696 21.7704 16.0488 22.1439 15.3654C22.3052 15.0529 22.7212 14.7821 22.6235 14.4446C22.5259 14.1071 22.0505 13.9946 21.7704 13.7488C21.4903 13.5029 21.3799 13.5904 21.2441 13.8571C20.6711 14.8529 20.2127 15.9113 19.8816 17.0113C19.7599 17.414 19.9042 17.6515 20.3145 17.7238L20.9173 17.8363L20.913 17.8321Z" fill="white"/>
<path d="M0 13.7404C0.309847 7.9404 3.00933 3.6279 8.47621 1.23624C14.5416 -1.33875 21.6171 0.682077 25.331 6.04873C25.6536 6.5154 25.6494 6.51123 25.123 6.7279C24.8556 6.8404 24.5882 6.95707 24.3208 7.07373C24.1341 7.15706 23.9601 7.2779 23.7775 7.07373C23.6969 6.97373 23.5908 7.03206 23.5059 7.09456C23.1621 7.33623 22.6697 7.5029 22.4957 7.83623C22.0288 8.7029 21.0653 9.00289 20.4923 9.71539C20.2589 10.0071 20.1018 9.92789 19.8896 9.65289C18.5484 7.71123 16.2988 6.5654 13.9134 6.6029C9.86416 6.5904 6.57469 9.80289 6.56196 13.7779C6.55347 17.207 9.00677 20.1654 12.4278 20.8487C13.4168 21.0612 14.4439 21.0487 15.4287 20.8154C15.8192 20.7237 15.9677 20.8154 15.9932 21.2362C16.0399 21.8237 16.1163 22.4029 16.2224 22.982C16.3115 23.5445 16.2436 24.1279 16.3879 24.682C16.4304 24.8487 16.4176 25.0279 16.6638 25.0654C16.8166 25.0654 16.8548 25.2237 16.91 25.3445C17.0925 25.7487 17.2623 26.1654 17.4575 26.5612C17.5933 26.832 17.5679 26.9612 17.2326 27.0404C15.5093 27.4529 13.7224 27.5404 11.9694 27.2945C5.94651 26.4529 1.17996 21.8779 0.203735 15.9904C0.080645 15.2487 0.0127334 14.4987 0 13.7446V13.7404ZM12.2198 3.70707C12.1392 3.21124 12.0755 2.80291 12.0119 2.39457C11.9864 2.21957 11.8888 2.16541 11.702 2.20291C10.2164 2.51124 8.79031 3.06124 7.48725 3.8279C7.29625 3.93624 7.24956 4.06124 7.38963 4.24457C7.63156 4.56957 7.86925 4.89457 8.09846 5.22373C8.19608 5.36957 8.2937 5.41957 8.45075 5.30707C9.51187 4.58624 10.7173 4.1029 11.9864 3.88624C12.1222 3.8654 12.2283 3.78207 12.2198 3.70707ZM16.5407 2.35291C16.3285 2.29457 16.2563 2.41124 16.2266 2.59457C16.163 2.97791 16.0993 3.38624 16.0144 3.78207C15.9677 3.98624 16.0568 4.07374 16.2394 4.1154C17.292 4.37374 18.2852 4.81124 19.1808 5.41123C19.3336 5.51123 19.4736 5.53207 19.5967 5.3654C19.8684 4.98207 20.14 4.6029 20.4202 4.25707C20.5178 4.12374 20.5051 4.03624 20.3565 3.94457C19.1765 3.22791 17.8905 2.69457 16.5407 2.35707V2.35291ZM11.6893 23.9112C11.7232 23.6487 11.6129 23.5612 11.4389 23.5279C10.4329 23.2779 9.47791 22.8529 8.62901 22.2654C8.5229 22.1612 8.35312 22.1654 8.25126 22.2654C8.22579 22.2904 8.20881 22.3154 8.19608 22.3487C7.94565 22.6987 7.68674 23.0487 7.41934 23.3904C7.27078 23.5779 7.32172 23.6862 7.51272 23.7987C8.64599 24.4529 9.86416 24.9529 11.1375 25.2779C11.2818 25.3154 11.4261 25.3445 11.4643 25.1237C11.5407 24.6862 11.6256 24.2654 11.6935 23.907L11.6893 23.9112ZM2.23259 16.2279C2.25382 16.307 2.27504 16.3904 2.3005 16.4737C2.6146 17.5029 3.04329 18.4904 3.58234 19.4237C3.87096 19.932 3.86672 19.932 4.32936 19.6112C4.55432 19.4529 4.77928 19.2904 5.00848 19.1404C5.13157 19.0862 5.18675 18.9404 5.12732 18.8195C5.11884 18.8029 5.11035 18.7904 5.10186 18.7779C4.60525 17.9195 4.26145 16.982 4.07894 16.0112C4.04923 15.8445 3.96434 15.7445 3.78183 15.7654L2.44482 15.9695C2.31324 15.9904 2.1859 16.0404 2.23259 16.2237V16.2279ZM3.70967 11.3071C3.95161 11.3446 3.98556 11.1237 4.03649 10.9237C4.24023 10.1779 4.5331 9.45706 4.9151 8.78206C5.07639 8.48623 5.49659 8.21123 5.36926 7.91123C5.24193 7.61123 4.82172 7.46956 4.55008 7.23623C4.27843 7.0029 4.11714 7.0904 3.95161 7.3779C3.455 8.21956 3.05178 9.11539 2.75891 10.0487C2.36842 11.3404 2.28353 11.0196 3.5696 11.2904C3.61629 11.2987 3.66298 11.3029 3.70967 11.3071Z" fill="white"/>
</svg>
