<?xml version="1.0" encoding="utf-8"?>
<!-- Generator: Adobe Illustrator 23.1.0, SVG Export Plug-In . SVG Version: 6.00 Build 0)  -->
<svg version="1.1" id="Layer_1" xmlns="http://www.w3.org/2000/svg" xmlns:xlink="http://www.w3.org/1999/xlink" x="0px" y="0px"
	 viewBox="0 0 184 65" enable-background="new 0 0 184 65" xml:space="preserve">
<g>
	<g>
		<path fill="#FFFFFF" d="M73.718,18.663c-0.182,0.077-0.148,0.274-0.22,0.411c-0.448,0.851-1.111,1.385-2.093,1.465
			c-0.237,0.019-0.475,0.035-0.712,0.035c-16.735,0.002-33.471,0.001-50.206,0.004c-0.744,0-1.458-0.068-2.064-0.567
			c-1.534-1.261-1.202-3.539,0.667-4.399c2.267-1.043,4.549-2.052,6.825-3.075C31.994,9.804,38.075,7.07,44.157,4.34
			c0.326-0.146,0.664-0.266,0.996-0.398c0.293,0,0.586,0,0.879,0c1.185,0.155,2.188,0.792,3.247,1.263
			c3.579,1.591,7.149,3.201,10.718,4.815c3.152,1.425,6.312,2.833,9.459,4.267c0.833,0.379,1.667,0.756,2.506,1.122
			c0.966,0.421,1.671,1.031,1.757,2.157C73.718,17.931,73.718,18.297,73.718,18.663z"/>
		<path fill="#FFFFFF" d="M73.718,58.215c-0.184,0.076-0.154,0.27-0.22,0.408c-0.467,0.98-1.237,1.503-2.321,1.563
			c-0.091,0.005-0.183,0.003-0.275,0.003c-16.879,0-33.758,0-50.636-0.001c-1.309,0-2.292-0.635-2.664-1.709
			c-0.568-1.64,0.555-3.285,2.343-3.428c0.218-0.018,0.439-0.009,0.659-0.009c16.604,0,33.208,0,49.813,0
			c1.98,0,2.602,0.412,3.302,2.184C73.718,57.556,73.718,57.885,73.718,58.215z"/>
		<path fill="#FFFFFF" d="M67.939,48.437c-0.503-0.005-0.622-0.137-0.621-0.632c0.017-7.249,0.014-14.498,0.006-21.747
			c0-0.408-0.008-0.669,0.554-0.639c0.579,0.031,1.056-0.272,1.265-0.863c0.167-0.474,0.062-0.91-0.268-1.275
			c-0.363-0.401-0.854-0.437-1.359-0.437c-11.167,0.003-22.334,0.002-33.5,0.002c-3.515,0-7.03-0.003-10.544,0.002
			c-0.913,0.001-1.487,0.476-1.518,1.228c-0.031,0.777,0.489,1.335,1.388,1.347c0.472,0.007,0.508,0.182,0.508,0.565
			c-0.009,7.286-0.006,14.572-0.006,21.857c0,0.092-0.009,0.184,0.001,0.274c0.03,0.25-0.089,0.322-0.32,0.302
			c-0.144-0.013-0.292,0.003-0.438,0.01c-1.908,0.097-3.034,2.128-2.097,3.794c0.578,1.028,1.522,1.335,2.635,1.334
			c7.304-0.005,14.609-0.003,21.913-0.003c7.286,0,14.572,0,21.858-0.002c0.255,0,0.512-0.012,0.766-0.043
			c1.41-0.172,2.418-1.298,2.354-2.621C70.445,49.496,69.386,48.451,67.939,48.437z M36.077,48.43
			c-2.197-0.023-4.395-0.024-6.591,0.001c-0.425,0.005-0.505-0.119-0.505-0.519c0.013-7.324,0.013-14.648-0.001-21.971
			c-0.001-0.412,0.1-0.512,0.509-0.508c2.215,0.022,4.431,0.021,6.646,0.001c0.388-0.003,0.482,0.1,0.48,0.483
			c-0.015,3.68-0.009,7.36-0.009,11.041c0,3.643-0.008,7.287,0.01,10.931C36.619,48.316,36.512,48.435,36.077,48.43z M48.885,48.427
			c-2.214-0.017-4.429-0.021-6.643,0.003c-0.419,0.004-0.508-0.111-0.506-0.515c0.017-3.679,0.01-7.357,0.01-11.035
			c0-3.624,0.007-7.247-0.01-10.871c-0.002-0.43,0.063-0.587,0.547-0.58c2.214,0.031,4.428,0.022,6.643,0.005
			c0.376-0.003,0.493,0.089,0.492,0.481c-0.012,7.339-0.013,14.678,0.002,22.016C49.422,48.375,49.268,48.43,48.885,48.427z
			 M62.194,47.85c0.002,0.433-0.066,0.59-0.551,0.583c-2.215-0.031-4.43-0.021-6.645-0.006c-0.351,0.002-0.47-0.08-0.469-0.45
			c0.01-7.359,0.01-14.719,0-22.078c0-0.351,0.08-0.468,0.454-0.465c2.233,0.018,4.467,0.02,6.7-0.001
			c0.404-0.004,0.514,0.086,0.512,0.504c-0.019,3.68-0.011,7.359-0.011,11.039C62.184,40.6,62.176,44.225,62.194,47.85z"/>
	</g>
	<g>
		<path fill="#FFFFFF" d="M87.828,14.608c0.878-0.154,2.635-0.308,4.325-0.308c2.042,0,3.293,0.198,4.391,0.834
			c1.032,0.549,1.757,1.559,1.757,2.92c0,1.295-0.769,2.503-2.438,3.14v0.044c1.691,0.439,2.942,1.735,2.942,3.623
			c0,1.361-0.614,2.416-1.537,3.162c-1.075,0.856-2.876,1.339-5.818,1.339c-1.646,0-2.877-0.11-3.623-0.22V14.608z M91.143,20.273
			h1.098c1.779,0,2.701-0.725,2.701-1.823c0-1.12-0.856-1.712-2.371-1.712c-0.747,0-1.164,0.044-1.428,0.088V20.273z M91.143,26.838
			c0.329,0.044,0.725,0.044,1.296,0.044c1.514,0,2.854-0.593,2.854-2.152c0-1.471-1.34-2.064-3.008-2.064h-1.142V26.838z"/>
		<path fill="#FFFFFF" d="M109.986,26.619c0,1.01,0.044,1.998,0.176,2.591h-3.009l-0.197-1.076h-0.066
			c-0.702,0.856-1.8,1.317-3.073,1.317c-2.174,0-3.47-1.581-3.47-3.294c0-2.789,2.503-4.106,6.302-4.106V21.92
			c0-0.593-0.308-1.405-1.954-1.405c-1.098,0-2.262,0.374-2.964,0.813l-0.615-2.152c0.746-0.417,2.218-0.966,4.172-0.966
			c3.579,0,4.699,2.108,4.699,4.655V26.619z M106.758,24.138c-1.756,0-3.117,0.417-3.117,1.691c0,0.856,0.57,1.273,1.317,1.273
			c0.813,0,1.515-0.549,1.734-1.229c0.044-0.176,0.065-0.374,0.065-0.571V24.138z"/>
		<path fill="#FFFFFF" d="M112.647,21.898c0-1.339-0.044-2.459-0.088-3.425h2.898l0.153,1.493h0.065
			c0.439-0.703,1.516-1.734,3.316-1.734c2.195,0,3.842,1.471,3.842,4.633v6.346h-3.337v-5.951c0-1.383-0.483-2.327-1.691-2.327
			c-0.922,0-1.471,0.637-1.712,1.251c-0.088,0.22-0.11,0.527-0.11,0.834v6.192h-3.337V21.898z"/>
		<path fill="#FFFFFF" d="M128.855,22.996h0.044c0.241-0.461,0.505-0.9,0.769-1.295l2.174-3.228h4.019l-3.843,4.348l4.392,6.39
			h-4.106l-2.612-4.414l-0.835,1.054v3.359h-3.337V13.62h3.337V22.996z"/>
		<path fill="#FFFFFF" d="M90.704,43.579h-3.996v-2.811h11.374v2.811h-4.04v11.988h-3.337V43.579z"/>
		<path fill="#FFFFFF" d="M98.568,48.365c0-1.581-0.022-2.613-0.088-3.535h2.854l0.131,1.977h0.088
			c0.55-1.581,1.845-2.24,2.898-2.24c0.308,0,0.462,0.022,0.703,0.066v3.14c-0.264-0.044-0.527-0.088-0.9-0.088
			c-1.229,0-2.064,0.659-2.283,1.69c-0.044,0.22-0.066,0.483-0.066,0.747v5.445h-3.337V48.365z"/>
		<path fill="#FFFFFF" d="M115.609,52.977c0,1.01,0.044,1.998,0.176,2.591h-3.009l-0.197-1.076h-0.066
			c-0.702,0.856-1.8,1.317-3.073,1.317c-2.174,0-3.47-1.581-3.47-3.293c0-2.789,2.503-4.106,6.302-4.106v-0.132
			c0-0.593-0.308-1.405-1.954-1.405c-1.098,0-2.262,0.373-2.964,0.813l-0.615-2.151c0.746-0.418,2.218-0.967,4.172-0.967
			c3.579,0,4.699,2.108,4.699,4.655V52.977z M112.381,50.495c-1.756,0-3.117,0.417-3.117,1.69c0,0.856,0.57,1.274,1.317,1.274
			c0.813,0,1.515-0.55,1.734-1.23c0.044-0.176,0.065-0.373,0.065-0.57V50.495z"/>
		<path fill="#FFFFFF" d="M118.271,48.256c0-1.34-0.044-2.46-0.088-3.426h2.898l0.153,1.493h0.065
			c0.439-0.702,1.516-1.734,3.316-1.734c2.195,0,3.842,1.471,3.842,4.633v6.346h-3.337v-5.95c0-1.384-0.483-2.328-1.691-2.328
			c-0.922,0-1.471,0.637-1.712,1.252c-0.088,0.22-0.11,0.527-0.11,0.834v6.192h-3.337V48.256z"/>
		<path fill="#FFFFFF" d="M131.119,52.669c0.615,0.373,1.889,0.791,2.877,0.791c1.01,0,1.427-0.33,1.427-0.879
			c0-0.57-0.329-0.834-1.559-1.251c-2.24-0.747-3.097-1.955-3.074-3.229c0-2.02,1.713-3.535,4.369-3.535
			c1.252,0,2.35,0.308,3.009,0.637l-0.571,2.306c-0.483-0.264-1.428-0.614-2.327-0.614c-0.813,0-1.273,0.329-1.273,0.856
			c0,0.526,0.417,0.79,1.734,1.251c2.042,0.703,2.876,1.757,2.898,3.315c0,2.021-1.56,3.491-4.633,3.491
			c-1.405,0-2.657-0.329-3.47-0.769L131.119,52.669z"/>
		<path fill="#FFFFFF" d="M141.068,55.567v-8.278h-1.427V44.83h1.427v-0.417c0-1.296,0.396-2.723,1.34-3.602
			c0.856-0.79,1.998-1.075,2.986-1.075c0.725,0,1.295,0.109,1.756,0.22l-0.131,2.568c-0.286-0.088-0.638-0.153-1.076-0.153
			c-1.098,0-1.56,0.856-1.56,1.91v0.549h2.152v2.459h-2.13v8.278H141.068z"/>
		<path fill="#FFFFFF" d="M150.513,51.264c0.088,1.384,1.472,2.042,3.03,2.042c1.142,0,2.064-0.153,2.964-0.461l0.439,2.262
			c-1.098,0.461-2.438,0.681-3.887,0.681c-3.645,0-5.73-2.108-5.73-5.468c0-2.723,1.69-5.73,5.424-5.73
			c3.469,0,4.786,2.7,4.786,5.357c0,0.571-0.065,1.076-0.109,1.317H150.513z M154.443,48.98c0-0.813-0.352-2.174-1.889-2.174
			c-1.405,0-1.976,1.295-2.063,2.174H154.443z"/>
		<path fill="#FFFFFF" d="M159.542,48.365c0-1.581-0.022-2.613-0.088-3.535h2.854l0.131,1.977h0.088
			c0.55-1.581,1.845-2.24,2.898-2.24c0.308,0,0.462,0.022,0.703,0.066v3.14c-0.264-0.044-0.527-0.088-0.9-0.088
			c-1.229,0-2.064,0.659-2.283,1.69c-0.044,0.22-0.066,0.483-0.066,0.747v5.445h-3.337V48.365z"/>
	</g>
</g>
</svg>
