<?xml version="1.0" encoding="utf-8"?>
<!-- Generator: Adobe Illustrator 23.1.0, SVG Export Plug-In . SVG Version: 6.00 Build 0)  -->
<svg version="1.1" id="Layer_1" xmlns="http://www.w3.org/2000/svg" xmlns:xlink="http://www.w3.org/1999/xlink" x="0px" y="0px"
	 viewBox="0 0 12 12" enable-background="new 0 0 12 12" xml:space="preserve">
<g>
	<g>
		<radialGradient id="SVGID_2_" cx="6.3944" cy="2.2062" r="10.4201" gradientUnits="userSpaceOnUse">
			<stop  offset="0" style="stop-color:#EBACAC"/>
			<stop  offset="0.0593" style="stop-color:#E48E8E"/>
			<stop  offset="0.1752" style="stop-color:#D85858"/>
			<stop  offset="0.2259" style="stop-color:#D54B4A"/>
			<stop  offset="0.4411" style="stop-color:#CA1614"/>
			<stop  offset="0.8308" style="stop-color:#A71219"/>
			<stop  offset="1" style="stop-color:#891219"/>
		</radialGradient>
		<circle fill="url(#SVGID_2_)" cx="6" cy="6" r="6"/>
	</g>
	<g>
		<g>
			<g>
				<path fill="#D32B1A" d="M0.552,7.879c0,0.031-0.013,0.061-0.038,0.082C0.469,8,0.382,7.986,0.361,7.93
					C0.35,7.9,0.258,7.604,0.26,7.589c0.008-0.059,0.08-0.01,0.117,0.037c0.048,0.061,0.098,0.122,0.15,0.182
					C0.544,7.829,0.552,7.854,0.552,7.879z"/>
			</g>
		</g>
		<g>
			<g>
				<path fill="#D32B1A" d="M11.812,7.454c-0.062,0.113-0.131,0.225-0.207,0.334c-0.034,0.049-0.102,0.061-0.151,0.027
					c-0.049-0.034-0.061-0.102-0.027-0.151C11.52,7.53,11.603,7.39,11.674,7.25c0.027-0.053,0.092-0.075,0.146-0.048
					c0.019,0.01,0.034,0.024,0.044,0.041C11.874,7.26,11.831,7.419,11.812,7.454z M11.316,8.116c0,0.026-0.009,0.052-0.028,0.072
					c-0.111,0.124-0.233,0.245-0.362,0.359c-0.045,0.04-0.113,0.036-0.153-0.009c-0.04-0.045-0.036-0.113,0.009-0.153
					c0.123-0.109,0.239-0.224,0.344-0.342c0.04-0.045,0.109-0.048,0.153-0.008C11.304,8.057,11.316,8.086,11.316,8.116z
					 M10.574,8.776c0,0.034-0.016,0.067-0.045,0.088c-0.134,0.097-0.277,0.19-0.425,0.276c-0.052,0.03-0.118,0.013-0.148-0.038
					c-0.03-0.051-0.013-0.118,0.038-0.148c0.142-0.084,0.28-0.173,0.409-0.266c0.049-0.035,0.116-0.024,0.151,0.025
					C10.567,8.732,10.574,8.754,10.574,8.776z M9.718,9.281c0,0.04-0.023,0.079-0.061,0.098c-0.148,0.072-0.304,0.14-0.463,0.203
					C9.139,9.604,9.076,9.577,9.054,9.521C9.032,9.466,9.059,9.403,9.115,9.381c0.154-0.061,0.305-0.127,0.448-0.197
					c0.054-0.026,0.119-0.003,0.145,0.05C9.715,9.25,9.718,9.266,9.718,9.281z M8.795,9.65c0,0.046-0.029,0.088-0.075,0.103
					C8.564,9.804,8.402,9.851,8.237,9.895C8.179,9.91,8.12,9.875,8.105,9.818C8.089,9.76,8.124,9.7,8.182,9.685
					c0.161-0.042,0.319-0.089,0.471-0.138C8.71,9.528,8.771,9.559,8.79,9.616C8.793,9.628,8.795,9.639,8.795,9.65z M7.834,9.904
					c0,0.05-0.035,0.095-0.086,0.106c-0.16,0.034-0.326,0.065-0.494,0.092c-0.059,0.01-0.115-0.03-0.124-0.089
					C7.12,9.954,7.16,9.898,7.219,9.889c0.164-0.027,0.327-0.057,0.484-0.09c0.059-0.012,0.116,0.025,0.128,0.084
					C7.833,9.89,7.834,9.897,7.834,9.904z M6.853,10.066c0,0.054-0.04,0.101-0.095,0.107c-0.162,0.02-0.33,0.037-0.499,0.052
					c-0.06,0.005-0.112-0.039-0.117-0.099c-0.005-0.06,0.039-0.112,0.099-0.117c0.166-0.014,0.331-0.031,0.491-0.051
					c0.059-0.007,0.114,0.035,0.121,0.094C6.852,10.057,6.853,10.062,6.853,10.066z M5.861,10.152c0,0.058-0.045,0.105-0.103,0.108
					c-0.105,0.005-0.211,0.007-0.315,0.007c-0.063,0-0.127-0.001-0.191-0.003c-0.06-0.002-0.107-0.052-0.105-0.111
					c0.002-0.06,0.052-0.107,0.111-0.105c0.061,0.002,0.123,0.003,0.184,0.003c0.101,0,0.204-0.002,0.305-0.007
					c0.06-0.003,0.111,0.043,0.113,0.103C5.861,10.148,5.861,10.15,5.861,10.152z M4.867,10.123c0,0.004,0,0.008-0.001,0.012
					c-0.006,0.06-0.06,0.103-0.119,0.096c-0.167-0.018-0.335-0.042-0.501-0.072c-0.059-0.011-0.098-0.067-0.087-0.126
					c0.011-0.059,0.067-0.098,0.126-0.087c0.16,0.029,0.323,0.053,0.484,0.07C4.826,10.021,4.867,10.068,4.867,10.123z M3.889,9.943
					c0,0.009-0.001,0.018-0.004,0.028c-0.015,0.058-0.075,0.092-0.132,0.077c-0.162-0.043-0.325-0.092-0.484-0.147
					C3.213,9.881,3.183,9.82,3.202,9.763c0.02-0.057,0.081-0.087,0.138-0.067c0.154,0.053,0.312,0.101,0.468,0.142
					C3.857,9.851,3.889,9.895,3.889,9.943z M2.949,9.619c0,0.014-0.003,0.029-0.009,0.043c-0.024,0.055-0.087,0.08-0.142,0.057
					C2.644,9.652,2.49,9.579,2.341,9.501C2.288,9.474,2.267,9.408,2.295,9.355c0.028-0.053,0.093-0.074,0.146-0.046
					c0.144,0.075,0.293,0.146,0.442,0.21C2.925,9.537,2.949,9.577,2.949,9.619z M2.067,9.16c0,0.019-0.005,0.039-0.016,0.057
					C2.019,9.268,1.952,9.283,1.901,9.252C1.758,9.164,1.617,9.069,1.481,8.971C1.432,8.936,1.421,8.869,1.457,8.82
					c0.035-0.049,0.103-0.059,0.151-0.024C1.739,8.89,1.876,8.982,2.015,9.067C2.048,9.088,2.067,9.123,2.067,9.16z M1.26,8.577
					c0,0.025-0.008,0.049-0.025,0.07C1.196,8.693,1.128,8.699,1.082,8.66C0.952,8.551,0.826,8.436,0.708,8.32
					C0.665,8.278,0.665,8.209,0.707,8.166C0.749,8.124,0.817,8.123,0.86,8.165c0.115,0.113,0.236,0.224,0.362,0.329
					C1.247,8.516,1.26,8.547,1.26,8.577z"/>
			</g>
		</g>
		<g>
			<g>
				<path fill="#D32B1A" d="M11.916,6.942c-0.06-0.002-0.089-0.078-0.072-0.135c0.041-0.135,0.053-0.216,0.053-0.217
					c0.006-0.044,0.037-0.078,0.077-0.089C11.988,6.496,11.931,6.942,11.916,6.942z"/>
			</g>
		</g>
	</g>
	<g>
		<g>
			<g>
				<path fill="#C6C6C6" d="M0.536,7.985c0,0.031-0.013,0.061-0.038,0.082C0.453,8.107,0.365,8.093,0.345,8.037
					c-0.011-0.03-0.104-0.326-0.102-0.341c0.008-0.059,0.08-0.01,0.117,0.037c0.048,0.061,0.098,0.122,0.15,0.182
					C0.527,7.935,0.536,7.96,0.536,7.985z"/>
			</g>
		</g>
		<g>
			<g>
				<path fill="#C6C6C6" d="M11.795,7.561c-0.062,0.113-0.131,0.225-0.207,0.334c-0.034,0.049-0.102,0.061-0.151,0.027
					c-0.049-0.034-0.061-0.102-0.027-0.151c0.093-0.135,0.176-0.274,0.247-0.414c0.027-0.053,0.092-0.075,0.146-0.048
					c0.019,0.01,0.034,0.024,0.044,0.041C11.857,7.366,11.814,7.525,11.795,7.561z M11.299,8.223c0,0.026-0.009,0.052-0.028,0.072
					c-0.111,0.124-0.233,0.245-0.362,0.359c-0.045,0.04-0.113,0.036-0.153-0.009c-0.04-0.045-0.036-0.113,0.009-0.153
					c0.123-0.109,0.238-0.224,0.344-0.342c0.04-0.045,0.109-0.048,0.153-0.008C11.287,8.163,11.299,8.193,11.299,8.223z
					 M10.557,8.883c0,0.034-0.016,0.067-0.045,0.088c-0.134,0.097-0.277,0.19-0.425,0.277c-0.052,0.03-0.118,0.013-0.148-0.038
					c-0.03-0.051-0.013-0.118,0.038-0.148c0.142-0.084,0.28-0.173,0.409-0.266c0.049-0.035,0.116-0.024,0.151,0.025
					C10.551,8.839,10.557,8.861,10.557,8.883z M9.702,9.388c0,0.04-0.023,0.079-0.061,0.098c-0.148,0.072-0.304,0.14-0.463,0.203
					C9.122,9.711,9.059,9.684,9.037,9.628C9.015,9.572,9.042,9.509,9.098,9.487C9.252,9.426,9.403,9.36,9.546,9.291
					C9.6,9.265,9.665,9.287,9.691,9.341C9.698,9.356,9.702,9.372,9.702,9.388z M8.778,9.757c0,0.046-0.029,0.088-0.075,0.103
					C8.547,9.91,8.385,9.958,8.22,10.001c-0.058,0.015-0.117-0.019-0.132-0.077C8.073,9.866,8.107,9.807,8.165,9.792
					C8.326,9.75,8.484,9.703,8.636,9.654c0.057-0.019,0.118,0.013,0.137,0.07C8.777,9.734,8.778,9.746,8.778,9.757z M7.817,10.011
					c0,0.05-0.035,0.095-0.086,0.106c-0.16,0.034-0.326,0.065-0.494,0.092c-0.059,0.01-0.115-0.03-0.124-0.089
					c-0.01-0.059,0.03-0.115,0.089-0.124c0.164-0.027,0.327-0.057,0.484-0.09C7.745,9.893,7.802,9.93,7.815,9.989
					C7.816,9.996,7.817,10.004,7.817,10.011z M6.836,10.173c0,0.054-0.04,0.101-0.095,0.107c-0.162,0.02-0.33,0.037-0.499,0.052
					c-0.06,0.005-0.112-0.039-0.117-0.099c-0.005-0.06,0.039-0.112,0.099-0.117c0.166-0.014,0.331-0.031,0.491-0.051
					c0.059-0.007,0.113,0.035,0.121,0.094C6.836,10.164,6.836,10.168,6.836,10.173z M5.845,10.258c0,0.058-0.045,0.105-0.103,0.108
					c-0.105,0.005-0.211,0.007-0.315,0.007c-0.063,0-0.127-0.001-0.191-0.003C5.176,10.37,5.128,10.32,5.13,10.26
					c0.002-0.06,0.052-0.107,0.111-0.105c0.061,0.002,0.123,0.003,0.184,0.003c0.101,0,0.204-0.002,0.305-0.007
					c0.06-0.003,0.111,0.043,0.113,0.103C5.845,10.255,5.845,10.257,5.845,10.258z M4.851,10.23c0,0.004,0,0.008-0.001,0.012
					c-0.006,0.06-0.06,0.103-0.119,0.096c-0.167-0.018-0.335-0.042-0.501-0.072c-0.059-0.011-0.098-0.067-0.087-0.126
					c0.011-0.059,0.067-0.098,0.126-0.087c0.16,0.029,0.323,0.053,0.484,0.07C4.809,10.128,4.851,10.175,4.851,10.23z M3.873,10.05
					c0,0.009-0.001,0.018-0.004,0.028c-0.015,0.058-0.075,0.092-0.132,0.077c-0.162-0.043-0.325-0.092-0.484-0.147
					C3.196,9.988,3.166,9.926,3.186,9.87c0.02-0.057,0.081-0.087,0.138-0.067c0.154,0.053,0.312,0.101,0.468,0.142
					C3.84,9.958,3.873,10.002,3.873,10.05z M2.933,9.725c0,0.014-0.003,0.029-0.009,0.043C2.9,9.823,2.836,9.849,2.781,9.825
					C2.627,9.759,2.474,9.686,2.325,9.608C2.271,9.581,2.251,9.515,2.278,9.462c0.028-0.053,0.093-0.074,0.146-0.046
					c0.144,0.075,0.293,0.146,0.442,0.21C2.908,9.643,2.933,9.683,2.933,9.725z M2.05,9.267c0,0.019-0.005,0.039-0.016,0.057
					C2.002,9.374,1.936,9.39,1.885,9.359C1.741,9.27,1.6,9.176,1.464,9.078C1.416,9.043,1.405,8.975,1.44,8.927
					c0.035-0.049,0.103-0.059,0.151-0.024C1.723,8.997,1.86,9.089,1.998,9.174C2.032,9.195,2.05,9.23,2.05,9.267z M1.244,8.684
					c0,0.025-0.008,0.049-0.025,0.07C1.18,8.8,1.111,8.806,1.065,8.767C0.936,8.658,0.81,8.543,0.691,8.426
					C0.648,8.384,0.648,8.316,0.69,8.273C0.732,8.23,0.801,8.23,0.843,8.272C0.958,8.385,1.08,8.496,1.205,8.601
					C1.23,8.623,1.244,8.653,1.244,8.684z"/>
			</g>
		</g>
		<g>
			<g>
				<path fill="#C6C6C6" d="M11.912,7.044c-0.06-0.002-0.089-0.078-0.072-0.135c0.041-0.135,0.053-0.216,0.053-0.217
					c0.006-0.044,0.037-0.078,0.077-0.089C11.984,6.599,11.927,7.045,11.912,7.044z"/>
			</g>
		</g>
	</g>
	<g>
		<g>
			<g>
				<path fill="#D32B1A" d="M0.288,6.574c0,0.027-0.01,0.054-0.03,0.075c-0.042,0.043-0.11,0.044-0.153,0.003
					c-0.02-0.019-0.046-0.033-0.059-0.057C0.034,6.574,0.018,6.3,0.018,6.3C0.04,6.303,0.061,6.312,0.079,6.328
					C0.136,6.381,0.197,6.44,0.255,6.496C0.277,6.517,0.288,6.545,0.288,6.574z"/>
			</g>
		</g>
		<g>
			<g>
				<path fill="#D32B1A" d="M11.884,5.704c0,0.015-0.003,0.03-0.01,0.045c-0.067,0.148-0.144,0.295-0.229,0.439
					c-0.031,0.051-0.097,0.068-0.149,0.038c-0.051-0.031-0.068-0.097-0.038-0.149C11.54,5.941,11.613,5.8,11.677,5.66
					c0.025-0.055,0.089-0.079,0.143-0.054C11.86,5.624,11.884,5.663,11.884,5.704z M11.392,6.535c0,0.023-0.007,0.045-0.021,0.065
					c-0.097,0.131-0.203,0.259-0.314,0.381c-0.04,0.044-0.109,0.047-0.153,0.007c-0.044-0.04-0.047-0.109-0.007-0.153
					c0.106-0.117,0.208-0.239,0.301-0.364c0.036-0.048,0.104-0.058,0.152-0.022C11.377,6.469,11.392,6.502,11.392,6.535z
					 M10.742,7.248c0,0.029-0.012,0.059-0.035,0.08c-0.12,0.109-0.247,0.215-0.379,0.315c-0.048,0.036-0.116,0.027-0.152-0.021
					c-0.036-0.048-0.027-0.116,0.021-0.152c0.127-0.096,0.249-0.198,0.364-0.303c0.044-0.04,0.113-0.037,0.153,0.007
					C10.733,7.196,10.742,7.222,10.742,7.248z M9.974,7.833c0,0.036-0.018,0.071-0.05,0.091C9.789,8.011,9.646,8.094,9.5,8.172
					C9.447,8.201,9.382,8.181,9.353,8.128C9.325,8.075,9.345,8.01,9.398,7.981c0.141-0.076,0.279-0.156,0.41-0.24
					c0.05-0.032,0.117-0.017,0.15,0.033C9.969,7.793,9.974,7.813,9.974,7.833z M9.124,8.29c0,0.041-0.024,0.081-0.064,0.099
					C8.914,8.454,8.762,8.517,8.607,8.575c-0.056,0.021-0.119-0.007-0.14-0.063c-0.021-0.056,0.007-0.118,0.063-0.14
					c0.15-0.056,0.299-0.117,0.44-0.181c0.055-0.025,0.119,0,0.143,0.054C9.121,8.26,9.124,8.275,9.124,8.29z M8.22,8.63
					c0,0.046-0.03,0.089-0.076,0.103C7.991,8.78,7.833,8.825,7.673,8.865C7.615,8.88,7.556,8.845,7.542,8.787
					C7.527,8.729,7.562,8.67,7.62,8.655c0.156-0.039,0.31-0.083,0.459-0.129C8.137,8.508,8.198,8.54,8.215,8.597
					C8.219,8.608,8.22,8.619,8.22,8.63z M7.284,8.867c0,0.051-0.036,0.096-0.087,0.106C7.041,9.005,6.88,9.034,6.717,9.059
					c-0.059,0.009-0.115-0.031-0.124-0.09C6.584,8.91,6.625,8.855,6.684,8.845C6.843,8.82,7.002,8.792,7.154,8.761
					C7.213,8.749,7.27,8.787,7.282,8.846C7.284,8.853,7.284,8.86,7.284,8.867z M6.33,9.017c0,0.055-0.041,0.102-0.097,0.108
					C6.069,9.142,5.905,9.153,5.744,9.16c-0.06,0.002-0.11-0.044-0.113-0.104c-0.003-0.059,0.044-0.11,0.104-0.113
					C5.892,8.937,6.051,8.925,6.21,8.909c0.06-0.006,0.113,0.037,0.119,0.096C6.33,9.009,6.33,9.013,6.33,9.017z M5.365,9.053
					c0,0.001,0,0.002,0,0.003c-0.002,0.06-0.052,0.107-0.112,0.105c-0.164-0.005-0.329-0.016-0.49-0.033
					C4.704,9.123,4.66,9.07,4.667,9.01c0.006-0.06,0.06-0.103,0.119-0.097C4.942,8.93,5.101,8.94,5.26,8.945
					C5.319,8.947,5.365,8.995,5.365,9.053z M4.405,8.953c0,0.006-0.001,0.013-0.002,0.019C4.392,9.031,4.336,9.07,4.277,9.06
					c-0.161-0.029-0.322-0.065-0.48-0.106C3.739,8.939,3.705,8.88,3.72,8.822c0.015-0.058,0.074-0.093,0.132-0.078
					c0.152,0.04,0.308,0.074,0.464,0.102C4.368,8.856,4.405,8.902,4.405,8.953z M3.47,8.709c0,0.012-0.002,0.024-0.006,0.035
					C3.445,8.801,3.383,8.831,3.327,8.812C3.173,8.759,3.019,8.699,2.869,8.635c-0.055-0.024-0.08-0.087-0.057-0.142
					c0.024-0.055,0.087-0.08,0.142-0.057C3.1,8.498,3.249,8.556,3.397,8.607C3.442,8.622,3.47,8.664,3.47,8.709z M2.583,8.329
					c0,0.017-0.004,0.034-0.012,0.05C2.543,8.431,2.478,8.452,2.425,8.425C2.282,8.351,2.138,8.27,1.997,8.184
					C1.946,8.153,1.93,8.087,1.961,8.036C1.992,7.984,2.058,7.968,2.11,7.999C2.246,8.082,2.386,8.16,2.524,8.232
					C2.562,8.251,2.583,8.289,2.583,8.329z M1.757,7.828c0,0.021-0.006,0.043-0.019,0.062C1.703,7.939,1.636,7.951,1.586,7.917
					C1.456,7.826,1.323,7.728,1.193,7.626C1.146,7.589,1.138,7.52,1.175,7.473C1.212,7.426,1.28,7.418,1.327,7.455
					c0.127,0.1,0.256,0.195,0.383,0.284C1.741,7.76,1.757,7.794,1.757,7.828z M0.996,7.232c0,0.025-0.009,0.051-0.027,0.071
					C0.93,7.348,0.862,7.353,0.816,7.314c-0.116-0.1-0.234-0.207-0.362-0.327C0.411,6.946,0.409,6.877,0.45,6.834
					c0.041-0.044,0.11-0.046,0.153-0.005C0.729,6.947,0.845,7.052,0.958,7.15C0.983,7.172,0.996,7.202,0.996,7.232z"/>
			</g>
		</g>
		<g>
			<g>
				<path fill="#D32B1A" d="M11.961,5.352c-0.019,0.009-0.043,0.007-0.065,0.001c-0.057-0.017-0.09-0.078-0.073-0.135
					c0.041-0.137,0.054-0.219,0.055-0.22c0.004-0.022,0.01-0.047,0.028-0.057C11.925,4.931,11.97,5.348,11.961,5.352z"/>
			</g>
		</g>
	</g>
	<g>
		<g>
			<g>
				<path fill="#C6C6C6" d="M0.283,6.674c0,0.027-0.01,0.054-0.03,0.075c-0.042,0.043-0.11,0.044-0.153,0.003
					C0.08,6.733,0.053,6.719,0.04,6.695C0.029,6.674,0.013,6.401,0.013,6.401c0.022,0.003,0.043,0.012,0.061,0.028
					C0.131,6.482,0.192,6.54,0.25,6.596C0.272,6.617,0.283,6.646,0.283,6.674z"/>
			</g>
		</g>
		<g>
			<g>
				<path fill="#C6C6C6" d="M11.879,5.805c0,0.015-0.003,0.03-0.01,0.045c-0.067,0.148-0.144,0.296-0.229,0.439
					c-0.031,0.051-0.097,0.068-0.149,0.038c-0.051-0.031-0.068-0.097-0.038-0.149c0.081-0.137,0.155-0.277,0.218-0.418
					c0.025-0.055,0.089-0.079,0.143-0.054C11.855,5.724,11.879,5.764,11.879,5.805z M11.386,6.635c0,0.023-0.007,0.045-0.021,0.065
					c-0.097,0.131-0.203,0.259-0.314,0.381c-0.04,0.044-0.109,0.047-0.153,0.007c-0.044-0.04-0.047-0.109-0.007-0.153
					c0.106-0.117,0.208-0.239,0.301-0.364c0.036-0.048,0.104-0.058,0.152-0.022C11.371,6.569,11.386,6.602,11.386,6.635z
					 M10.737,7.349c0,0.029-0.012,0.059-0.035,0.08c-0.12,0.109-0.247,0.215-0.379,0.315c-0.048,0.036-0.116,0.027-0.152-0.021
					c-0.036-0.048-0.027-0.116,0.021-0.152c0.127-0.096,0.249-0.198,0.364-0.303c0.044-0.04,0.113-0.037,0.153,0.007
					C10.728,7.297,10.737,7.323,10.737,7.349z M9.969,7.933c0,0.036-0.018,0.071-0.05,0.091c-0.136,0.086-0.278,0.17-0.424,0.248
					C9.442,8.301,9.377,8.281,9.348,8.229C9.32,8.176,9.34,8.11,9.393,8.082c0.141-0.076,0.279-0.156,0.41-0.24
					c0.05-0.032,0.117-0.017,0.15,0.033C9.964,7.893,9.969,7.913,9.969,7.933z M9.119,8.39c0,0.041-0.024,0.081-0.064,0.099
					C8.909,8.555,8.757,8.617,8.602,8.675c-0.056,0.021-0.119-0.007-0.14-0.063C8.441,8.556,8.47,8.493,8.526,8.472
					c0.15-0.056,0.299-0.117,0.44-0.181c0.055-0.025,0.119,0,0.143,0.054C9.116,8.36,9.119,8.375,9.119,8.39z M8.215,8.73
					c0,0.046-0.03,0.089-0.076,0.103c-0.153,0.047-0.311,0.092-0.47,0.132C7.61,8.98,7.551,8.945,7.537,8.887
					C7.522,8.829,7.557,8.77,7.615,8.755c0.156-0.039,0.31-0.083,0.459-0.129C8.132,8.609,8.193,8.641,8.21,8.698
					C8.214,8.709,8.215,8.719,8.215,8.73z M7.279,8.968c0,0.05-0.035,0.096-0.087,0.106C7.036,9.105,6.875,9.134,6.712,9.16
					C6.653,9.169,6.598,9.129,6.588,9.07C6.579,9.01,6.619,8.955,6.679,8.946c0.159-0.025,0.318-0.053,0.471-0.084
					c0.059-0.012,0.116,0.026,0.128,0.085C7.279,8.953,7.279,8.961,7.279,8.968z M6.325,9.117c0,0.055-0.041,0.102-0.097,0.108
					C6.064,9.242,5.9,9.254,5.739,9.26c-0.06,0.002-0.11-0.044-0.113-0.104C5.623,9.097,5.67,9.046,5.73,9.044
					c0.156-0.006,0.316-0.018,0.475-0.034c0.06-0.006,0.113,0.037,0.119,0.096C6.325,9.109,6.325,9.113,6.325,9.117z M5.36,9.154
					c0,0.001,0,0.002,0,0.003c-0.002,0.06-0.052,0.107-0.112,0.105c-0.164-0.005-0.329-0.016-0.49-0.033
					C4.699,9.223,4.655,9.17,4.662,9.11c0.006-0.06,0.059-0.103,0.119-0.097C4.936,9.03,5.096,9.041,5.255,9.046
					C5.313,9.047,5.36,9.096,5.36,9.154z M4.4,9.053c0,0.006-0.001,0.013-0.002,0.019C4.387,9.132,4.331,9.171,4.272,9.16
					C4.111,9.131,3.95,9.095,3.792,9.054C3.734,9.039,3.7,8.98,3.715,8.922C3.73,8.864,3.789,8.829,3.847,8.845
					c0.152,0.04,0.308,0.074,0.464,0.102C4.363,8.956,4.4,9.002,4.4,9.053z M3.465,8.81c0,0.012-0.002,0.024-0.006,0.035
					C3.44,8.902,3.378,8.932,3.322,8.912C3.168,8.859,3.014,8.8,2.864,8.735c-0.055-0.024-0.08-0.087-0.057-0.142
					c0.024-0.055,0.087-0.08,0.142-0.057c0.146,0.063,0.295,0.12,0.443,0.171C3.437,8.723,3.465,8.765,3.465,8.81z M2.578,8.429
					c0,0.017-0.004,0.034-0.012,0.05C2.538,8.532,2.473,8.553,2.42,8.525C2.277,8.451,2.133,8.37,1.992,8.285
					C1.941,8.254,1.925,8.187,1.956,8.136C1.987,8.085,2.053,8.069,2.104,8.1c0.137,0.083,0.276,0.161,0.415,0.233
					C2.557,8.352,2.578,8.39,2.578,8.429z M1.752,7.929c0,0.021-0.006,0.043-0.019,0.062C1.698,8.039,1.63,8.052,1.581,8.017
					C1.45,7.926,1.318,7.828,1.188,7.726C1.141,7.689,1.133,7.621,1.17,7.574c0.037-0.047,0.105-0.055,0.152-0.018
					c0.127,0.1,0.256,0.195,0.383,0.284C1.735,7.861,1.752,7.894,1.752,7.929z M0.991,7.333c0,0.025-0.009,0.05-0.027,0.071
					c-0.039,0.045-0.108,0.05-0.153,0.011c-0.116-0.1-0.234-0.207-0.362-0.327C0.406,7.046,0.404,6.978,0.445,6.934
					c0.041-0.044,0.11-0.046,0.153-0.005C0.724,7.047,0.84,7.152,0.953,7.251C0.978,7.272,0.991,7.302,0.991,7.333z"/>
			</g>
		</g>
		<g>
			<g>
				<path fill="#C6C6C6" d="M11.976,5.453c-0.019,0.009-0.043,0.007-0.065,0.001c-0.057-0.017-0.09-0.078-0.073-0.135
					c0.041-0.137,0.054-0.219,0.055-0.22c0.004-0.022,0.01-0.047,0.028-0.057C11.939,5.032,11.984,5.449,11.976,5.453z"/>
			</g>
		</g>
	</g>
</g>
</svg>
