<?xml version="1.0" encoding="utf-8"?>
<!-- Generator: Adobe Illustrator 23.1.0, SVG Export Plug-In . SVG Version: 6.00 Build 0)  -->
<svg version="1.1" id="Layer_1" xmlns="http://www.w3.org/2000/svg" xmlns:xlink="http://www.w3.org/1999/xlink" x="0px" y="0px"
	 viewBox="0 0 184 65" enable-background="new 0 0 184 65" xml:space="preserve">
<g>
	<g>
		<path fill="#FFFFFF" d="M60.836,16.761c-0.801-0.412-1.675-0.59-2.541-0.798c-0.119-0.029-0.146,0.009-0.171,0.113
			c-0.099,0.418-0.208,0.835-0.312,1.252c-0.154,0.618-0.307,1.236-0.464,1.866c0.045,0.019,0.072,0.034,0.101,0.041
			c0.71,0.18,1.417,0.372,2.151,0.436c0.498,0.043,0.987,0.037,1.471-0.119c0.842-0.272,1.158-1.342,0.692-2.023
			C61.529,17.185,61.2,16.949,60.836,16.761z"/>
		<path fill="#FFFFFF" d="M61.289,11.995c-0.587-0.274-1.217-0.404-1.842-0.554c-0.123-0.029-0.17-0.004-0.2,0.119
			c-0.219,0.898-0.443,1.794-0.671,2.689c-0.026,0.102,0.008,0.137,0.098,0.159c0.163,0.038,0.323,0.082,0.485,0.122
			c0.575,0.142,1.154,0.262,1.827,0.239c0.107-0.017,0.288-0.036,0.465-0.077c0.816-0.185,1.245-1.142,0.842-1.871
			C62.067,12.415,61.694,12.184,61.289,11.995z"/>
		<path fill="#FFFFFF" d="M58.86,1.784c-7.574,0-13.714,6.14-13.714,13.714s6.14,13.714,13.714,13.714s13.714-6.14,13.714-13.714
			S66.434,1.784,58.86,1.784z M65.345,14.125c-0.115,0.476-0.311,0.909-0.667,1.259c-0.274,0.269-0.598,0.449-0.96,0.566
			c-0.052,0.017-0.104,0.034-0.175,0.056c0.178,0.117,0.346,0.218,0.504,0.332c0.515,0.372,0.885,0.847,1.019,1.481
			c0.104,0.493,0.053,0.98-0.078,1.458c-0.16,0.587-0.396,1.139-0.799,1.607c-0.471,0.548-1.079,0.848-1.78,0.964
			c-0.892,0.148-1.779,0.055-2.66-0.104c-0.151-0.027-0.207,0.003-0.242,0.148c-0.17,0.709-0.348,1.416-0.523,2.124
			c-0.048,0.194-0.049,0.196-0.242,0.148c-0.403-0.1-0.804-0.206-1.209-0.299c-0.125-0.029-0.135-0.086-0.108-0.194
			c0.183-0.725,0.361-1.452,0.545-2.177c0.018-0.073,0.034-0.133-0.056-0.157c-0.352-0.092-0.704-0.181-1.071-0.274
			c-0.1,0.4-0.196,0.786-0.293,1.172c-0.099,0.392-0.201,0.783-0.294,1.177c-0.023,0.097-0.056,0.121-0.156,0.094
			c-0.426-0.111-0.854-0.215-1.282-0.317c-0.112-0.027-0.129-0.08-0.102-0.186c0.185-0.726,0.364-1.454,0.544-2.182
			c0.013-0.053,0.023-0.107,0.037-0.177c-1.007-0.255-2.004-0.507-3.022-0.764c0.071-0.169,0.132-0.317,0.196-0.464
			c0.165-0.382,0.334-0.762,0.494-1.145c0.049-0.117,0.107-0.145,0.232-0.11c0.316,0.089,0.637,0.163,0.957,0.237
			c0.328,0.076,0.586-0.079,0.669-0.409c0.555-2.217,1.109-4.435,1.66-6.653c0.09-0.361-0.125-0.733-0.512-0.855
			c-0.376-0.119-0.761-0.206-1.143-0.306c-0.067-0.017-0.13-0.023-0.104-0.124c0.126-0.495,0.249-0.991,0.373-1.486
			c0.005-0.018,0.018-0.034,0.033-0.061c0.472,0.118,0.942,0.236,1.412,0.352c0.481,0.119,0.963,0.231,1.442,0.356
			c0.122,0.032,0.168,0.013,0.199-0.115c0.174-0.722,0.361-1.442,0.537-2.163c0.029-0.12,0.072-0.155,0.197-0.122
			c0.415,0.112,0.832,0.217,1.25,0.314c0.116,0.027,0.131,0.072,0.104,0.178c-0.179,0.707-0.353,1.415-0.528,2.123
			c-0.012,0.048-0.018,0.097-0.029,0.158c0.366,0.088,0.718,0.176,1.073,0.251c0.029,0.006,0.1-0.071,0.112-0.12
			c0.142-0.549,0.277-1.1,0.414-1.651c0.042-0.167,0.084-0.334,0.124-0.501c0.019-0.078,0.059-0.109,0.143-0.087
			c0.441,0.112,0.882,0.22,1.323,0.332c0.033,0.008,0.063,0.03,0.102,0.05c-0.135,0.544-0.268,1.083-0.402,1.622
			c-0.055,0.221-0.106,0.442-0.17,0.66c-0.037,0.125-0.009,0.178,0.118,0.233c0.482,0.21,0.968,0.418,1.429,0.669
			c0.454,0.247,0.834,0.595,1.11,1.042C65.485,12.727,65.517,13.414,65.345,14.125z"/>
	</g>
	<g>
		<path fill="#FFFFFF" d="M92.764,13.817c0.084-0.068,0.233-0.174,0.367-0.296c0.619-0.563,0.52-1.607-0.191-2.043
			c-0.397-0.243-0.835-0.26-1.281-0.225c-0.645,0.051-1.258,0.248-1.875,0.426c-0.121,0.035-0.15,0.08-0.116,0.203
			c0.252,0.889,0.499,1.779,0.743,2.671c0.028,0.102,0.074,0.116,0.163,0.09c0.16-0.047,0.322-0.088,0.482-0.133
			C91.628,14.349,92.19,14.168,92.764,13.817z"/>
		<path fill="#FFFFFF" d="M94.802,15.833c-0.374-0.183-0.776-0.227-1.186-0.211c-0.9,0.036-1.748,0.313-2.604,0.559
			c-0.118,0.034-0.123,0.08-0.093,0.183c0.12,0.413,0.23,0.829,0.346,1.243c0.171,0.614,0.342,1.227,0.517,1.852
			c0.049-0.006,0.079-0.006,0.108-0.014c0.706-0.193,1.416-0.375,2.086-0.681c0.454-0.208,0.876-0.454,1.221-0.829
			C95.796,17.283,95.542,16.196,94.802,15.833z"/>
		<path fill="#FFFFFF" d="M91.274,1.784c-7.574,0-13.714,6.14-13.714,13.714s6.14,13.714,13.714,13.714s13.714-6.14,13.714-13.714
			S98.848,1.784,91.274,1.784z M98.568,17.557c-0.14,0.709-0.52,1.27-1.073,1.717c-0.703,0.569-1.52,0.925-2.365,1.221
			c-0.145,0.051-0.179,0.104-0.137,0.248c0.202,0.701,0.396,1.404,0.592,2.106c0.054,0.193,0.054,0.194-0.138,0.248
			c-0.4,0.112-0.802,0.218-1.2,0.336c-0.123,0.036-0.16-0.008-0.189-0.115c-0.198-0.721-0.402-1.441-0.6-2.163
			c-0.02-0.072-0.036-0.133-0.126-0.109c-0.351,0.094-0.701,0.19-1.067,0.289c0.11,0.397,0.217,0.78,0.323,1.164
			c0.108,0.39,0.212,0.78,0.324,1.169c0.028,0.096,0.01,0.133-0.089,0.159c-0.425,0.113-0.849,0.234-1.271,0.356
			c-0.11,0.032-0.151-0.006-0.18-0.112c-0.198-0.723-0.401-1.445-0.603-2.166c-0.015-0.053-0.033-0.105-0.055-0.172
			c-1.001,0.275-1.993,0.547-3.006,0.826c-0.021-0.182-0.041-0.341-0.059-0.501c-0.045-0.413-0.085-0.827-0.135-1.24
			c-0.015-0.126,0.021-0.179,0.148-0.21c0.319-0.079,0.634-0.172,0.95-0.265c0.323-0.095,0.471-0.357,0.38-0.685
			c-0.61-2.202-1.222-4.404-1.837-6.606c-0.1-0.358-0.471-0.576-0.867-0.491c-0.385,0.082-0.764,0.196-1.145,0.298
			c-0.066,0.018-0.125,0.044-0.152-0.056c-0.134-0.493-0.272-0.984-0.408-1.477c-0.005-0.018-0.001-0.039-0.001-0.07
			c0.469-0.13,0.936-0.259,1.402-0.39c0.477-0.134,0.952-0.274,1.43-0.401c0.122-0.032,0.153-0.071,0.116-0.198
			c-0.204-0.714-0.397-1.432-0.6-2.147C86.897,8,86.917,7.948,87.042,7.916c0.416-0.107,0.831-0.222,1.243-0.344
			c0.115-0.034,0.15-0.002,0.178,0.104c0.193,0.703,0.391,1.405,0.588,2.107c0.013,0.047,0.032,0.093,0.052,0.152
			c0.361-0.104,0.711-0.201,1.057-0.311c0.028-0.009,0.052-0.111,0.039-0.16c-0.147-0.548-0.301-1.094-0.454-1.64
			c-0.046-0.166-0.092-0.332-0.139-0.498c-0.022-0.077-0.002-0.123,0.081-0.146c0.438-0.12,0.876-0.243,1.314-0.364
			c0.033-0.009,0.069-0.004,0.113-0.006c0.151,0.539,0.301,1.074,0.45,1.609c0.061,0.219,0.126,0.437,0.177,0.658
			c0.03,0.127,0.08,0.159,0.218,0.145c0.523-0.055,1.048-0.114,1.573-0.123c0.517-0.009,1.019,0.106,1.48,0.359
			c0.659,0.362,1.025,0.944,1.227,1.647c0.135,0.471,0.177,0.944,0.04,1.425c-0.105,0.369-0.299,0.685-0.556,0.966
			c-0.037,0.04-0.074,0.081-0.124,0.135c0.213,0.014,0.408,0.019,0.602,0.04c0.631,0.069,1.187,0.3,1.617,0.786
			c0.334,0.377,0.529,0.826,0.651,1.307C98.62,16.354,98.687,16.951,98.568,17.557z"/>
	</g>
	<g>
		<polygon fill="#FFFFFF" points="125.11,45.795 125.11,45.802 125.116,45.796 		"/>
		<path fill="#FFFFFF" d="M125.108,45.776c0-0.002,0-0.003,0-0.005c-0.003,0.005-0.008,0.008-0.012,0.012
			C125.099,45.78,125.104,45.779,125.108,45.776z"/>
		<path fill="#FFFFFF" d="M125.14,35.093c-7.574,0-13.714,6.14-13.714,13.714c0,7.574,6.14,13.714,13.714,13.714
			c7.574,0,13.714-6.14,13.714-13.714C138.854,41.233,132.714,35.093,125.14,35.093z M132.167,50.463
			c-2.125,2.994-4.251,5.988-6.376,8.982c-0.223,0.313-0.445,0.627-0.668,0.94c-0.005,0.01-0.009,0.02-0.013,0.029
			c-0.005,0-0.01,0-0.014,0c0-0.024-0.018-0.038-0.03-0.055c-0.715-1.009-1.431-2.017-2.146-3.026
			c-0.732-1.032-1.464-2.064-2.197-3.095c-0.707-0.997-1.415-1.994-2.122-2.991c-0.186-0.261-0.371-0.523-0.556-0.784
			c-0.014-0.019-0.026-0.039-0.044-0.065c0.034,0.001,0.054,0.018,0.075,0.031c0.999,0.59,1.998,1.181,2.997,1.772
			c1.15,0.68,2.301,1.36,3.451,2.039c0.194,0.115,0.389,0.228,0.583,0.343c0.48-0.284,0.959-0.568,1.44-0.852
			c1.868-1.103,3.736-2.206,5.604-3.309c0.014-0.008,0.028-0.017,0.042-0.026c0.004,0.002,0.009,0.002,0.013,0
			C132.204,50.425,132.182,50.443,132.167,50.463z M132.22,49.028c-0.565,0.334-1.131,0.669-1.696,1.003
			c-1.779,1.052-3.557,2.103-5.336,3.155c-0.02,0.012-0.042,0.022-0.063,0.033c-0.024,0.029-0.043,0.002-0.061-0.008
			c-0.103-0.059-0.205-0.12-0.307-0.18c-2.232-1.32-4.464-2.639-6.696-3.959c-0.022-0.013-0.044-0.028-0.066-0.042
			c-0.009-0.001-0.018-0.001-0.026-0.002c0-0.005,0-0.009,0-0.014c0.004-0.001,0.009-0.001,0.013,0
			c0.105-0.172,0.211-0.344,0.315-0.517c0.596-0.988,1.191-1.975,1.786-2.963c0.639-1.061,1.278-2.122,1.918-3.184
			c0.592-0.982,1.184-1.963,1.775-2.945c0.431-0.715,0.862-1.431,1.293-2.147c0.011-0.018,0.026-0.035,0.024-0.058
			c0.005,0,0.01,0,0.014,0c0.005,0,0.01,0,0.014,0c0,0.006-0.001,0.012-0.001,0.018c0,0.005,0,0.009-0.002,0.014
			c2.341,3.885,4.683,7.77,7.024,11.656c0.024,0.04,0.057,0.077,0.066,0.125l0.006-0.002l0.005,0.004
			C132.22,49.019,132.22,49.024,132.22,49.028z"/>
	</g>
	<path fill="#FFFFFF" d="M125.168,3.474c-6.587-0.026-11.969,5.243-12.062,11.92c-0.092,6.598,5.282,12.051,11.97,12.126
		c6.584,0.074,11.999-5.296,12.081-11.981C137.149,8.892,131.855,3.5,125.168,3.474z M131.236,20.37
		c-0.111,0.424-0.242,0.843-0.337,1.27c-0.048,0.219-0.146,0.275-0.362,0.275c-2.884-0.007-5.768-0.004-8.652-0.004
		c-0.824,0-1.648,0-2.525,0c0.395-1.494,0.78-2.949,1.182-4.469c-0.595,0.238-1.13,0.452-1.732,0.693
		c0.19-0.642,0.357-1.227,0.543-1.806c0.021-0.066,0.144-0.11,0.228-0.143c0.406-0.163,0.822-0.306,1.22-0.487
		c0.119-0.054,0.246-0.193,0.28-0.318c0.612-2.255,1.214-4.513,1.806-6.773c0.063-0.238,0.145-0.338,0.413-0.335
		c1.212,0.017,2.424,0.007,3.636,0.008c0.092,0,0.183,0.011,0.318,0.02c-0.456,1.79-0.906,3.553-1.375,5.396
		c0.71-0.285,1.359-0.546,2.081-0.837c-0.105,0.359-0.233,0.657-0.274,0.966c-0.094,0.703-0.471,1.099-1.157,1.255
		c-0.312,0.071-0.612,0.21-0.905,0.346c-0.106,0.049-0.226,0.164-0.254,0.271c-0.306,1.149-0.594,2.303-0.887,3.455
		c-0.008,0.029-0.001,0.062-0.001,0.122c2.317,0.051,4.63,0.102,6.988,0.154C131.385,19.771,131.314,20.072,131.236,20.37z"/>
	<path fill="#FFFFFF" d="M91.274,35.788c-7.574,0-13.714,6.14-13.714,13.714s6.14,13.714,13.714,13.714s13.714-6.14,13.714-13.714
		S98.848,35.788,91.274,35.788z M97.053,44.839h-4.106v12.182h-3.39V44.839h-4.061v-2.856h11.557V44.839z"/>
	<path fill="#FFFFFF" d="M58.86,35.788c-7.574,0-13.714,6.14-13.714,13.714s6.14,13.714,13.714,13.714s13.714-6.14,13.714-13.714
		S66.434,35.788,58.86,35.788z M63.781,56.095l-4.958-5.808l-5.034,5.808h-2.273l6.114-6.872l-5.687-6.314h2.373l4.582,5.258
		l4.608-5.258h2.259l-5.675,6.286l6.114,6.899H63.781z"/>
</g>
</svg>
