<?xml version="1.0" encoding="utf-8"?>
<!-- Generator: Adobe Illustrator 27.1.0, SVG Export Plug-In . SVG Version: 6.00 Build 0)  -->
<svg version="1.1" id="Layer_1" xmlns="http://www.w3.org/2000/svg" xmlns:xlink="http://www.w3.org/1999/xlink" x="0px" y="0px"
	 viewBox="0 0 144 144" style="enable-background:new 0 0 144 144;" xml:space="preserve">
<style type="text/css">
	.st0{fill:#FFFFFF;}
</style>
<g>
	<path class="st0" d="M144,95.49c0.15,17-6.51,26.12-19,29c-5.59,1.29-10.32-0.66-14.71-3.78c-5.53-3.93-9.86-9.13-14.44-14.05
		c-0.45-0.48-0.88-0.97-1.29-1.48c-4.64-5.7-10.17-8.98-17.96-7.97c-4.5,0.58-9.15,0.22-13.73,0.05c-3.09-0.11-5.62,0.85-7.97,2.79
		c-4.71,3.9-8.44,8.73-12.65,13.1c-2.08,2.16-4.22,4.25-6.55,6.12c-9.35,7.53-17.88,7.56-27.17-0.06
		c-5.55-4.55-8.65-10.31-8.54-17.76c0.28-19.02,2.52-37.82,6.24-56.44c4.31-21.58,27.87-31.11,43.87-23.17
		c5.82,2.89,12.01,3.99,18.49,3.64c2.24-0.12,4.49-0.12,6.73,0c6.68,0.37,13-0.87,19.03-3.78c12.43-6.01,28.06-1.06,36.15,8.59
		c3.73,4.45,6.33,9.49,7.45,15.2C141.39,62.94,143.47,80.54,144,95.49z M40.24,78.69c3.41-0.01,5.3-2.13,5.42-6.08
		c0.21-7.2,0.21-7.2,7.32-7.37c4-0.1,6.12-1.94,6.14-5.33c0.02-3.51-2.22-5.54-6.22-5.64c-7.02-0.17-7.02-0.17-7.24-7.34
		c-0.11-3.71-2.03-5.97-5.17-6.1c-3.13-0.13-5.55,2.31-5.79,5.96c-0.11,1.68-0.1,3.37-0.03,5.05c0.08,1.84-0.77,2.51-2.52,2.44
		c-1.77-0.07-3.56-0.08-5.33,0.04c-3.18,0.22-5.64,2.74-5.58,5.59c0.06,3.06,2.32,5.19,5.7,5.32c1.59,0.06,3.18,0.09,4.77,0.02
		c2.1-0.1,3.15,0.66,2.98,2.92c-0.12,1.67-0.1,3.37,0.03,5.04C34.98,76.64,37.11,78.69,40.24,78.69z M122.46,48.88
		c0.04-4.51-3.45-8.11-7.85-8.07c-4.3,0.03-7.69,3.47-7.75,7.87c-0.06,4.52,3.38,8.04,7.83,8.02
		C119.04,56.69,122.43,53.28,122.46,48.88z M100.77,78.7c4.53,0.01,8.11-3.48,8.08-7.85c-0.03-4.28-3.51-7.69-7.91-7.75
		c-4.52-0.06-8.01,3.38-7.99,7.85C92.98,75.29,96.41,78.69,100.77,78.7z"/>
</g>
</svg>
