<?xml version="1.0" encoding="utf-8"?>
<!-- Generator: Adobe Illustrator 27.1.0, SVG Export Plug-In . SVG Version: 6.00 Build 0)  -->
<svg version="1.1" id="Layer_1" xmlns="http://www.w3.org/2000/svg" xmlns:xlink="http://www.w3.org/1999/xlink" x="0px" y="0px"
	 viewBox="0 0 144 144" style="enable-background:new 0 0 144 144;" xml:space="preserve">
<style type="text/css">
	.st0{fill:#FFFFFF;}
</style>
<g>
	<path class="st0" d="M18.06,72.24c-1.76,1.48-2.99,2.57-4.27,3.59c-3.67,2.92-7.56,2.29-11.28-1.81
		c-3.24-3.56-3.41-7.55-0.08-10.69c8.08-7.61,16.29-15.09,24.47-22.6C39.54,29.13,52.21,17.55,64.87,5.95
		c1.94-1.78,3.88-3.47,6.75-3.59c2.71-0.11,4.84,0.98,6.82,2.71c14.53,12.73,29.08,25.43,43.61,38.14
		c6.18,5.4,12.33,10.85,18.54,16.22c2.62,2.27,4.27,5,2.96,8.37c-1.51,3.85-4.26,6.77-8.47,7.89c-1.96,0.52-3.22-1.1-4.76-1.89
		c-0.8,1.03-0.45,2.09-0.45,3.05c-0.02,18.48-0.01,36.95-0.02,55.43c0,6.79-2.54,9.34-9.24,9.35c-7.93,0.01-15.86,0.02-23.8-0.01
		c-4.89-0.02-7.15-2.11-7.69-6.95c-0.48-4.28-0.21-8.58-0.24-12.87c-0.05-9.33-0.08-18.66,0.03-27.99c0.03-2.45-0.82-3.24-3.25-3.21
		c-8.3,0.12-16.61,0.13-24.91-0.01c-2.53-0.04-3.15,0.85-3.13,3.24c0.1,12.97,0.05,25.94,0.04,38.91c0,6.3-2.55,8.87-8.77,8.88
		c-7.56,0.01-15.12,0.02-22.68-0.01c-5.33-0.02-8.11-2.78-8.12-8.12c-0.02-19.22-0.01-38.45-0.01-57.67
		C18.06,74.85,18.06,73.86,18.06,72.24z"/>
</g>
</svg>
