<?xml version="1.0" encoding="utf-8"?>
<!-- Generator: Adobe Illustrator 23.1.0, SVG Export Plug-In . SVG Version: 6.00 Build 0)  -->
<svg version="1.1" id="Layer_1" xmlns="http://www.w3.org/2000/svg" xmlns:xlink="http://www.w3.org/1999/xlink" x="0px" y="0px"
	 viewBox="0 0 12 12" enable-background="new 0 0 12 12" xml:space="preserve">
<g>
	<path fill="#007F00" d="M10.415,4.408c-0.223-0.395-0.504-0.745-0.817-1.07C9.538,3.275,9.535,3.231,9.59,3.162
		c0.133-0.164,0.263-0.331,0.384-0.504c0.179-0.258,0.157-0.455-0.077-0.662C9.743,1.858,9.58,1.729,9.414,1.604
		c-0.288-0.216-0.497-0.192-0.733,0.08c-0.156,0.18-0.306,0.366-0.46,0.549C8.18,2.284,8.14,2.318,8.062,2.285
		C7.727,2.143,7.38,2.034,7.024,1.952C6.961,1.937,6.932,1.914,6.934,1.844c0.003-0.113-0.001-0.227-0.012-0.34
		C6.914,1.42,6.937,1.383,7.025,1.365c0.217-0.046,0.337-0.189,0.347-0.412c0.008-0.18,0.009-0.36,0.001-0.54
		C7.363,0.19,7.193,0.033,6.97,0.02C6.661,0.002,6.352,0.002,5.924,0.001C5.706,0.005,5.369-0.012,5.033,0.017
		C4.816,0.036,4.66,0.199,4.637,0.415c-0.019,0.18-0.015,0.359-0.004,0.539c0.011,0.182,0.102,0.33,0.261,0.369
		c0.212,0.053,0.214,0.175,0.195,0.337C5.081,1.722,5.08,1.786,5.085,1.848C5.089,1.913,5.061,1.941,5,1.949
		C4.966,1.954,4.932,1.965,4.898,1.974c-1.685,0.427-2.903,1.42-3.58,3.025c-0.516,1.223-0.53,2.479-0.059,3.723
		c0.735,1.945,2.694,3.495,5.289,3.253c0.981-0.091,1.871-0.458,2.633-1.086c1.113-0.918,1.769-2.092,1.885-3.547
		C11.148,6.297,10.93,5.32,10.415,4.408z M6.763,10.536C4.429,10.998,2.724,9.365,2.4,7.706C2.223,6.802,2.334,5.938,2.784,5.127
		c0.011-0.02,0.019-0.042,0.028-0.064c0.009-0.043,0.014-0.088,0.073-0.091c0.035,0.011,0.041,0.042,0.046,0.073
		C2.94,5.148,2.989,5.228,3.062,5.3c0.342,0.34,0.724,0.634,1.093,0.942c0.285,0.238,0.573,0.474,0.86,0.71
		C5.084,7.01,5.12,7.088,5.148,7.169c0.052,0.146,0.13,0.276,0.24,0.385c0.284,0.282,0.685,0.34,1.049,0.15
		c0.32-0.167,0.503-0.551,0.439-0.923C6.803,6.353,6.439,6.036,6.004,6.05C5.801,6.057,5.631,5.999,5.46,5.906
		C4.821,5.559,4.177,5.219,3.527,4.891C3.371,4.813,3.215,4.765,3.044,4.837C3.024,4.838,3.007,4.833,2.992,4.821
		C2.982,4.802,2.982,4.784,3,4.77C3.116,4.639,3.227,4.502,3.35,4.377C4.151,3.563,5.125,3.174,6.264,3.25
		C8.12,3.375,9.54,4.863,9.681,6.601C9.833,8.471,8.602,10.172,6.763,10.536z"/>
	<path fill="#007F00" d="M3.041,4.816c0.14-0.085,0.278-0.053,0.414,0.011c0.379,0.177,0.746,0.378,1.117,0.573
		c0.357,0.187,0.713,0.375,1.068,0.566C5.721,6.009,5.8,6.027,5.895,6.018c0.402-0.036,0.713,0.121,0.911,0.472
		c0.284,0.506,0.033,1.21-0.627,1.334c-0.473,0.089-0.9-0.172-1.058-0.648C5.086,7.074,5.027,7.002,4.947,6.936
		c-0.601-0.502-1.215-0.987-1.8-1.508c-0.113-0.1-0.239-0.197-0.242-0.371C2.922,4.988,2.919,4.98,2.877,4.98
		C2.856,5.008,2.834,5.036,2.813,5.063c-0.045-0.12-0.009-0.201,0.108-0.249C2.948,4.803,2.973,4.785,3,4.77
		C2.995,4.785,2.99,4.801,2.985,4.816C3.004,4.848,3.022,4.83,3.041,4.816z"/>
	<path fill="#007F00" d="M2.877,4.98C2.883,4.95,2.894,4.923,2.935,4.91c0.011,0.057-0.013,0.101-0.029,0.147
		C2.893,5.032,2.909,4.997,2.877,4.98z"/>
	<path fill="#007F00" d="M3.041,4.816C3.028,4.83,3.016,4.844,3.004,4.858C2.99,4.873,2.968,4.888,2.957,4.869
		c-0.014-0.022,0.009-0.04,0.028-0.053C3.004,4.816,3.022,4.816,3.041,4.816z"/>
</g>
</svg>
