<?xml version="1.0" encoding="utf-8"?>
<!-- Generator: Adobe Illustrator 27.1.0, SVG Export Plug-In . SVG Version: 6.00 Build 0)  -->
<svg version="1.1" id="Layer_1" xmlns="http://www.w3.org/2000/svg" xmlns:xlink="http://www.w3.org/1999/xlink" x="0px" y="0px"
	 viewBox="0 0 144 144" style="enable-background:new 0 0 144 144;" xml:space="preserve">
<style type="text/css">
	.st0{fill:#FFFFFF;}
</style>
<g>
	<path class="st0" d="M72.3,15.43c17.96,0,35.93-0.04,53.89,0.02c9.25,0.03,15.33,4.4,17.38,12.2c0.42,1.58,0.43,3.17,0.43,4.77
		c0.01,21.38,0.02,42.77,0,64.15c-0.01,10.26-6.34,16.58-16.57,16.63c-5.24,0.02-10.48,0.09-15.72-0.03
		c-2.32-0.06-3.11,0.8-3.38,3.09c-1.1,9.15-4.86,12.32-14.19,12.32c-15.08,0-30.15,0.01-45.23-0.01
		c-7.84-0.01-12.46-4.19-12.88-12.01c-0.15-2.69-1.07-3.47-3.64-3.4c-5.66,0.14-11.33,0.1-17,0.01c-7.9-0.13-14.33-6.1-14.86-13.99
		c-0.89-13.35-0.29-26.72-0.35-40.08c-0.04-9.3-0.49-18.61,0.25-27.89c0.81-10.14,7.01-15.73,17.34-15.77
		C35.94,15.38,54.12,15.43,72.3,15.43z M76.87,71.9c0,0,0.01,0,0.01,0c0-3.21-0.03-6.41,0.02-9.62c0.01-0.91-0.41-2.18,0.58-2.63
		c1.22-0.56,1.81,0.8,2.56,1.47c1.12,0.99,2.09,2.15,3.22,3.12c2.3,1.97,4.72,1.97,6.6,0.1c1.68-1.67,1.82-4.77-0.03-6.68
		c-4.68-4.83-9.45-9.59-14.28-14.28c-2.07-2.01-4.53-2.08-6.61-0.08c-4.93,4.74-9.77,9.57-14.51,14.49
		c-2.11,2.2-1.93,4.62,0.07,6.54c1.95,1.88,4.33,1.89,6.6-0.07c1.21-1.05,2.26-2.27,3.45-3.35c0.67-0.6,1.22-1.81,2.32-1.29
		c1.03,0.49,0.65,1.71,0.66,2.62c0.04,6.52-0.02,13.03,0.06,19.55c0.04,3.29,2.02,5.35,4.76,5.25c2.62-0.09,4.43-2.1,4.5-5.21
		C76.93,78.53,76.87,75.21,76.87,71.9z M72.27,117.86c7.26,0,14.52,0,21.78,0c1.66,0,3.26,0.07,3.33-2.34
		c0.08-2.54-1.62-2.31-3.24-2.31c-14.52,0-29.04-0.01-43.56,0.02c-1.49,0-3.41-0.56-3.49,2.04c-0.1,2.85,1.88,2.59,3.72,2.59
		C57.96,117.86,65.12,117.86,72.27,117.86z"/>
</g>
</svg>
