<?xml version="1.0" encoding="utf-8"?>
<!-- Generator: Adobe Illustrator 23.1.0, SVG Export Plug-In . SVG Version: 6.00 Build 0)  -->
<svg version="1.1" id="Layer_1" xmlns="http://www.w3.org/2000/svg" xmlns:xlink="http://www.w3.org/1999/xlink" x="0px" y="0px"
	 viewBox="0 0 184 65" enable-background="new 0 0 184 65" xml:space="preserve">
<g>
	<g>
		<g>
			<path fill="#FFFFFF" d="M83.08,29.059c0,3.546,0.07,7.094-0.016,10.638c-0.135,5.51-4.326,10.014-9.85,10.719
				c-5.216,0.666-10.344-2.864-11.814-8.132c-0.818-2.931-0.818-2.931,2.171-2.931c1.796,0,3.592,0,5.388,0.001
				c0.443,0,0.802-0.041,0.988,0.592c0.344,1.171,1.25,1.797,2.473,1.552c1.263-0.253,1.813-1.153,1.809-2.46
				c-0.019-6.868,0.016-13.735-0.034-20.603c-0.008-1.074,0.185-1.486,1.362-1.428c2.15,0.105,4.311,0.079,6.463,0.007
				c0.923-0.031,1.1,0.296,1.09,1.139c-0.042,3.635-0.018,7.271-0.018,10.907C83.088,29.059,83.084,29.059,83.08,29.059z"/>
			<path fill="#FFFFFF" d="M161.836,27.431c2.096-1.354,4.254-2.019,6.614-1.683c4.346,0.62,7.187,3.732,7.351,8.422
				c0.172,4.931,0.046,9.873,0.067,14.81c0.002,0.535-0.095,0.835-0.725,0.825c-1.795-0.028-3.592-0.036-5.387,0.002
				c-0.961,0.02-0.8-0.622-0.8-1.186c-0.004-3.815,0.002-7.63-0.004-11.445c-0.001-0.628-0.012-1.258-0.071-1.882
				c-0.184-1.94-1.123-2.95-2.876-3.137c-1.965-0.21-3.323,0.67-3.893,2.523c-0.213,0.692-0.276,1.4-0.274,2.124
				c0.011,3.86-0.058,7.722,0.041,11.579c0.032,1.256-0.375,1.512-1.506,1.438c-1.431-0.094-2.873-0.055-4.308-0.01
				c-0.779,0.025-1.116-0.169-1.112-1.038c0.03-7.136,0.035-14.273-0.004-21.409c-0.005-0.961,0.382-1.121,1.198-1.095
				c1.435,0.046,2.874,0.052,4.309-0.002C161.264,26.235,161.875,26.331,161.836,27.431z"/>
			<path fill="#FFFFFF" d="M125.155,43.317c0,1.826-0.027,3.571,0.015,5.314c0.014,0.584-0.284,0.799-0.736,0.934
				c-4.717,1.407-10.738-0.063-10.625-7.092c0.045-2.827-0.038-5.657,0.031-8.483c0.025-1.032-0.223-1.52-1.313-1.319
				c-1.077,0.199-1.514-0.16-1.411-1.336c0.117-1.336,0.081-2.694,0.008-4.037c-0.047-0.868,0.288-1.165,1.078-1.012
				c1.438,0.278,1.747-0.398,1.638-1.692c-0.109-1.293,0.01-2.603-0.037-3.903c-0.026-0.719,0.134-1.041,0.944-1.012
				c1.659,0.06,3.323,0.054,4.983,0.002c0.74-0.023,0.905,0.254,0.887,0.932c-0.043,1.525,0.043,3.055-0.034,4.577
				c-0.047,0.927,0.301,1.128,1.152,1.113c1.065-0.019,2.435-0.477,3.126,0.186c0.755,0.724,0.234,2.123,0.25,3.224
				c0.044,2.955,0.013,3.019-3.001,2.928c-1.234-0.037-1.59,0.303-1.536,1.538c0.103,2.375,0.023,4.757,0.032,7.136
				c0.008,2.086,0.637,2.625,2.728,2.341C123.906,43.578,124.471,43.446,125.155,43.317z"/>
			<path fill="#FFFFFF" d="M109,35.805c-0.989-10.157-11.213-11.988-16.756-8.648c-4.763,2.871-6.954,8.783-5.347,14.702
				c1.272,4.684,5.009,7.873,10.016,8.547c4.465,0.601,8.788-1.511,11.134-5.551c-1.581-0.458-3.084-0.893-4.587-1.327
				c-0.387-0.112-0.781-0.201-1.164-0.326c-0.544-0.177-0.923,0.125-1.357,0.375c-2.446,1.403-5.679,0.516-7.02-1.899
				c-0.635-1.144-0.525-1.338,0.808-1.34c4.314-0.006,8.628-0.023,12.941,0.015c0.901,0.008,1.289-0.286,1.397-1.189
				C109.2,38.032,109.108,36.922,109,35.805z M101.886,34.651c-0.207,0.333-0.658,0.145-0.995,0.147
				c-2.369,0.015-4.738,0.008-7.304,0.008c0.805-1.832,1.925-2.851,3.73-2.992c1.71-0.133,3.224,0.232,4.241,1.746
				C101.767,33.872,102.134,34.252,101.886,34.651z"/>
			<path fill="#FFFFFF" d="M139.771,25.659c-6.922-0.007-12.102,5.307-12.076,12.39c0.026,7.073,5.137,12.384,11.942,12.411
				c6.943,0.028,12.208-5.372,12.166-12.48C151.762,30.958,146.594,25.666,139.771,25.659z M144.371,40.717
				c-0.849,2.342-2.925,3.566-5.387,3.269c-2.264-0.273-4.019-2.276-4.338-4.961c-0.042-0.355-0.036-0.715-0.043-0.864
				c0.027-4.42,3.2-6.998,6.838-5.758c1.2,0.409,2.078,1.198,2.645,2.329C145.062,36.682,145.103,38.699,144.371,40.717z"/>
		</g>
	</g>
	<g>
		<g>
			<path fill="#FFFFFF" d="M42.691,32.926c0.007,0.459-0.012,0.918-0.035,1.376c-0.011,0.211-0.114,0.286-0.298,0.335
				c-1.459,0.388-2.916,0.782-4.374,1.173c-6.456,1.729-12.913,3.458-19.369,5.187c-2.398,0.642-4.796,1.284-7.193,1.929
				c-0.194,0.052-0.324,0.016-0.441-0.164c-1.381-2.109-2.277-4.403-2.664-6.897c-0.193-1.243-0.259-2.49-0.176-3.746
				c0.013-0.199,0.101-0.282,0.277-0.329c1.641-0.436,3.282-0.875,4.923-1.315c6.33-1.695,12.661-3.39,18.991-5.086
				c2.348-0.629,4.695-1.258,7.042-1.892c0.196-0.053,0.324-0.017,0.441,0.161c1.382,2.109,2.276,4.403,2.666,6.896
				C42.603,31.342,42.664,32.132,42.691,32.926z"/>
			<path fill="#FFFFFF" d="M10.454,25.277c-0.242-0.007-0.321-0.185-0.201-0.4c0.268-0.483,0.552-0.958,0.868-1.412
				c2.428-3.491,5.687-5.818,9.79-6.946c1.796-0.494,3.627-0.681,5.489-0.569c2.81,0.169,5.418,0.981,7.838,2.411
				c0.128,0.075,0.299,0.122,0.275,0.322c-0.024,0.2-0.202,0.208-0.344,0.246c-2.376,0.638-4.753,1.274-7.129,1.91
				c-5.476,1.465-10.952,2.93-16.429,4.395C10.55,25.253,10.487,25.269,10.454,25.277z"/>
			<path fill="#FFFFFF" d="M25.667,50.506c-3.283,0.024-6.317-0.794-9.125-2.454c-0.122-0.072-0.28-0.121-0.26-0.31
				c0.022-0.204,0.2-0.211,0.341-0.248c2.93-0.787,5.861-1.572,8.792-2.357c4.929-1.319,9.858-2.636,14.786-3.956
				c0.131-0.035,0.261-0.08,0.357,0.053c0.093,0.129,0.021,0.245-0.045,0.363c-1.551,2.769-3.69,4.966-6.432,6.564
				c-1.786,1.041-3.703,1.734-5.743,2.085C27.446,50.4,26.549,50.48,25.667,50.506z"/>
		</g>
	</g>
	<g>
		<rect x="49.355" y="9.767" fill="#FFFFFF" width="1.836" height="45.467"/>
	</g>
</g>
</svg>
