<?xml version="1.0" encoding="utf-8"?>
<!-- Generator: Adobe Illustrator 23.1.0, SVG Export Plug-In . SVG Version: 6.00 Build 0)  -->
<svg version="1.1" id="Layer_1" xmlns="http://www.w3.org/2000/svg" xmlns:xlink="http://www.w3.org/1999/xlink" x="0px" y="0px"
	 viewBox="0 0 184 65" enable-background="new 0 0 184 65" xml:space="preserve">
<g>
	<path fill="#FFFFFF" d="M26.684,12.201c-8.679-0.015-15.659,6.903-15.692,15.553c-0.033,8.684,6.942,15.669,15.655,15.679
		c8.673,0.009,15.686-6.935,15.71-15.555C42.381,19.2,35.399,12.216,26.684,12.201z M36.618,28.869
		c-0.557,3.039-2.431,5.32-4.753,7.269c-0.218,0.183-0.364,0.191-0.577-0.013c-1.72-1.642-3.451-3.273-5.261-4.986
		c1.761-0.56,2.917-1.632,3.48-3.278c0.174-0.509,0.561-0.291,0.861-0.307c0.503-0.026,0.985-0.043,1.286-0.53
		c0.413-0.669,0.032-1.696-0.729-1.626c-1.268,0.117-1.512-0.676-1.846-1.627c0.53,0,1.033,0.011,1.536-0.003
		c0.698-0.019,1.171-0.325,1.19-1.072c0.019-0.745-0.43-1.12-1.131-1.125c-2.796-0.02-5.593-0.019-8.389-0.002
		c-0.713,0.004-1.156,0.416-1.131,1.134c0.025,0.717,0.492,1.063,1.206,1.066c0.894,0.004,1.788-0.014,2.681,0.008
		c1.032,0.025,1.757,0.546,2.347,1.55c-1.721,0-3.277-0.006-4.834,0.002c-0.923,0.005-1.433,0.425-1.416,1.133
		c0.017,0.678,0.506,1.071,1.384,1.077c1.576,0.009,3.151,0.003,4.835,0.003c-0.491,0.998-1.203,1.477-2.187,1.553
		c-0.459,0.035-0.923,0.029-1.383,0.007c-0.584-0.027-1.015,0.188-1.25,0.722c-0.246,0.56-0.001,0.975,0.414,1.364
		c2.119,1.986,4.207,4.004,6.35,5.964c0.556,0.508,0.533,0.718-0.07,1.163c-1.628,1.202-3.151,1.312-4.915,0.165
		c-3.08-2.004-5.712-4.348-7.104-7.837c-0.428-1.073-0.695-2.18-0.694-3.341c0.001-2.007-0.012-4.014,0.004-6.02
		c0.014-1.849,0.854-2.649,2.721-2.856c4.428-0.491,8.859-0.469,13.293-0.165c0.829,0.057,1.656,0.213,2.471,0.385
		c0.941,0.198,1.767,1.024,1.772,1.988C36.791,23.38,37.115,26.152,36.618,28.869z"/>
	<rect x="10.319" y="11.708" fill="none" width="32.636" height="32.397"/>
	<g>
		<path fill="#FFFFFF" d="M58.955,19.833v12.228c0,1.893-0.533,3.351-1.6,4.374c-1.065,1.022-2.503,1.534-4.31,1.534
			c-1.894,0-3.411-0.537-4.554-1.611s-1.714-2.601-1.714-4.578h4.349c0,0.75,0.153,1.317,0.461,1.7
			c0.307,0.384,0.75,0.576,1.33,0.576c0.528,0,0.938-0.171,1.228-0.512c0.29-0.342,0.435-0.835,0.435-1.483V19.833H58.955z"/>
		<path fill="#FFFFFF" d="M62.803,21.355c-0.485-0.452-0.729-1.01-0.729-1.675c0-0.682,0.243-1.249,0.729-1.701
			c0.486-0.452,1.113-0.678,1.881-0.678c0.75,0,1.368,0.226,1.854,0.678c0.486,0.452,0.729,1.019,0.729,1.701
			c0,0.665-0.242,1.224-0.729,1.675c-0.486,0.452-1.104,0.678-1.854,0.678C63.917,22.033,63.29,21.807,62.803,21.355z
			 M66.858,23.517V37.79h-4.374V23.517H66.858z"/>
		<path fill="#FFFFFF" d="M72.754,37.1c-1.117-0.597-1.995-1.449-2.635-2.559c-0.64-1.108-0.96-2.404-0.96-3.887
			c0-1.467,0.324-2.758,0.973-3.875c0.647-1.117,1.534-1.974,2.66-2.571c1.126-0.597,2.388-0.896,3.786-0.896
			c1.397,0,2.66,0.299,3.786,0.896c1.125,0.597,2.012,1.454,2.66,2.571c0.647,1.117,0.972,2.409,0.972,3.875
			s-0.328,2.757-0.984,3.875c-0.657,1.117-1.553,1.975-2.687,2.571s-2.4,0.896-3.799,0.896S73.871,37.696,72.754,37.1z
			 M78.664,33.288c0.588-0.614,0.882-1.492,0.882-2.634s-0.285-2.021-0.856-2.635c-0.571-0.614-1.275-0.921-2.11-0.921
			c-0.854,0-1.561,0.303-2.123,0.908c-0.563,0.606-0.845,1.488-0.845,2.648c0,1.143,0.277,2.021,0.832,2.634
			c0.554,0.613,1.249,0.921,2.084,0.921C77.363,34.209,78.075,33.901,78.664,33.288z"/>
		<path fill="#FFFFFF" d="M106.66,19.833V37.79h-4.373V27.021L98.271,37.79H94.74l-4.042-10.794V37.79h-4.374V19.833h5.167
			l5.04,12.432l4.988-12.432H106.66z"/>
		<path fill="#FFFFFF" d="M112.531,37.1c-1.117-0.597-1.994-1.449-2.635-2.559c-0.639-1.108-0.959-2.404-0.959-3.887
			c0-1.467,0.324-2.758,0.973-3.875c0.646-1.117,1.533-1.974,2.66-2.571c1.125-0.597,2.387-0.896,3.785-0.896
			s2.66,0.299,3.787,0.896c1.125,0.597,2.012,1.454,2.66,2.571c0.646,1.117,0.971,2.409,0.971,3.875s-0.328,2.757-0.984,3.875
			s-1.553,1.975-2.686,2.571c-1.135,0.597-2.4,0.896-3.799,0.896S113.648,37.696,112.531,37.1z M118.441,33.288
			c0.588-0.614,0.881-1.492,0.881-2.634s-0.285-2.021-0.855-2.635c-0.572-0.614-1.275-0.921-2.111-0.921
			c-0.854,0-1.561,0.303-2.123,0.908c-0.563,0.606-0.844,1.488-0.844,2.648c0,1.143,0.277,2.021,0.832,2.634
			c0.553,0.613,1.248,0.921,2.084,0.921S117.852,33.901,118.441,33.288z"/>
		<path fill="#FFFFFF" d="M138.803,24.988c0.998,1.083,1.496,2.571,1.496,4.463v8.339h-4.348v-7.75c0-0.955-0.248-1.697-0.742-2.226
			c-0.496-0.528-1.16-0.793-1.996-0.793s-1.5,0.265-1.994,0.793c-0.496,0.529-0.742,1.271-0.742,2.226v7.75h-4.375V23.517h4.375
			v1.893c0.443-0.631,1.039-1.129,1.791-1.497c0.75-0.366,1.594-0.55,2.531-0.55C136.471,23.363,137.805,23.905,138.803,24.988z"/>
		<path fill="#FFFFFF" d="M156.721,31.703h-9.9c0.068,0.887,0.355,1.564,0.857,2.033c0.504,0.47,1.121,0.704,1.855,0.704
			c1.09,0,1.85-0.461,2.275-1.382h4.656c-0.238,0.938-0.67,1.782-1.291,2.532c-0.623,0.751-1.404,1.339-2.342,1.766
			c-0.938,0.426-1.986,0.64-3.146,0.64c-1.398,0-2.643-0.299-3.734-0.896s-1.943-1.449-2.559-2.559
			c-0.613-1.108-0.92-2.404-0.92-3.887c0-1.484,0.303-2.78,0.908-3.888s1.453-1.961,2.545-2.558c1.092-0.597,2.346-0.896,3.76-0.896
			c1.383,0,2.609,0.29,3.684,0.87c1.074,0.58,1.914,1.407,2.52,2.481s0.908,2.328,0.908,3.76
			C156.797,30.833,156.771,31.259,156.721,31.703z M152.32,29.272c0-0.75-0.256-1.347-0.768-1.791
			c-0.51-0.443-1.15-0.665-1.918-0.665c-0.732,0-1.352,0.213-1.854,0.64c-0.504,0.426-0.814,1.032-0.934,1.816H152.32z"/>
		<path fill="#FFFFFF" d="M173.682,23.517l-8.953,21.052h-4.707l3.273-7.265l-5.807-13.787h4.887l3.299,8.928l3.275-8.928H173.682z"
			/>
	</g>
</g>
</svg>
