<?xml version="1.0" encoding="utf-8"?>
<!-- Generator: Adobe Illustrator 27.1.0, SVG Export Plug-In . SVG Version: 6.00 Build 0)  -->
<svg version="1.1" id="Layer_1" xmlns="http://www.w3.org/2000/svg" xmlns:xlink="http://www.w3.org/1999/xlink" x="0px" y="0px"
	 viewBox="0 0 144 144" style="enable-background:new 0 0 144 144;" xml:space="preserve">
<style type="text/css">
	.st0{fill:#FFFFFF;}
</style>
<g>
	<path class="st0" d="M22.99,31.39C13.79,27.7,9.84,21.1,11.35,12.56C12.63,5.3,19.05,0.06,26.75,0c7.88-0.07,14.14,5.02,15.76,12.8
		c1.66,7.97-2.51,14.76-11.61,18.58c1.34,0.33,2.47,0.57,3.58,0.87c11.81,3.28,19.2,13.33,19.6,26.64c0.03,0.84,0.02,1.68,0,2.52
		c-0.09,4.36-1.82,6.16-6.16,6.18c-9.62,0.04-19.24,0.02-28.85,0.02c-4.48,0-8.96,0.04-13.45-0.02c-4.04-0.05-5.61-1.65-5.66-5.6
		c-0.04-3.64-0.12-7.28,0.87-10.84c2.8-10.05,9.26-16.38,19.32-19.08C20.97,31.86,21.78,31.68,22.99,31.39z"/>
	<path class="st0" d="M113.05,31.32c-9.02-3.55-13.03-10.02-11.58-18.32c1.31-7.54,7.4-12.82,14.98-13
		c7.84-0.18,14.42,4.75,16.08,12.11c1.46,6.45-0.57,15.14-11.17,19.22c10.84,2.42,18.19,8.66,21.64,19.28
		c1.39,4.29,1.06,8.69,0.87,13.06c-0.11,2.47-2.16,3.87-5.28,3.91c-4.95,0.07-9.9,0.02-14.85,0.02c-9.06,0-18.12,0.01-27.18-0.01
		c-5.04-0.01-6.66-1.67-6.7-6.77C89.73,45.14,97.59,35.05,113.05,31.32z"/>
	<path class="st0" d="M67.23,107.97c-9.33-5.2-12.68-11.57-10.62-19.53c1.85-7.15,8.04-11.99,15.4-12.02
		c7.04-0.03,13.34,4.84,15.3,11.82c2.19,7.82-1.09,14.16-10.17,19.56c0.52,0.83,1.45,0.75,2.2,0.96
		c11.55,3.33,19.58,13.79,19.72,25.74c0.11,9.14-0.25,9.5-9.32,9.5c-12.9,0-25.8,0.01-38.69,0c-4.71,0-5.99-1.44-6.16-6.23
		c-0.42-11.53,3.85-20.55,13.89-26.59C61.25,109.68,64.05,108.95,67.23,107.97z"/>
	<path class="st0" d="M121.57,75.22c4.52,0,4.69,0.02,4.38,4.48c-1.1,16.05-8.02,29.12-20.46,39.3c-1.21,0.99-2.12,1.06-2.8-0.53
		c-0.87-2.07-3.48-3.76-3.1-5.73c0.34-1.73,2.81-3.03,4.29-4.55c7.72-7.92,12.23-17.31,12.87-28.43
		C117.02,75.22,116.97,75.22,121.57,75.22z"/>
	<path class="st0" d="M22.53,75.22c4.47,0,4.41,0,4.66,4.39c0.72,12.62,6.2,22.91,15.65,31.12c1.71,1.48,2.14,2.6,0.55,4.26
		c-0.19,0.2-0.32,0.46-0.47,0.69c-3.01,4.57-3.11,4.69-7.12,1.01C25,106.78,18.97,94.49,18,79.84
		C17.69,75.24,17.85,75.23,22.53,75.22z"/>
	<path class="st0" d="M97.04,29.08c-0.03,0.11-0.02,0.24-0.07,0.29c-1.91,1.77-3.81,3.56-5.76,5.28c-1.07,0.94-2.13,0.14-3.15-0.23
		C77.37,30.57,66.65,30.5,56,34.45c-1.98,0.74-3.36,0.57-4.65-1.06c-0.46-0.58-1.07-1.04-1.65-1.52c-3.65-3.06-3.71-3.2,0.84-5.06
		c14.85-6.09,29.64-5.94,44.32,0.67C95.69,27.85,96.63,28.14,97.04,29.08z"/>
</g>
</svg>
