<svg xmlns="http://www.w3.org/2000/svg" viewBox="0 0 83.46 83.51"><defs><style>.cls-1{fill:#fff;}</style></defs><title>SPORTSBOOK</title><g id="Layer_2" data-name="Layer 2"><g id="Layer_1-2" data-name="Layer 1"><path class="cls-1" d="M60.86,83.51A22.28,22.28,0,0,1,38.5,61a22.48,22.48,0,1,1,45,.29A22.29,22.29,0,0,1,60.86,83.51ZM59.71,66.89h0c0,1.08,0,2.17,0,3.25s-.49,1.48-1.53,1.17c-2.26-.66-4.31-1.57-4.83-4.22a1.25,1.25,0,0,0-1.48-1.17c-.95.12-1,.86-1,1.59a4.58,4.58,0,0,0,.86,2.58,9,9,0,0,0,6.2,3.8c1.27.25,1.89.76,1.78,2.15-.08,1-.32,2.52,1.21,2.56s1.29-1.48,1.25-2.49A1.81,1.81,0,0,1,64,73.92a9.55,9.55,0,0,0,5.42-2.73,5.65,5.65,0,0,0-.16-8.5,9.85,9.85,0,0,0-5.49-2.6,1.49,1.49,0,0,1-1.49-1.71c0-2.06,0-4.12,0-6.18,0-1.41.64-1.71,1.83-1.32,2.24.74,4.24,1.73,4.68,4.4a1.11,1.11,0,0,0,1.41,1,1.23,1.23,0,0,0,1.06-1.41,5.53,5.53,0,0,0-1.4-3.39,9.36,9.36,0,0,0-5.53-3.17c-1.21-.24-2.18-.56-2.1-2.09A1,1,0,0,0,61,45.09c-.68,0-1.29.38-1.24,1,.14,1.76-1,2-2.3,2.25a9.87,9.87,0,0,0-4.82,2.55,5.71,5.71,0,0,0-.23,8.17,11,11,0,0,0,3.62,2.42c1.15.55,2.92.06,3.45,1.36.46,1.13.16,2.56.19,3.86Z"/><path class="cls-1" d="M29.27,38.51c3.94-1.31,6.53,1.13,8.9,4.9,1.48,2.33,2.39,4.05.46,6.5a12.12,12.12,0,0,0-1.76,4.51A2,2,0,0,1,35.23,56a28.29,28.29,0,0,1-12.55.28,2.23,2.23,0,0,1-1.94-1.65q-1.36-4.25-2.85-8.46a2.13,2.13,0,0,1,.36-2.26,1.13,1.13,0,0,0,.1-.13C21.85,38.51,21.85,38.51,29.27,38.51Z"/><path class="cls-1" d="M27.09,12.53c.66,2.3-.6,4-2.93,5.35a73.68,73.68,0,0,0-6.26,4.35,2.36,2.36,0,0,1-2.41.41,13.15,13.15,0,0,0-2.65-.77C10.32,21.55,9,20.2,8.5,17.69a57,57,0,0,0-1.83-6.06A1.92,1.92,0,0,1,7,9.53,29,29,0,0,1,16.77,2.4,2,2,0,0,1,19,2.61c2,1.46,4,2.95,6.12,4.27a3.5,3.5,0,0,1,2,3.73A16.37,16.37,0,0,0,27.09,12.53Z"/><path class="cls-1" d="M50.09,11.12c-.93,3-1.86,6.13-2.94,9.24-.37,1.06-7,2.82-7.93,2.18-3-2.05-5.94-4.16-8.91-6.25a1.55,1.55,0,0,1-.7-1.38c0-.16,0-.32,0-.49-.16-6.11-.16-6.11,4.88-9.62A11.26,11.26,0,0,0,36.2,3.59c1.69-1.72,3.35-1.61,5.34-.41a32.27,32.27,0,0,1,7.78,6.06C50.11,10.13,50.16,10.3,50.09,11.12Z"/><path class="cls-1" d="M9.76,43.46c-1.4,0-2.81,0-4.22,0a2,2,0,0,1-2-1.1A30.07,30.07,0,0,1,0,31.63a2.38,2.38,0,0,1,1.05-2.51c2.24-1.61,4.44-3.28,6.63-5a2.85,2.85,0,0,1,2.41-.43c4.37.6,7.23,2.69,7.74,7.33a2.52,2.52,0,0,0,.36,1.07c2.85,4.44.11,7.57-2.47,10.75a1.86,1.86,0,0,1-1.61.59Z"/><path class="cls-1" d="M56.54,31.27c-.08.73-.14,1.26-.19,1.8-.2,2.35-1.09,3.82-3.7,4.5a20.1,20.1,0,0,0-9.38,5.88c-1,1-1.51.84-2.21-.21-1.17-1.76-2.4-3.48-3.65-5.18a2.07,2.07,0,0,1-.3-2.11q1.59-4.59,3.1-9.22a2.3,2.3,0,0,1,1.63-1.61c5.73-2,5.73-2,10.58,1.68,1,.74,2,1.52,3,2.23C56.28,29.64,56.9,30.3,56.54,31.27Z"/><path class="cls-1" d="M28.22,36c-1.57,0-3.14,0-4.71,0a1.51,1.51,0,0,1-1.67-1.19c-1-2.93-1.95-5.86-2.95-8.77a1.38,1.38,0,0,1,.62-1.79q3.94-2.71,7.83-5.51a1.46,1.46,0,0,1,1.92,0q3.9,2.78,7.83,5.5a1.48,1.48,0,0,1,.58,2q-1.5,4.28-2.92,8.6A1.52,1.52,0,0,1,33.09,36C31.47,36,29.84,36,28.22,36Z"/><path class="cls-1" d="M10.72,46c5.34.11,4-.78,5.82,4.25.38,1.07.74,2.15,1.09,3.23.11.34.36.76,0,1s-.61,0-.91-.15a28.54,28.54,0,0,1-9.63-7c-.24-.27-.61-.55-.44-1s.64-.34,1-.35C8.66,45.94,9.69,46,10.72,46Z"/><path class="cls-1" d="M56.5,24.89c0,.54.27,1-.09,1.24s-.79-.18-1.11-.42c-1.52-1.12-3-2.28-4.54-3.38a1.7,1.7,0,0,1-.76-2.2c.61-1.72,1.1-3.49,1.66-5.24.14-.44.12-1.09.71-1.13s.62.54.82.9A26.73,26.73,0,0,1,56.5,24.89Z"/><path class="cls-1" d="M0,25.21A28.67,28.67,0,0,1,3.6,14.33c.16-.27.31-.62.7-.6s.44.43.53.73c.62,2,1.22,3.93,1.84,5.89a1.42,1.42,0,0,1-.6,1.81c-1.63,1.17-3.21,2.4-4.82,3.6-.29.21-.6.57-1,.34S0,25.53,0,25.21Z"/><path class="cls-1" d="M28.3,0a21,21,0,0,1,5.84.54c.84.19,1.07.54.27,1.11L29,5.5a1.16,1.16,0,0,1-1.49-.08L22.34,1.77c-.26-.18-.6-.36-.53-.74s.48-.39.77-.47A18.83,18.83,0,0,1,28.3,0Z"/><path class="cls-1" d="M62.25,66.93c0-1.08,0-2.16,0-3.24,0-.91.45-1.29,1.37-1,.15,0,.32.07.47.11,2.7.7,4.5,2.43,4.48,4.29s-2.1,3.68-4.74,4.25c-1,.22-1.58-.08-1.58-1.17S62.24,68,62.25,66.93Z"/><path class="cls-1" d="M59.71,55.16c0,1-.05,2,0,2.92.08,1.26-.41,1.71-1.63,1.33l-.16,0c-2.55-.64-4.55-2.53-4.53-4.28s2.34-3.84,4.91-4.29c1-.17,1.45.06,1.41,1.12S59.71,54.08,59.71,55.16Z"/></g></g></svg>