<?xml version="1.0" encoding="utf-8"?>
<!-- Generator: Adobe Illustrator 27.1.0, SVG Export Plug-In . SVG Version: 6.00 Build 0)  -->
<svg version="1.1" id="Layer_1" xmlns="http://www.w3.org/2000/svg" xmlns:xlink="http://www.w3.org/1999/xlink" x="0px" y="0px"
	 viewBox="0 0 144 144" style="enable-background:new 0 0 144 144;" xml:space="preserve">
<style type="text/css">
	.st0{fill:#FFFFFF;}
</style>
<g>
	<path class="st0" d="M115.72,112.17c0,6.41-0.08,12.81,0.04,19.22c0.04,2.21-0.68,3.52-2.71,4.5
		c-22.44,10.87-44.82,10.8-67.22-0.14c-2.04-1-2.75-2.37-2.74-4.53c0.04-12.81,0.06-25.63-0.01-38.44
		c-0.01-2.36,0.96-3.66,3.05-4.66c22.2-10.7,44.38-10.93,66.63-0.13c2.27,1.1,3.07,2.49,3.01,4.96
		C115.62,99.36,115.72,105.77,115.72,112.17z M101.21,104.5c1.26,0.01,2.74,0.29,3.06-1.46c0.32-1.74-1.02-2.4-2.37-2.92
		c-0.4-0.15-0.8-0.32-1.22-0.39c-2.37-0.4-3.85-1.64-4.1-4.16c-0.07-0.73-0.4-1.44-0.68-2.13c-0.4-1.01-1.16-1.5-2.26-1.37
		c-1.15,0.14-1.86,0.95-1.65,1.97c0.83,3.91-1.56,3.23-3.85,2.89c-1.37-0.2-2.76-0.43-4.13-0.37c-2.07,0.1-3.54-0.39-4-2.66
		c-0.23-1.14-0.95-1.92-2.24-1.86c-1.34,0.07-1.91,0.95-1.88,2.14c0.05,1.86-0.99,2.33-2.59,2.45c-1.59,0.12-3.24,0.2-4.74,0.68
		c-2.71,0.86-4.03-0.08-4.46-2.76c-0.23-1.4-0.79-2.45-2.57-1.97c-1.66,0.45-2,1.7-1.53,2.98c1.08,2.98-0.44,4.06-2.97,4.69
		c-1.45,0.36-2.72,1.14-2.17,2.91c0.57,1.82,2.19,1.58,3.48,1.1c2.41-0.89,3.83-0.56,4.27,2.29c0.22,1.45,0.91,3.22,2.84,2.76
		c2.09-0.5,1.78-2.26,1.38-3.94c-0.26-1.07-1.05-2.59,0.33-3.17c2.88-1.2,6.02-1.24,9.11-1.23c0.95,0,1.28,1.01,1.5,1.86
		c0.29,1.14,0.49,2.3,0.86,3.41c0.48,1.48,0.77,3.56,2.93,3.04c2.07-0.5,1.73-2.35,1.29-3.99c-0.22-0.82-0.38-1.66-0.56-2.5
		c-0.26-1.2,0.24-2,1.45-1.89c3.07,0.29,6.26,0.18,9.11,1.45c1.87,0.84,1.41,3.18,2.09,4.81c0.48,1.13,0.96,2.33,2.38,2.18
		c1.58-0.17,2.05-1.43,1.87-2.84C99.02,104.92,99.25,103.91,101.21,104.5z"/>
	<path class="st0" d="M67.42,51.72c-8.55,0-8.55,0-8.56-8.61c0-13.12,0.07-26.24-0.06-39.36c-0.03-2.96,0.9-4.09,3.86-3.67
		c8.57,1.2,16.58,3.86,23.8,8.75c1.73,1.17,2.1,2.27,1.26,4.24c-4.96,11.58-9.39,23.35-11.44,35.86c-0.34,2.04-1.3,2.97-3.43,2.81
		C71.05,51.61,69.23,51.72,67.42,51.72z"/>
	<path class="st0" d="M54.31,26.13c0,7.57-0.05,15.14,0.03,22.7c0.02,2.01-0.55,2.96-2.69,2.91c-3.83-0.09-7.67-0.06-11.51-0.01
		c-1.73,0.02-2.76-0.48-3.09-2.39c-2.21-12.75-5.84-25.1-10.89-37.01c-0.76-1.8-0.38-2.95,1.26-4.01
		c7.22-4.66,15.14-7.23,23.62-8.26c2.37-0.29,3.22,0.68,3.19,3.05c-0.09,7.67-0.03,15.35-0.03,23.02
		C54.24,26.13,54.27,26.13,54.31,26.13z"/>
	<path class="st0" d="M17.95,56.36c3.95,0,7.9-0.02,11.85,0c3.56,0.02,4.06,0.67,3.64,4.51c-0.99,9.19-3.5,17.99-6.74,26.6
		c-0.79,2.1-1.75,4.13-2.48,6.25c-0.9,2.59-2.09,2.42-3.89,0.78C12.04,86.97,6.49,77.8,3.85,66.9c-0.55-2.28-0.89-4.6-1.27-6.92
		c-0.41-2.49,0.36-3.79,3.21-3.66C9.83,56.5,13.89,56.36,17.95,56.36z"/>
	<path class="st0" d="M17.67,51.72c-4.05,0-8.11-0.1-12.16,0.03c-2.47,0.08-3.22-1.01-2.97-3.28C4.09,35,9.82,23.64,19.64,14.31
		c1.51-1.44,2.31-0.87,3,0.81c4.41,10.79,7.7,21.9,9.84,33.37c0.52,2.81-0.55,3.32-2.97,3.26C25.57,51.64,21.62,51.72,17.67,51.72z"
		/>
	<path class="st0" d="M95.23,51.72c-3.94,0-7.89-0.13-11.82,0.04c-2.63,0.11-3.12-1.02-2.65-3.27c2.36-11.3,5.9-22.21,10.55-32.78
		c1.18-2.67,2.29-1.3,3.47-0.12c7.97,8,13.08,17.53,15.11,28.65c1.36,7.47,1.32,7.47-6.35,7.47C100.77,51.73,98,51.73,95.23,51.72z"
		/>
	<path class="st0" d="M95.25,56.37c4.15,0,8.31,0.05,12.46-0.02c2-0.04,2.99,0.66,2.82,2.78c-0.57,7.11-2.65,13.76-5.91,20.08
		c-0.67,1.3-1.66,1.52-2.93,1.13c-5.72-1.76-11.53-3.01-17.53-3.23c-1.72-0.06-2.59-0.89-2.96-2.68
		c-1.08-5.14-1.09-10.36-1.53-15.55c-0.16-1.93,0.98-2.55,2.81-2.53C86.73,56.41,90.99,56.37,95.25,56.37z"/>
	<path class="st0" d="M29.57,94.16c-0.46-1.91,0.38-2.99,0.82-4.14c3.84-9.99,6.99-20.15,7.37-30.96c0.06-1.84,0.74-2.74,2.67-2.71
		c3.84,0.06,7.68,0.06,11.52,0c1.76-0.03,2.58,0.77,2.59,2.46c0.04,6.83,0.07,13.65,0.09,20.48c0,1.16-0.48,2.07-1.63,2.51
		C44.82,84.97,37.15,89.1,29.57,94.16z"/>
	<path class="st0" d="M38.8,111.9c0,5.55-0.06,11.1,0.02,16.65c0.04,2.58-0.71,3.04-2.93,1.65c-5.25-3.3-10.28-6.91-14.91-11.03
		c-4.49-4-4.44-10.4,0.08-14.39c4.56-4.04,9.47-7.64,14.64-10.85c2.63-1.64,3.06-1.4,3.08,1.65C38.83,101.01,38.8,106.46,38.8,111.9
		z"/>
	<path class="st0" d="M120.37,111.93c0-5.55,0.05-11.1-0.02-16.64c-0.03-2.46,0.77-2.81,2.79-1.54c5.25,3.3,10.33,6.83,14.88,11.05
		c4.63,4.29,4.68,10.03,0.12,14.3c-4.61,4.31-9.79,7.9-15.13,11.24c-1.86,1.17-2.67,0.83-2.64-1.46
		C120.41,123.24,120.37,117.58,120.37,111.93z"/>
	<path class="st0" d="M58.88,67.87c0-2.88,0.06-5.77-0.02-8.65c-0.06-2.02,0.72-2.92,2.8-2.87c3.63,0.08,7.26,0.06,10.89,0.01
		c1.82-0.03,2.76,0.6,2.77,2.58c0.02,5.02,0.61,10.01,1.33,14.96c0.31,2.18-0.26,3.24-2.55,3.28c-4.18,0.08-8.26,0.93-12.3,1.95
		c-2.07,0.52-3-0.05-2.92-2.3c0.1-2.99,0.02-5.98,0.02-8.97C58.9,67.87,58.89,67.87,58.88,67.87z"/>
</g>
</svg>
