<?xml version="1.0" encoding="utf-8"?>
<!-- Generator: Adobe Illustrator 27.1.0, SVG Export Plug-In . SVG Version: 6.00 Build 0)  -->
<svg version="1.1" id="Layer_1" xmlns="http://www.w3.org/2000/svg" xmlns:xlink="http://www.w3.org/1999/xlink" x="0px" y="0px"
	 viewBox="0 0 144 144" style="enable-background:new 0 0 144 144;" xml:space="preserve">
<style type="text/css">
	.st0{fill:#FFFFFF;}
</style>
<g>
	<path class="st0" d="M80.57,143.67c-1.41,0.47-2.2-0.33-2.49-2.24c-2.72-17.87-10.9-33.06-23.03-46.21
		C41.31,80.3,24.81,70.02,4.65,66.29c-5.41-1-4.62-0.73-3.88-5.45C5.96,27.92,32.27,4.17,63.02,0.47c1.92-0.23,2.71,0.23,3,2.16
		c2.53,16.86,10.03,31.41,21.13,44.14c13.18,15.12,29.26,25.72,48.98,30.35c1.72,0.4,3.48,0.74,5.23,0.93
		c1.88,0.21,2.5,0.96,2.23,2.94c-2.89,21.39-13.19,38.28-30.85,50.6C103.24,138.24,92.63,142.19,80.57,143.67z"/>
	<path class="st0" d="M144.03,66.24c0.08,3.74-0.16,3.98-3.42,3.35c-20.16-3.95-36.03-14.88-48.93-30.44
		C83.02,28.7,76.92,16.94,74.49,3.45C73.9,0.2,74.12-0.19,77.5,0.07c15.88,1.22,29.94,7.02,41.91,17.48
		c14.26,12.46,22.27,28.3,24.51,47.08C144,65.28,144.01,65.93,144.03,66.24z"/>
	<path class="st0" d="M65.88,143.98c-15.48-1.37-29.7-7.23-41.74-17.98C10.22,113.58,2.39,97.93,0.19,79.45
		c-0.66-5.56-0.2-5.97,5.78-4.53c17.69,4.25,32.2,13.76,44.15,27.25c9.78,11.04,16.73,23.6,19.46,38.26
		C70.22,143.9,70.04,144.09,65.88,143.98z"/>
</g>
</svg>
