<?xml version="1.0" encoding="utf-8"?>
<!-- Generator: Adobe Illustrator 23.1.0, SVG Export Plug-In . SVG Version: 6.00 Build 0)  -->
<svg version="1.1" id="Layer_1" xmlns="http://www.w3.org/2000/svg" xmlns:xlink="http://www.w3.org/1999/xlink" x="0px" y="0px"
	 viewBox="0 0 184 65" enable-background="new 0 0 184 65" xml:space="preserve">
<g>
	<path fill="#FFFFFF" d="M119.821,5.477c3.395,0.2,6.696,0.849,9.887,2.04c0.255,0.095,0.336,0.188,0.287,0.484
		c-0.59,3.543-1.16,7.089-1.737,10.634c-0.016,0.096-0.04,0.191-0.068,0.328c-0.235-0.103-0.458-0.196-0.677-0.299
		c-3.623-1.706-7.439-2.435-11.434-2.238c-1.557,0.077-3.079,0.323-4.489,1.038c-0.841,0.426-1.573,0.987-2.06,1.81
		c-0.701,1.184-0.679,2.357,0.119,3.493c0.542,0.771,1.276,1.339,2.048,1.858c1.667,1.122,3.465,2.011,5.261,2.901
		c2.214,1.098,4.341,2.329,6.22,3.949c2.027,1.748,3.602,3.808,4.39,6.407c0.55,1.815,0.621,3.666,0.424,5.533
		c-0.346,3.282-1.546,6.212-3.697,8.734c-1.964,2.303-4.412,3.936-7.179,5.113c-2.781,1.183-5.696,1.825-8.696,2.126
		c-4.059,0.407-8.083,0.132-12.087-0.584c-2.149-0.384-4.26-0.906-6.297-1.704c-0.723-0.283-0.734-0.279-0.614-1.025
		c0.538-3.353,1.082-6.705,1.623-10.057c0.052-0.32,0.103-0.64,0.158-0.983c0.84,0.383,1.646,0.763,2.463,1.119
		c2.212,0.964,4.474,1.782,6.875,2.131c2.49,0.361,4.99,0.556,7.496,0.169c1.492-0.231,2.9-0.706,4.117-1.638
		c1.525-1.168,2.119-3.008,1.497-4.635c-0.316-0.828-0.889-1.466-1.551-2.031c-1.229-1.047-2.629-1.826-4.057-2.554
		c-1.921-0.98-3.866-1.913-5.67-3.106c-2.043-1.352-3.903-2.9-5.316-4.928c-1.577-2.264-2.258-4.771-2.089-7.526
		c0.328-5.357,2.923-9.383,7.275-12.365c2.888-1.978,6.125-3.097,9.548-3.723c1.331-0.244,2.675-0.393,4.026-0.47
		c0.127-0.044,0.259-0.012,0.388-0.022c0.111,0,0.222,0,0.332,0c0.197-0.019,0.399,0.038,0.594-0.034c0.415,0,0.83,0,1.244,0
		c0.215,0.074,0.438,0.015,0.656,0.034c0.131,0,0.263,0,0.394,0C119.558,5.466,119.691,5.436,119.821,5.477z"/>
	<path fill="#FFFFFF" d="M119.039,5.48c-0.222-0.01-0.451,0.07-0.663-0.056c0.218,0,0.437,0,0.655,0
		c0.019,0.01,0.026,0.022,0.022,0.035C119.049,5.473,119.044,5.48,119.039,5.48z"/>
	<path fill="#FFFFFF" d="M117.132,5.423c-0.188,0.119-0.395,0.049-0.594,0.058c-0.018-0.015-0.023-0.028-0.016-0.041
		c0.007-0.012,0.014-0.018,0.021-0.018C116.739,5.423,116.935,5.423,117.132,5.423z"/>
	<path fill="#FFFFFF" d="M116.209,5.477c-0.13,0.001-0.261,0.001-0.391,0.002c0.003-0.018,0.004-0.037,0.004-0.056
		c0.131,0,0.262,0,0.393,0c0.022,0.014,0.029,0.027,0.02,0.038C116.226,5.472,116.218,5.477,116.209,5.477z"/>
	<path fill="#FFFFFF" d="M119.039,5.48c-0.004-0.019-0.007-0.037-0.008-0.056c0.131,0,0.262,0,0.393,0
		c0.02,0.01,0.027,0.022,0.022,0.035c-0.005,0.013-0.011,0.02-0.017,0.02C119.299,5.478,119.169,5.479,119.039,5.48z"/>
	<path fill="#FFFFFF" d="M119.429,5.477c-0.002-0.018-0.004-0.036-0.005-0.054c0.131,0,0.262,0,0.393,0
		c0.002,0.018,0.003,0.036,0.005,0.054C119.691,5.477,119.56,5.477,119.429,5.477z"/>
	<path fill="#FFFFFF" d="M116.209,5.477c0.003-0.018,0.004-0.036,0.005-0.054c0.109,0,0.218,0,0.327,0
		c0,0.02-0.001,0.039-0.005,0.059C116.428,5.48,116.319,5.479,116.209,5.477z"/>
	<path fill="#FFFFFF" d="M40.969,34.478c0.362,1.029,0.478,2.113,0.704,3.171c0.307,1.432,0.581,2.872,0.871,4.318
		c0.175-0.077,0.177-0.238,0.223-0.362c3.438-9.232,6.873-18.466,10.307-27.7c0.898-2.415,1.8-4.83,2.689-7.249
		c0.084-0.228,0.198-0.285,0.426-0.284c4.573,0.006,9.147,0.004,13.72,0.006c0.095,0,0.195-0.028,0.306,0.048
		c-0.345,0.851-0.69,1.707-1.039,2.561c-6.717,16.475-13.436,32.95-20.146,49.428c-0.105,0.258-0.23,0.331-0.497,0.33
		c-4.552-0.008-9.103-0.009-13.655,0.001c-0.285,0.001-0.385-0.088-0.456-0.356c-3.296-12.437-6.6-24.872-9.904-37.306
		c-0.67-2.523-1.344-5.045-2.016-7.567c-0.022-0.083-0.046-0.165-0.069-0.248c0.155-0.118,0.268,0.01,0.382,0.076
		c1.181,0.683,2.321,1.43,3.425,2.23c1.625,1.177,3.172,2.448,4.639,3.822c3.064,2.869,5.616,6.13,7.687,9.775
		c0.82,1.442,1.527,2.937,2.158,4.469C40.836,33.909,40.963,34.178,40.969,34.478z"/>
	<path fill="#FFFFFF" d="M74.005,58.796c-2.161,0-4.322-0.004-6.483,0.005c-0.25,0.001-0.296-0.042-0.253-0.303
		c0.796-4.844,1.58-9.689,2.363-14.535c0.775-4.792,1.545-9.584,2.32-14.376c0.85-5.254,1.702-10.507,2.554-15.761
		c0.388-2.396,0.781-4.791,1.163-7.188c0.033-0.208,0.113-0.265,0.315-0.265c4.344,0.005,8.688,0.005,13.032,0.001
		c0.193,0,0.288,0.005,0.246,0.261c-0.808,4.941-1.601,9.884-2.402,14.826c-0.885,5.458-1.776,10.914-2.662,16.372
		c-0.896,5.522-1.79,11.044-2.685,16.567c-0.223,1.375-0.451,2.75-0.658,4.127c-0.035,0.233-0.127,0.272-0.335,0.272
		C78.349,58.794,76.177,58.796,74.005,58.796z"/>
	<path fill="#FFFFFF" d="M40.969,34.478c-0.8-2.093-1.765-4.107-2.912-6.033c-3.551-5.964-8.364-10.687-14.214-14.386
		c-0.368-0.233-0.741-0.456-1.114-0.68c-0.09-0.055-0.172-0.141-0.296-0.108c-0.045-0.145-0.185-0.178-0.294-0.241
		c-4.295-2.469-8.866-4.256-13.654-5.505c-0.252-0.066-0.35-0.132-0.281-0.42c0.171-0.721,0.154-0.725,0.892-0.725
		c6.952,0,13.903,0,20.855,0c0.821,0,1.631,0.082,2.431,0.275c2.232,0.538,3.545,1.973,3.989,4.182
		c1.07,5.322,2.106,10.651,3.156,15.977c0.484,2.455,0.969,4.909,1.452,7.364C40.999,34.278,41.081,34.383,40.969,34.478z"/>
	<path fill="#FFFFFF" d="M175.761,58.527c-0.703-3.365-1.402-6.731-2.105-10.097c-1.081-5.176-2.164-10.352-3.246-15.527
		c-1.08-5.165-2.159-10.33-3.238-15.496c-0.75-3.589-1.499-7.178-2.244-10.768c-0.039-0.185-0.106-0.266-0.318-0.265
		c-3.569,0.011-7.139,0.006-10.708,0.019c-1.244,0.005-2.454,0.211-3.579,0.776c-1.515,0.761-2.427,2.04-3.065,3.56
		c-6.607,15.746-13.216,31.491-19.824,47.237c-0.112,0.267-0.219,0.536-0.335,0.821c0.089,0.005,0.143,0.01,0.197,0.01
		c4.596,0,9.191-0.001,13.787,0.006c0.219,0,0.29-0.087,0.357-0.275c0.871-2.426,1.753-4.847,2.625-7.273
		c0.078-0.218,0.166-0.321,0.429-0.321c5.611,0.01,11.221,0.008,16.832,0.003c0.217,0,0.315,0.035,0.364,0.282
		c0.486,2.421,0.99,4.839,1.491,7.258c0.033,0.161,0.021,0.327,0.291,0.327c4.115-0.011,8.23-0.01,12.346-0.011
		c0-0.065,0-0.131,0-0.196C175.797,58.572,175.766,58.552,175.761,58.527z M159.153,40.23c-3.644-0.008-7.287-0.006-10.931-0.007
		c-0.021,0-0.043-0.008-0.107-0.02c2.385-6.535,4.859-13.018,7.193-19.648c0.164,0.763,0.314,1.44,0.454,2.119
		c1.19,5.761,2.378,11.523,3.571,17.283C159.369,40.133,159.404,40.231,159.153,40.23z"/>
</g>
</svg>
