<?xml version="1.0" encoding="utf-8"?>
<!-- Generator: Adobe Illustrator 23.1.0, SVG Export Plug-In . SVG Version: 6.00 Build 0)  -->
<svg version="1.1" id="Layer_1" xmlns="http://www.w3.org/2000/svg" xmlns:xlink="http://www.w3.org/1999/xlink" x="0px" y="0px"
	 viewBox="0 0 12 12" enable-background="new 0 0 12 12" xml:space="preserve">
<g>
	<g>
		<linearGradient id="SVGID_2_" gradientUnits="userSpaceOnUse" x1="5.3975" y1="7.5395" x2="2.7909" y2="4.9328">
			<stop  offset="0" style="stop-color:#FAC63A"/>
			<stop  offset="1" style="stop-color:#FCE335"/>
		</linearGradient>
		<path fill="url(#SVGID_2_)" stroke="#232C3B" stroke-width="0.1" stroke-miterlimit="10" d="M8.062,1.839
			C8.061,1.715,7.96,1.616,7.836,1.617L1.353,1.667C1.229,1.668,1.13,1.769,1.131,1.893l0.077,9.822
			c0.001,0.124,0.102,0.223,0.226,0.222l6.483-0.051c0.124-0.001,0.223-0.102,0.222-0.226L8.062,1.839z"/>
		<g>
			<g>
				<g opacity="0.8">
					<path fill="#423F3F" d="M5.779,5.531c-0.173-0.135-0.406-0.19-0.622-0.149c-0.215,0.04-0.41,0.173-0.531,0.355
						C4.503,5.557,4.306,5.427,4.091,5.39C3.874,5.353,3.642,5.411,3.471,5.549c-0.285,0.23-0.367,0.647-0.276,1.002
						c0.09,0.355,0.324,0.656,0.58,0.918C4.038,7.738,4.33,7.976,4.646,8.18v0l0,0h0v0c0.312-0.208,0.601-0.451,0.86-0.724
						C5.758,7.19,5.987,6.885,6.071,6.529C6.156,6.173,6.068,5.756,5.779,5.531z M5.78,6.331C5.744,6.754,5.362,7.244,4.643,7.788
						c-0.727-0.533-1.117-1.016-1.16-1.439L3.482,6.207C3.5,6,3.615,5.786,3.824,5.72c0.217-0.068,0.425,0.07,0.561,0.23
						C4.386,5.951,4.6,6.202,4.631,6.238v0l0,0l0,0v0c0.03-0.036,0.24-0.291,0.241-0.292c0.133-0.161,0.339-0.304,0.558-0.239
						c0.21,0.063,0.329,0.275,0.35,0.482L5.78,6.331z"/>
				</g>
				<g opacity="0.8">
					<path fill="#423F3F" d="M5.758,5.609C5.593,5.468,5.365,5.405,5.152,5.44C4.939,5.474,4.744,5.603,4.627,5.784
						c-0.12-0.179-0.317-0.305-0.53-0.336C3.883,5.417,3.656,5.483,3.494,5.627C3.233,5.858,3.17,6.257,3.265,6.593
						c0.095,0.336,0.322,0.619,0.568,0.865c0.247,0.248,0.52,0.47,0.812,0.662v0l0,0l0,0v0c0.289-0.197,0.559-0.423,0.802-0.675
						C5.69,7.195,5.913,6.908,6.002,6.571C6.092,6.234,6.022,5.836,5.758,5.609z"/>
				</g>
			</g>
			<g>
				<g>
					<g>
						<path fill="#232C3B" d="M2.119,2.993c-0.04-0.035-0.097-0.05-0.149-0.042c-0.052,0.008-0.1,0.04-0.129,0.085
							C1.811,2.992,1.762,2.961,1.71,2.953C1.657,2.945,1.601,2.962,1.561,2.997c-0.064,0.057-0.08,0.155-0.057,0.238
							c0.023,0.083,0.079,0.152,0.14,0.213c0.061,0.061,0.128,0.116,0.2,0.163v0h0l0,0v0c0.071-0.049,0.138-0.104,0.198-0.166
							c0.06-0.062,0.115-0.132,0.137-0.216C2.201,3.147,2.184,3.049,2.119,2.993z"/>
					</g>
				</g>
				<g>
					<path fill="#232C3B" d="M1.644,2.852l0.115-0.735l0.148-0.001l0.126,0.733L1.917,2.85L1.893,2.692L1.778,2.692L1.755,2.852
						L1.644,2.852z M1.792,2.588l0.086-0.001L1.837,2.281l-0.007,0L1.792,2.588z"/>
				</g>
			</g>
			<g>
				<g>
					<g opacity="0.8">
						<path fill="#423F3F" d="M7.146,10.58c0.043,0.033,0.1,0.047,0.153,0.037c0.053-0.01,0.101-0.043,0.131-0.088
							c0.03,0.045,0.079,0.076,0.132,0.086c0.053,0.009,0.11-0.005,0.153-0.039c0.07-0.057,0.09-0.16,0.068-0.247
							c-0.022-0.087-0.08-0.162-0.143-0.226c-0.065-0.066-0.137-0.125-0.215-0.175v0l0,0h0v0c-0.077,0.051-0.148,0.111-0.212,0.178
							c-0.062,0.065-0.119,0.141-0.139,0.228C7.053,10.422,7.074,10.525,7.146,10.58z M7.145,10.383
							c0.009-0.104,0.103-0.225,0.28-0.359c0.179,0.131,0.275,0.25,0.286,0.355l0,0.035c-0.004,0.051-0.033,0.104-0.084,0.12
							c-0.054,0.017-0.105-0.017-0.138-0.057c0,0-0.053-0.062-0.061-0.071v0v0l0,0v0c-0.007,0.009-0.059,0.072-0.059,0.072
							c-0.033,0.04-0.084,0.075-0.137,0.059c-0.052-0.015-0.081-0.068-0.086-0.119L7.145,10.383z"/>
					</g>
					<g opacity="0.8">
						<path fill="#423F3F" d="M7.151,10.561c0.04,0.035,0.097,0.05,0.149,0.042c0.052-0.008,0.1-0.04,0.129-0.085
							c0.03,0.044,0.078,0.075,0.131,0.083c0.053,0.008,0.109-0.009,0.149-0.044c0.064-0.057,0.08-0.155,0.057-0.238
							c-0.023-0.083-0.079-0.152-0.14-0.213c-0.061-0.061-0.128-0.116-0.2-0.163v0v0l0,0v0c-0.071,0.049-0.138,0.104-0.198,0.166
							c-0.06,0.062-0.115,0.132-0.137,0.215C7.069,10.407,7.086,10.505,7.151,10.561z"/>
					</g>
				</g>
				<g>
					<path fill="#423F3F" d="M7.626,10.701l-0.115,0.735l-0.148,0.001l-0.126-0.733l0.116-0.001l0.024,0.159l0.114-0.001
						l0.023-0.159L7.626,10.701z M7.478,10.966l-0.086,0.001l0.041,0.306H7.44L7.478,10.966z"/>
				</g>
			</g>
		</g>
	</g>
	<g>
		<linearGradient id="SVGID_4_" gradientUnits="userSpaceOnUse" x1="5.442" y1="6.7203" x2="2.1725" y2="3.4509">
			<stop  offset="0" style="stop-color:#FAC63A"/>
			<stop  offset="1" style="stop-color:#FCE335"/>
		</linearGradient>
		<path fill="url(#SVGID_4_)" stroke="#232C3B" stroke-width="0.1" stroke-miterlimit="10" d="M8.903,1.662l-6.454-0.62
			C2.326,1.03,2.217,1.12,2.205,1.243L1.265,11.02c-0.012,0.123,0.078,0.233,0.201,0.244l6.454,0.62
			c0.123,0.012,0.233-0.078,0.244-0.201l0.939-9.777C9.116,1.783,9.026,1.674,8.903,1.662z"/>
		<g>
			<g>
				<g>
					<g>
						<path fill="#232C3B" d="M2.616,2.251l0.191-0.719l0.147,0.014l0.05,0.742L2.887,2.277L2.88,2.116L2.766,2.105l-0.04,0.156
							L2.616,2.251z M2.79,2.003l0.086,0.008L2.867,1.702L2.86,1.702L2.79,2.003z"/>
					</g>
				</g>
				<g>
					<g>
						<g>
							<path fill="#232C3B" d="M2.8,2.371l-0.375,0.31l0.31,0.375l0.375-0.31L2.8,2.371z"/>
						</g>
					</g>
				</g>
			</g>
			<g>
				<g>
					<g>
						<path fill="#F07F60" d="M7.735,10.674l-0.191,0.719l-0.147-0.014l-0.05-0.742l0.116,0.011l0.008,0.16l0.114,0.011l0.04-0.156
							L7.735,10.674z M7.56,10.922l-0.086-0.008l0.009,0.309l0.007,0.001L7.56,10.922z"/>
					</g>
				</g>
				<g>
					<g opacity="0.8">
						<g>
							<path fill="#F07F60" d="M7.549,10.572l0.396-0.326L7.618,9.85l-0.396,0.326L7.549,10.572z M7.835,10.235l-0.276,0.227
								l-0.227-0.276L7.607,9.96L7.835,10.235z"/>
						</g>
					</g>
					<g opacity="0.8">
						<g>
							<path fill="#F07F60" d="M7.55,10.554l0.375-0.31l-0.31-0.375l-0.375,0.31L7.55,10.554z"/>
						</g>
					</g>
				</g>
			</g>
			<g>
				<g opacity="0.8">
					<g>
						<path fill="#F07F60" d="M5.332,4.931L3.727,6.254L5.051,7.86l1.605-1.324L5.332,4.931z M4.171,6.297L5.29,5.375l0.922,1.118
							L5.094,7.415L4.171,6.297z"/>
					</g>
				</g>
				<g opacity="0.8">
					<g>
						<path fill="#F07F60" d="M5.325,5.006L3.802,6.262l1.256,1.523l1.523-1.256L5.325,5.006z"/>
					</g>
				</g>
			</g>
		</g>
	</g>
	<g>
		<g>
			<linearGradient id="SVGID_6_" gradientUnits="userSpaceOnUse" x1="1.7296" y1="6.1902" x2="9.8041" y2="6.1902">
				<stop  offset="0" style="stop-color:#FAC63A"/>
				<stop  offset="1" style="stop-color:#FCE335"/>
			</linearGradient>
			<path fill="url(#SVGID_6_)" d="M5.984,11.479l-2.514-0.519c-1.18-0.244-1.94-1.399-1.696-2.579L2.97,2.597
				c0.244-1.18,1.399-1.939,2.579-1.696l2.514,0.519C9.243,1.665,10.002,2.82,9.758,4L8.563,9.783
				C8.319,10.963,7.165,11.723,5.984,11.479z"/>
		</g>
		<g>
			<g>
				<g opacity="0.8">
					<path fill="#423F3F" d="M7.147,5.213C7.007,5.044,6.79,4.942,6.571,4.936C6.352,4.93,6.134,5.019,5.977,5.172
						C5.895,4.969,5.729,4.801,5.526,4.72C5.322,4.638,5.083,4.647,4.887,4.745C4.56,4.91,4.392,5.301,4.406,5.667
						c0.014,0.366,0.179,0.71,0.374,1.019c0.2,0.317,0.437,0.612,0.702,0.877v0h0l0,0l0,0c0.349-0.138,0.683-0.315,0.993-0.527
						C6.778,6.83,7.066,6.58,7.223,6.25C7.381,5.919,7.382,5.494,7.147,5.213z M6.98,5.994C6.856,6.401,6.379,6.799,5.562,7.18
						C4.963,6.506,4.683,5.952,4.73,5.529l0.029-0.138C4.82,5.192,4.977,5.007,5.196,4.986c0.227-0.021,0.401,0.158,0.501,0.343
						c0,0.001,0.157,0.292,0.179,0.333l0,0l0,0l0,0l0,0c0.037-0.029,0.296-0.234,0.297-0.235c0.164-0.13,0.396-0.225,0.595-0.116
						c0.192,0.105,0.264,0.337,0.241,0.545L6.98,5.994z"/>
				</g>
				<g opacity="0.8">
					<path fill="#423F3F" d="M7.11,5.284C6.979,5.112,6.769,5.003,6.553,4.991C6.338,4.98,6.121,5.065,5.968,5.217
						c-0.08-0.2-0.246-0.364-0.448-0.439C5.317,4.703,5.082,4.72,4.893,4.826C4.589,4.998,4.444,5.374,4.466,5.722
						C4.488,6.07,4.651,6.394,4.84,6.688c0.19,0.294,0.41,0.569,0.655,0.818l0,0l0,0l0,0l0,0C5.819,7.374,6.13,7.209,6.421,7.014
						c0.29-0.194,0.567-0.427,0.726-0.738C7.305,5.965,7.321,5.562,7.11,5.284z"/>
				</g>
			</g>
			<g>
				<g>
					<g opacity="0.8">
						<path fill="#423F3F" d="M4.111,1.944C4.076,1.903,4.023,1.877,3.969,1.876c-0.054-0.001-0.108,0.02-0.146,0.058
							c-0.02-0.05-0.061-0.091-0.111-0.111c-0.05-0.02-0.109-0.018-0.158,0.006C3.473,1.87,3.432,1.966,3.435,2.056
							c0.003,0.09,0.044,0.175,0.092,0.251c0.049,0.078,0.108,0.151,0.173,0.216v0v0l0,0v0c0.086-0.034,0.168-0.078,0.245-0.13
							C4.02,2.343,4.091,2.281,4.13,2.2C4.169,2.118,4.169,2.013,4.111,1.944z M4.07,2.137c-0.031,0.1-0.148,0.198-0.35,0.292
							C3.573,2.263,3.504,2.126,3.515,2.022l0.007-0.034c0.015-0.049,0.054-0.095,0.108-0.1c0.056-0.005,0.099,0.039,0.123,0.085
							c0,0,0.039,0.072,0.044,0.082v0h0l0,0v0c0.009-0.007,0.073-0.058,0.073-0.058c0.041-0.032,0.098-0.056,0.147-0.029
							c0.047,0.026,0.065,0.083,0.059,0.134L4.07,2.137z"/>
					</g>
					<g opacity="0.8">
						<path fill="#423F3F" d="M4.102,1.962C4.07,1.919,4.018,1.892,3.965,1.89C3.912,1.887,3.858,1.908,3.82,1.945
							c-0.02-0.049-0.061-0.09-0.11-0.108C3.66,1.818,3.602,1.823,3.555,1.849C3.48,1.891,3.445,1.984,3.45,2.07
							c0.005,0.086,0.046,0.166,0.092,0.238C3.589,2.38,3.643,2.448,3.704,2.51l0,0h0l0,0l0,0c0.08-0.032,0.157-0.073,0.228-0.121
							c0.072-0.048,0.14-0.105,0.179-0.182C4.15,2.13,4.154,2.03,4.102,1.962z"/>
					</g>
				</g>
				<g>
					<path fill="#423F3F" d="M3.667,1.725L3.934,1.03l0.145,0.03L4.048,1.804L3.934,1.78l0.01-0.16L3.832,1.597L3.776,1.748
						L3.667,1.725z M3.867,1.498l0.085,0.018l0.024-0.308L3.969,1.206L3.867,1.498z"/>
				</g>
			</g>
			<g>
				<g>
					<g opacity="0.8">
						<path fill="#423F3F" d="M7.423,10.436c0.035,0.042,0.088,0.067,0.142,0.068c0.054,0.001,0.108-0.02,0.146-0.058
							c0.02,0.05,0.061,0.091,0.111,0.111c0.05,0.02,0.109,0.018,0.158-0.006c0.081-0.041,0.122-0.137,0.119-0.227
							s-0.044-0.175-0.092-0.251C7.957,9.995,7.898,9.922,7.833,9.857l0,0h0v0v0c-0.086,0.034-0.168,0.078-0.245,0.13
							c-0.074,0.051-0.145,0.113-0.184,0.194C7.365,10.262,7.365,10.367,7.423,10.436z M7.464,10.243
							c0.031-0.1,0.148-0.198,0.35-0.292c0.148,0.166,0.217,0.303,0.205,0.407l-0.007,0.034c-0.015,0.049-0.054,0.095-0.108,0.1
							c-0.056,0.005-0.099-0.039-0.123-0.085c0,0-0.039-0.072-0.044-0.082v0v0l0,0v0c-0.009,0.007-0.073,0.058-0.073,0.058
							c-0.04,0.032-0.097,0.056-0.147,0.029c-0.047-0.026-0.065-0.083-0.059-0.134L7.464,10.243z"/>
					</g>
					<g opacity="0.8">
						<path fill="#423F3F" d="M7.432,10.419c0.032,0.042,0.084,0.069,0.137,0.072c0.053,0.003,0.107-0.018,0.144-0.056
							c0.02,0.049,0.061,0.09,0.11,0.108c0.05,0.019,0.108,0.014,0.155-0.012c0.075-0.042,0.111-0.135,0.105-0.221
							c-0.005-0.086-0.046-0.166-0.092-0.238C7.945,10,7.891,9.932,7.83,9.871v0l0,0h0l0,0C7.75,9.903,7.673,9.944,7.602,9.992
							c-0.071,0.048-0.14,0.105-0.179,0.182C7.384,10.251,7.38,10.35,7.432,10.419z"/>
					</g>
				</g>
				<g>
					<path fill="#423F3F" d="M7.867,10.655L7.6,11.35l-0.145-0.03l0.031-0.744L7.6,10.6l-0.01,0.16l0.112,0.023l0.056-0.151
						L7.867,10.655z M7.667,10.883l-0.085-0.017l-0.024,0.308l0.007,0.001L7.667,10.883z"/>
				</g>
			</g>
		</g>
	</g>
	<linearGradient id="SVGID_8_" gradientUnits="userSpaceOnUse" x1="6.7532" y1="7.1765" x2="2.8592" y2="3.2825">
		<stop  offset="0" style="stop-color:#FAC63A"/>
		<stop  offset="1" style="stop-color:#FCE335"/>
	</linearGradient>
	<path fill="url(#SVGID_8_)" stroke="#232C3B" stroke-width="0.1" stroke-miterlimit="10" d="M9.981,1.818L3.631,0.505
		C3.51,0.48,3.392,0.558,3.367,0.679l-1.988,9.619c-0.025,0.121,0.053,0.24,0.174,0.265l6.349,1.312
		c0.121,0.025,0.24-0.053,0.265-0.174l1.988-9.619C10.18,1.961,10.102,1.843,9.981,1.818z"/>
	<g>
		<path fill="#232C3B" d="M3.666,1.725L3.933,1.03l0.145,0.03L4.047,1.803L3.933,1.78l0.01-0.16L3.831,1.597L3.774,1.747
			L3.666,1.725z M3.865,1.497L3.95,1.515l0.024-0.308L3.967,1.205L3.865,1.497z"/>
	</g>
	<g>
		<path fill="#232C3B" d="M3.627,2.531l0.027-0.037c0.023-0.032,0.04-0.068,0.051-0.107L3.696,2.383
			c-0.042,0.04-0.1,0.057-0.157,0.046L3.534,2.427c-0.09-0.021-0.149-0.113-0.132-0.204C3.411,2.177,3.437,2.137,3.477,2.11
			C3.516,2.084,3.563,2.075,3.61,2.085c0.003,0.001,0.007,0.002,0.01,0.003l0.006,0.002L3.625,2.083
			c-0.005-0.023-0.005-0.046,0-0.07c0.02-0.095,0.113-0.156,0.207-0.136c0.004,0.001,0.009,0.002,0.013,0.003
			c0.082,0.023,0.136,0.105,0.125,0.19C3.968,2.099,3.958,2.126,3.941,2.15L3.939,2.154l0.005,0.001
			c0.005,0.001,0.009,0.001,0.012,0.002c0.046,0.01,0.086,0.037,0.112,0.077c0.026,0.04,0.034,0.087,0.024,0.133
			c-0.02,0.09-0.11,0.151-0.201,0.135L3.885,2.5C3.828,2.488,3.781,2.449,3.759,2.396L3.748,2.397
			c-0.005,0.04-0.004,0.08,0.005,0.118l0.01,0.044L3.627,2.531z"/>
	</g>
	<g>
		<g>
			<g opacity="0.8">
				<path fill="#423F3F" d="M5.186,7.526l0.146-0.203C5.408,7.217,5.468,7.1,5.511,6.974c-0.174,0.139-0.399,0.193-0.62,0.148
					L4.868,7.117C4.475,7.023,4.227,6.639,4.303,6.242c0.038-0.2,0.153-0.373,0.322-0.486c0.169-0.113,0.372-0.153,0.572-0.111
					c0.002,0,0.004,0.001,0.006,0.001C5.19,5.56,5.193,5.475,5.211,5.39c0.084-0.407,0.484-0.67,0.892-0.586
					C6.121,4.808,6.14,4.812,6.159,4.818c0.354,0.101,0.586,0.453,0.54,0.818C6.685,5.743,6.65,5.843,6.595,5.933
					c0.002,0,0.004,0.001,0.006,0.001C6.8,5.976,6.971,6.092,7.081,6.263c0.111,0.171,0.147,0.375,0.103,0.574
					C7.097,7.232,6.716,7.486,6.318,7.416L6.295,7.412C6.073,7.366,5.889,7.227,5.784,7.031C5.774,7.164,5.782,7.295,5.81,7.422
					l0.054,0.244L5.186,7.526z M5.671,7.476L5.666,7.453C5.639,7.328,5.628,7.199,5.634,7.068C5.588,7.191,5.527,7.305,5.452,7.409
					L5.438,7.428L5.671,7.476z M5.877,6.877c0.072,0.202,0.24,0.348,0.448,0.391L6.338,7.27C6.66,7.33,6.976,7.117,7.043,6.796
					C7.11,6.468,6.898,6.146,6.571,6.079C6.56,6.076,6.547,6.075,6.535,6.073L6.338,6.047l0.11-0.157
					c0.047-0.068,0.08-0.143,0.096-0.224C6.612,5.338,6.4,5.016,6.072,4.948C6.065,4.946,6.057,4.945,6.049,4.944
					C5.722,4.889,5.409,5.11,5.351,5.438C5.338,5.513,5.339,5.589,5.355,5.664l0.038,0.188l-0.19-0.054
					C5.19,5.794,5.178,5.791,5.167,5.788C4.839,5.721,4.517,5.932,4.449,6.26C4.383,6.581,4.589,6.902,4.908,6.975l0.013,0.003
					c0.209,0.043,0.42-0.025,0.566-0.181l0.016-0.017l0.171,0.094l0.194-0.018L5.877,6.877z"/>
			</g>
		</g>
		<g>
			<g opacity="0.8">
				<path fill="#423F3F" d="M5.259,7.497l0.108-0.149C5.46,7.219,5.53,7.074,5.575,6.916L5.537,6.895
					C5.367,7.058,5.13,7.128,4.9,7.08L4.879,7.075C4.514,6.988,4.274,6.618,4.345,6.25c0.036-0.189,0.144-0.352,0.304-0.458
					C4.808,5.685,5,5.647,5.188,5.686c0.014,0.003,0.028,0.007,0.041,0.011l0.026,0.007L5.252,5.682
					C5.233,5.589,5.233,5.494,5.253,5.399c0.079-0.384,0.457-0.632,0.841-0.553c0.018,0.004,0.036,0.008,0.053,0.013
					C6.48,4.954,6.699,5.286,6.656,5.63C6.641,5.747,6.6,5.854,6.533,5.949L6.522,5.966l0.02,0.003
					c0.022,0.003,0.036,0.005,0.05,0.008c0.188,0.039,0.349,0.149,0.454,0.31C7.15,6.448,7.184,6.64,7.142,6.828
					C7.061,7.194,6.695,7.439,6.325,7.374L6.305,7.37C6.073,7.322,5.883,7.165,5.792,6.948L5.749,6.952
					C5.728,7.115,5.734,7.276,5.769,7.431l0.04,0.18L5.259,7.497z"/>
			</g>
		</g>
	</g>
	<g>
		<g>
			<path fill="#423F3F" d="M7.656,10.205l-0.008,0.161l0.112,0.023l0.055-0.151l0.114,0.024l-0.266,0.695l-0.145-0.03l0.03-0.744
				L7.656,10.205z M7.618,10.779l0.007,0.001l0.1-0.293L7.64,10.47L7.618,10.779z"/>
		</g>
		<g>
			<g>
				<g opacity="0.8">
					<path fill="#423F3F" d="M7.984,9.448l-0.036,0.05C7.93,9.524,7.915,9.553,7.904,9.584c0.043-0.034,0.098-0.048,0.153-0.036
						l0.006,0.001c0.097,0.023,0.158,0.118,0.14,0.216c-0.009,0.049-0.038,0.092-0.079,0.12C8.081,9.912,8.031,9.922,7.982,9.912
						c0,0-0.001,0-0.001,0c0.004,0.026,0.002,0.052-0.006,0.077c-0.025,0.087-0.112,0.144-0.202,0.132
						c-0.005-0.001-0.009-0.001-0.014-0.002c-0.1-0.021-0.165-0.119-0.145-0.22C7.618,9.878,7.626,9.858,7.637,9.84
						c0,0-0.001,0-0.001,0C7.587,9.83,7.545,9.801,7.517,9.759C7.49,9.717,7.481,9.667,7.492,9.617
						c0.022-0.097,0.115-0.16,0.214-0.143l0.006,0.001c0.055,0.011,0.1,0.046,0.126,0.094c0.003-0.033,0-0.065-0.006-0.096
						l-0.013-0.06L7.984,9.448z M7.865,9.46l0.001,0.006c0.007,0.031,0.01,0.063,0.008,0.095C7.885,9.53,7.9,9.502,7.919,9.476
						l0.003-0.005L7.865,9.46z M7.906,9.632L7.864,9.609L7.816,9.613L7.814,9.608c-0.018-0.05-0.059-0.086-0.11-0.096L7.701,9.511
						C7.621,9.496,7.543,9.548,7.527,9.628C7.51,9.708,7.562,9.788,7.643,9.804c0.003,0.001,0.006,0.001,0.009,0.001l0.048,0.006
						L7.673,9.851C7.663,9.867,7.655,9.884,7.651,9.902c-0.019,0.08,0.03,0.16,0.11,0.18c0.002,0,0.004,0.001,0.006,0.001
						c0.081,0.017,0.16-0.035,0.177-0.116c0.004-0.02,0.004-0.04,0-0.06L7.933,9.861l0.047,0.013
						c0.003,0.001,0.006,0.002,0.009,0.002C8.07,9.893,8.149,9.841,8.166,9.76c0.016-0.079-0.034-0.158-0.113-0.176L8.05,9.583
						C7.998,9.572,7.946,9.589,7.91,9.628L7.906,9.632z"/>
				</g>
			</g>
			<g>
				<g opacity="0.8">
					<path fill="#423F3F" d="M7.831,9.427l0.01,0.044c0.008,0.038,0.01,0.078,0.005,0.118L7.835,9.59
						C7.813,9.537,7.766,9.498,7.709,9.486L7.704,9.485C7.613,9.469,7.522,9.53,7.502,9.62C7.492,9.666,7.5,9.713,7.526,9.753
						C7.552,9.793,7.592,9.82,7.638,9.83c0.004,0.001,0.007,0.001,0.01,0.002l0.007,0.001L7.652,9.837
						C7.639,9.856,7.629,9.878,7.624,9.901c-0.02,0.095,0.042,0.188,0.136,0.207c0.004,0.001,0.009,0.002,0.013,0.002
						c0.085,0.011,0.167-0.043,0.191-0.125C7.973,9.958,7.974,9.93,7.968,9.902L7.967,9.897l0.005,0.001
						C7.977,9.9,7.981,9.9,7.984,9.901c0.046,0.01,0.094,0,0.133-0.026c0.039-0.026,0.066-0.066,0.075-0.113
						C8.209,9.671,8.15,9.58,8.06,9.559L8.055,9.558C7.998,9.546,7.94,9.563,7.898,9.603L7.889,9.598
						C7.9,9.559,7.917,9.523,7.94,9.492l0.027-0.037L7.831,9.427z"/>
				</g>
			</g>
		</g>
	</g>
	<linearGradient id="SVGID_9_" gradientUnits="userSpaceOnUse" x1="4.6227" y1="10.4836" x2="8.0121" y2="2.2037">
		<stop  offset="0" style="stop-color:#FAC63A"/>
		<stop  offset="1" style="stop-color:#FCE335"/>
	</linearGradient>
	<path fill="url(#SVGID_9_)" stroke="#232C3B" stroke-width="0.1" stroke-miterlimit="10" d="M11.184,2.154L5.043,0.075
		c-0.117-0.04-0.244,0.023-0.284,0.14L1.61,9.519C1.57,9.636,1.633,9.763,1.75,9.803l6.141,2.079c0.117,0.04,0.244-0.023,0.284-0.14
		l3.149-9.304C11.364,2.32,11.301,2.193,11.184,2.154z"/>
	<g>
		<path fill="#232C3B" d="M4.928,1.289l0.35-0.657l0.14,0.047L5.296,1.414l-0.11-0.037l0.029-0.158L5.107,1.182L5.033,1.325
			L4.928,1.289z M5.154,1.088l0.082,0.028l0.062-0.303L5.291,0.811L5.154,1.088z"/>
	</g>
	<g>
		<path fill="#232C3B" d="M4.783,2.124l0.027-0.029c0.031-0.034,0.056-0.074,0.074-0.119L4.868,1.966
			C4.819,2.007,4.753,2.019,4.692,1.999C4.683,1.996,4.674,1.992,4.665,1.987c-0.073-0.038-0.1-0.122-0.069-0.214
			c0.073-0.215,0.43-0.301,0.479-0.311C5.107,1.5,5.338,1.784,5.266,2C5.235,2.092,5.162,2.142,5.082,2.128
			c-0.01-0.002-0.019-0.004-0.028-0.007l0,0c-0.061-0.021-0.106-0.07-0.12-0.133L4.915,1.987C4.902,2.033,4.898,2.08,4.902,2.126
			l0.004,0.039L4.783,2.124z"/>
	</g>
	<g>
		<path fill="#232C3B" d="M5.82,7.223l0.108-0.117c0.127-0.138,0.228-0.3,0.3-0.481L6.167,6.582C5.966,6.75,5.7,6.8,5.453,6.717
			C5.416,6.704,5.379,6.688,5.344,6.67C5.047,6.516,4.938,6.175,5.065,5.801c0.297-0.874,1.746-1.22,1.942-1.263
			C7.136,4.691,8.073,5.846,7.779,6.72C7.653,7.094,7.36,7.299,7.033,7.242C6.994,7.235,6.955,7.225,6.918,7.213l0,0
			C6.672,7.129,6.49,6.927,6.433,6.672L6.358,6.67C6.304,6.857,6.286,7.047,6.304,7.234l0.015,0.159L5.82,7.223z"/>
	</g>
	<g>
		<path fill="#232C3B" d="M7.851,10.193l-0.028,0.158l0.108,0.037l0.073-0.143l0.11,0.037l-0.349,0.657l-0.14-0.047l0.121-0.734
			L7.851,10.193z M7.743,10.759l0.007,0.002l0.135-0.278l-0.082-0.028L7.743,10.759z"/>
	</g>
	<g>
		<path fill="#232C3B" d="M8.137,9.407l0.004,0.039c0.004,0.046,0,0.093-0.013,0.139L8.109,9.584
			C8.095,9.522,8.05,9.472,7.989,9.451C7.98,9.448,7.971,9.446,7.961,9.444C7.88,9.43,7.807,9.48,7.776,9.572
			c-0.073,0.216,0.159,0.5,0.191,0.538c0.048-0.011,0.405-0.096,0.478-0.312C8.477,9.707,8.45,9.623,8.378,9.585
			C8.369,9.58,8.36,9.576,8.351,9.573l0,0C8.29,9.553,8.224,9.565,8.175,9.607L8.16,9.596c0.018-0.045,0.042-0.085,0.074-0.119
			L8.26,9.448L8.137,9.407z"/>
	</g>
</g>
</svg>
