<?xml version="1.0" encoding="utf-8"?>
<!-- Generator: Adobe Illustrator 27.1.1, SVG Export Plug-In . SVG Version: 6.00 Build 0)  -->
<svg version="1.1" id="圖層_1" xmlns="http://www.w3.org/2000/svg" xmlns:xlink="http://www.w3.org/1999/xlink" x="0px" y="0px"
	 viewBox="0 0 100 100" style="enable-background:new 0 0 100 100;" xml:space="preserve">
<style type="text/css">
	.st0{fill:#FFFFFF;}
	.st1{fill:#1A1A1A;}
</style>
<g>
	<g>
		<g>
			<g>
				<path class="st0" d="M31.4,57c-1,0-1.7-0.5-2.4-1.2c-2.2-2.6-2.2-8.9,0-11.6c0.6-0.7,1.4-1.2,2.4-1.2l14-1.7
					c-2-16.6-9.5-27.6-16.4-27.6c-8,0-16.9,14.9-16.9,36.3s8.9,36.3,16.9,36.3c6.8,0,14.4-11,16.4-27.6C45.4,58.7,31.4,57,31.4,57z"
					/>
			</g>
		</g>
		<g>
			<g>
				<path class="st1" d="M86.8,37.7h-7.7c-1-2.8-2.3-4.7-4.1-4.7c-4.5,0-9-1.1-13.3-2.7c-6.2-2.4-12.1-6.1-17.9-10.3
					c-0.3-0.6-0.7-1.1-1-1.7C39.1,12.5,34.3,9,29.1,9s-10,3.5-13.7,9.4c-0.8,1.3-1.6,2.7-2.2,4.1c-0.5,1-0.9,2-1.3,3
					c-0.2,0.5-0.4,1.1-0.6,1.6c-0.6,1.7-1.1,3.4-1.6,5.1c-0.5,1.8-0.9,3.7-1.2,5.6c-0.6,3.8-1,7.9-1,12.2c0,22.6,9.7,41,21.6,41
					c5.2,0,10-3.5,13.7-9.3c6.6-4.5,13-8.6,18.9-11.3c4.7-2.1,9.1-3.4,13.3-3.4c1.8,0,3.1-1.8,4.1-4.6h7.7
					C94.4,62.3,94.4,37.7,86.8,37.7z M29.1,86.3c-8,0-16.9-14.9-16.9-36.3s8.9-36.3,16.9-36.3c6.8,0,14.4,11,16.4,27.6l-14,1.7
					c-1,0-1.7,0.5-2.4,1.2c-2.2,2.6-2.2,8.9,0,11.6c0.6,0.7,1.4,1.2,2.4,1.2l14,1.7C43.5,75.3,35.9,86.3,29.1,86.3z"/>
			</g>
		</g>
		<g>
			<g>
				<path d="M29.1,86.3L29.1,86.3C29.1,86.3,29.1,86.3,29.1,86.3z"/>
			</g>
		</g>
		<g>
			<g>
				<path d="M27.5,86.1"/>
			</g>
		</g>
		<g>
			<g>
				<path d="M29.9,86.2c0,0-0.1,0-0.1,0C29.8,86.2,29.9,86.2,29.9,86.2z"/>
			</g>
		</g>
		<g>
			<g>
				<path d="M30.7,86.1l-0.1,0C30.6,86.1,30.6,86.1,30.7,86.1z"/>
			</g>
		</g>
		<g>
			<g>
				<path d="M31.4,85.9c0,0-0.1,0-0.1,0L31.4,85.9z"/>
			</g>
		</g>
		<g>
			<g>
				<path d="M28.2,86.2"/>
			</g>
		</g>
		<g>
			<g>
				<path d="M32.1,85.6L32.1,85.6L32.1,85.6z"/>
			</g>
		</g>
		<g>
			<g>
				<path d="M32.1,14.4L32.1,14.4L32.1,14.4z"/>
			</g>
		</g>
		<g>
			<g>
				<path d="M30.5,13.9l0.1,0L30.5,13.9z"/>
			</g>
		</g>
		<g>
			<g>
				<path d="M31.3,14.1l0.1,0C31.4,14.1,31.3,14.1,31.3,14.1z"/>
			</g>
		</g>
		<g>
			<g>
				<path class="st1" d="M45.4,41.3l-14,1.7c-1,0-1.7,0.5-2.4,1.2l0,0c-2.2,2.6-2.2,8.9,0,11.6l0,0c0.6,0.7,1.4,1.2,2.4,1.2l14,1.7
					c0.3-2.9,0.5-5.8,0.5-8.7C45.9,47,45.8,44.1,45.4,41.3z"/>
			</g>
		</g>
		<g>
			<g>
				<path d="M29.1,13.7C29.1,13.7,29.1,13.7,29.1,13.7L29.1,13.7z"/>
			</g>
		</g>
		<g>
			<g>
				<path d="M26.1,14.4"/>
			</g>
		</g>
		<g>
			<g>
				<path d="M26.9,14.1"/>
			</g>
		</g>
		<g>
			<g>
				<path d="M29.8,13.8c0,0,0.1,0,0.1,0C29.9,13.8,29.8,13.8,29.8,13.8z"/>
			</g>
		</g>
		<g>
			<g>
				<path d="M26.8,85.9"/>
			</g>
		</g>
		<g>
			<g>
				<path d="M27.6,13.9"/>
			</g>
		</g>
	</g>
</g>
</svg>
