<svg width="55" height="36" viewBox="0 0 55 36" fill="none" xmlns="http://www.w3.org/2000/svg">
<path d="M9.04256 8.63643C8.57969 8.39784 8.07862 8.29763 7.57758 8.17834C7.51077 8.16402 7.4917 8.18311 7.47739 8.24514C7.42013 8.48851 7.35809 8.7271 7.29606 8.96569C7.20539 9.32357 7.11947 9.67669 7.02881 10.0441C7.05267 10.0537 7.07175 10.0632 7.08607 10.068C7.49644 10.173 7.90209 10.2827 8.32678 10.3209C8.61309 10.3447 8.89459 10.34 9.17612 10.2541C9.66285 10.0966 9.84422 9.48104 9.577 9.08976C9.44338 8.88934 9.25251 8.75573 9.04256 8.64598V8.63643Z" fill="#F7931E"/>
<path d="M9.30506 5.88923C8.96626 5.73176 8.60361 5.65541 8.24573 5.56952C8.17415 5.55043 8.14553 5.56951 8.13121 5.63632C8.00237 6.15168 7.8735 6.6718 7.74467 7.18716C7.73035 7.24442 7.74466 7.26828 7.80192 7.27782C7.89736 7.30168 7.98807 7.32554 8.0835 7.3494C8.41753 7.43052 8.74677 7.5021 9.13805 7.48778C9.20009 7.47824 9.3051 7.46869 9.4053 7.44484C9.87771 7.33986 10.121 6.78632 9.89198 6.36641C9.76314 6.13259 9.54843 5.99898 9.31461 5.88923H9.30506Z" fill="#F7931E"/>
<path d="M7.90692 0C3.54071 0 0 3.54068 0 7.90688C0 12.2731 3.54071 15.8138 7.90692 15.8138C12.2731 15.8138 15.8138 12.2731 15.8138 7.90688C15.8138 3.54068 12.2731 0 7.90692 0ZM11.648 7.11476C11.5812 7.39153 11.4666 7.63966 11.2615 7.84008C11.104 7.99755 10.9179 8.09776 10.708 8.16456C10.6793 8.17411 10.6459 8.18365 10.6077 8.19796C10.7127 8.26477 10.8081 8.32203 10.8988 8.38884C11.1946 8.60357 11.4094 8.87556 11.4858 9.24299C11.5478 9.5293 11.5144 9.80606 11.4428 10.0828C11.3521 10.4216 11.2138 10.7413 10.9847 11.0086C10.7127 11.3235 10.3644 11.4953 9.95876 11.5669C9.4434 11.6528 8.93284 11.6003 8.42703 11.5048C8.34113 11.4905 8.30771 11.5048 8.28863 11.5907C8.18842 12.0011 8.08821 12.4067 7.988 12.8171C7.95937 12.9268 7.95941 12.9316 7.84966 12.903C7.61584 12.8457 7.38675 12.7837 7.15293 12.7312C7.08136 12.7169 7.07658 12.6835 7.0909 12.6214C7.19588 12.2015 7.30087 11.7864 7.40585 11.3664C7.4154 11.3235 7.42497 11.2901 7.37248 11.2758C7.17206 11.2233 6.96685 11.1708 6.75689 11.1183C6.69963 11.3474 6.64238 11.5716 6.58989 11.7959C6.53263 12.0202 6.47538 12.2492 6.41811 12.4735C6.4038 12.5308 6.38468 12.5451 6.32742 12.526C6.08406 12.464 5.83596 12.4019 5.58783 12.3447C5.52102 12.3303 5.51142 12.2969 5.53051 12.2349C5.63549 11.815 5.74048 11.3951 5.84546 10.9752C5.85501 10.9465 5.8598 10.9131 5.86457 10.8749C5.28241 10.727 4.70978 10.5839 4.12285 10.4359C4.16579 10.3405 4.19919 10.2546 4.23737 10.1687C4.3328 9.94922 4.42823 9.72971 4.52366 9.51021C4.55229 9.44341 4.58571 9.42432 4.65729 9.44818C4.83862 9.50067 5.02473 9.54361 5.21083 9.58656C5.40171 9.6295 5.5496 9.53884 5.59732 9.35274C5.91703 8.0739 6.23675 6.79505 6.55646 5.51621C6.60895 5.30625 6.48488 5.09152 6.26061 5.02471C6.04588 4.95791 5.8216 4.90542 5.6021 4.84815C5.56392 4.83861 5.52574 4.83384 5.54006 4.77658C5.61164 4.49027 5.68325 4.20396 5.75483 3.91765C5.75483 3.90811 5.76433 3.89857 5.77387 3.88425C6.04587 3.95106 6.3179 4.01786 6.58989 4.08944C6.86666 4.15624 7.14342 4.22305 7.42018 4.29463C7.49176 4.31371 7.51561 4.30417 7.5347 4.22782C7.63491 3.81267 7.74467 3.39753 7.84488 2.98238C7.86397 2.91557 7.88782 2.89171 7.9594 2.9108C8.19799 2.97761 8.44136 3.03487 8.67995 3.09213C8.74675 3.10644 8.7563 3.13508 8.74198 3.19711C8.637 3.60271 8.53679 4.01309 8.43658 4.42346C8.43181 4.45209 8.42702 4.48073 8.41747 4.51413C8.62743 4.56662 8.83264 4.61434 9.03783 4.65728C9.05692 4.65728 9.0951 4.61434 9.10464 4.59048C9.18577 4.27554 9.26689 3.95583 9.34324 3.64089C9.36709 3.54545 9.39091 3.45001 9.41477 3.34981C9.42431 3.30686 9.44819 3.28777 9.49591 3.29732C9.74881 3.36412 10.0065 3.42616 10.2594 3.48819C10.2785 3.49296 10.2976 3.50728 10.3166 3.51682C10.2403 3.83176 10.1639 4.14193 10.0828 4.4521C10.0494 4.58094 10.0208 4.705 9.98264 4.83384C9.96355 4.90542 9.97788 4.93405 10.0495 4.96745C10.3262 5.08674 10.6077 5.20604 10.875 5.35397C11.1374 5.49712 11.3569 5.69754 11.5144 5.95521C11.7434 6.32264 11.7625 6.71871 11.6623 7.12908L11.648 7.11476Z" fill="#F7931E"/>
<path d="M27.4522 6.93784C27.4999 6.89967 27.5857 6.83764 27.6621 6.76606C28.02 6.44158 27.9627 5.84033 27.5523 5.58742C27.3233 5.44904 27.0704 5.4395 26.8127 5.45858C26.4405 5.48722 26.0874 5.60174 25.7295 5.70672C25.658 5.7258 25.6436 5.75443 25.6627 5.82124C25.8059 6.33182 25.949 6.84718 26.0922 7.36253C26.1065 7.4198 26.1351 7.42934 26.1876 7.41502C26.2783 7.38639 26.3737 7.36253 26.4644 7.33867C26.7937 7.24801 27.1181 7.14303 27.4474 6.93784H27.4522Z" fill="#59BF93"/>
<path d="M28.6261 8.10364C28.4114 7.99866 28.1776 7.9748 27.9438 7.98435C27.4236 8.00343 26.9369 8.16567 26.4406 8.30883C26.3738 8.32792 26.3691 8.35655 26.3882 8.41381C26.4597 8.6524 26.5217 8.89099 26.5885 9.12958C26.6887 9.48269 26.7842 9.83581 26.8844 10.1985C26.913 10.1985 26.9321 10.1985 26.9464 10.1889C27.352 10.0792 27.7624 9.97419 28.1489 9.79763C28.4114 9.67834 28.6548 9.53518 28.8504 9.32045C29.194 8.94348 29.0508 8.31837 28.6213 8.10841L28.6261 8.10364Z" fill="#59BF93"/>
<path d="M26.5931 0C22.2269 0 18.6863 3.54068 18.6863 7.90688C18.6863 12.2731 22.2269 15.8138 26.5931 15.8138C30.9593 15.8138 34.5001 12.2731 34.5001 7.90688C34.5001 3.54068 30.9593 0 26.5931 0ZM30.7971 9.09506C30.716 9.50544 30.4965 9.82515 30.1768 10.0828C29.7712 10.4121 29.2988 10.6173 28.812 10.7891C28.7309 10.8177 28.7071 10.8511 28.731 10.9322C28.8455 11.3378 28.96 11.7434 29.0745 12.1442C29.1079 12.254 29.1079 12.254 28.9934 12.2874C28.7643 12.3542 28.5305 12.4115 28.3015 12.483C28.2299 12.5021 28.2108 12.483 28.1917 12.4162C28.0772 12.0011 27.9579 11.5859 27.8481 11.1708C27.8386 11.1279 27.8291 11.0944 27.7766 11.1088C27.5762 11.1613 27.371 11.2185 27.161 11.2758C27.223 11.5048 27.2851 11.7243 27.3471 11.9486C27.4092 12.1729 27.4712 12.3972 27.5332 12.6214C27.5475 12.6787 27.5379 12.6978 27.4807 12.7121C27.2373 12.7789 26.9892 12.8457 26.7459 12.9173C26.6838 12.9364 26.66 12.9173 26.6409 12.8505C26.5264 12.4353 26.4118 12.0154 26.2925 11.6003C26.283 11.5716 26.2734 11.5382 26.2591 11.5001C25.6817 11.6575 25.1091 11.815 24.527 11.9772C24.5127 11.8723 24.5031 11.7816 24.4936 11.6909C24.4697 11.4523 24.4459 11.2137 24.4172 10.9752C24.4077 10.9036 24.4315 10.8702 24.5031 10.8559C24.6892 10.8081 24.8705 10.7557 25.0519 10.7032C25.238 10.6459 25.3239 10.498 25.2714 10.3071C24.9183 9.0378 24.5651 7.7685 24.212 6.4992C24.1547 6.29401 23.9401 6.16517 23.711 6.21766C23.4867 6.26538 23.272 6.33219 23.0525 6.38945C23.0143 6.39899 22.9809 6.41331 22.9666 6.35605C22.8902 6.06974 22.8091 5.7882 22.7328 5.50667C22.7328 5.49712 22.7328 5.48281 22.7328 5.46849C23.0048 5.39214 23.272 5.32056 23.5392 5.24421C23.816 5.16787 24.088 5.08675 24.3647 5.01517C24.4363 4.99608 24.4506 4.97222 24.4316 4.90064C24.3123 4.49027 24.2025 4.07512 24.0879 3.66475C24.0689 3.59794 24.0784 3.56454 24.15 3.54545C24.3886 3.48342 24.6272 3.41661 24.8657 3.34504C24.9326 3.32595 24.9517 3.34504 24.9708 3.40707C25.0805 3.81267 25.195 4.21828 25.3095 4.62388C25.3191 4.65251 25.3286 4.67637 25.3381 4.70977C25.5481 4.64774 25.7485 4.59525 25.949 4.52844C25.9633 4.52367 25.9776 4.46641 25.9728 4.43778C25.8869 4.12284 25.801 3.8079 25.7104 3.49296C25.6817 3.39753 25.6579 3.30209 25.6293 3.20665C25.615 3.16371 25.6293 3.13508 25.677 3.12076C25.9299 3.05396 26.1828 2.98238 26.4357 2.9108C26.4548 2.90603 26.4739 2.9108 26.5025 2.9108C26.5884 3.22097 26.6743 3.53114 26.7602 3.83653C26.7936 3.9606 26.8318 4.08944 26.8604 4.21828C26.8795 4.28985 26.9081 4.30894 26.9845 4.2994C27.2851 4.266 27.5905 4.23259 27.8911 4.22782C28.187 4.22305 28.478 4.28986 28.7452 4.43301C29.127 4.64297 29.3369 4.97699 29.4514 5.3826C29.5278 5.65459 29.5517 5.92658 29.4753 6.20335C29.4133 6.41808 29.3035 6.59941 29.1556 6.76165C29.1365 6.78551 29.1127 6.80937 29.0841 6.838C29.2081 6.84754 29.3179 6.84754 29.4324 6.86186C29.7951 6.90003 30.1147 7.03364 30.3629 7.31518C30.5537 7.53468 30.6683 7.79236 30.7399 8.06912C30.8258 8.40792 30.8639 8.75149 30.7971 9.10461V9.09506Z" fill="#59BF93"/>
<path d="M46.1195 19.2051C41.7533 19.2051 38.2126 22.7458 38.2126 27.112C38.2126 31.4782 41.7533 35.0188 46.1195 35.0188C50.4857 35.0188 54.0264 31.4782 54.0264 27.112C54.0264 22.7458 50.4857 19.2051 46.1195 19.2051ZM50.1708 28.0663C48.9444 29.7937 47.7181 31.5163 46.4965 33.2437C46.3677 33.4251 46.2388 33.6064 46.11 33.7877C46.11 33.7925 46.1052 33.7973 46.1004 33.8068H46.0908C46.0908 33.8068 46.0813 33.7829 46.0718 33.7734C45.6614 33.1912 45.2463 32.6091 44.8359 32.0269C44.416 31.4304 43.9913 30.8387 43.5714 30.2423C43.1658 29.6697 42.7554 29.0923 42.3498 28.5196C42.2448 28.3669 42.1351 28.219 42.0301 28.0663C42.0205 28.0568 42.0158 28.0425 42.0062 28.0282C42.0253 28.0282 42.0348 28.0377 42.0491 28.0472C42.6265 28.386 43.1991 28.7296 43.7765 29.0684C44.4398 29.4597 45.1031 29.851 45.7664 30.2423C45.8761 30.3091 45.9906 30.3759 46.1004 30.4379C46.3772 30.2757 46.6539 30.1087 46.9307 29.9464C48.0091 29.3118 49.0828 28.6771 50.1612 28.0377C50.1708 28.0329 50.1755 28.0281 50.1851 28.0234C50.1851 28.0234 50.1899 28.0234 50.1946 28.0234C50.1946 28.0377 50.1803 28.052 50.1708 28.0616V28.0663ZM50.1994 27.2408C49.8749 27.4317 49.5457 27.6273 49.2212 27.8182C48.1952 28.4242 47.1693 29.0302 46.1434 29.6362C46.1338 29.641 46.1195 29.6506 46.1052 29.6553C46.0909 29.6744 46.0813 29.6553 46.0718 29.6553C46.0145 29.6219 45.9525 29.5838 45.8952 29.5504C44.6069 28.7916 43.3232 28.0281 42.0348 27.2694C42.0205 27.2599 42.011 27.2551 41.9967 27.2456C41.9919 27.2456 41.9871 27.2456 41.9823 27.2456V27.236C41.9823 27.236 41.9871 27.236 41.9919 27.236C42.0539 27.1358 42.1112 27.0356 42.1732 26.9402C42.5168 26.3723 42.8604 25.7997 43.2039 25.2319C43.5714 24.6211 43.9388 24.0103 44.311 23.3947C44.6498 22.8269 44.9934 22.2638 45.3369 21.696C45.5851 21.2856 45.8332 20.8704 46.0814 20.4601C46.0861 20.4505 46.0956 20.441 46.0956 20.4267H46.11C46.11 20.4267 46.11 20.4314 46.11 20.4362C46.11 20.4362 46.11 20.441 46.11 20.4458C47.4604 22.6837 48.8108 24.9265 50.1612 27.1644C50.1755 27.1883 50.1946 27.2074 50.1994 27.236V27.2456V27.2408Z" fill="#6679BB"/>
<path d="M46.1339 0.973523C42.3355 0.959207 39.2338 3.99408 39.1813 7.84492C39.1288 11.6481 42.2258 14.7927 46.0814 14.8356C49.875 14.8786 53.0005 11.7817 53.0482 7.92604C53.0434 4.09428 49.9895 0.983065 46.1339 0.96875V0.973523ZM49.6316 10.7128C49.5696 10.9561 49.4932 11.1995 49.4359 11.4429C49.4073 11.5669 49.3501 11.6003 49.226 11.6003C47.5654 11.6003 45.9001 11.6003 44.2395 11.6003H42.7841C43.0131 10.7366 43.2326 9.90157 43.4664 9.02356C43.1228 9.16194 42.8127 9.28601 42.4691 9.42439C42.5789 9.05219 42.6743 8.71816 42.7841 8.38414C42.7984 8.34596 42.8652 8.32211 42.9129 8.30302C43.1467 8.20758 43.3853 8.12646 43.6143 8.02148C43.6812 7.98808 43.7575 7.91173 43.7766 7.84015C44.1297 6.54222 44.4781 5.23952 44.8169 3.93681C44.855 3.79843 44.9027 3.74117 45.0554 3.74594C45.7521 3.75548 46.4536 3.74594 47.1503 3.74594C47.2028 3.74594 47.2553 3.75072 47.3316 3.75549C47.0692 4.7862 46.8115 5.80259 46.5395 6.8667C46.9498 6.70446 47.322 6.55176 47.7372 6.38475C47.6752 6.58994 47.6036 6.76173 47.5797 6.94305C47.5273 7.34866 47.3077 7.5777 46.9117 7.66837C46.7304 7.71131 46.5585 7.78766 46.3915 7.86878C46.3295 7.89741 46.2627 7.96422 46.2436 8.02625C46.0671 8.68953 45.9 9.35281 45.733 10.0161C45.733 10.0352 45.733 10.0495 45.733 10.0877C47.0691 10.1163 48.4005 10.1449 49.7604 10.1783C49.7127 10.374 49.6698 10.5458 49.6268 10.7176L49.6316 10.7128Z" fill="#315E9E"/>
<path d="M26.5934 19.6074C22.2272 19.6074 18.6865 23.1481 18.6865 27.5143C18.6865 31.8805 22.2272 35.4212 26.5934 35.4212C30.9596 35.4212 34.5003 31.8805 34.5003 27.5143C34.5003 23.1481 30.9596 19.6074 26.5934 19.6074ZM29.9242 24.8278H27.5573V31.8519H25.6009V24.8278H23.2579V23.1815H29.9194V24.8278H29.9242Z" fill="#24A27A"/>
<path d="M7.90692 19.6074C3.54071 19.6074 0 23.1481 0 27.5143C0 31.8805 3.54071 35.4212 7.90692 35.4212C12.2731 35.4212 15.8138 31.8805 15.8138 27.5143C15.8138 23.1481 12.2731 19.6074 7.90692 19.6074ZM10.7461 31.3127L7.88781 27.9629L4.98657 31.3127H3.67433L7.20064 27.3521L3.92241 23.7112H5.29192L7.93552 26.7413L10.5934 23.7112H11.8961L8.62269 27.3377L12.1491 31.3174H10.7509L10.7461 31.3127Z" fill="#CDCDCD"/>
</svg>
