<svg width="77" height="30" viewBox="0 0 77 30" fill="none" xmlns="http://www.w3.org/2000/svg">
<path d="M28.9171 7.82071C28.8217 7.85888 28.8408 7.95909 28.8026 8.03066C28.5736 8.4649 28.2348 8.74166 27.7337 8.77984C27.6144 8.78938 27.4904 8.79893 27.3711 8.79893C18.8104 8.79893 10.2498 8.79893 1.68917 8.79893C1.30743 8.79893 0.94479 8.76552 0.634623 8.50784C-0.147953 7.86365 0.0190412 6.69933 0.973403 6.25555C2.13295 5.72111 3.30208 5.20576 4.4664 4.68086C7.57762 3.28272 10.6888 1.88458 13.8 0.486438C13.967 0.410089 14.1389 0.348055 14.3106 0.28125C14.4586 0.28125 14.6112 0.28125 14.7592 0.28125C15.3652 0.362371 15.8805 0.686854 16.4197 0.925444C18.2521 1.74142 20.0749 2.56217 21.9025 3.3877C23.5154 4.11778 25.1331 4.83833 26.7412 5.56841C27.1658 5.76406 27.5953 5.95493 28.0248 6.14103C28.5211 6.35576 28.879 6.6707 28.9219 7.24332V7.80639L28.9171 7.82071Z" fill="#33669A"/>
<path d="M28.9173 28.0535C28.8218 28.0917 28.8362 28.1919 28.8027 28.2635C28.5642 28.7645 28.1681 29.0317 27.6146 29.0651C27.5669 29.0651 27.5191 29.0651 27.4762 29.0651C18.844 29.0651 10.207 29.0651 1.57479 29.0651C0.90674 29.0651 0.400935 28.7407 0.210063 28.1919C-0.0810174 27.3521 0.491604 26.5122 1.40779 26.4359C1.51754 26.4263 1.63205 26.4359 1.74657 26.4359C10.2404 26.4359 18.7342 26.4359 27.228 26.4359C28.2397 26.4359 28.5594 26.6458 28.9173 27.5525V28.0583V28.0535Z" fill="#33669A"/>
<path d="M25.9588 23.048C25.7011 23.048 25.6391 22.9765 25.6391 22.7236C25.6486 19.0159 25.6439 15.3082 25.6391 11.6005C25.6391 11.3905 25.6391 11.2569 25.9206 11.276C26.2165 11.2903 26.4598 11.1376 26.5696 10.837C26.6555 10.5936 26.603 10.3694 26.4312 10.1833C26.2451 9.97807 25.9922 9.95898 25.7345 9.95898C20.0227 9.95898 14.3109 9.95898 8.599 9.95898C6.80003 9.95898 5.00103 9.95898 3.20684 9.95898C2.7392 9.95898 2.44812 10.2023 2.42903 10.5889C2.41471 10.9849 2.67716 11.2712 3.14002 11.276C3.38338 11.276 3.39772 11.3714 3.39772 11.5671C3.39772 15.2939 3.39772 19.0206 3.39772 22.7474C3.39772 22.7951 3.39772 22.8429 3.39772 22.8858C3.41203 23.0146 3.34996 23.0528 3.23544 23.0385C3.16386 23.0337 3.08752 23.0385 3.01117 23.0433C2.03295 23.091 1.46034 24.1312 1.93752 24.9854C2.23337 25.5103 2.71536 25.6678 3.2832 25.6678C7.01953 25.6678 10.7558 25.6678 14.4922 25.6678C18.2285 25.6678 21.9457 25.6678 25.6725 25.6678C25.8013 25.6678 25.935 25.663 26.0638 25.6439C26.7843 25.558 27.2997 24.9806 27.2663 24.303C27.2329 23.5873 26.6889 23.0528 25.9493 23.048H25.9588ZM9.65833 23.048C8.53218 23.0337 7.41077 23.0337 6.28463 23.048C6.06512 23.048 6.02699 22.986 6.02699 22.7808C6.03176 19.035 6.03176 15.2891 6.02699 11.5432C6.02699 11.3333 6.07944 11.2808 6.2894 11.2855C7.42032 11.2951 8.55601 11.2951 9.68693 11.2855C9.88734 11.2855 9.93507 11.338 9.93029 11.5337C9.92075 13.4185 9.93029 15.2986 9.93029 17.1835C9.93029 19.0684 9.9303 20.9103 9.93507 22.7761C9.93507 22.9956 9.8826 23.0576 9.65833 23.0528V23.048ZM16.21 23.048C15.0791 23.0385 13.9434 23.0385 12.8125 23.048C12.5978 23.048 12.5548 22.9908 12.5548 22.7856C12.5643 20.9055 12.5596 19.0206 12.5596 17.1406C12.5596 15.2605 12.5596 13.4329 12.5548 11.5814C12.5548 11.3619 12.5882 11.2808 12.8363 11.2855C13.9672 11.2999 15.103 11.2951 16.2339 11.2855C16.4248 11.2855 16.4868 11.3333 16.4868 11.5337C16.482 15.2891 16.482 19.0397 16.4868 22.7951C16.4868 23.0194 16.4104 23.048 16.2148 23.048H16.21ZM23.0194 22.7522C23.0194 22.9717 22.9859 23.0528 22.7378 23.0528C21.6069 23.0385 20.4712 23.0433 19.3403 23.0528C19.159 23.0528 19.1017 23.0099 19.1017 22.8238C19.1065 19.0588 19.1065 15.2939 19.1017 11.5289C19.1017 11.3476 19.1447 11.2903 19.3356 11.2903C20.476 11.2999 21.6212 11.2999 22.7617 11.2903C22.9669 11.2903 23.0242 11.3333 23.0242 11.548C23.0146 13.4281 23.0194 15.313 23.0194 17.193C23.0194 19.0731 23.0194 20.9007 23.0242 22.757L23.0194 22.7522Z" fill="#33669A"/>
<path d="M36.137 5.74536C36.5855 5.66424 37.4874 5.58789 38.3511 5.58789C39.3961 5.58789 40.0355 5.6881 40.5986 6.01735C41.1283 6.29889 41.4957 6.81424 41.4957 7.51093C41.4957 8.20761 41.1044 8.78977 40.2503 9.11903V9.14289C41.114 9.36716 41.7582 10.0304 41.7582 10.9943C41.7582 11.691 41.4432 12.2302 40.9708 12.612C40.422 13.051 39.5011 13.2991 37.9932 13.2991C37.1486 13.2991 36.5235 13.2419 36.1417 13.1846V5.74536H36.137ZM37.8357 8.64185H38.3988C39.3102 8.64185 39.7826 8.26965 39.7826 7.71134C39.7826 7.15304 39.3436 6.83333 38.5706 6.83333C38.1888 6.83333 37.9741 6.85719 37.8405 6.87628V8.64185H37.8357ZM37.8357 12.0012C38.0027 12.0251 38.2079 12.0251 38.499 12.0251C39.272 12.0251 39.9592 11.7197 39.9592 10.9228C39.9592 10.1688 39.2721 9.8682 38.4179 9.8682H37.8357V12.0012Z" fill="#33669A"/>
<path d="M47.4699 11.8862C47.4699 12.4016 47.4938 12.9074 47.5606 13.2128H46.0193L45.9191 12.664H45.8856C45.5278 13.103 44.9647 13.3368 44.311 13.3368C43.1992 13.3368 42.5359 12.5304 42.5359 11.6524C42.5359 10.2256 43.8147 9.55279 45.7616 9.55279V9.48598C45.7616 9.18059 45.6041 8.76544 44.7595 8.76544C44.1964 8.76544 43.6048 8.95631 43.2421 9.18059L42.9272 8.0783C43.3089 7.86357 44.0628 7.58203 45.0601 7.58203C46.8925 7.58203 47.4651 8.66046 47.4651 9.96316V11.8862H47.4699ZM45.8189 10.6169C44.9218 10.6169 44.2251 10.8316 44.2251 11.4806C44.2251 11.9196 44.5162 12.1343 44.8979 12.1343C45.3131 12.1343 45.6709 11.8528 45.7855 11.5045C45.8093 11.4138 45.8189 11.3136 45.8189 11.2134V10.6169Z" fill="#33669A"/>
<path d="M48.83 9.47102C48.83 8.78388 48.8062 8.21127 48.7871 7.71977H50.2711L50.3475 8.48326H50.3809C50.6052 8.12537 51.1539 7.5957 52.0749 7.5957C53.1963 7.5957 54.0409 8.34965 54.0409 9.96729V13.2121H52.3325V10.1677C52.3325 9.46148 52.0844 8.97476 51.4689 8.97476C50.9965 8.97476 50.7149 9.29924 50.5909 9.61418C50.5479 9.7287 50.5335 9.8814 50.5335 10.0389V13.2073H48.8253V9.46625L48.83 9.47102Z" fill="#33669A"/>
<path d="M57.1234 10.0348H57.1473C57.2714 9.80099 57.405 9.57195 57.5386 9.37153L58.6504 7.72049H60.7071L58.7411 9.94415L60.9886 13.2128H58.889L57.5529 10.9558L57.1282 11.495V13.2128H55.4199V5.23438H57.1282V10.03L57.1234 10.0348Z" fill="#33669A"/>
<path d="M37.6066 20.5613H35.5596V19.125H41.3812V20.5613H39.315V26.6931H37.6066V20.5613Z" fill="#33669A"/>
<path d="M41.6294 23.0144C41.6294 22.208 41.6198 21.6783 41.5864 21.2059H43.0466L43.1134 22.2175H43.1564C43.4379 21.4063 44.1012 21.0723 44.6404 21.0723C44.7979 21.0723 44.8742 21.0818 44.9983 21.1057V22.7138C44.8647 22.6899 44.7311 22.6708 44.5402 22.6708C43.9103 22.6708 43.4857 23.0096 43.3711 23.5345C43.3473 23.649 43.3377 23.7827 43.3377 23.9163V26.703H41.6294V23.0192V23.0144Z" fill="#33669A"/>
<path d="M50.3474 25.3725C50.3474 25.8879 50.3713 26.3937 50.4381 26.6991H48.8968L48.7966 26.1503H48.7631C48.4053 26.5893 47.8422 26.8232 47.1885 26.8232C46.0767 26.8232 45.4133 26.0167 45.4133 25.1387C45.4133 23.7119 46.6922 23.0391 48.6391 23.0391V22.9723C48.6391 22.6669 48.4816 22.2518 47.637 22.2518C47.0739 22.2518 46.4822 22.4426 46.1195 22.6669L45.8047 21.5646C46.1864 21.3499 46.9403 21.0684 47.9376 21.0684C49.77 21.0684 50.3426 22.1468 50.3426 23.4495V25.3725H50.3474ZM48.6963 24.1032C47.7992 24.1032 47.1026 24.318 47.1026 24.9669C47.1026 25.4059 47.3937 25.6207 47.7754 25.6207C48.1906 25.6207 48.5484 25.3391 48.663 24.9908C48.6868 24.9001 48.6963 24.7999 48.6963 24.6997V24.1032Z" fill="#33669A"/>
<path d="M51.7072 22.9574C51.7072 22.2702 51.6834 21.6976 51.6643 21.2061H53.1483L53.2246 21.9696H53.2581C53.4823 21.6117 54.0311 21.082 54.952 21.082C56.0734 21.082 56.918 21.836 56.918 23.4536V26.6984H55.2097V23.654C55.2097 22.9478 54.9616 22.4611 54.3461 22.4611C53.8737 22.4611 53.5921 22.7856 53.468 23.1005C53.4251 23.215 53.4107 23.3677 53.4107 23.5252V26.6937H51.7025V22.9526L51.7072 22.9574Z" fill="#33669A"/>
<path d="M58.2829 25.2142C58.5979 25.4051 59.2468 25.6198 59.7526 25.6198C60.2584 25.6198 60.4827 25.4528 60.4827 25.1712C60.4827 24.8897 60.3157 24.7466 59.6858 24.5318C58.5406 24.1501 58.1016 23.5297 58.1111 22.8808C58.1111 21.8453 58.9891 21.0723 60.3491 21.0723C60.9885 21.0723 61.5516 21.2297 61.8904 21.3967L61.5993 22.5754C61.3512 22.4418 60.8692 22.2604 60.4064 22.2604C59.9912 22.2604 59.7526 22.4275 59.7526 22.6995C59.7526 22.9714 59.9674 23.1051 60.6402 23.3389C61.6852 23.6968 62.1099 24.236 62.1242 25.0376C62.1242 26.0731 61.3273 26.8223 59.7526 26.8223C59.0321 26.8223 58.3927 26.6553 57.9775 26.431L58.2829 25.219V25.2142Z" fill="#33669A"/>
<path d="M63.3697 26.6982V22.4609H62.6396V21.2011H63.3697V20.9864C63.3697 20.3231 63.5701 19.593 64.0569 19.1445C64.4959 18.7389 65.078 18.5957 65.5838 18.5957C65.956 18.5957 66.2471 18.653 66.4809 18.7102L66.4141 20.0225C66.2662 19.9795 66.0896 19.9461 65.8653 19.9461C65.3023 19.9461 65.0685 20.3851 65.0685 20.9243V21.2059H66.1707V22.4656H65.0828V26.703H63.3745L63.3697 26.6982Z" fill="#33669A"/>
<path d="M68.2036 24.4928C68.2465 25.199 68.9575 25.5378 69.7544 25.5378C70.3366 25.5378 70.809 25.4615 71.2719 25.304L71.4961 26.4588C70.933 26.6926 70.2507 26.8071 69.5063 26.8071C67.6405 26.8071 66.5764 25.7287 66.5764 24.0108C66.5764 22.6175 67.4401 21.0762 69.3536 21.0762C71.1287 21.0762 71.8015 22.46 71.8015 23.8152C71.8015 24.1063 71.7681 24.3639 71.7443 24.488H68.2036V24.4928ZM70.2125 23.3237C70.2125 22.9085 70.0312 22.2119 69.2486 22.2119C68.5281 22.2119 68.237 22.8751 68.194 23.3237H70.2172H70.2125Z" fill="#33669A"/>
<path d="M72.8225 23.0144C72.8225 22.208 72.8129 21.6783 72.7795 21.2059H74.2397L74.3065 22.2175H74.3494C74.631 21.4063 75.2942 21.0723 75.8335 21.0723C75.9909 21.0723 76.0673 21.0818 76.1913 21.1057V22.7138C76.0577 22.6899 75.9241 22.6708 75.7333 22.6708C75.1034 22.6708 74.6787 23.0096 74.5642 23.5345C74.5403 23.649 74.5308 23.7827 74.5308 23.9163V26.703H72.8225V23.0192V23.0144Z" fill="#33669A"/>
</svg>
