<?xml version="1.0" encoding="utf-8"?>
<!-- Generator: Adobe Illustrator 27.1.0, SVG Export Plug-In . SVG Version: 6.00 Build 0)  -->
<svg version="1.1" id="Layer_1" xmlns="http://www.w3.org/2000/svg" xmlns:xlink="http://www.w3.org/1999/xlink" x="0px" y="0px"
	 viewBox="0 0 144 144" style="enable-background:new 0 0 144 144;" xml:space="preserve">
<style type="text/css">
	.st0{fill:#FFFFFF;}
</style>
<g>
	<path class="st0" d="M38.37,83.94c1.36-1.78,0.51-3.14,0.19-4.48c-3.3-13.93-6.2-27.86-6.1-42.33c0.1-13.82,6.22-23.7,18.23-29.93
		c16.56-8.58,33.95-8.76,51.66-4.33c0.12,0.03,0.23,0.08,0.35,0.11c17.22,3.7,27.05,13.75,29.69,31.69
		c3.47,23.6,1.53,46.14-9.39,67.56c-5.45,10.7-5.55,10.65-17.42,10.65c-20.13,0-40.26-0.03-60.39,0.04
		c-2.69,0.01-4.91-0.64-7.03-2.32c-10.17-8.08-19.24-17.08-24.73-29.1c-2.87-6.3-4.41-12.86-2.62-19.79
		c2.13-8.27,7.34-13.75,15.38-16.59c2.44-0.86,3.69-0.47,4.03,2.57c1.22,11.09,3.49,22.01,6.5,32.76
		C37.03,81.57,37.23,82.77,38.37,83.94z M116.88,45.36c-0.23-2.39-0.3-4.33-0.63-6.23c-1.39-8-5.49-14.08-12.86-17.74
		c-0.86-0.43-2.17-1.62-2.8-0.28c-0.59,1.25,1.11,1.59,1.98,2.09c1.79,1.02,3.52,2.09,5.03,3.52c5.15,4.91,7.11,11.04,7.03,17.99
		c-0.01,0.99-0.35,2.54,1.25,2.5C117.14,47.19,116.85,45.82,116.88,45.36z"/>
	<path class="st0" d="M78.46,114.65c11.53,0,23.06,0.09,34.58-0.06c3.14-0.04,4.39,0.98,4.29,4.16c-0.16,5.21,0.04,10.44-0.07,15.65
		c-0.13,6.23-2.87,9.4-9.08,9.46c-19.9,0.18-39.8,0.18-59.69,0c-6.04-0.06-8.61-3.22-8.64-9.34c-0.03-5.1,0.22-10.21-0.08-15.28
		c-0.22-3.82,1.3-4.72,4.85-4.66C55.89,114.76,67.17,114.65,78.46,114.65z"/>
</g>
</svg>
