<?xml version="1.0" encoding="utf-8"?>
<!-- Generator: Adobe Illustrator 27.1.0, SVG Export Plug-In . SVG Version: 6.00 Build 0)  -->
<svg version="1.1" id="Layer_1" xmlns="http://www.w3.org/2000/svg" xmlns:xlink="http://www.w3.org/1999/xlink" x="0px" y="0px"
	 viewBox="0 0 144 144" style="enable-background:new 0 0 144 144;" xml:space="preserve">
<style type="text/css">
	.st0{fill:#FFFFFF;}
</style>
<g>
	<path class="st0" d="M143.83,68.65c-1.84-19.19-18.9-33.26-38.09-31.41c-0.64,0.06-1.29,0.14-1.93,0.24
		c-5.82,0.82-11.33,3.13-16,6.7c1.82,6.6,3.31,13.26,4.53,19.98c4.36-9.2,15.35-13.13,24.55-8.77c9.2,4.36,13.13,15.35,8.77,24.55
		c-3.14,6.64-9.93,10.77-17.27,10.53c-4.92-0.1-9.59-2.21-12.92-5.84c0.4,3.24,0.79,6.5,1.16,9.77c0.23,0.19,0.48,0.35,0.74,0.48
		c1.46,0.78,2.98,1.42,4.56,1.93c0.43,0.12,0.91,0.21,0.74,0.74c-0.25,1.16-0.47,2.2-0.68,3.24c-0.13,0.63-0.52,0.61-1,0.47
		c-1.3-0.4-2.53-0.86-3.75-1.38c0.18,1.76,0.38,3.52,0.56,5.21c3.47,1.15,7.1,1.76,10.76,1.82c5.41,0.13,10.78-1.06,15.63-3.47
		c7.64-3.66,13.7-9.98,17.03-17.77c1.12-2.84,1.97-5.78,2.54-8.78l0.23-7.5C143.83,69.17,143.83,68.89,143.83,68.65z M104.75,46.58
		c-3.1,0.45-6.07,1.55-8.7,3.24c-0.4,0.25-0.73,0.3-1.02-0.16c-0.59-0.9-1.17-1.78-1.78-2.61c-0.31-0.47-0.13-0.72,0.3-0.95
		c3.34-1.88,6.97-3.2,10.73-3.91c0.48-0.09,0.77,0,0.82,0.57c0.12,1.02,0.26,2.03,0.39,3.06C105.62,46.44,105.18,46.53,104.75,46.58
		z M125.84,48.49c-0.63,0.72-1.21,1.48-1.76,2.27c-0.38,0.51-0.7,0.63-1.3,0.21c-2.09-1.57-4.46-2.74-6.98-3.44
		c-0.53-0.16-0.9-0.38-0.77-0.99c0.22-1.04,0.46-2.08,0.68-3.13c0-0.31,0.16-0.59,0.59-0.52c0.9,0.3,1.82,0.57,2.71,0.91
		c2.3,0.84,4.51,1.92,6.59,3.22c0.68,0.44,0.89,0.79,0.29,1.47H125.84z M124.16,98.1c-2.8,1.48-5.83,2.46-8.96,2.89
		c-0.63,0.09-0.79-0.17-0.86-0.68c-0.09-0.83-0.2-1.68-0.3-2.7c-0.12-0.39,0.18-0.63,0.69-0.74c2.43-0.59,4.76-1.5,6.96-2.7
		c0.47-0.23,0.77-0.3,1.08,0.22c0.55,0.91,1.15,1.78,1.76,2.61c0.26,0.53,0.21,0.82-0.33,1.09L124.16,98.1z M131.25,57.23
		c0.74-0.47,1.49-0.95,2.19-1.47s0.87-0.27,1.22,0.29c1.95,3.19,3.25,6.73,3.82,10.42c0.12,0.73,0,1.04-0.76,1.12l-3.27,0.36
		c-0.18,0-0.29-0.34-0.35-0.73c-0.56-3.11-1.63-6.11-3.17-8.87c-0.26-0.6-0.13-0.85,0.35-1.12L131.25,57.23z M136.98,83.16
		c-0.77,1.63-1.69,3.18-2.74,4.65c-0.47,0.65-0.85,0.66-1.41,0.18c-0.76-0.65-1.88-1.12-2.21-1.93s0.74-1.71,1.16-2.61
		c0.88-1.7,1.61-3.47,2.18-5.29c0.2-0.66,0.5-0.89,1.2-0.69c0.91,0.27,1.86,0.4,2.8,0.6c0.34,0,0.66,0.12,0.63,0.53
		c-0.35,1.57-0.88,3.09-1.56,4.55L136.98,83.16z"/>
	<path class="st0" d="M122.47,72.43c-0.22,7.46-6.44,13.33-13.9,13.11c-0.03,0-0.05,0-0.08,0c-7.47-0.08-13.47-6.21-13.38-13.69
		c0.08-7.47,6.21-13.47,13.69-13.38c0.22,0,0.45,0.01,0.67,0.02c7.41,0.23,13.24,6.43,13,13.84
		C122.47,72.36,122.47,72.39,122.47,72.43z"/>
	<path class="st0" d="M0,31.47c0-6.92,4.42-12.43,10.81-13.39c13.68-2.07,27.36-3.91,41.11-5.89c4.86-0.69,9.73-1.3,14.59-2.05
		c7.53-1.16,14.12,3.33,15.24,10.86c2.46,16.52,4.73,33.05,7.06,49.58c1.88,13.33,3.67,26.67,5.61,39.98
		c1.09,7.48-3.01,14.03-10.42,15.25c-12.12,1.99-24.3,3.56-36.48,5.29c-6.41,0.91-12.83,1.76-19.24,2.74
		c-7.7,1.16-14.24-3.31-15.4-11.05c-2.45-16.31-4.7-32.66-7.01-48.99C4,60.5,2.16,47.16,0.3,33.84C0.18,32.87,0.05,31.89,0,31.47z
		 M65.03,65.73c0.17-4.04-2.16-7.78-5.88-9.39c-3.79-1.97-8.4-1.36-11.54,1.54c-1.17,1.03-2.05,1.71-3.83,0.9
		c-5.61-2.53-11.23-0.81-14.07,4.03c-2.84,4.83-1.65,10.42,3.31,14.33c3.71,2.9,7.47,5.74,11.28,8.53c3.75,2.75,6.81,2.36,9.69-1.3
		c3.1-3.91,6.04-7.99,9.12-11.98C64.51,70.45,65.18,68.1,65.03,65.73z M83.09,104.81c0.08-2.02-0.6-2.93-1.76-3.45
		c-1.03-0.58-2.33-0.22-2.91,0.81c-0.04,0.07-0.08,0.15-0.11,0.22c-1.3,3.91-2.76,5.21-5.48,0.91c-0.78-0.98-2.2-1.14-3.18-0.37
		c-0.09,0.07-0.18,0.15-0.25,0.24c-1.12,0.71-1.45,2.19-0.74,3.31c0.02,0.03,0.04,0.06,0.06,0.09c2.02,3.02,3.99,6.08,6.21,8.94
		c1.3,1.75,3.49,1.65,4.38-0.27c1.63-3.57,2.7-7.37,3.79-10.45V104.81z M11.59,39.16c0,2.08,0.57,3.13,1.97,3.52
		c1.27,0.36,2.62-0.25,3.18-1.45c0.73-1.15,0.51-3.22,1.81-3.49c1.64-0.35,1.88,1.89,2.94,2.8s2.1,1.51,3.41,0.61
		c1.23-0.57,1.77-2.02,1.2-3.25c-0.04-0.09-0.09-0.18-0.14-0.27c-1.81-3.24-3.93-6.3-6.34-9.12c-0.77-1.13-2.31-1.42-3.44-0.65
		c-0.43,0.29-0.76,0.72-0.94,1.21C13.69,32.44,12.65,36.14,11.59,39.16z"/>
</g>
</svg>
