<svg width="42" height="42" viewBox="0 0 42 42" fill="none" xmlns="http://www.w3.org/2000/svg">
<path d="M12.2155 41.9704C8.79091 41.9704 5.36632 41.9634 1.94174 41.9775C1.16119 41.9775 0.47205 41.8581 0.155609 41.0506C-0.153799 40.2572 0.232961 39.6745 0.795522 39.1338C1.94174 38.0245 3.05983 36.887 4.19198 35.7636C4.82017 35.1364 4.87174 34.481 4.34668 33.7976C-2.12276 25.3229 -1.32111 13.3165 6.42112 6.01429C12.6093 0.186601 19.9788 -1.48447 28.0094 1.34512C35.8993 4.12556 40.5756 9.93218 41.778 18.2103C43.4587 29.7604 35.4141 40.18 23.7831 41.816C21.4134 42.146 19.0295 41.9213 16.6597 41.9704C15.183 42.0055 13.6992 41.9704 12.2225 41.9704H12.2155ZM13.9735 21.0118C13.9454 18.7931 11.9975 16.8903 9.82462 16.9465C7.6236 17.0026 5.78824 18.8492 5.77418 21.0259C5.76012 23.2165 7.72908 25.1825 9.88087 25.1263C12.1592 25.0631 14.0016 23.2095 13.9735 21.0118ZM20.9774 16.9465C18.7482 16.9956 16.8496 18.9335 16.9199 21.1031C16.9902 23.3078 18.8889 25.1755 21.0196 25.1263C23.2909 25.0772 25.1403 23.2235 25.1192 21.0188C25.0981 18.8071 23.1573 16.8973 20.9774 16.9465ZM32.1864 16.9465C29.9924 16.9184 28.0656 18.8352 28.0586 21.0399C28.0586 23.2095 29.9291 25.1052 32.0879 25.1333C34.3171 25.1614 36.2017 23.3288 36.2579 21.089C36.3071 18.9124 34.4015 16.9746 32.1794 16.9465H32.1864Z" fill="#1A1A1A"/>
</svg>
