<?xml version="1.0" encoding="utf-8"?>
<!-- Generator: Adobe Illustrator 27.1.0, SVG Export Plug-In . SVG Version: 6.00 Build 0)  -->
<svg version="1.1" id="Layer_1" xmlns="http://www.w3.org/2000/svg" xmlns:xlink="http://www.w3.org/1999/xlink" x="0px" y="0px"
	 viewBox="0 0 144 144" style="enable-background:new 0 0 144 144;" xml:space="preserve">
<style type="text/css">
	.st0{fill:#FFFFFF;}
</style>
<g>
	<path class="st0" d="M144.04,71.99c-0.05,36.11-26.81,66.61-62.61,71.36c-18.24,2.49-36.73-2.21-51.56-13.12
		c-3.28-2.38-3.28-2.44-0.52-5.25c31.9-31.92,63.82-63.84,95.75-95.75c2.71-2.71,2.76-2.71,5.07,0.44
		C139.07,41.99,143.92,56.79,144.04,71.99z M86.74,80.95c-0.16-1.31-1-2.49-2.49-1.9c-2.31,0.97-4.16,2.79-5.17,5.09
		c-0.67,1.44,0.36,2.48,1.94,2.59c1.57,0.11,5.64-4.12,5.72-5.79L86.74,80.95z M97.53,70.22c0.02-0.72-0.34-1.39-0.95-1.77
		c-0.76-0.56-1.82-0.48-2.48,0.2c-1.38,1.15-2.64,2.43-3.79,3.81c-0.75,0.88-0.65,2.21,0.24,2.96c0.39,0.33,0.89,0.51,1.4,0.5
		c1.39,0.02,5.59-4.23,5.58-5.71L97.53,70.22z M75.9,91.92c-0.28-1.38-1.08-2.66-2.76-1.92c-2.1,0.96-3.8,2.64-4.79,4.72
		c-0.79,1.64,0.25,2.67,1.97,2.77c1.3,0.07,5.48-4.07,5.58-5.59L75.9,91.92z M59.49,108.33c1.34-0.08,5.5-4.17,5.51-5.48
		c0.01-0.81-0.43-1.56-1.15-1.95c-0.69-0.47-1.62-0.41-2.23,0.16c-1.38,1.26-2.71,2.61-3.97,4c-0.56,0.62-0.63,1.54-0.16,2.23
		c0.42,0.74,1.25,1.14,2.08,1.02L59.49,108.33z M108.24,59.11c-0.25-1.31-1.15-2.38-2.61-1.64c-2.21,0.94-3.98,2.71-4.92,4.92
		c-0.56,1.39,0.39,2.51,1.95,2.66c1.56,0.15,5.69-4.23,5.66-5.89L108.24,59.11z M119.04,48.26c-0.31-1.51-1.41-2.41-2.95-1.64
		c-1.87,0.98-3.38,2.53-4.3,4.43c-0.58,0.96-0.27,2.21,0.69,2.79c0.29,0.17,0.62,0.27,0.95,0.29c1.56,0.33,5.76-4.17,5.69-5.82
		L119.04,48.26z M51.7,111.59c-2.08,0.36-3.2,2.43-4.71,3.94c-0.81,0.7-0.9,1.92-0.21,2.73c0.06,0.07,0.13,0.14,0.21,0.21
		c0.75,0.82,2.01,0.87,2.83,0.13c0.04-0.04,0.09-0.08,0.13-0.13c1.38-1.14,2.64-2.43,3.76-3.82c1.16-1.28,0.16-2.9-1.92-3
		L51.7,111.59z M37.89,129.95c2.07-0.56,3.28-2.54,4.84-4.22c0.72-0.7,0.73-1.86,0.03-2.57c-0.04-0.04-0.08-0.08-0.12-0.12
		c-0.69-0.81-1.89-0.92-2.72-0.26c-1.5,1.15-2.84,2.49-3.99,3.99c-1,1.53,0,3.22,2.05,3.23L37.89,129.95z M124.47,43.01
		c1.64,0,5.41-3.79,5.43-5.41c0.08-0.66-0.2-1.3-0.74-1.69c-0.8-0.49-1.82-0.41-2.53,0.2c-1.25,1.13-2.44,2.33-3.58,3.58
		c-0.62,0.7-0.71,1.72-0.23,2.53c0.35,0.61,1.02,0.96,1.72,0.9L124.47,43.01z"/>
	<path class="st0" d="M-0.04,73.29c0-37.22,26.7-67.86,62.58-72.62c19.06-2.54,36.4,2.21,52.06,13.35c2.35,1.64,2.36,2.74,0.33,4.76
		c-32.11,32-64.16,64.06-96.16,96.17c-2.07,2.07-3.13,1.9-4.77-0.38C5.23,102.57,0.33,88.16-0.04,73.29z M75.88,48.08
		c-0.43-1.1-1.36-2.2-2.95-1.38c-1.92,1.06-3.5,2.62-4.58,4.53c-0.9,1.54,0,2.69,1.64,2.99C71.63,54.51,75.91,50.08,75.88,48.08z
		 M65.05,59.3c-0.25-1.33-1.13-2.56-2.58-1.9c-2.32,0.99-4.15,2.86-5.09,5.2c-0.56,1.48,0.66,2.41,2.2,2.43S65.02,60.77,65.05,59.3z
		 M54.24,70.25c0.02-1.15-0.9-2.1-2.05-2.12c-0.4-0.01-0.79,0.1-1.13,0.31c-1.59,1.2-3,2.61-4.2,4.2c-0.69,0.89-0.53,2.17,0.36,2.85
		c0.37,0.28,0.82,0.43,1.28,0.43C49.95,75.91,54.23,71.73,54.24,70.25L54.24,70.25z M26.75,97.55c1.64,0,5.59-3.9,5.58-5.58
		c-0.02-1.67-1.64-2.87-2.99-1.84c-1.57,1.2-2.97,2.61-4.15,4.2c-0.7,0.82-0.6,2.05,0.22,2.75C25.79,97.4,26.26,97.57,26.75,97.55
		L26.75,97.55z M80.88,43.3c1.84,0.08,6.12-4.26,5.82-5.86c0.02-1.04-0.81-1.9-1.86-1.92c-0.36-0.01-0.71,0.09-1.02,0.28
		c-1.94,1.02-3.54,2.59-4.61,4.51c-0.92,1.69,0.21,2.61,1.62,2.99H80.88z M37.66,86.75c1.54,0,5.69-4.07,5.66-5.61
		c0-0.82-0.46-1.56-1.18-1.94c-0.71-0.44-1.62-0.32-2.2,0.28c-1.3,1.21-2.58,2.46-3.79,3.77c-0.63,0.69-0.72,1.72-0.21,2.51
		C36.28,86.4,36.95,86.78,37.66,86.75z M108.36,15.69c-0.28-1.64-1.64-2.12-3.02-1.36c-1.86,0.99-3.38,2.52-4.36,4.38
		c-0.85,1.64,0,2.71,1.84,2.82c1.84,0.11,5.64-4,5.54-5.91V15.69z M97.53,26.87c-0.05-1.13-1.01-2-2.14-1.95
		c-0.41,0.02-0.81,0.16-1.14,0.41c-1.51,1.14-2.86,2.47-4.02,3.97c-1.16,1.54-0.28,2.66,1.38,3.05c1.66,0.39,6.04-3.74,5.92-5.54
		V26.87z M19.55,100.68c-1.64,0.1-5.51,4.17-5.53,5.61c-0.16,1,0.52,1.94,1.52,2.1c0.25,0.04,0.51,0.03,0.76-0.04
		c1.44-0.13,5.15-3.94,5.2-5.35c0.21-1.08-0.5-2.12-1.57-2.33c-0.13-0.02-0.25-0.04-0.38-0.04L19.55,100.68z"/>
	<path class="st0" d="M124.45,23.08c-0.23,0.45-0.5,0.88-0.79,1.3c-0.46,0.54-0.97,1.02-1.46,1.51
		c-32.13,32.14-64.26,64.27-96.39,96.4c-1.49,1.49-2.66,2.9-4.77,0.57c-1.49-1.64-1.44-2.61,0.1-4.15
		c32.59-32.53,65.15-65.07,97.7-97.62c0.66-0.67,1.28-1.85,2.44-1.23C122.58,20.66,123.67,21.76,124.45,23.08z"/>
</g>
</svg>
