<svg width="35" height="35" viewBox="0 0 35 35" fill="none" xmlns="http://www.w3.org/2000/svg">
<path d="M34.9483 15.3606C35.0028 15.9934 34.7628 16.6154 34.4573 17.2318C33.9881 18.1865 33.448 19.114 33.0934 20.1069C32.6406 21.3889 33.1316 22.6928 33.268 23.9748C33.4753 25.8897 32.6897 27.4281 30.9385 28.1973C27.0596 29.8994 27.867 29.1139 25.5048 32.7145C24.4192 34.3729 22.8862 34.9185 20.9877 34.3675C16.7706 33.1455 18.2054 33.1455 13.9938 34.3675C12.0898 34.9185 10.5514 34.3784 9.47118 32.7308C7.11441 29.1302 7.91091 29.8995 4.04298 28.2083C2.28631 27.439 1.44071 25.8951 1.71894 23.9966C1.84988 23.1128 1.94807 22.2236 2.04082 21.3398C2.10628 20.7015 1.94807 20.0905 1.66439 19.5177C1.26068 18.6939 0.835157 17.881 0.436907 17.0518C-0.343226 15.437 -0.0704522 13.8603 1.18976 12.5947C1.4298 12.3546 1.65348 12.0928 1.92625 11.8964C3.62836 10.6743 4.43032 8.96678 4.70309 6.93734C4.86675 5.72623 5.37957 4.68423 6.41611 3.94229C7.25625 3.34219 8.24369 3.19489 9.18204 3.26581C11.4351 3.44584 13.1645 2.49113 14.8339 1.13272C16.716 -0.400272 18.2108 -0.345718 20.1475 1.10544C20.3821 1.28001 20.6276 1.43277 20.8404 1.62917C22.1333 2.82937 23.65 3.3531 25.4175 3.23308C25.9904 3.19489 26.5796 3.26581 27.1469 3.38037C28.7836 3.71316 29.771 4.7497 30.1474 6.35906C31.1676 10.7289 30.7257 9.59962 33.628 12.431C34.4409 13.2221 34.9864 14.1168 34.9483 15.3661V15.3606ZM17.4853 29.0484C24.0482 29.0484 29.22 23.893 29.2309 17.3355C29.2418 10.7725 24.0864 5.58984 17.5344 5.57347C10.9332 5.55711 5.75054 10.7289 5.756 17.3246C5.756 23.8821 10.9278 29.0484 17.4853 29.0484Z" fill="white"/>
<path d="M6.71631 17.3083C6.71631 11.3346 11.5335 6.52287 17.5072 6.52832C23.4755 6.52832 28.2764 11.3564 28.2709 17.3411C28.2654 23.3039 23.4319 28.0938 17.4418 28.0829C11.5171 28.072 6.71631 23.2494 6.71631 17.3083ZM12.5646 15.4699C11.9754 15.4971 11.4899 15.7535 11.2062 16.3318C10.8843 16.981 11.0534 17.5702 11.528 18.0557C12.6573 19.2123 13.7975 20.3634 14.9595 21.4872C15.7124 22.2183 16.5089 22.2074 17.2617 21.4545C19.3457 19.3705 21.4025 17.2647 23.4701 15.1589C23.8247 14.7988 24.0047 14.3624 23.9011 13.8387C23.7756 13.244 23.4264 12.8512 22.8482 12.6548C22.2426 12.4475 21.7571 12.6712 21.337 13.0858C19.7494 14.6734 18.1564 16.2609 16.5907 17.8703C16.2143 18.2576 15.9633 18.2685 15.5978 17.8703C15.025 17.2483 14.4031 16.6701 13.8139 16.07C13.4811 15.7317 13.0883 15.5135 12.57 15.4589L12.5646 15.4699Z" fill="white"/>
</svg>
