<svg xmlns="http://www.w3.org/2000/svg" viewBox="0 0 77.09 85.75"><defs><style>.cls-1{fill:#fff;}</style></defs><title>EXCHANGE</title><g id="Layer_2" data-name="Layer 2"><g id="Layer_1-2" data-name="Layer 1"><path class="cls-1" d="M22.15,85.75a21.74,21.74,0,0,1-3.76-3.54c-4.09-4.15-8.14-8.34-12.2-12.51-1.71-1.76-3.41-3.53-5.14-5.28a2.88,2.88,0,0,1-.87-3.18,2.72,2.72,0,0,1,2.7-1.87c2.4,0,4.8,0,7.19,0,1.35,0,1.36,0,1.36-1.32q0-10.75,0-21.49c0-2.62,1-3.66,3.64-3.66H31.3c2.41,0,3.45,1,3.45,3.46V57.81c0,1.59-.19,1.52,1.56,1.52,2.17,0,4.35,0,6.52,0,1.79,0,2.8.66,3.25,2a2.82,2.82,0,0,1-.86,3L32.39,77.52Q29,81,25.56,84.53A6.2,6.2,0,0,1,24,85.75Z"/><path class="cls-1" d="M42.34,38.79c0-3.73,0-7.47,0-11.2,0-.86-.26-1.11-1.1-1.09-2.34,0-4.68,0-7,0-1.75,0-2.74-.64-3.2-1.91a2.8,2.8,0,0,1,.84-3.11L44.48,8.55Q48.1,4.85,51.7,1.11A2.87,2.87,0,0,1,56.17,1q10,10.23,20,20.48a2.82,2.82,0,0,1,.79,3,2.63,2.63,0,0,1-2.59,1.89c-2.42.05-4.85.05-7.27.06-1.39,0-1.39,0-1.39,1.36V49.36c0,2.58-1,3.62-3.59,3.62q-8.16,0-16.31,0c-2.36,0-3.43-1.06-3.43-3.4Z"/></g></g></svg>