<?xml version="1.0" encoding="utf-8"?>
<!-- Generator: Adobe Illustrator 27.1.0, SVG Export Plug-In . SVG Version: 6.00 Build 0)  -->
<svg version="1.1" id="Layer_1" xmlns="http://www.w3.org/2000/svg" xmlns:xlink="http://www.w3.org/1999/xlink" x="0px" y="0px"
	 viewBox="0 0 144 144" style="enable-background:new 0 0 144 144;" xml:space="preserve">
<style type="text/css">
	.st0{fill:#FFFFFF;}
</style>
<g>
	<path class="st0" d="M91.54,114.32c0-7.84,0.07-15.68-0.04-23.52c-0.03-2.44,0.81-3.34,3.25-3.24c3.35,0.15,6.72,0.01,10.08,0.04
		c1.38,0.01,2.28-0.28,2.46-1.93c0.47-4.26,1.01-8.51,1.67-12.75c0.33-2.11-0.55-2.55-2.43-2.51c-4.01,0.1-8.03-0.03-12.04,0.05
		c-2.14,0.04-3.05-0.76-2.96-2.96c0.12-3.17-0.02-6.35,0.05-9.52c0.13-5.67,2.79-8.29,8.55-8.44c2.52-0.07,5.04-0.08,7.56-0.01
		c1.67,0.04,2.35-0.62,2.32-2.31c-0.07-3.64-0.05-7.28-0.01-10.92c0.01-1.32-0.4-2.09-1.84-2.25c-5.86-0.62-11.75-1.06-17.56,0.05
		C80.71,36,74.38,43.44,73.93,53.52c-0.2,4.57-0.18,9.15-0.09,13.72c0.04,2.44-0.95,3.34-3.33,3.25c-3.26-0.11-6.53,0.03-9.8-0.04
		c-1.8-0.04-2.5,0.7-2.46,2.5c0.07,4.01,0.09,8.03-0.01,12.04c-0.04,1.91,0.61,2.7,2.58,2.64c3.36-0.1,6.72,0.04,10.08-0.05
		c1.97-0.05,2.93,0.61,2.93,2.7c-0.03,16.99-0.04,33.97,0.01,50.96c0.01,2.31-1.11,2.81-3.14,2.74
		c-25.95-0.89-46.18-12.27-59.8-34.18C-16.29,66.08,10.03,9.14,60.84,0.92c39.79-6.44,77.75,21.97,82.59,61.82
		c4.2,34.51-15.36,66.04-48.08,77.51c-3.51,1.23-3.81,1.03-3.82-2.69C91.53,129.81,91.53,122.07,91.54,114.32z"/>
</g>
</svg>
