<svg width="80" height="32" viewBox="0 0 80 32" fill="none" xmlns="http://www.w3.org/2000/svg">
<path d="M38.0266 15.767V24.9623H35.0586V2.22461H42.7698C44.6499 2.22461 46.4298 2.91652 47.8136 4.20014C49.1974 5.38832 49.8894 7.1682 49.8894 9.04352C49.8894 10.9188 49.1974 12.6033 47.8136 13.8869C46.4298 15.1705 44.7501 15.8624 42.7698 15.8624L38.0219 15.7622L38.0266 15.767ZM38.0266 4.98749V12.8991H42.9703C44.0583 12.8991 45.1462 12.5031 45.8381 11.711C47.4223 10.2269 47.4224 7.75513 45.9383 6.2711L45.8381 6.17089C45.046 5.37877 44.0583 4.88728 42.9703 4.98271H38.0266V4.98749Z" fill="white"/>
<path d="M56.7131 8.94813C58.889 8.94813 60.5687 9.53984 61.8523 10.728C63.1359 11.9162 63.7324 13.4957 63.7324 15.476V24.9671H60.9647V22.7911H60.8646C59.6764 24.571 57.9967 25.4586 56.0212 25.4586C54.3415 25.4586 52.8575 24.9623 51.6693 23.9746C50.5813 22.9868 49.8894 21.603 49.8894 20.1189C49.8894 18.5347 50.4811 17.2511 51.6693 16.2633C52.8575 15.2755 54.5371 14.8795 56.5127 14.8795C58.2926 14.8795 59.6763 15.1753 60.7643 15.8673V15.1753C60.7643 14.1876 60.3683 13.1998 59.5761 12.6033C58.784 11.9114 57.7962 11.5154 56.7083 11.5154C55.0286 11.5154 53.7402 12.2073 52.8527 13.5911L50.2807 12.0069C51.8649 9.93112 53.9406 8.94336 56.7083 8.94336L56.7131 8.94813ZM52.9576 20.2191C52.9576 21.0113 53.3537 21.7032 53.9454 22.0992C54.6374 22.5955 55.4294 22.8914 56.2215 22.8914C57.4097 22.8914 58.5932 22.3951 59.4855 21.5075C60.4733 20.62 60.9695 19.532 60.9695 18.3438C60.082 17.6519 58.7935 17.2558 57.1139 17.2558C55.9257 17.2558 54.9379 17.5517 54.1458 18.1434C53.3537 18.6397 52.9576 19.3316 52.9576 20.2191Z" fill="white"/>
<path d="M79.7512 9.44141L69.9642 31.888H66.9962L70.6561 24.0765L64.2285 9.54161H67.3922L72.04 20.7124H72.1402L76.6877 9.54161H79.7512V9.44141Z" fill="white"/>
<path d="M26.2592 13.7924C26.2592 12.9049 26.159 12.0126 26.0636 11.125H13.7046V16.1688H20.724C20.4281 17.753 19.5358 19.2323 18.1519 20.1246V23.3885H22.4036C24.8754 21.1124 26.2592 17.753 26.2592 13.7972V13.7924Z" fill="#547DBF"/>
<path d="M13.7 26.5468C17.2598 26.5468 20.2278 25.3586 22.399 23.383L18.1474 20.1191C16.9592 20.9113 15.4799 21.4028 13.7 21.4028C10.3359 21.4028 7.37261 19.1266 6.38484 15.9629H2.03296V19.327C4.30911 23.7743 8.75641 26.5468 13.7 26.5468Z" fill="#34A851"/>
<path d="M6.38471 15.9676C5.79301 14.3834 5.88843 12.7037 6.4849 11.024L6.38471 7.56445L2.14735 7.63126C0.267254 11.2912 0.152736 15.5715 2.03283 19.327L6.38471 15.9628V15.9676Z" fill="#F9BC15"/>
<path d="M13.6999 5.58453C15.58 5.58453 17.3599 6.27644 18.7437 7.56006L22.4992 3.80464C20.1276 1.6287 16.9639 0.345085 13.8002 0.440521C8.85657 0.440521 4.309 3.20817 2.13306 7.66026L6.48494 11.0244C7.3725 7.86068 10.3406 5.58453 13.7047 5.58453H13.6999Z" fill="#EA4435"/>
</svg>
