<?xml version="1.0" encoding="utf-8"?>
<!-- Generator: Adobe Illustrator 27.1.0, SVG Export Plug-In . SVG Version: 6.00 Build 0)  -->
<svg version="1.1" id="Layer_1" xmlns="http://www.w3.org/2000/svg" xmlns:xlink="http://www.w3.org/1999/xlink" x="0px" y="0px"
	 viewBox="0 0 144 144" style="enable-background:new 0 0 144 144;" xml:space="preserve">
<style type="text/css">
	.st0{fill:#FFFFFF;}
</style>
<g>
	<path class="st0" d="M143.95,110.19c0,9.61-0.07,19.23,0.05,28.84c0.03,2.6-0.66,3.64-3.43,3.63c-18.2-0.09-36.4-0.07-54.6-0.02
		c-2.39,0.01-3.54-0.57-3.5-3.29c0.14-10.36,0.1-20.72,0.02-31.08c-0.02-2.19,0.56-3.41,2.96-3.23c1.28,0.1,2.37-0.33,3.22-1.35
		c2.04-2.43,4.09-4.85,6.19-7.23c0.82-0.92,0.7-1.51-0.22-2.29c-5.6-4.75-4.3-4.48-8.14,0.25c-1.82,2.24-3.81,3.04-6.7,3.02
		c-17.45-0.13-34.91-0.11-52.36-0.02c-2.38,0.01-4-0.69-5.47-2.58c-2.87-3.67-5.92-7.21-9.02-10.7c-1.34-1.5-1.27-2.74,0.4-3.6
		c6.48-3.34,6.98-9,6.56-15.37c-0.34-5.17-0.54-4.6,4.49-5.87c7.95-2.02,15.9-4.09,23.86-6.06c1.91-0.47,3.34-1.35,4.49-3
		c2.39-3.45,4.96-6.78,7.45-10.16c5-6.78,11.68-10.24,20.13-10.24c8.21,0,16.43-0.09,24.64,0.05c2.64,0.04,3.63-0.75,3.57-3.48
		c-0.15-7-0.09-14-0.02-21c0.01-1.45-0.67-3.44,1.6-3.93c2.15-0.47,3.9-0.01,5.21,2.15c4.67,7.69,7.73,15.92,8.94,24.83
		c0.29,2.12,0.48,4.26,0.57,6.4c0.05,1.34,0.6,2.28,1.56,3.13c5.48,4.85,8.86,10.94,10.76,17.98c1.94,7.2,4.09,14.35,6.19,21.51
		c0.45,1.54,0.62,3.09,0.62,4.69C143.94,91.53,143.95,100.86,143.95,110.19z M73.04,54.24c0.01-3.95,0.01-3.95-3.7-3.95
		c-3.88,0-3.88,0-3.9,3.5c-0.02,4.08-0.02,4.08,3.58,4.1C73.03,57.9,73.03,57.9,73.04,54.24z"/>
	<path class="st0" d="M12.22,67.57c1.17,3.83-2.1,5.61-4.76,7.75c-0.81,0.65-1.54,0.51-2.18-0.24c-1.56-1.84-3.26-3.58-4.6-5.57
		c-1.4-2.08-0.56-3.92,1.84-4.59c2.14-0.59,4.31-1.11,6.46-1.65c3.06-0.77,3.19-0.68,3.24,2.39C12.22,66.12,12.22,66.58,12.22,67.57
		z"/>
</g>
</svg>
