<?xml version="1.0" encoding="utf-8"?>
<!-- Generator: Adobe Illustrator 27.1.0, SVG Export Plug-In . SVG Version: 6.00 Build 0)  -->
<svg version="1.1" id="Layer_1" xmlns="http://www.w3.org/2000/svg" xmlns:xlink="http://www.w3.org/1999/xlink" x="0px" y="0px"
	 viewBox="0 0 144 144" style="enable-background:new 0 0 144 144;" xml:space="preserve">
<style type="text/css">
	.st0{fill:#FFFFFF;}
</style>
<g>
	<path class="st0" d="M74.32,76.59c8.75,11.96,16.98,24.2,28.72,33.35c6.75,5.26,9.78,11.97,8.83,20.55
		c-0.3,2.71-0.04,5.47-0.05,8.21c-0.02,5.21-0.02,5.23-5.09,5.23c-16.81,0.01-33.61,0-50.42,0c-15.31,0-30.63-0.09-45.94,0.07
		c-3.44,0.03-4.5-1.07-4.45-4.47c0.19-13.69-0.07-27.39,0.21-41.08c0.35-16.87,2.74-33.47,8.28-49.48
		c2.92-8.44,7.14-16.16,13.58-22.5c4.66-4.58,10.29-7.16,16.8-6.89c7.99,0.32,13.6-2.79,17.31-9.86c2.56-4.87,6.87-7.81,12.07-9.38
		c3.01-0.91,4.41,0.1,4.11,3.17c-0.85,8.74,3.06,15.02,9.68,20.19c14.51,11.35,28.94,22.81,43.4,34.23c1.07,0.85,2.16,1.68,3.2,2.58
		c4.24,3.71,4.68,8.83,1.1,13.25c-2.19,2.71-4.44,5.38-6.71,8.02c-4.51,5.25-10.56,6.57-16.84,3.72c-0.57-0.26-1.16-0.49-1.66-0.85
		c-6.42-4.52-13.26-6.23-21.16-4.41C84,81.44,79.07,79.08,74.32,76.59z"/>
</g>
</svg>
