<svg width="86" height="23" viewBox="0 0 86 23" fill="none" xmlns="http://www.w3.org/2000/svg">
<path d="M52.0974 16.4865C52.3599 15.5417 52.6271 14.635 52.8513 13.7236C52.9372 13.3657 53.1711 13.4326 53.4001 13.4326C58.3008 13.4326 63.2062 13.423 68.1068 13.4469C68.6222 13.4469 68.8273 13.3085 68.9276 12.8074C69.0755 12.0726 69.2854 11.3473 69.524 10.6363C69.672 10.202 69.5145 10.1686 69.1471 10.1686C64.6473 10.1782 60.1427 10.1734 55.6429 10.1734C55.3231 10.1734 55.0034 10.1734 54.7124 9.99685C54.3211 9.75826 54.1063 9.28585 54.2447 8.78481C54.846 6.58024 55.4377 4.37566 56.0819 2.1854C56.3777 1.1881 57.2175 0.672742 58.3389 0.672742C62.7624 0.672742 67.1811 0.672742 71.6045 0.672742C72.7259 0.672742 73.8473 0.682284 74.9687 0.667969C75.3075 0.667969 75.4315 0.715688 75.3075 1.09743C75.0689 1.84183 74.8685 2.60055 74.6871 3.36404C74.606 3.69807 74.4485 3.77442 74.1241 3.77442C69.2043 3.76487 64.2846 3.77442 59.3696 3.75533C58.902 3.75533 58.7063 3.87939 58.6014 4.34226C58.3914 5.25845 58.1099 6.15555 57.8427 7.10037C58.0669 7.10037 58.2435 7.10037 58.4153 7.10037C62.8197 7.10037 67.2288 7.10037 71.6332 7.10037C71.7954 7.10037 71.9529 7.10037 72.1151 7.10991C72.9597 7.17194 73.4369 7.73502 73.227 8.54145C72.6448 10.7508 72.034 12.9506 71.3946 15.1409C71.1608 15.9377 70.3209 16.5247 69.4954 16.5247C63.7597 16.5342 58.024 16.5247 52.2883 16.5247C52.2405 16.5247 52.1928 16.5104 52.1022 16.4961L52.0974 16.4865Z" fill="#67696C"/>
<path d="M26.6304 8.95187C25.0939 10.35 23.6528 11.667 22.2117 12.984C21.0188 14.0768 19.8163 15.16 18.6376 16.2623C18.3799 16.5009 18.2798 16.5009 18.0984 16.1859C16.6001 13.5996 15.0826 11.0228 13.57 8.44129C13.4936 8.30768 13.4459 8.14066 13.255 8.05C12.8685 9.43859 12.482 10.8224 12.1003 12.2015C11.7376 13.5089 11.3749 14.8164 11.0266 16.1287C10.9503 16.4197 10.8357 16.539 10.5112 16.5247C9.72867 16.4961 8.94132 16.4961 8.15875 16.5247C7.80563 16.5343 7.78178 16.4293 7.86767 16.1239C8.78386 12.8504 9.69049 9.57221 10.6019 6.29397C11.1125 4.45206 11.6231 2.61014 12.1384 0.753906C12.3627 0.820712 12.3913 1.01158 12.4772 1.15474C14.5482 4.57612 16.6192 7.99274 18.6758 11.4237C18.8714 11.7529 18.9812 11.7816 19.2866 11.5239C23.376 8.05 27.475 4.59521 31.574 1.13565C31.6933 1.03544 31.8221 0.944778 31.9796 0.820711C32.0225 1.18337 31.8794 1.45536 31.803 1.7369C30.4908 6.5087 29.1642 11.2805 27.852 16.0523C27.7565 16.3911 27.6325 16.5534 27.2412 16.5295C26.5541 16.4913 25.8621 16.52 25.175 16.52C24.7646 16.52 24.6119 16.3307 24.7169 15.9521C25.3373 13.7189 25.9528 11.4905 26.5731 9.25727C26.5874 9.19524 26.6018 9.13797 26.6399 8.95187H26.6304Z" fill="#67696C"/>
<path d="M30.6531 16.5199C31.2496 14.3678 31.8365 12.2587 32.4234 10.1543C32.6668 9.27631 32.9244 8.40306 33.1487 7.52028C33.2346 7.19103 33.373 7.08127 33.7261 7.08127C38.6602 7.09559 43.5942 7.08128 48.5282 7.10037C48.9482 7.10037 49.1104 6.97153 49.2011 6.58024C49.3872 5.78812 49.6019 5.00077 49.8453 4.22296C49.9646 3.83168 49.8691 3.75056 49.4731 3.75056C44.5724 3.76487 39.6718 3.7601 34.7664 3.7601C34.3783 3.7601 34.2351 3.57559 34.3369 3.20657C34.5469 2.46694 34.7663 1.73685 34.9524 0.992452C35.0193 0.730002 35.1386 0.667969 35.3819 0.667969C41.0031 0.672741 46.6243 0.667967 52.2502 0.677511C53.2953 0.677511 53.7772 1.26444 53.51 2.2713C52.9469 4.41861 52.3409 6.55638 51.7206 8.6846C51.4438 9.63896 50.6278 10.1782 49.6115 10.1782C45.0926 10.1782 40.5784 10.1829 36.0595 10.1686C35.6635 10.1686 35.5203 10.2784 35.4201 10.6601C34.9382 12.483 34.4132 14.2915 33.9218 16.1095C33.8359 16.4197 33.7213 16.5438 33.3778 16.5342C32.4854 16.5056 31.5883 16.5247 30.6578 16.5247L30.6531 16.5199Z" fill="#67696C"/>
<path d="M1.49731 16.5201C1.87429 15.1506 2.23217 13.8288 2.5996 12.5118C3.6494 8.72779 4.70398 4.94852 5.73946 1.1597C5.83012 0.825675 5.9542 0.692066 6.31686 0.706381C7.05171 0.735012 7.79132 0.735012 8.52618 0.706381C8.92701 0.692066 9.00814 0.792272 8.89839 1.17879C8.23034 3.54083 7.57659 5.91242 6.91808 8.27924C6.20231 10.8608 5.48655 13.4471 4.7851 16.0334C4.68489 16.4009 4.54652 16.5488 4.14091 16.5297C3.28199 16.4915 2.41828 16.5154 1.50687 16.5154L1.49731 16.5201Z" fill="#67696C"/>
<path d="M77.9321 13.045C76.7201 14.1711 75.5128 15.2973 74.2053 16.5141C75.6798 11.2078 77.1161 6.03521 78.5811 0.748047C79.2062 1.9744 79.7788 3.10532 80.3562 4.23624C80.5137 4.31736 80.5662 4.47483 80.633 4.61321C81.2151 5.76799 81.7782 6.93708 82.3794 8.08231C82.5942 8.48792 82.5465 8.779 82.2172 9.09871C80.9002 10.3823 79.5402 11.6134 78.2184 12.8875C78.1373 12.9639 78.0562 13.0402 77.9321 13.0402V13.045Z" fill="#F99C1C"/>
<path d="M77.9319 13.045C79.3253 11.7089 80.7091 10.3585 82.1263 9.04624C82.4747 8.72176 82.489 8.48794 82.279 8.08234C81.6158 6.81304 80.9954 5.51988 80.3608 4.23626C80.6948 3.11489 81.0241 1.98874 81.3819 0.791016C81.6158 1.24434 81.8209 1.63562 82.0214 2.02691C83.0759 4.12651 84.1257 6.2261 85.1898 8.32093C85.3139 8.56429 85.2996 8.69312 85.0944 8.884C82.4794 11.3415 79.8788 13.8085 77.2734 16.2755C77.2209 16.328 77.1589 16.371 77.0205 16.4855C77.3402 15.2734 77.6361 14.1616 77.9319 13.0498V13.045Z" fill="#23A94A"/>
<path d="M42.7065 21.9928C43.179 21.0623 43.6514 20.1271 44.1715 19.1107C44.4387 19.8264 44.4578 20.4993 44.6439 21.1959C45.164 20.4945 45.6603 19.8264 46.2091 19.082C46.2759 20.0793 46.1232 20.9764 46.1279 21.8783C46.1279 22.074 46.0086 22.0644 45.875 22.0644C45.6889 22.0644 45.6842 21.9451 45.6937 21.802C45.7176 21.3725 45.7367 20.9383 45.7653 20.3561C45.2642 21.0003 44.8491 21.5395 44.3719 22.1598C44.2335 21.5157 44.1095 20.9526 43.9854 20.3847C43.5178 20.9049 43.5178 21.7447 42.8736 22.1169C42.8163 22.074 42.7638 22.0358 42.7065 21.9928Z" fill="#67696C"/>
<path d="M10.3585 19.0723C10.411 20.0743 10.2726 20.9571 10.2726 21.8495C10.2726 22.0117 10.2153 22.0737 10.0483 22.0642C9.88129 22.0594 9.82405 21.9926 9.83359 21.8256C9.86222 21.3818 9.87652 20.9428 9.90515 20.3511C9.39934 21.0049 8.9842 21.5441 8.50701 22.1596C8.36863 21.5059 8.25412 20.9524 8.13483 20.3845C7.6147 20.8569 7.71489 21.797 6.98003 22.0928C6.93708 22.0594 6.88938 22.0308 6.84644 21.9974C7.31884 21.0621 7.79125 20.1316 8.30183 19.1152C8.56905 19.8262 8.60722 20.4943 8.77423 21.2053C9.29436 20.5038 9.79063 19.831 10.3537 19.0723H10.3585Z" fill="#67696C"/>
<path d="M4.98543 20.5474C4.58937 21.0627 4.18855 21.5781 3.74477 22.1507C3.61116 21.5351 3.49185 20.9959 3.33915 20.3183C3.06716 20.8719 2.87152 21.2965 2.65679 21.7165C2.59475 21.8405 2.57091 22.0123 2.40867 22.0505C2.32278 22.0744 2.20348 22.0696 2.13668 22.0266C2.06033 21.9789 2.13666 21.8883 2.17483 21.8167C2.62338 20.9243 3.07671 20.0272 3.5873 19.0156C3.73522 19.7934 3.85929 20.4472 4.00722 21.2107C4.56075 20.471 5.0618 19.7982 5.62964 19.0347C5.58192 20.032 5.54374 20.8909 5.50079 21.7499C5.49125 21.8978 5.51988 22.0839 5.2622 22.0696C4.98544 22.0505 5.08564 21.8548 5.08087 21.7165C5.0761 21.4588 5.09041 21.2059 5.09995 20.9482C5.15244 20.8146 5.14768 20.6714 5.11428 20.5426C5.08565 20.4281 5.03315 20.5426 4.99021 20.5521L4.98543 20.5474Z" fill="#67696C"/>
<path d="M51.6584 19.0156C51.9686 19.426 52.2215 19.7505 52.4696 20.0797C52.7178 20.409 52.9659 20.7382 53.2522 21.1152C53.4144 20.5617 53.5624 20.0463 53.7151 19.531C53.7437 19.4403 53.7676 19.3449 53.7962 19.2542C53.8487 19.0824 53.9918 19.1015 54.1111 19.1254C54.2829 19.1635 54.2113 19.3019 54.1827 19.3974C53.9346 20.2897 53.6817 21.1773 53.4049 22.1555C52.8561 21.4445 52.3455 20.7812 51.8063 20.0797C51.6441 20.6571 51.4771 21.2059 51.3339 21.7594C51.2862 21.9551 51.2242 22.1078 50.9951 22.06C50.6993 21.998 50.8997 21.8119 50.9283 21.6926C51.1574 20.8289 51.396 19.97 51.6584 19.0156Z" fill="#67696C"/>
<path d="M13.9612 20.2558C13.9851 20.5803 13.861 20.6853 13.5509 20.6853C12.7063 20.6853 12.7063 20.6996 12.482 21.6158C12.7731 21.6158 13.0498 21.6063 13.3266 21.6206C13.422 21.6254 13.6224 21.5251 13.5747 21.7685C13.5509 21.9021 13.5461 22.0644 13.3361 22.0596C12.921 22.0548 12.5058 22.0548 12.0859 22.0596C11.8855 22.0596 11.8903 21.9594 11.9332 21.8115C12.167 20.9859 12.3961 20.1556 12.6347 19.3253C12.6538 19.2538 12.7063 19.1392 12.7444 19.1345C13.2407 19.1202 13.7322 19.1202 14.2285 19.1297C14.3144 19.1297 14.2953 19.2204 14.2762 19.2824C14.238 19.4065 14.1951 19.5258 14.0233 19.5162C13.8133 19.5067 13.6081 19.5162 13.3982 19.5162C13.0928 19.521 12.816 19.855 12.8733 20.1413C12.9019 20.2893 13.0116 20.2415 13.0928 20.2415C13.3791 20.2463 13.6654 20.2415 13.9565 20.2415L13.9612 20.2558Z" fill="#67696C"/>
<path d="M80.0554 22.0643C80.3131 21.1338 80.5517 20.2748 80.7998 19.4207C80.8285 19.3205 80.8094 19.1487 80.943 19.1439C81.4201 19.1248 81.9021 19.1248 82.3793 19.1296C82.4509 19.1296 82.4747 19.2012 82.47 19.2728C82.4604 19.3921 82.4175 19.5018 82.2886 19.5209C82.1646 19.54 82.031 19.5304 81.9069 19.5304C81.4456 19.5304 81.1673 19.7706 81.0718 20.251H82.1502C82.1837 20.5611 82.093 20.7091 81.778 20.6852C81.6826 20.6757 81.5872 20.6852 81.4917 20.6852C80.9478 20.6852 80.6996 20.9429 80.7044 21.4773C80.7044 21.6348 80.7855 21.6205 80.8762 21.6253C81.0671 21.63 81.2627 21.6109 81.4536 21.6348C81.5681 21.6491 81.7828 21.5203 81.7828 21.7636C81.7828 21.9402 81.7112 22.0929 81.4631 22.0786C81.0146 22.0595 80.5708 22.0738 80.065 22.0738L80.0554 22.0643Z" fill="#67696C"/>
<path d="M65.1055 20.2661H66.203C66.203 20.6001 66.0551 20.686 65.7545 20.686C64.9003 20.686 64.9003 20.6956 64.7285 21.6165C65.0053 21.6165 65.2725 21.607 65.5397 21.6165C65.6399 21.6213 65.8356 21.5306 65.8117 21.7549C65.7974 21.9028 65.764 22.0699 65.5302 22.0651C65.0673 22.0508 64.6044 22.0651 64.0986 22.0651C64.3611 21.1298 64.614 20.2279 64.8621 19.3213C64.886 19.2402 64.9003 19.14 64.9862 19.14C65.4634 19.1304 65.9453 19.1304 66.4225 19.14C66.4988 19.14 66.5084 19.2211 66.5036 19.2879C66.4941 19.412 66.4416 19.5122 66.3128 19.5265C66.1887 19.5408 66.0551 19.536 65.931 19.536C65.4697 19.536 65.1946 19.7826 65.1055 20.2757V20.2661Z" fill="#67696C"/>
<path d="M49.2774 21.6163C49.3013 21.9742 49.1534 22.103 48.8289 22.0648C48.4233 22.0219 47.8745 22.2366 47.6598 21.9694C47.5119 21.7833 47.8029 21.2345 47.9031 20.8528C48.032 20.3756 48.1656 19.8984 48.3088 19.426C48.3374 19.3258 48.3135 19.154 48.4471 19.1445C48.9243 19.1206 49.4063 19.1254 49.8835 19.1254C49.955 19.1254 49.9837 19.1922 49.9789 19.2638C49.9694 19.3831 49.9312 19.4976 49.7976 19.5167C49.6735 19.5358 49.5399 19.5262 49.4158 19.5262C48.9545 19.5262 48.673 19.7696 48.5712 20.2563H49.6496C49.6878 20.5569 49.5924 20.7049 49.2822 20.681C49.1868 20.6715 49.0913 20.681 48.9959 20.681C48.4424 20.681 48.2181 20.9148 48.2038 21.4683C48.199 21.6783 48.3278 21.6163 48.4185 21.6163C48.7048 21.6258 48.9911 21.6163 49.2822 21.6163H49.2774Z" fill="#67696C"/>
<path d="M29.1833 20.2572C29.4553 20.2572 29.7273 20.2477 29.9992 20.2572C30.0899 20.2572 30.2569 20.1809 30.2522 20.3622C30.2522 20.5006 30.214 20.6628 30.0231 20.6724C29.7845 20.6819 29.5412 20.6914 29.3026 20.6724C29.0878 20.658 28.9924 20.7439 28.9304 20.9443C28.7109 21.6172 28.7061 21.6076 29.441 21.6219C29.5841 21.6219 29.8418 21.4931 29.8656 21.7508C29.8943 22.0657 29.6461 22.0705 29.4028 22.0657C29.0067 22.0562 28.6059 22.0657 28.1621 22.0657C28.4246 21.1209 28.6727 20.219 28.9161 19.3172C28.959 19.1597 29.0497 19.1215 29.1976 19.1215C29.5793 19.1215 29.9659 19.1215 30.3476 19.1215C30.4383 19.1215 30.5528 19.1072 30.5576 19.2456C30.5576 19.3601 30.5432 19.4842 30.4049 19.508C30.2665 19.5319 30.1138 19.5462 29.9754 19.5223C29.4409 19.4365 29.1547 19.6321 29.1833 20.2572Z" fill="#67696C"/>
<path d="M78.6049 21.4168C78.6478 21.7269 78.5238 21.9035 78.2422 22.0085C77.6267 22.2423 76.9252 22.1421 76.5959 21.7508C76.2667 21.3595 76.2715 20.7201 76.6103 20.1332C77.035 19.3983 77.8796 18.9688 78.6621 19.0881C78.8387 19.1168 79.0009 19.174 79.1441 19.279C79.2968 19.3983 79.2109 19.5415 79.1584 19.6703C79.0821 19.8564 78.9819 19.7085 78.896 19.6703C78.0466 19.2599 77.1352 19.7037 76.8966 20.6437C76.7248 21.3309 77.1256 21.7794 77.8319 21.6888C78.0991 21.6554 78.3424 21.5313 78.6049 21.4168Z" fill="#67696C"/>
<path d="M62.2615 19.0779C62.3999 19.1018 62.5478 19.0779 62.6814 19.1542C62.8245 19.2401 63.0011 19.3833 62.9247 19.5169C62.8532 19.6457 62.6432 19.8032 62.4475 19.5933C62.438 19.5837 62.4285 19.5694 62.4142 19.5599C62.1279 19.4072 61.8749 19.4501 61.7127 19.7316C61.5552 20.0084 61.7413 20.1611 61.9608 20.3043C62.6384 20.748 62.7196 20.9198 62.4953 21.4209C62.2567 21.9553 61.6268 22.2464 61.059 22.0841C60.8442 22.0221 60.6915 21.898 60.6486 21.669C60.62 21.5163 60.6868 21.4447 60.8299 21.3827C60.9588 21.3302 61.016 21.335 61.0828 21.4638C61.2164 21.731 61.4646 21.731 61.7031 21.6547C61.894 21.5974 62.042 21.459 62.0801 21.2538C62.1326 20.9723 61.9036 20.8673 61.7127 20.7528C61.3644 20.5428 60.9969 20.3472 61.164 19.8318C61.3167 19.3642 61.7318 19.0684 62.2567 19.0684L62.2615 19.0779Z" fill="#67696C"/>
<path d="M71.91 21.0192C72.5781 20.4227 72.726 19.4158 73.604 19.0723C73.6469 19.1057 73.6899 19.1438 73.7328 19.1772C73.0505 20.1459 72.3681 21.1146 71.6189 22.1739C71.471 21.1862 71.3374 20.3082 71.2133 19.4302C71.1943 19.3013 71.1131 19.1343 71.366 19.12C71.5617 19.1104 71.6667 19.1772 71.6905 19.3729C71.7621 19.9216 71.8384 20.4704 71.9148 21.0192H71.91Z" fill="#67696C"/>
<path d="M40.2395 19.1265C41.1605 19.0835 40.7883 19.9806 41.1939 20.2574C41.9287 19.5035 42.4266 19.1376 42.6874 19.1599C42.4202 19.4557 42.1912 19.7421 41.9287 19.9902C41.4515 20.4435 41.1128 20.9589 41.0269 21.6221C41.0125 21.7462 40.9744 21.8798 40.9123 21.9848C40.8312 22.1089 40.6785 22.0802 40.5592 22.0516C40.4304 22.023 40.459 21.8989 40.5019 21.8178C40.9791 20.8921 40.6213 20.0284 40.2491 19.1265H40.2395Z" fill="#67696C"/>
<path d="M55.662 22.0185C55.8577 21.3027 56.0294 20.5774 56.2537 19.8711C56.3539 19.5562 56.2537 19.5228 55.9865 19.5228C55.8624 19.5228 55.6334 19.6564 55.6238 19.3844C55.6143 19.1029 55.829 19.122 56.0247 19.122C56.4732 19.1267 56.917 19.122 57.3656 19.1267C57.4753 19.1267 57.6519 19.0456 57.6614 19.2556C57.671 19.4178 57.585 19.5657 57.4085 19.5228C56.7738 19.3749 56.7261 19.833 56.6164 20.2481C56.4923 20.7396 56.3396 21.2263 56.2203 21.7226C56.144 22.0328 55.9961 22.1616 55.662 22.0185Z" fill="#67696C"/>
<path d="M26.5253 19.1209C26.7639 19.1209 27.0025 19.1161 27.2459 19.1209C27.3461 19.1209 27.494 19.0684 27.494 19.2497C27.494 19.3785 27.4606 19.5456 27.2936 19.5122C26.5539 19.3642 26.5444 19.9225 26.4203 20.3806C26.2915 20.8578 26.1531 21.3302 26.029 21.8074C25.9718 22.0221 25.8477 22.108 25.6473 22.0508C25.4182 21.9887 25.5566 21.8074 25.5805 21.6976C25.7332 21.0964 25.8954 20.4952 26.0815 19.9034C26.177 19.6076 26.1292 19.4931 25.8 19.5122C25.6807 19.5169 25.4421 19.6362 25.4564 19.3404C25.466 19.1161 25.633 19.1113 25.8 19.1113C26.0386 19.1113 26.2772 19.1113 26.5205 19.1113L26.5253 19.1209Z" fill="#67696C"/>
<path d="M20.2647 19.1247C20.4842 19.1057 20.4889 19.2297 20.4508 19.3681C20.2217 20.1984 19.9879 21.0239 19.7636 21.8542C19.7111 22.0546 19.5775 22.0928 19.401 22.0689C19.129 22.0308 19.2912 21.8351 19.3151 21.7397C19.5203 20.9571 19.7541 20.1793 19.964 19.392C20.0118 19.2106 20.069 19.0913 20.2599 19.1247H20.2647Z" fill="#67696C"/>
<path d="M1.3302 19.344C1.10116 20.1791 0.862548 21.0428 0.623957 21.9017C0.571467 22.0831 0.414002 22.0878 0.270848 22.0544C0.0656605 22.0067 0.165881 21.8445 0.194512 21.7443C0.409243 20.9426 0.638292 20.1457 0.853024 19.344C0.905514 19.1484 1.0248 19.0959 1.20613 19.115C1.34452 19.1293 1.35406 19.2104 1.3302 19.3393V19.344Z" fill="#67696C"/>
<path d="M75.4746 19.3217C75.2312 20.195 74.9974 21.0634 74.7445 21.9319C74.692 22.1132 74.5059 22.0846 74.377 22.0512C74.2148 22.013 74.2912 21.8651 74.315 21.7697C74.5345 20.9584 74.7635 20.1472 74.9878 19.3408C75.0403 19.1452 75.1644 19.1022 75.3457 19.1213C75.4841 19.1356 75.4936 19.212 75.4746 19.3217Z" fill="#67696C"/>
<path d="M17.3062 19.1735C16.9579 19.1019 16.6048 19.1448 16.2564 19.1162C15.9892 19.0923 15.8985 19.2164 15.8413 19.4502C15.6743 20.0992 15.4834 20.7386 15.3021 21.3828C15.1748 21.8377 15.345 22.0652 15.8126 22.0652C17.2299 22.0652 18.0792 21.3255 18.0745 20.104C18.0745 19.5552 17.8454 19.2832 17.311 19.1735H17.3062ZM16.1658 21.6214C15.7983 21.7025 15.679 21.5689 15.8365 21.149C15.9749 20.7816 16.0846 20.3903 16.1467 20.0037C16.2373 19.4168 16.6573 19.5647 17.0056 19.5886C17.3826 19.6125 17.5687 19.8367 17.5734 20.2185C17.5878 21.0106 17.0104 21.6118 16.161 21.6262L16.1658 21.6214Z" fill="#67696C"/>
<path d="M69.2522 20.5941C69.653 20.4509 69.8964 19.9021 69.7867 19.5252C69.6626 19.1005 69.2856 19.153 68.9611 19.1196C68.88 19.11 68.7989 19.1291 68.7225 19.1196C68.441 19.0814 68.2979 19.172 68.2263 19.4727C68.0497 20.2123 67.8207 20.9424 67.625 21.682C67.5916 21.8109 67.4389 21.9922 67.7014 22.059C67.9352 22.121 67.9925 21.9492 68.0497 21.7679C68.1499 21.4387 68.1881 21.0855 68.3456 20.804C68.8085 21.1476 68.5746 22.0781 69.5338 22.0733C69.3572 21.7011 69.2379 21.4053 69.0804 21.1333C68.923 20.866 68.8943 20.7229 69.257 20.5988L69.2522 20.5941ZM68.4553 20.3364C68.6653 20.0739 68.3885 19.5729 68.9373 19.5538C69.1425 19.5443 69.3381 19.6111 69.2952 19.883C69.2236 20.3555 68.8896 20.3889 68.4553 20.3364Z" fill="#67696C"/>
<path d="M23.815 21.6631C23.6671 20.8137 23.5001 19.9691 23.314 19.0195C22.5362 20.0693 21.8204 21.038 21.0808 22.0305C21.3767 22.0878 21.5866 22.0926 21.6916 21.8588C21.9302 21.3339 22.3596 21.2814 22.875 21.3005C23.1995 21.3148 23.3522 21.4007 23.3426 21.7251C23.3379 21.9494 23.4094 22.0973 23.6766 22.0687C24.0059 22.0305 23.8389 21.7967 23.815 21.6679V21.6631ZM22.4694 20.8758C22.4933 20.6944 22.6316 20.5799 22.7271 20.4415C22.813 20.3127 22.9036 20.1839 23.0325 20.0073C23.3045 20.9617 23.2854 20.9903 22.4742 20.8758H22.4694Z" fill="#67696C"/>
<path d="M38.8987 21.9123C38.7221 20.9818 38.5408 20.0513 38.3404 19.0254C37.5673 20.0656 36.8563 21.0248 36.1167 22.0173C36.5318 22.1796 36.6941 21.9314 36.8516 21.6833C36.99 21.4686 37.114 21.2681 37.4433 21.3015C37.8871 21.3445 38.4358 21.1536 38.4167 21.9219C38.4167 22.1032 38.598 22.0555 38.7173 22.0603C38.8223 22.0603 38.9225 22.0459 38.8939 21.9076L38.8987 21.9123ZM37.4194 20.9007C37.658 20.5667 37.8537 20.2995 38.0779 19.9845C38.202 20.624 37.9825 20.9293 37.4194 20.9007Z" fill="#67696C"/>
<path d="M36.0642 19.6258C35.9926 19.0532 35.5202 19.1534 35.1384 19.12C35.1241 19.12 35.105 19.12 35.0573 19.12C34.8617 19.1725 34.5467 18.9721 34.4418 19.3968C34.2461 20.1984 34.0075 20.9953 33.788 21.7922C33.7594 21.8924 33.6592 22.0165 33.8453 22.0547C33.9646 22.0785 34.1125 22.0976 34.1793 21.9449C34.227 21.8304 34.27 21.7063 34.2891 21.5775C34.375 21.0526 34.4799 20.6422 35.2052 20.6947C35.7158 20.7329 36.1357 20.1221 36.0689 19.621L36.0642 19.6258ZM35.5536 19.8739C35.5154 20.2318 35.2625 20.3368 34.938 20.3511C34.8426 20.3225 34.6135 20.4132 34.7042 20.1937C34.7996 19.9598 34.6708 19.5495 35.0907 19.5399C35.2816 19.5399 35.5917 19.5161 35.5536 19.8739Z" fill="#67696C"/>
</svg>
