<?xml version="1.0" encoding="utf-8"?>
<!-- Generator: Adobe Illustrator 23.1.0, SVG Export Plug-In . SVG Version: 6.00 Build 0)  -->
<svg version="1.1" id="Layer_1" xmlns="http://www.w3.org/2000/svg" xmlns:xlink="http://www.w3.org/1999/xlink" x="0px" y="0px"
	 viewBox="0 0 184 65" enable-background="new 0 0 184 65" xml:space="preserve">
<g>
	<path fill="#FFFFFF" d="M111.683,43.121c0.548-1.983,1.111-3.875,1.58-5.79c0.183-0.745,0.669-0.606,1.15-0.606
		c10.274-0.002,20.548-0.022,30.822,0.028c1.083,0.005,1.512-0.291,1.724-1.34c0.311-1.539,0.746-3.06,1.247-4.549
		c0.305-0.909-0.02-0.98-0.791-0.979c-9.435,0.019-18.869,0.011-28.304,0.014c-0.675,0-1.342,0-1.948-0.372
		c-0.818-0.503-1.267-1.491-0.982-2.542c1.255-4.62,2.502-9.243,3.853-13.835c0.616-2.094,2.375-3.171,4.727-3.172
		c9.267-0.003,18.534-0.001,27.8-0.001c2.35,0,4.701,0.018,7.051-0.011c0.705-0.009,0.965,0.103,0.713,0.896
		c-0.496,1.562-0.921,3.15-1.297,4.746c-0.166,0.703-0.499,0.857-1.179,0.856c-10.308-0.022-20.615-0.001-30.923-0.039
		c-0.977-0.004-1.39,0.257-1.612,1.23c-0.438,1.916-1.034,3.796-1.589,5.775c0.471,0,0.837,0,1.204,0c9.233,0,18.467,0,27.7,0.001
		c0.336,0,0.673-0.01,1.007,0.015c1.765,0.132,2.77,1.315,2.325,3.001c-1.221,4.628-2.501,9.241-3.844,13.835
		c-0.489,1.674-2.251,2.896-3.984,2.898c-12.02,0.017-24.04,0.009-36.06,0.006C111.975,43.185,111.877,43.154,111.683,43.121z"/>
	<path fill="#FFFFFF" d="M58.317,27.333c-3.217,2.934-6.24,5.69-9.26,8.447c-2.503,2.285-5.017,4.559-7.493,6.873
		c-0.536,0.501-0.749,0.496-1.129-0.161c-3.14-5.422-6.317-10.823-9.487-16.227c-0.165-0.281-0.256-0.626-0.655-0.823
		c-0.811,2.914-1.619,5.807-2.42,8.701c-0.759,2.742-1.524,5.481-2.254,8.231c-0.161,0.605-0.404,0.86-1.081,0.835
		c-1.643-0.06-3.29-0.055-4.933-0.003c-0.737,0.023-0.793-0.197-0.613-0.837c1.923-6.863,3.821-13.734,5.726-20.602
		c1.071-3.861,2.143-7.722,3.221-11.606c0.465,0.135,0.532,0.544,0.709,0.836c4.342,7.165,8.681,14.331,12.991,21.516
		c0.413,0.688,0.641,0.75,1.277,0.209c8.568-7.275,17.162-14.52,25.751-21.77c0.25-0.211,0.517-0.402,0.851-0.661
		c0.094,0.759-0.213,1.334-0.375,1.921c-2.753,10.002-5.531,19.997-8.281,30c-0.196,0.712-0.462,1.048-1.278,1.001
		c-1.439-0.081-2.885-0.023-4.329-0.023c-1.292,0-1.292-0.001-0.963-1.189c1.296-4.676,2.592-9.351,3.886-14.027
		C58.212,27.849,58.233,27.719,58.317,27.333z"/>
	<path fill="#FFFFFF" d="M66.748,43.19c1.255-4.514,2.482-8.928,3.708-13.343c0.511-1.838,1.048-3.669,1.516-5.517
		c0.175-0.691,0.467-0.923,1.211-0.92c10.339,0.029,20.678,0.007,31.017,0.043c0.877,0.003,1.216-0.27,1.408-1.091
		c0.389-1.661,0.845-3.308,1.348-4.938c0.253-0.82,0.053-0.995-0.777-0.993c-10.272,0.025-20.544,0.017-30.816,0.016
		c-1.222,0-1.221-0.001-0.895-1.158c0.435-1.546,0.901-3.085,1.289-4.643c0.136-0.546,0.386-0.678,0.901-0.677
		c11.782,0.011,23.565-0.001,35.347,0.017c2.186,0.003,3.199,1.231,2.644,3.338c-1.185,4.497-2.446,8.976-3.751,13.44
		c-0.584,1.997-2.285,3.129-4.423,3.131c-9.466,0.006-18.933,0.015-28.399-0.019c-0.826-0.003-1.131,0.228-1.342,1.027
		c-1.008,3.817-2.111,7.61-3.143,11.422c-0.176,0.649-0.416,0.912-1.141,0.887C70.579,43.148,68.703,43.19,66.748,43.19z"/>
	<path fill="#FFFFFF" d="M5.643,43.19c0.788-2.869,1.542-5.637,2.308-8.402c2.195-7.929,4.405-15.855,6.575-23.791
		c0.192-0.703,0.449-0.979,1.206-0.947c1.54,0.064,3.087,0.065,4.628,0.001c0.841-0.035,1.007,0.183,0.778,0.989
		c-1.405,4.955-2.773,9.92-4.148,14.884c-1.499,5.415-3.004,10.828-4.471,16.252c-0.207,0.765-0.5,1.079-1.352,1.04
		C9.365,43.133,7.555,43.19,5.643,43.19z"/>
	<path fill="#FFFFFF" d="M165.827,35.91c-2.537,2.362-5.074,4.724-7.807,7.268c3.087-11.118,6.099-21.963,9.174-33.035
		c1.306,2.567,2.513,4.937,3.719,7.307c0.326,0.167,0.436,0.498,0.585,0.793c1.223,2.423,2.4,4.869,3.659,7.273
		c0.447,0.854,0.345,1.456-0.344,2.127c-2.759,2.686-5.613,5.271-8.383,7.945C166.262,35.75,166.086,35.912,165.827,35.91z"/>
	<path fill="#FFFFFF" d="M165.827,35.91c2.923-2.8,5.82-5.628,8.787-8.381c0.729-0.676,0.765-1.173,0.322-2.018
		c-1.393-2.66-2.69-5.37-4.024-8.061c0.696-2.353,1.392-4.705,2.137-7.222c0.49,0.948,0.924,1.766,1.34,2.593
		c2.211,4.396,4.408,8.799,6.638,13.185c0.257,0.506,0.226,0.783-0.196,1.18c-5.475,5.15-10.93,10.323-16.391,15.488
		c-0.114,0.108-0.243,0.202-0.527,0.437C164.588,40.574,165.207,38.242,165.827,35.91z"/>
	<path fill="#FFFFFF" d="M92.006,54.666c0.992-1.954,1.985-3.909,3.065-6.037c0.56,1.502,0.596,2.911,0.994,4.367
		c1.088-1.468,2.13-2.872,3.283-4.428c0.137,2.086-0.183,3.969-0.167,5.859c0.003,0.407-0.247,0.392-0.529,0.387
		c-0.394-0.007-0.397-0.252-0.38-0.549c0.052-0.904,0.089-1.808,0.146-3.029c-1.046,1.351-1.924,2.485-2.924,3.777
		c-0.293-1.352-0.548-2.526-0.807-3.718c-0.981,1.089-0.984,2.854-2.332,3.633C92.24,54.841,92.123,54.753,92.006,54.666z"/>
	<path fill="#FFFFFF" d="M24.21,48.546c0.112,2.096-0.184,3.955-0.176,5.821c0.001,0.342-0.122,0.467-0.471,0.454
		c-0.352-0.014-0.468-0.154-0.447-0.495c0.056-0.927,0.092-1.854,0.15-3.092c-1.056,1.367-1.931,2.5-2.928,3.791
		c-0.286-1.372-0.529-2.534-0.776-3.718c-1.09,0.991-0.882,2.961-2.42,3.579c-0.094-0.066-0.187-0.133-0.281-0.199
		c0.988-1.956,1.976-3.911,3.054-6.044c0.561,1.493,0.643,2.887,0.986,4.377C21.991,51.545,23.032,50.139,24.21,48.546z"/>
	<path fill="#FFFFFF" d="M12.956,51.636c-0.835,1.079-1.67,2.158-2.604,3.364c-0.285-1.289-0.533-2.415-0.848-3.843
		C8.939,52.32,8.52,53.21,8.071,54.085c-0.131,0.256-0.177,0.616-0.515,0.7c-0.181,0.045-0.431,0.042-0.575-0.053
		c-0.155-0.102,0.004-0.291,0.076-0.436c0.944-1.873,1.886-3.747,2.956-5.873c0.312,1.633,0.573,3.002,0.877,4.595
		c1.157-1.549,2.208-2.958,3.404-4.56c-0.098,2.087-0.177,3.889-0.271,5.691c-0.016,0.313,0.042,0.702-0.501,0.668
		c-0.58-0.037-0.369-0.454-0.376-0.741c-0.012-0.536,0.023-1.072,0.038-1.609c0.107-0.281,0.101-0.576,0.029-0.852
		C13.151,51.378,13.045,51.626,12.956,51.636z"/>
	<path fill="#FFFFFF" d="M110.759,48.425c0.653,0.855,1.179,1.54,1.701,2.228c0.523,0.689,1.043,1.381,1.64,2.172
		c0.338-1.16,0.652-2.24,0.966-3.32c0.056-0.192,0.107-0.385,0.166-0.577c0.11-0.357,0.408-0.321,0.661-0.265
		c0.358,0.079,0.209,0.369,0.153,0.571c-0.518,1.866-1.049,3.728-1.629,5.78c-1.15-1.494-2.218-2.88-3.352-4.353
		c-0.345,1.214-0.69,2.359-0.988,3.516c-0.105,0.406-0.226,0.728-0.709,0.629c-0.623-0.128-0.201-0.518-0.136-0.767
		C109.708,52.232,110.209,50.432,110.759,48.425z"/>
	<path fill="#FFFFFF" d="M31.762,51.022c0.045,0.684-0.212,0.904-0.858,0.904c-1.767,0.003-1.767,0.033-2.235,1.952
		c0.609,0,1.19-0.019,1.767,0.01c0.2,0.01,0.621-0.197,0.523,0.314c-0.053,0.277-0.059,0.62-0.504,0.613
		c-0.872-0.012-1.744-0.01-2.615,0c-0.417,0.005-0.411-0.215-0.325-0.518c0.491-1.735,0.975-3.472,1.47-5.205
		c0.042-0.148,0.15-0.394,0.232-0.396c1.035-0.028,2.072-0.028,3.108-0.011c0.179,0.003,0.143,0.194,0.103,0.317
		c-0.084,0.257-0.168,0.508-0.528,0.493c-0.435-0.017-0.872-0.008-1.308-0.001c-0.638,0.01-1.216,0.713-1.1,1.309
		c0.059,0.308,0.292,0.209,0.463,0.213C30.555,51.03,31.155,51.022,31.762,51.022z"/>
	<path fill="#FFFFFF" d="M170.278,54.815c0.545-1.948,1.044-3.747,1.556-5.541c0.06-0.21,0.017-0.566,0.301-0.579
		c1.002-0.044,2.007-0.036,3.01-0.032c0.154,0.001,0.197,0.154,0.187,0.296c-0.018,0.254-0.111,0.477-0.385,0.515
		c-0.263,0.037-0.535,0.018-0.803,0.018c-1.451,0.004-1.451,0.003-1.754,1.507c0.738,0,1.467,0,2.26,0
		c0.072,0.65-0.124,0.965-0.776,0.913c-0.2-0.016-0.402-0.002-0.603-0.002c-1.142,0.001-1.656,0.541-1.651,1.655
		c0.002,0.326,0.173,0.303,0.363,0.308c0.402,0.01,0.809-0.031,1.205,0.017c0.241,0.029,0.688-0.238,0.687,0.272
		c0,0.368-0.152,0.686-0.672,0.663C172.268,54.786,171.33,54.815,170.278,54.815z"/>
	<path fill="#FFFFFF" d="M138.946,51.048c0.843,0,1.576,0,2.305,0c0.009,0.699-0.312,0.881-0.941,0.878
		c-1.792-0.009-1.792,0.019-2.148,1.953c0.578,0,1.141-0.018,1.702,0.009c0.214,0.011,0.622-0.182,0.574,0.286
		c-0.032,0.308-0.099,0.661-0.587,0.648c-0.968-0.026-1.937-0.008-3.001-0.008c0.548-1.963,1.078-3.854,1.601-5.747
		c0.046-0.166,0.081-0.38,0.26-0.384c1.003-0.022,2.006-0.021,3.01-0.01c0.159,0.002,0.175,0.171,0.165,0.307
		c-0.019,0.258-0.129,0.465-0.403,0.497c-0.265,0.031-0.535,0.015-0.803,0.016C139.232,49.497,139.232,49.496,138.946,51.048z"/>
	<path fill="#FFFFFF" d="M105.77,53.878c0.053,0.754-0.257,1.018-0.944,0.944c-0.848-0.091-2.003,0.363-2.455-0.205
		c-0.314-0.395,0.295-1.536,0.511-2.338c0.27-0.999,0.551-1.996,0.847-2.988c0.062-0.209,0.011-0.573,0.291-0.587
		c1.002-0.05,2.007-0.044,3.01-0.045c0.151,0,0.214,0.141,0.201,0.288c-0.023,0.246-0.099,0.485-0.375,0.527
		c-0.263,0.039-0.535,0.018-0.803,0.019c-1.455,0.004-1.455,0.004-1.768,1.529c0.376,0,0.736,0,1.095,0c0.367,0,0.735,0,1.163,0
		c0.083,0.635-0.121,0.943-0.773,0.891c-0.2-0.016-0.402-0.002-0.603-0.002c-1.164,0.001-1.628,0.494-1.657,1.649
		c-0.011,0.437,0.262,0.305,0.448,0.311C104.559,53.89,105.16,53.878,105.77,53.878z"/>
	<path fill="#FFFFFF" d="M63.668,51.022c0.572,0,1.14-0.016,1.706,0.009c0.191,0.008,0.536-0.158,0.534,0.222
		c-0.001,0.288-0.077,0.63-0.48,0.646c-0.502,0.02-1.006,0.038-1.506,0.002c-0.45-0.032-0.65,0.151-0.785,0.567
		c-0.458,1.408-0.471,1.386,1.068,1.424c0.303,0.007,0.837-0.274,0.89,0.272c0.064,0.656-0.462,0.67-0.967,0.656
		c-0.832-0.022-1.665-0.006-2.596-0.006c0.546-1.977,1.073-3.868,1.585-5.764c0.088-0.327,0.283-0.413,0.585-0.411
		c0.804,0.007,1.607-0.001,2.411,0.005c0.191,0.001,0.431-0.031,0.437,0.265c0.005,0.241-0.035,0.501-0.324,0.546
		c-0.294,0.046-0.607,0.076-0.898,0.029C64.207,49.305,63.607,49.712,63.668,51.022z"/>
	<path fill="#FFFFFF" d="M167.233,53.453c0.087,0.654-0.169,1.016-0.758,1.24c-1.288,0.49-2.764,0.28-3.452-0.537
		c-0.691-0.82-0.679-2.157,0.031-3.389c0.886-1.537,2.662-2.437,4.295-2.19c0.374,0.057,0.715,0.178,1.01,0.404
		c0.323,0.246,0.143,0.553,0.032,0.817c-0.162,0.385-0.365,0.083-0.545-0.004c-1.782-0.857-3.69,0.071-4.188,2.039
		c-0.363,1.437,0.48,2.379,1.957,2.186C166.179,53.946,166.68,53.688,167.233,53.453z"/>
	<path fill="#FFFFFF" d="M132.982,48.556c0.293,0.049,0.6-0.009,0.877,0.162c0.299,0.185,0.666,0.477,0.509,0.758
		c-0.15,0.269-0.587,0.605-0.997,0.158c-0.022-0.024-0.044-0.054-0.072-0.069c-0.595-0.318-1.127-0.226-1.465,0.358
		c-0.334,0.577,0.058,0.905,0.519,1.205c1.422,0.926,1.585,1.29,1.117,2.34c-0.499,1.119-1.816,1.731-3.011,1.393
		c-0.446-0.126-0.768-0.389-0.859-0.869c-0.06-0.316,0.082-0.474,0.383-0.596c0.269-0.109,0.392-0.103,0.531,0.173
		c0.284,0.563,0.798,0.559,1.302,0.403c0.397-0.123,0.712-0.409,0.789-0.838c0.106-0.59-0.374-0.812-0.766-1.05
		c-0.732-0.444-1.496-0.849-1.15-1.93C131.004,49.17,131.882,48.555,132.982,48.556z"/>
	<path fill="#FFFFFF" d="M153.2,52.619c1.402-1.251,1.71-3.363,3.551-4.082c0.088,0.073,0.177,0.147,0.265,0.22
		c-1.432,2.029-2.865,4.058-4.432,6.278c-0.308-2.072-0.585-3.912-0.853-5.753c-0.039-0.271-0.214-0.616,0.318-0.646
		c0.413-0.023,0.626,0.12,0.68,0.535C152.881,50.323,153.044,51.474,153.2,52.619z"/>
	<path fill="#FFFFFF" d="M86.829,48.657c1.932-0.09,1.153,1.786,1.998,2.37c2.308-2.366,2.308-2.366,3.127-2.301
		c-0.562,0.62-1.041,1.219-1.593,1.741c-1.002,0.946-1.713,2.028-1.893,3.422c-0.034,0.261-0.106,0.539-0.244,0.757
		c-0.166,0.263-0.491,0.2-0.74,0.144c-0.274-0.062-0.211-0.319-0.123-0.49C88.36,52.359,87.608,50.552,86.829,48.657z"/>
	<path fill="#FFFFFF" d="M119.158,54.712c0.405-1.499,0.768-3.018,1.24-4.503c0.21-0.661,0.005-0.731-0.56-0.733
		c-0.256-0.001-0.742,0.283-0.765-0.291c-0.024-0.588,0.427-0.552,0.843-0.547c0.936,0.01,1.873-0.008,2.81,0.012
		c0.225,0.005,0.598-0.167,0.622,0.269c0.019,0.336-0.158,0.649-0.531,0.562c-1.33-0.312-1.435,0.645-1.659,1.519
		c-0.265,1.032-0.575,2.053-0.825,3.089C120.176,54.739,119.861,55.004,119.158,54.712z"/>
	<path fill="#FFFFFF" d="M58.093,48.642c0.502,0,1.005-0.011,1.507,0.005c0.206,0.007,0.521-0.106,0.521,0.274
		c0,0.274-0.071,0.621-0.419,0.552c-1.547-0.307-1.572,0.858-1.829,1.822c-0.266,0.999-0.562,1.989-0.821,2.99
		c-0.115,0.446-0.379,0.631-0.801,0.512c-0.48-0.135-0.195-0.513-0.136-0.742c0.322-1.26,0.656-2.518,1.051-3.756
		c0.199-0.623,0.1-0.86-0.588-0.823c-0.252,0.013-0.747,0.258-0.715-0.361c0.024-0.47,0.368-0.482,0.724-0.477
		C57.088,48.647,57.59,48.641,58.093,48.642z"/>
	<path fill="#FFFFFF" d="M44.976,48.649c0.456-0.041,0.474,0.216,0.393,0.509c-0.476,1.736-0.965,3.469-1.437,5.206
		c-0.113,0.417-0.389,0.504-0.758,0.449c-0.574-0.085-0.232-0.49-0.18-0.691c0.432-1.644,0.918-3.273,1.358-4.915
		C44.453,48.829,44.577,48.578,44.976,48.649z"/>
	<path fill="#FFFFFF" d="M5.293,49.117c-0.483,1.75-0.977,3.555-1.482,5.357c-0.107,0.383-0.436,0.391-0.738,0.324
		c-0.431-0.096-0.22-0.436-0.162-0.65C3.36,52.47,3.84,50.8,4.292,49.123c0.111-0.413,0.358-0.516,0.742-0.48
		C5.327,48.67,5.34,48.842,5.293,49.117z"/>
	<path fill="#FFFFFF" d="M160.67,49.065c-0.507,1.825-1.003,3.654-1.529,5.474c-0.111,0.384-0.497,0.318-0.771,0.249
		c-0.336-0.084-0.182-0.391-0.128-0.588c0.46-1.701,0.942-3.395,1.407-5.095c0.111-0.405,0.369-0.504,0.75-0.462
		C160.687,48.676,160.707,48.838,160.67,49.065z"/>
	<path fill="#FFFFFF" d="M38.773,48.751c-0.732-0.152-1.47-0.06-2.201-0.119c-0.557-0.045-0.747,0.207-0.874,0.703
		c-0.348,1.357-0.746,2.702-1.127,4.051c-0.404,1.43-0.405,1.429,1.066,1.429c2.966,0,4.749-1.549,4.737-4.115
		C40.367,49.546,39.891,48.984,38.773,48.751z M36.387,53.881c-0.773,0.168-1.021-0.111-0.688-0.995
		c0.292-0.774,0.521-1.587,0.649-2.403c0.193-1.228,1.068-0.917,1.804-0.872c0.788,0.048,1.177,0.519,1.19,1.318
		C39.37,52.587,38.164,53.849,36.387,53.881z"/>
	<path fill="#FFFFFF" d="M147.632,51.736c0.843-0.296,1.349-1.451,1.12-2.244c-0.257-0.888-1.046-0.785-1.73-0.847
		c-0.166-0.015-0.337,0.016-0.501-0.006c-0.585-0.078-0.887,0.107-1.039,0.744c-0.37,1.554-0.846,3.083-1.263,4.626
		c-0.074,0.274-0.395,0.653,0.158,0.794c0.491,0.125,0.614-0.233,0.726-0.61c0.205-0.692,0.289-1.426,0.624-2.021
		c0.966,0.718,0.478,2.672,2.486,2.66c-0.37-0.782-0.617-1.402-0.949-1.973C146.94,52.301,146.87,52.005,147.632,51.736z
		 M145.966,51.2c0.436-0.555-0.144-1.599,1.013-1.644c0.426-0.017,0.838,0.116,0.75,0.689
		C147.577,51.237,146.879,51.301,145.966,51.2z"/>
	<path fill="#FFFFFF" d="M52.413,53.974c-0.307-1.78-0.663-3.55-1.046-5.543c-1.634,2.203-3.135,4.226-4.683,6.313
		c0.616,0.123,1.056,0.132,1.281-0.363c0.501-1.102,1.402-1.214,2.476-1.169c0.679,0.028,0.996,0.207,0.98,0.888
		c-0.011,0.472,0.143,0.779,0.701,0.716C52.811,54.737,52.459,54.242,52.413,53.974z M49.588,52.323
		c0.047-0.384,0.344-0.619,0.539-0.911c0.181-0.271,0.373-0.535,0.635-0.909C51.33,52.504,51.292,52.56,49.588,52.323z"/>
	<path fill="#FFFFFF" d="M84.022,54.49c-0.373-1.951-0.753-3.902-1.168-6.048c-1.621,2.182-3.111,4.188-4.657,6.27
		c0.869,0.343,1.207-0.175,1.542-0.695c0.292-0.453,0.549-0.865,1.24-0.796c0.929,0.093,2.079-0.313,2.04,1.3
		c-0.009,0.379,0.381,0.283,0.635,0.291C83.868,54.818,84.078,54.781,84.022,54.49z M80.92,52.374
		c0.502-0.698,0.908-1.26,1.379-1.915C82.689,52.469,82.689,52.469,80.92,52.374z"/>
	<path fill="#FFFFFF" d="M78.086,49.705c-0.153-1.203-1.138-0.994-1.944-1.062c-0.033-0.003-0.067,0-0.171,0
		c-0.413,0.114-1.069-0.309-1.286,0.583c-0.411,1.685-0.91,3.348-1.373,5.021c-0.057,0.207-0.268,0.468,0.116,0.55
		c0.251,0.053,0.562,0.095,0.697-0.227c0.103-0.244,0.185-0.505,0.228-0.766c0.179-1.097,0.404-1.957,1.921-1.85
		C77.341,52.029,78.219,50.754,78.086,49.705z M77.016,50.223c-0.078,0.753-0.614,0.97-1.287,1.003
		c-0.204-0.058-0.678,0.128-0.494-0.328c0.198-0.49-0.071-1.351,0.81-1.372C76.443,49.518,77.093,49.477,77.016,50.223z"/>
</g>
</svg>
