<svg width="51" height="36" viewBox="0 0 51 36" fill="none" xmlns="http://www.w3.org/2000/svg">
<path d="M17.5919 14.6884C17.6062 14.7266 17.6348 14.7505 17.6682 14.7695C17.7589 14.7982 17.7971 14.8793 17.8353 14.9556C17.9021 15.0415 17.9593 15.137 18.05 15.199C18.1979 15.3231 18.3315 15.4567 18.4222 15.6285C18.5463 15.7048 18.6369 15.8146 18.6942 15.9434C18.6942 15.9625 18.7037 15.972 18.718 15.972C18.7515 15.9911 18.7849 16.0198 18.7992 16.0579C18.823 16.0866 18.8517 16.1152 18.8755 16.1438C18.9232 16.1629 18.9328 16.2106 18.9614 16.244C18.9757 16.2631 18.9948 16.2822 19.0091 16.2965C19.0902 16.3204 19.1189 16.392 19.1475 16.4588C19.1666 16.4969 19.1905 16.5208 19.2239 16.5447C19.2525 16.5637 19.262 16.5924 19.2811 16.6162C19.3288 16.6687 19.3766 16.7212 19.4243 16.7785C19.5961 16.8882 19.6915 17.0743 19.8346 17.2127C19.8919 17.27 19.9587 17.3177 19.9778 17.4036C19.9969 17.4752 20.0589 17.5133 20.1114 17.5611C20.1734 17.5706 20.1734 17.6279 20.1973 17.666C20.1973 17.6851 20.2069 17.6947 20.2212 17.6947C20.2546 17.7138 20.288 17.7376 20.3023 17.7758C20.35 17.7949 20.3739 17.8283 20.3882 17.8808C20.4693 17.9714 20.5456 18.0621 20.6268 18.1528C20.6602 18.1766 20.6983 18.1957 20.7079 18.2387C20.7174 18.2482 20.727 18.2577 20.7318 18.2673C20.7604 18.2864 20.7699 18.315 20.789 18.3389C20.8367 18.3913 20.8844 18.4438 20.9322 18.5011C21.104 18.6109 21.1994 18.797 21.3425 18.9353C21.3998 18.9926 21.4666 19.0403 21.4857 19.1262C21.5048 19.1978 21.5668 19.236 21.6193 19.2837C21.6813 19.2932 21.6813 19.3505 21.7052 19.3887C21.7052 19.4077 21.7147 19.4173 21.7291 19.4173C21.7625 19.4364 21.7959 19.4602 21.8102 19.4984C21.8579 19.5175 21.8818 19.5509 21.8961 19.6034C21.9772 19.6941 22.0535 19.7847 22.1347 19.8754C22.1681 19.8992 22.2062 19.9183 22.2158 19.9613C22.2253 19.9708 22.2349 19.9804 22.2396 19.9899C22.2683 20.009 22.2778 20.0376 22.2969 20.0615C22.3446 20.114 22.3923 20.1665 22.4401 20.2237C22.4639 20.238 22.4878 20.2476 22.5069 20.2667C22.6882 20.4862 22.8982 20.677 23.0508 20.9204C23.0652 20.9586 23.0938 20.9824 23.1272 21.0015C23.1558 21.0111 23.1797 21.0302 23.1797 21.0588C23.1797 21.097 23.2035 21.116 23.2322 21.1304C23.2799 21.1685 23.3467 21.1972 23.361 21.2687C23.3658 21.2878 23.361 21.3165 23.3944 21.3212C23.4374 21.3356 23.4565 21.369 23.4708 21.4071C23.4803 21.4167 23.4851 21.4262 23.4946 21.431C23.5233 21.4405 23.5471 21.4548 23.5471 21.4883H23.5423C23.5996 21.5312 23.6426 21.5885 23.6807 21.6505C23.7809 21.808 23.9241 21.9273 24.0625 22.099C24.0625 22.0036 24.0625 21.9368 24.0625 21.8748C24.0625 17.3702 24.0625 12.8656 24.0625 8.36101C24.0625 8.33238 24.0625 8.30852 24.0625 8.27989C24.1197 8.24172 24.1818 8.25126 24.2438 8.25126C25.16 8.25126 26.0762 8.25126 26.9971 8.25126C27.0592 8.25126 27.126 8.27035 27.1832 8.2608C27.3168 8.23694 27.3264 8.30375 27.3264 8.40873C27.3264 14.5882 27.3264 20.7629 27.3264 26.9424C27.3264 26.9854 27.3407 27.0331 27.3073 27.0713H27.2596C27.231 27.0951 27.2071 27.0951 27.1785 27.0713C27.1689 27.0713 27.1594 27.0713 27.1498 27.0713C27.1164 27.0904 27.0783 27.0808 27.0448 27.0808C26.1048 27.0808 25.16 27.0808 24.2199 27.0808C24.1388 27.0808 24.0672 27.0713 24.0386 26.9806C23.9623 26.9424 23.9193 26.8708 23.8716 26.7993C23.8621 26.7897 23.8525 26.7802 23.843 26.7659C23.7809 26.7468 23.7618 26.6895 23.738 26.6418C23.7284 26.6323 23.7141 26.6179 23.7046 26.6084C23.6664 26.5607 23.5948 26.5416 23.5853 26.47C23.571 26.4557 23.5567 26.4366 23.5423 26.4223C23.5042 26.408 23.4946 26.3698 23.4708 26.346L23.4421 26.3125C23.4183 26.2982 23.3992 26.2839 23.3992 26.2553H23.404C23.3419 26.2171 23.3133 26.1503 23.2656 26.1026C23.2465 26.074 23.2226 26.0453 23.2035 26.0215C23.1367 25.9833 23.0843 25.9308 23.0508 25.8592C23.0413 25.8401 23.027 25.8258 23.0174 25.8067C22.8838 25.7304 22.8123 25.6015 22.712 25.4918C22.588 25.3534 22.4591 25.2198 22.3398 25.0719C22.3017 25.0289 22.2683 24.986 22.2492 24.9287C22.2396 24.9144 22.2253 24.9049 22.2158 24.8906C22.1872 24.8667 22.1633 24.8428 22.1442 24.8142C22.1108 24.7903 22.1156 24.7331 22.0679 24.7188C22.0201 24.7044 22.0154 24.652 21.982 24.6281C21.9629 24.609 21.9438 24.5899 21.9247 24.5708C21.9008 24.5565 21.8818 24.5422 21.8818 24.5136C21.8674 24.4993 21.8531 24.4802 21.8388 24.4659C21.815 24.4563 21.8006 24.4372 21.7911 24.4181C21.7815 24.4086 21.772 24.3991 21.7625 24.3847C21.7195 24.3704 21.7004 24.337 21.6909 24.2941C21.6718 24.2702 21.6479 24.2464 21.6288 24.2225C21.5907 24.2082 21.5764 24.17 21.5525 24.1414C21.543 24.1318 21.5334 24.1223 21.5286 24.1127C21.4189 24.0221 21.3187 23.9219 21.2566 23.793C21.2042 23.7739 21.1708 23.7358 21.1564 23.6785C21.0753 23.6547 21.0658 23.5735 21.0181 23.521C20.9799 23.502 20.9465 23.4781 20.9369 23.4304C20.8892 23.3779 20.8415 23.3302 20.7938 23.2777C20.7174 23.2204 20.6745 23.1298 20.6125 23.0582C20.5886 23.0486 20.5647 23.0343 20.5647 23.0057C20.5027 22.9341 20.4359 22.8578 20.3739 22.7862C20.3548 22.7814 20.35 22.7623 20.3405 22.748C20.3118 22.7194 20.2832 22.6907 20.2546 22.6573C20.1448 22.5762 20.0589 22.4712 19.9921 22.3519C19.9873 22.3424 19.9778 22.3376 19.973 22.3281C19.9253 22.309 19.9015 22.2708 19.8824 22.2231C19.8728 22.2136 19.8681 22.204 19.8585 22.1945C19.7774 22.1706 19.744 22.1086 19.7201 22.037C19.5913 21.9607 19.5102 21.8366 19.4338 21.7125C19.4195 21.6934 19.4052 21.6791 19.3956 21.66C19.3622 21.6409 19.3384 21.6123 19.3241 21.5789C19.2716 21.5598 19.2286 21.5312 19.2286 21.4692C19.2239 21.4596 19.2191 21.4548 19.2095 21.4453C19.1809 21.4214 19.1571 21.3976 19.1332 21.369C19.0616 21.2878 18.99 21.2067 18.9137 21.1208C18.8946 21.1065 18.8755 21.0922 18.8707 21.0636L18.7276 20.9061C18.6322 20.8154 18.5319 20.7295 18.4699 20.6055L18.4556 20.5816C18.3124 20.4814 18.217 20.343 18.112 20.2046C18.1025 20.1951 18.0929 20.1855 18.0882 20.176C18.0261 20.1187 17.9593 20.0663 17.9307 19.9851C17.8925 19.9422 17.8544 19.8945 17.8114 19.8515C17.6969 19.7609 17.5967 19.6559 17.5299 19.527C17.4821 19.4745 17.4344 19.4221 17.3819 19.3696C17.3438 19.3553 17.3199 19.3266 17.3056 19.2884C17.2149 19.1835 17.1243 19.0737 17.0336 18.9687C16.9716 18.9306 16.9191 18.8876 16.9048 18.816C16.8952 18.8065 16.8857 18.7922 16.8761 18.7826C16.8189 18.7492 16.7664 18.7111 16.7473 18.6395C16.7473 18.6299 16.7473 18.6252 16.7377 18.6204C16.6853 18.6013 16.6614 18.5536 16.6375 18.5106C16.5946 18.5011 16.566 18.4725 16.5564 18.4295C16.4944 18.3579 16.4324 18.2864 16.3703 18.2148C16.3512 18.1909 16.3321 18.1671 16.3131 18.1432C16.3035 18.1337 16.294 18.1194 16.2797 18.1098C16.1938 18.0621 16.1365 17.9857 16.0983 17.8999C16.0267 17.8187 15.9504 17.7376 15.8788 17.6517C15.8454 17.6279 15.8168 17.604 15.8072 17.5611C15.7929 17.5467 15.7834 17.5324 15.7691 17.5133C15.7261 17.4847 15.688 17.4513 15.6736 17.4036C15.6355 17.3845 15.5973 17.3654 15.5925 17.3177C15.5543 17.2747 15.5162 17.2366 15.478 17.1936C15.4684 17.1889 15.4589 17.1793 15.4589 17.165C15.4398 17.103 15.3682 17.0839 15.3396 17.0314C15.2633 16.9884 15.206 16.9312 15.1821 16.8453C15.1535 16.8214 15.1106 16.8023 15.1058 16.7594C15.0724 16.7403 15.0342 16.7212 15.0342 16.6783C15.0008 16.6449 14.9722 16.6115 14.9388 16.5733C14.9006 16.559 14.8767 16.5303 14.8624 16.4874L14.8386 16.4635C14.7718 16.411 14.7097 16.3538 14.6763 16.2727C14.6477 16.2393 14.6191 16.2011 14.5904 16.1677C14.5427 16.1438 14.5189 16.1009 14.4902 16.0579C14.4187 15.9482 14.3041 15.8766 14.2421 15.7621C14.1991 15.7191 14.1276 15.6953 14.118 15.6237C14.0942 15.5998 14.0751 15.576 14.0512 15.5521C13.9653 15.5044 13.9081 15.4376 13.8699 15.3469C13.8413 15.3183 13.8126 15.2897 13.784 15.2563C13.6981 15.2229 13.679 15.1322 13.6265 15.0654C13.574 15.0463 13.5311 15.0177 13.5263 14.9556L13.512 14.9318C13.3832 14.8364 13.2782 14.7218 13.1971 14.5787C13.1684 14.5739 13.1493 14.5548 13.1398 14.5262C13.1303 14.5166 13.1255 14.5071 13.1159 14.5023C13.0873 14.488 13.073 14.4594 13.0587 14.4307C12.9823 14.383 12.9632 14.2876 12.8917 14.2351C12.8392 14.1969 12.7915 14.1635 12.7724 14.0967C12.7581 14.0776 12.7437 14.0633 12.7294 14.0442C12.6865 14.0013 12.6197 13.9774 12.6006 13.9106C12.572 13.8724 12.5576 13.8247 12.5147 13.8009C12.4861 13.777 12.4479 13.7579 12.4431 13.7198C12.3811 13.6863 12.3238 13.6434 12.3047 13.5671L12.2475 13.505C12.1759 13.4764 12.1473 13.4096 12.1186 13.3475C12.0375 13.3141 11.9898 13.2426 11.9421 13.1805C11.985 13.2378 11.9612 13.2951 11.9373 13.3475C11.9373 13.4144 11.9325 13.4812 11.9325 13.548C11.9325 17.9953 11.9325 22.4378 11.9325 26.8852C11.9325 26.9377 11.9755 27.014 11.8848 27.0426C11.8514 27.0569 11.8132 27.0522 11.7798 27.0522C10.7873 27.0522 9.79 27.0522 8.79746 27.0522C8.76406 27.0522 8.72588 27.0569 8.69248 27.0426C8.63999 27.0092 8.52547 27.0951 8.53024 26.9615C8.51115 26.9138 8.5207 26.8661 8.5207 26.8136C8.5207 20.677 8.5207 14.5405 8.5207 8.40396C8.5207 8.21786 8.5207 8.21786 8.70203 8.21786C9.73274 8.21786 10.7587 8.21786 11.7894 8.21786C11.861 8.21786 11.9325 8.20831 11.9993 8.24649C12.0184 8.28466 12.0471 8.30852 12.0805 8.32761C12.1568 8.33715 12.152 8.4135 12.1902 8.45645C12.2427 8.47553 12.2761 8.51371 12.2904 8.57097C12.362 8.5996 12.3954 8.66164 12.4288 8.72844C12.5242 8.75707 12.5433 8.84774 12.591 8.91454L12.7247 9.07201C12.8296 9.14359 12.906 9.23425 12.968 9.344C12.9776 9.37263 12.9919 9.38695 13.0157 9.39649C13.0396 9.40604 13.0635 9.42035 13.0635 9.45376C13.073 9.47284 13.0682 9.50147 13.1016 9.50147C13.1255 9.51102 13.1446 9.5301 13.1541 9.55874L13.178 9.58737C13.2257 9.59691 13.2496 9.63031 13.2591 9.67803C13.2591 9.71621 13.283 9.73529 13.3164 9.74961C13.3593 9.76392 13.3832 9.79733 13.3975 9.8355C13.4023 9.84504 13.4118 9.85459 13.4166 9.85936C13.4929 9.88799 13.5311 9.95002 13.555 10.0168C13.5645 10.0264 13.574 10.0359 13.5788 10.0455C13.6361 10.055 13.6456 10.1027 13.6647 10.1457C13.6933 10.1743 13.7315 10.1934 13.7411 10.2316C13.7554 10.2506 13.7745 10.2697 13.7888 10.284C13.8651 10.3127 13.8985 10.3747 13.9272 10.4463C14.0226 10.4749 14.0417 10.5656 14.0894 10.6324C14.1323 10.6849 14.1801 10.7374 14.223 10.7899C14.328 10.8614 14.4043 10.9521 14.4664 11.0619C14.4759 11.0905 14.4902 11.1048 14.5141 11.1143C14.5379 11.1239 14.5618 11.1382 14.5618 11.1716C14.5713 11.1907 14.5666 11.2193 14.6 11.2193C14.6238 11.2289 14.6429 11.248 14.6525 11.2766C14.662 11.2861 14.6668 11.2957 14.6763 11.3052C14.724 11.3148 14.7479 11.3482 14.7574 11.3959C14.7574 11.4341 14.7813 11.4531 14.8147 11.4675C14.8577 11.4818 14.8815 11.5152 14.8958 11.5533C14.9006 11.5629 14.9101 11.5724 14.9149 11.5772C14.9913 11.6058 15.0294 11.6679 15.0533 11.7347C15.0628 11.7442 15.0724 11.7538 15.0772 11.7633C15.1344 11.7729 15.144 11.8206 15.1631 11.8635C15.1917 11.8921 15.2299 11.9112 15.2394 11.9494C15.2537 11.9685 15.2728 11.9876 15.2871 12.0019C15.3635 12.0305 15.3969 12.0926 15.4255 12.1641C15.5209 12.1928 15.54 12.2834 15.5877 12.3502C15.6307 12.4027 15.6784 12.4552 15.7214 12.5125C15.7548 12.5316 15.7834 12.5602 15.8025 12.5984C15.8263 12.627 15.855 12.6556 15.8788 12.6843C15.9265 12.7034 15.9361 12.7511 15.9647 12.7845L16.0124 12.837C16.0649 12.8513 16.084 12.8942 16.0983 12.9419C16.1126 12.9801 16.1413 13.004 16.1747 13.0231C16.2653 13.0517 16.3035 13.1328 16.3417 13.2092C16.4085 13.2951 16.4658 13.3905 16.5564 13.4525C16.7043 13.5766 16.838 13.7102 16.9286 13.882C17.0527 13.9583 17.1434 14.0681 17.2006 14.1969C17.2006 14.216 17.2102 14.2256 17.2245 14.2256C17.2579 14.2446 17.2913 14.2733 17.3056 14.3115C17.3295 14.3401 17.3581 14.3687 17.3819 14.3973C17.4297 14.4164 17.4392 14.4642 17.4678 14.4976L17.5156 14.55C17.568 14.5644 17.5871 14.6073 17.6014 14.655L17.5919 14.6884Z" fill="white"/>
<path d="M4.35025 27.0677C3.31954 27.0677 2.2936 27.0677 1.26289 27.0677C1.15314 27.0677 1.12451 27.0438 1.12451 26.9293C1.12451 20.7451 1.12451 14.5656 1.12451 8.3813C1.12451 8.27632 1.1436 8.23815 1.25812 8.23815C2.24589 8.24292 3.23365 8.23815 4.22619 8.23815C4.2739 8.23815 4.32639 8.21906 4.36457 8.26678C4.41229 8.30018 4.38843 8.3479 4.38843 8.39084C4.38843 14.556 4.38843 20.7212 4.38843 26.8864C4.38843 26.9484 4.40751 27.0152 4.35025 27.0629V27.0677Z" fill="white"/>
<path d="M20.7081 32.0809C20.7081 32.0809 20.6842 32.0475 20.6699 32.0332C20.6508 32.0236 20.6317 32.0093 20.6222 31.9855C20.5936 31.9568 20.5649 31.9282 20.5411 31.8948C20.4647 31.8375 20.3979 31.766 20.3597 31.6753C20.3502 31.6467 20.3359 31.6276 20.3073 31.618C20.25 31.5799 20.188 31.5417 20.1736 31.4653C20.1355 31.4224 20.0925 31.3794 20.0543 31.3365C19.9923 31.3174 19.9732 31.2649 19.9541 31.2124C19.9446 31.1981 19.9303 31.1886 19.9207 31.1743C19.8492 31.1409 19.811 31.1647 19.8062 31.2458C19.8062 31.2792 19.8062 31.3079 19.8062 31.3413C19.8062 32.1238 19.8062 32.9064 19.8062 33.689C19.8062 33.7367 19.8205 33.7892 19.7919 33.8322H19.3099C19.2813 33.7701 19.267 33.7081 19.2909 33.6365C19.3052 33.5936 19.2956 33.5458 19.2956 33.5029C19.2956 32.4388 19.2956 31.3747 19.2956 30.3106C19.2956 30.1483 19.2956 30.1483 19.4626 30.1531C19.5533 30.1531 19.6487 30.1531 19.7394 30.1817C19.7633 30.2104 19.7871 30.2342 19.811 30.2628C19.8826 30.2962 19.9255 30.3535 19.9541 30.4251C19.9541 30.4394 19.9637 30.4489 19.978 30.4489C20.0782 30.4919 20.1259 30.5969 20.1975 30.6684C20.2977 30.7687 20.4027 30.8784 20.4647 31.0072C20.479 31.0454 20.5077 31.0693 20.5411 31.0884C20.5697 31.0979 20.5936 31.117 20.5936 31.1456C20.5936 31.1838 20.6174 31.2029 20.646 31.2172C20.6938 31.2554 20.7606 31.284 20.7749 31.3556C20.7797 31.3747 20.7749 31.4033 20.8083 31.4081C20.8512 31.4224 20.8703 31.4558 20.8846 31.494C20.8942 31.5035 20.899 31.5131 20.9085 31.5178C20.9371 31.5274 20.961 31.5417 20.961 31.5751H20.9562C21.0135 31.618 21.0564 31.6753 21.0946 31.7373C21.1328 31.7946 21.1614 31.8614 21.2282 31.8948C21.2712 31.9091 21.2998 31.933 21.3046 31.9807C21.3714 32.0141 21.4143 32.0714 21.4429 32.1382C21.4429 32.1525 21.4525 32.162 21.4668 32.162C21.567 32.205 21.6147 32.3099 21.6863 32.3815C21.7865 32.4817 21.8915 32.5915 21.9535 32.7203C21.9678 32.7585 21.9965 32.7824 22.0299 32.8014C22.068 32.811 22.0967 32.8396 22.1539 32.8492C22.1349 32.6869 22.1826 32.5438 22.1826 32.3911C22.1826 31.6944 22.1826 30.9977 22.1826 30.2962C22.1826 30.1865 22.1969 30.1292 22.3257 30.1435C22.3973 30.1531 22.4784 30.1435 22.5548 30.134C22.6693 30.1245 22.6979 30.1722 22.6979 30.2819C22.6932 30.6494 22.6979 31.0168 22.6979 31.3842C22.6979 32.0904 22.6979 32.7967 22.6979 33.5029C22.6979 33.6079 22.7504 33.7129 22.6836 33.8178C22.5309 33.8178 22.3782 33.8178 22.2303 33.8178C22.0871 33.7367 22.006 33.5936 21.9058 33.4695C21.8963 33.4504 21.8819 33.4361 21.8724 33.417C21.8151 33.3884 21.7722 33.3454 21.7436 33.2834C21.6958 33.2309 21.6529 33.1784 21.6052 33.1212C21.5145 33.04 21.4239 32.9637 21.3761 32.8492C21.3427 32.8158 21.3141 32.7776 21.2807 32.7442C21.2139 32.6965 21.1614 32.6344 21.1232 32.5629C21.1137 32.5533 21.1041 32.5438 21.0946 32.5294C21.0135 32.5056 21.0135 32.4197 20.9658 32.3672C20.9324 32.3481 20.9085 32.3195 20.8846 32.2861C20.8608 32.2145 20.7797 32.1859 20.7463 32.1238C20.7272 32.1048 20.7033 32.0952 20.6985 32.0666L20.7081 32.0809Z" fill="white"/>
<path d="M39.8238 32.1451C39.8238 32.6747 39.8286 33.1996 39.8334 33.7293C39.8573 33.7675 39.8572 33.8009 39.8238 33.8343H39.3467C39.3133 33.8009 39.3133 33.7627 39.3371 33.7293C39.3371 33.2712 39.3371 32.8179 39.3371 32.3598C39.3228 32.3121 39.3371 32.2596 39.318 32.2166L39.3085 32.1498C39.2799 32.1164 39.256 32.083 39.2655 32.0401C39.2512 32.021 39.2417 32.0067 39.2274 31.9876C39.2083 31.9303 39.1415 31.9112 39.1224 31.8587C39.0699 31.8397 39.0174 31.8158 38.9649 31.7967C38.8981 31.8253 38.8313 31.7729 38.7645 31.7967H38.755H38.7454C38.7025 31.8253 38.6643 31.854 38.607 31.8397C38.4639 31.8874 38.3828 32.0162 38.2778 32.1164C38.2444 32.1498 38.2635 32.1928 38.2635 32.2309C38.2635 32.7272 38.2635 33.2235 38.2635 33.7198C38.2635 33.8247 38.2348 33.8486 38.1394 33.839C38.0153 33.8295 37.8913 33.839 37.772 33.839V31.4245C37.9104 31.4245 38.0535 31.4245 38.1967 31.4245C38.2635 31.4245 38.2682 31.4531 38.2682 31.5056C38.2682 31.5724 38.2682 31.6392 38.2682 31.7061L38.2778 31.7156C38.2826 31.7156 38.2921 31.7061 38.2969 31.7061C38.3303 31.6202 38.4066 31.5772 38.4877 31.539C38.5307 31.5104 38.5736 31.4818 38.6166 31.4531C38.6595 31.4054 38.7216 31.4102 38.7788 31.4007C38.7884 31.4007 38.7979 31.4007 38.8027 31.4007C38.8313 31.3816 38.8647 31.4007 38.8933 31.3816H38.9029H38.9124C39.0126 31.3434 39.1081 31.3816 39.2083 31.4007C39.2178 31.4054 39.2226 31.4102 39.2321 31.4007C39.2465 31.415 39.2751 31.4007 39.2894 31.4245C39.299 31.4293 39.3037 31.4341 39.3133 31.4293C39.4135 31.4579 39.5137 31.4818 39.5566 31.5915C39.5757 31.6249 39.5996 31.6536 39.633 31.6726C39.7046 31.7061 39.7236 31.7729 39.738 31.8444C39.7523 31.8969 39.7666 31.9494 39.7809 31.9971C39.8429 32.0401 39.7857 32.1069 39.8191 32.1546L39.8238 32.1451Z" fill="white"/>
<path d="M4.40269 31.981C4.35975 31.9332 4.3168 31.8855 4.26908 31.8378C4.23091 31.8474 4.20705 31.8187 4.18796 31.7949L4.14024 31.7853C4.0114 31.7567 3.89688 31.8378 3.77281 31.8378C3.73941 31.8378 3.72509 31.8617 3.70601 31.876C3.66783 31.9428 3.6058 31.9857 3.53899 32.0191C3.45787 32.0669 3.42924 32.1337 3.43401 32.2291C3.43879 32.7158 3.43879 33.2025 3.43879 33.694C3.44833 33.737 3.46742 33.7847 3.42924 33.8276C3.29563 33.8276 3.16202 33.8276 3.02841 33.8276C2.95683 33.8276 2.91866 33.7895 2.9282 33.737C2.97592 33.4745 2.94252 33.2121 2.94729 32.9544C2.95683 32.5106 2.94729 32.0669 2.94729 31.6278C2.94729 31.5658 2.94729 31.499 2.94729 31.437C2.96638 31.3606 3.0141 31.394 3.05704 31.4083C3.12862 31.4083 3.2002 31.4227 3.267 31.4083C3.40061 31.3893 3.45787 31.437 3.43879 31.5706C3.4531 31.6613 3.50559 31.6183 3.54854 31.604H3.54377C3.55808 31.5467 3.6058 31.5324 3.65352 31.5181C3.66783 31.5086 3.68692 31.4942 3.70124 31.4847C3.7251 31.4608 3.74418 31.4322 3.78236 31.4417C3.80622 31.4274 3.83485 31.4179 3.85871 31.4036C3.88257 31.3797 3.9112 31.3797 3.93983 31.3797C3.94937 31.3797 3.95891 31.3797 3.96846 31.3797C4.00186 31.3463 4.04958 31.3845 4.08298 31.3606C4.21659 31.3511 4.34543 31.3988 4.47904 31.4131C4.58879 31.4274 4.66514 31.4799 4.7224 31.5754C4.7224 31.5897 4.73195 31.5992 4.75103 31.5992C4.81307 31.6231 4.8417 31.6708 4.85601 31.7328C4.86556 31.7519 4.8751 31.771 4.88464 31.7901C4.93236 31.8235 4.95145 31.8664 4.93713 31.9237C5.0278 32.3913 4.97054 32.8637 4.98485 33.3362C4.98485 33.4698 4.98485 33.6034 4.98485 33.737C4.98485 33.799 4.98008 33.8372 4.89896 33.8324C4.77966 33.8229 4.6556 33.8324 4.5363 33.8324C4.49336 33.8324 4.46473 33.8324 4.49336 33.7799C4.48381 33.7608 4.47904 33.7418 4.49336 33.7274C4.49336 33.2693 4.49336 32.816 4.49336 32.3579C4.47427 32.3102 4.48381 32.2625 4.47904 32.2148C4.47904 32.2005 4.47427 32.1861 4.4695 32.1718C4.45518 32.105 4.40746 32.0525 4.39315 31.9857L4.40269 31.981Z" fill="white"/>
<path d="M47.7403 31.7652C47.7737 31.8559 47.8023 31.9418 47.8357 32.0324C47.85 32.0658 47.8453 32.104 47.8548 32.1422C47.8548 32.6671 47.8548 33.1967 47.8596 33.7216C47.8596 33.8028 47.8453 33.8409 47.7546 33.8362C47.6305 33.8266 47.5065 33.8362 47.3776 33.8362C47.3395 33.7932 47.3585 33.7503 47.3681 33.7026C47.3681 33.254 47.3681 32.8055 47.3681 32.3569C47.349 32.3092 47.3585 32.2615 47.3538 32.2138C47.3395 32.166 47.3299 32.1135 47.3156 32.0658C47.244 32.0038 47.2058 31.9131 47.1343 31.8559C47.0913 31.832 47.0531 31.7986 47.0007 31.7938C46.9291 31.7795 46.8575 31.7938 46.7812 31.7986C46.7478 31.8081 46.7096 31.8177 46.6762 31.8272C46.6475 31.8797 46.5855 31.8797 46.5426 31.9084C46.5235 31.9513 46.5044 31.999 46.4662 32.0181C46.3374 32.0801 46.3374 32.1899 46.3374 32.3092C46.3374 32.7434 46.3374 33.1729 46.3374 33.6071C46.3374 33.6692 46.3469 33.7312 46.304 33.7884C46.2992 33.8123 46.304 33.8409 46.261 33.8409C46.1322 33.8409 46.0034 33.8409 45.8697 33.8409C45.7934 33.8409 45.8173 33.7837 45.8173 33.7455C45.8173 33.3685 45.8173 32.9916 45.8173 32.6194C45.8173 32.2567 45.8173 31.894 45.8173 31.5314C45.8173 31.4455 45.8363 31.4073 45.927 31.4216C45.9652 31.4264 46.0081 31.4216 46.0463 31.4216C46.2149 31.4216 46.3008 31.5123 46.304 31.6936C46.3565 31.6554 46.3994 31.622 46.4424 31.5886C46.4614 31.5362 46.5139 31.5218 46.5617 31.5028C46.5903 31.4837 46.6189 31.4646 46.6523 31.4455C46.6953 31.393 46.7573 31.4073 46.8146 31.393C46.8241 31.393 46.8336 31.393 46.8384 31.393C46.8718 31.3644 46.9148 31.393 46.9482 31.3691C46.9911 31.3691 47.0341 31.3691 47.077 31.3691C47.1581 31.3835 47.2488 31.3596 47.3204 31.4216C47.3442 31.4407 47.3681 31.4598 47.4015 31.455C47.4397 31.4693 47.4874 31.4646 47.5017 31.5123C47.559 31.5218 47.5828 31.5743 47.6162 31.6077C47.6926 31.6411 47.7117 31.7079 47.7355 31.7747L47.7403 31.7652Z" fill="white"/>
<path d="M15.502 32.209C15.502 32.209 15.4972 32.1804 15.4924 32.166C15.4161 32.0467 15.3875 31.8988 15.2539 31.8225C15.2443 31.8225 15.2395 31.8177 15.23 31.8129C15.1346 31.8272 15.0439 31.7652 14.9485 31.7891C14.9246 31.7891 14.9007 31.7986 14.8817 31.7986C14.8244 31.8702 14.729 31.875 14.6622 31.9227C14.5142 32.0229 14.4379 32.1469 14.4474 32.3474C14.4665 32.7911 14.4474 33.2397 14.457 33.6882C14.457 33.8171 14.4188 33.8457 14.2995 33.8362C14.1993 33.8266 14.0943 33.8362 13.9893 33.8362C13.9321 33.8362 13.9559 33.8075 13.9607 33.7837C13.9512 33.7646 13.9464 33.7455 13.9607 33.7312V31.4216C14.0943 31.4216 14.2375 31.4216 14.3854 31.4216C14.4379 31.4216 14.457 31.4407 14.4522 31.4932C14.4522 31.5314 14.4522 31.5743 14.4522 31.6125C14.4617 31.6602 14.4904 31.6602 14.5285 31.6411C14.5763 31.6268 14.5953 31.5743 14.6335 31.5505C14.6765 31.498 14.729 31.4598 14.8005 31.4503C14.8626 31.4312 14.9198 31.4121 14.9819 31.3882C15.0153 31.3739 15.0534 31.3835 15.0916 31.3691C15.1632 31.3691 15.2348 31.3691 15.3016 31.3739C15.3302 31.3739 15.3588 31.3739 15.3827 31.3882C15.4113 31.4169 15.4495 31.4264 15.4877 31.4216C15.5115 31.4407 15.5545 31.4359 15.5736 31.4693C15.5783 31.4789 15.5879 31.4789 15.5974 31.4789C15.669 31.4789 15.7024 31.5362 15.7358 31.5886C15.7358 31.603 15.7454 31.6125 15.7644 31.6125C15.8456 31.6411 15.8694 31.7127 15.8933 31.7795C15.9124 31.8415 15.9362 31.8988 15.9553 31.9608C15.9649 31.9704 15.9696 31.9799 15.9696 31.9895C15.9696 32.0086 15.9792 32.0229 15.9839 32.042C15.9839 32.104 16.0507 32.1613 16.0078 32.2281C16.0078 32.2567 16.0078 32.2806 16.0078 32.3092C16.0507 32.3569 16.0412 32.4189 16.0412 32.4762C16.0412 32.8627 16.0412 33.2492 16.0412 33.6357C16.0412 33.6882 16.0412 33.7407 16.003 33.7884C15.9935 33.8075 16.003 33.8409 15.9744 33.8409C15.836 33.8409 15.6976 33.8409 15.5592 33.8409C15.4829 33.8409 15.5163 33.7741 15.5163 33.7407C15.5163 33.3256 15.5163 32.9152 15.5163 32.5001C15.5163 32.4571 15.5163 32.4094 15.5115 32.3665C15.4924 32.3187 15.502 32.271 15.4972 32.2185L15.502 32.209Z" fill="white"/>
<path d="M27.7703 31.4144C27.9469 31.4144 28.1282 31.4192 28.3047 31.4144C28.3668 31.4144 28.3906 31.4287 28.3859 31.4955C28.3811 31.6101 28.3859 31.7294 28.3859 31.8439C28.2045 31.8725 28.0184 31.8486 27.8323 31.8582C27.756 31.8582 27.6796 31.8534 27.6272 31.925C27.6128 32.2781 27.6128 32.636 27.6272 32.9891C27.6128 33.0273 27.6367 33.0655 27.6272 33.1084C27.6272 33.1323 27.6319 33.1609 27.6367 33.1848C27.6987 33.2516 27.7226 33.347 27.7942 33.4043C27.8657 33.4329 27.9325 33.4615 28.0137 33.4472C28.0471 33.4281 28.09 33.4472 28.1234 33.4233C28.2523 33.409 28.3525 33.3231 28.4718 33.285C28.4909 33.2706 28.5052 33.2706 28.5195 33.2897C28.5195 33.3136 28.5195 33.3422 28.5195 33.3661C28.5433 33.4663 28.5481 33.5665 28.5195 33.6619C28.5195 33.6763 28.5195 33.6906 28.5195 33.7049C28.5195 33.7526 28.4718 33.7574 28.4384 33.7669L28.1711 33.8528C28.1473 33.8814 28.1091 33.8576 28.0805 33.8719C28.0041 33.8719 27.923 33.8767 27.8467 33.8814C27.8085 33.9005 27.7751 33.9005 27.7417 33.8814C27.6701 33.8719 27.5938 33.8671 27.5317 33.8242C27.4983 33.8194 27.4649 33.8099 27.4458 33.7765C27.4363 33.7717 27.4315 33.7669 27.422 33.7621C27.3265 33.7478 27.2884 33.6763 27.255 33.5951C27.1786 33.4758 27.1309 33.3518 27.1309 33.2086C27.1309 32.7648 27.15 32.3163 27.1213 31.8725C26.9877 31.8343 26.8541 31.8821 26.7205 31.8534C26.668 31.8248 26.7444 31.7962 26.7205 31.7675C26.7348 31.7198 26.7682 31.6816 26.8064 31.653C27.0259 31.4669 27.2216 31.2522 27.4458 31.0708C27.4792 31.0136 27.5126 30.9563 27.5842 30.9372C27.6081 30.9181 27.6367 30.9229 27.6462 30.9515C27.6606 30.985 27.6606 31.0184 27.6224 31.0374C27.6224 31.1376 27.6224 31.2426 27.6224 31.3428C27.6653 31.3762 27.7178 31.3953 27.7703 31.4144Z" fill="white"/>
<path d="M1.69234 30.1826C1.69234 31.2992 1.69234 32.4111 1.69234 33.5277C1.69234 33.5754 1.69234 33.6279 1.69234 33.6756C1.69234 33.7281 1.73051 33.7853 1.68279 33.8331C1.52532 33.8331 1.37262 33.8331 1.21515 33.8331C1.14835 33.8331 1.13403 33.8235 1.13403 33.7472C1.16266 32.5924 1.13881 31.4328 1.15312 30.2781C1.15312 30.2447 1.11017 30.2065 1.15312 30.1731C1.33445 30.1588 1.51101 30.1349 1.68756 30.1826H1.69234Z" fill="white"/>
<path d="M41.4654 33.8336C41.327 33.8336 41.1886 33.8336 41.0502 33.8336C41.012 33.8336 40.9834 33.8431 40.9834 33.7716C40.9882 32.6359 40.9834 31.505 40.9882 30.3693C40.9882 30.3168 40.9882 30.2643 40.9834 30.207C40.9834 30.1641 41.0168 30.1593 41.0502 30.1593C41.1934 30.1545 41.3317 30.145 41.4701 30.1784C41.494 30.2213 41.4797 30.2691 41.4797 30.312C41.4797 30.9705 41.4749 31.6338 41.4797 32.2923C41.4844 32.779 41.4654 33.2705 41.4797 33.7572C41.4797 33.7859 41.4797 33.8097 41.4606 33.8336H41.4654Z" fill="white"/>
<path d="M42.4581 33.6185C42.4581 33.6185 42.4294 33.5803 42.4103 33.5613C42.3292 33.5565 42.3388 33.4706 42.291 33.4324C42.167 33.3418 42.0668 33.232 41.9713 33.1127C41.9332 33.0745 41.895 33.0364 41.8568 32.9982C41.7996 32.9696 41.7566 32.9266 41.728 32.8693C41.6993 32.8407 41.6707 32.8121 41.6421 32.7835C41.4178 32.6355 41.4178 32.5687 41.6421 32.4065C41.6612 32.3826 41.685 32.354 41.7041 32.3301C41.7375 32.2586 41.79 32.2061 41.8568 32.1679C41.8854 32.1345 41.9141 32.0963 41.9427 32.0629C41.9713 32.02 42.0047 31.9818 42.0525 31.9532C42.124 31.8243 42.2195 31.7146 42.3435 31.6287C42.3626 31.6096 42.3817 31.5857 42.4008 31.5666C42.4437 31.4903 42.4771 31.4044 42.5917 31.4092C42.7348 31.4092 42.878 31.4092 43.0211 31.4092C43.0498 31.3949 43.0736 31.3949 43.1023 31.4092C43.1118 31.4092 43.1166 31.4139 43.1261 31.4187C43.1452 31.4712 43.0975 31.4712 43.0736 31.4951C43.0307 31.5189 42.9973 31.5476 42.9877 31.6C42.983 31.643 42.9448 31.6621 42.9162 31.6812C42.9066 31.7241 42.8684 31.7384 42.835 31.7623C42.8064 31.7623 42.8064 31.7861 42.8064 31.81C42.8016 31.8577 42.7635 31.8768 42.7253 31.8959C42.7157 31.9054 42.711 31.915 42.7014 31.9245C42.6776 31.9961 42.6442 32.0629 42.563 32.0868C42.5535 32.0963 42.5487 32.1059 42.5392 32.1154C42.5249 32.1536 42.5058 32.1822 42.4676 32.1965C42.4581 32.2108 42.4437 32.2252 42.4342 32.2442C42.3913 32.3492 42.3054 32.4208 42.2338 32.5067C42.1718 32.5783 42.1527 32.6308 42.2338 32.6928C42.2672 32.7167 42.2863 32.7501 42.3006 32.7882C42.3149 32.8264 42.3435 32.855 42.3817 32.8693C42.4437 32.898 42.4867 32.9409 42.5153 33.003C42.5296 33.0411 42.5583 33.0698 42.5964 33.0841C42.6585 33.1079 42.7014 33.1557 42.7301 33.2129C42.773 33.2511 42.8159 33.294 42.8589 33.3322C42.8732 33.3322 42.878 33.3418 42.8828 33.3561C42.94 33.4276 43.002 33.4945 43.0736 33.5469C43.0879 33.5469 43.0927 33.5565 43.0975 33.5708C43.1261 33.6137 43.1595 33.6519 43.2025 33.6806C43.255 33.7235 43.3456 33.7378 43.3361 33.838C43.1166 33.838 42.8971 33.838 42.6728 33.838C42.5821 33.7855 42.501 33.7235 42.4581 33.6281V33.6185Z" fill="white"/>
<path d="M44.61 32.6107C44.61 32.9829 44.61 33.3503 44.61 33.7225C44.61 33.8084 44.591 33.837 44.5003 33.8323C44.3953 33.8227 44.2856 33.8275 44.1806 33.8323C44.1185 33.8323 44.1042 33.8084 44.109 33.7607C44.1519 33.0258 44.1185 32.2862 44.1233 31.5513C44.1233 31.4368 44.1519 31.4034 44.2617 31.4177C44.3714 31.4273 44.5194 31.3843 44.5862 31.4368C44.6625 31.5036 44.61 31.6563 44.61 31.7708C44.61 32.0524 44.61 32.3339 44.61 32.6154V32.6107Z" fill="white"/>
<path d="M9.96207 33.8331C9.8046 33.8331 9.64236 33.8331 9.48489 33.8331C9.45149 33.7997 9.45149 33.7615 9.47535 33.7281V31.4185C9.58987 31.4185 9.71871 31.4233 9.84755 31.4185C9.93821 31.4138 9.96684 31.4376 9.96684 31.5331C9.96684 32.2154 9.96684 32.8978 9.96684 33.5802C9.96684 33.6279 9.96684 33.6804 9.96684 33.7281C9.9907 33.7663 9.9907 33.7997 9.9573 33.8331H9.96207Z" fill="white"/>
<path d="M44.0708 30.6658C44.0708 30.6133 44.0947 30.5703 44.1233 30.5274C44.1424 30.494 44.171 30.4653 44.2092 30.451C44.3142 30.3938 44.4191 30.4224 44.5241 30.451C44.5527 30.4558 44.5718 30.4749 44.5814 30.5035C44.5814 30.5035 44.6291 30.5274 44.6291 30.5656C44.6625 30.6228 44.7102 30.6753 44.6625 30.7469C44.6339 30.7707 44.6339 30.8089 44.6339 30.8423C44.5909 30.9139 44.5575 30.9998 44.4478 30.9902C44.4048 30.9902 44.3571 30.9902 44.3142 30.9902C44.233 31.0236 44.1949 30.9664 44.1519 30.9091C44.0899 30.8614 44.0803 30.7898 44.0708 30.7183C44.0565 30.6992 44.0565 30.6801 44.0708 30.6658Z" fill="white"/>
<path d="M10.0142 30.6506C10.0142 30.6888 10.0142 30.7269 10.0142 30.7651C10.0142 30.8939 9.94264 30.9607 9.82811 30.9894C9.75654 31.0276 9.68496 31.0276 9.61816 30.9894C9.50363 30.9607 9.42728 30.8987 9.43205 30.7651C9.40342 30.6792 9.42728 30.6029 9.48454 30.5361C9.49886 30.4931 9.52272 30.4645 9.57044 30.4549C9.67542 30.3977 9.7804 30.4263 9.88538 30.4549C9.98081 30.4836 10.0142 30.5599 10.019 30.6506H10.0142Z" fill="white"/>
<path d="M50.2168 19.8434V19.7671C50.2073 19.686 50.2216 19.6048 50.1978 19.5237C50.1978 19.4569 50.193 19.3853 50.1882 19.3185C50.1548 19.2374 50.1978 19.1515 50.1644 19.0704C50.1644 19.0609 50.1644 19.0513 50.1644 19.0465C50.15 19.0131 50.1596 18.975 50.1453 18.9368C50.1453 18.9082 50.1453 18.8843 50.1405 18.8557C50.1548 18.8175 50.1262 18.7841 50.1214 18.7507C50.0928 18.6934 50.0832 18.6314 50.088 18.5694C50.0737 18.5026 50.0689 18.4357 50.0641 18.3689C50.0307 18.2496 50.0117 18.1256 49.9305 18.0254C49.9067 18.0015 49.8924 17.9777 49.9019 17.9442C49.8446 17.6913 49.7253 17.4623 49.6013 17.238C49.5345 17.1187 49.482 16.9899 49.3675 16.8992H49.3579V16.8849C49.3388 16.8229 49.3245 16.7608 49.2577 16.737C49.2482 16.7227 49.2386 16.7036 49.2243 16.6893C49.2004 16.6415 49.1814 16.5938 49.1527 16.5509C49.0048 16.3362 48.8139 16.1548 48.6517 15.9496C48.6183 15.9067 48.5753 15.8781 48.5228 15.859C48.5133 15.8494 48.5085 15.8447 48.499 15.8351C48.3988 15.692 48.2843 15.5631 48.122 15.482C48.0934 15.4581 48.0648 15.4343 48.0409 15.4104C47.9836 15.315 47.8977 15.2577 47.7975 15.2148C47.7689 15.2005 47.7355 15.1957 47.7212 15.1623C47.7116 15.1289 47.6878 15.1003 47.6592 15.0812C47.4301 14.9332 47.2106 14.7758 46.9768 14.6326C46.9434 14.6135 46.9004 14.6088 46.867 14.5992C46.8098 14.5133 46.7191 14.4847 46.6237 14.4656C46.6141 14.4656 46.6046 14.4656 46.5998 14.4561C46.5855 14.4179 46.5426 14.4274 46.5187 14.4083C46.4853 14.4179 46.4614 14.394 46.4376 14.3702C46.4233 14.332 46.3803 14.3415 46.3565 14.3272C46.3374 14.3272 46.3087 14.332 46.304 14.3034C46.2753 14.27 46.2372 14.2604 46.1942 14.2461C46.1751 14.2461 46.1513 14.2509 46.1417 14.2222C46.0988 14.1745 46.0463 14.1411 45.9795 14.1459C45.9174 14.1173 45.8459 14.1077 45.7934 14.06C45.7695 14.0171 45.7886 13.9598 45.7457 13.9168C45.7361 13.8357 45.6979 13.7594 45.717 13.6735C45.7647 13.6019 45.6979 13.5494 45.6932 13.4874C45.6932 13.4588 45.6932 13.4349 45.6884 13.4063C45.7027 13.2727 45.6932 13.1438 45.6168 13.0293C45.5882 12.9339 45.5548 12.8384 45.5596 12.7382C45.5548 12.6141 45.5452 12.4901 45.4594 12.3851C45.4594 12.366 45.4498 12.3517 45.4498 12.3326C45.4594 12.2801 45.4498 12.2324 45.4069 12.1942C45.3591 12.1465 45.383 12.0702 45.3448 12.0177C45.3114 11.9031 45.2923 11.7838 45.2112 11.6884C45.1826 11.6502 45.1635 11.6073 45.1587 11.5596C45.1301 11.4498 45.0967 11.3401 45.006 11.2589C44.9774 11.2208 44.9488 11.1826 44.944 11.1349C44.9345 11.1015 44.9201 11.0681 44.8867 11.049C44.8629 11.0442 44.8629 11.0251 44.8629 11.0013C44.8486 10.9583 44.839 10.9154 44.8104 10.882C44.6291 10.6291 44.4048 10.4143 44.1757 10.1996C44.1328 10.1614 44.0851 10.128 44.0278 10.1089C43.9992 10.0946 43.9658 10.0899 43.9515 10.0565C43.899 9.96102 43.8083 9.90853 43.7081 9.87035C43.6699 9.87035 43.6461 9.85127 43.627 9.81786C43.5459 9.7272 43.4457 9.66039 43.3264 9.62699C43.2834 9.62222 43.25 9.60313 43.2261 9.5745C43.1069 9.44089 42.9494 9.3884 42.7871 9.33114C42.7585 9.33114 42.7347 9.32159 42.7156 9.29774C42.4961 9.14027 42.2527 9.04483 41.9902 8.97802C41.9568 8.98757 41.933 8.96848 41.9091 8.94939C41.8376 8.86827 41.7373 8.8635 41.6419 8.84441C41.5178 8.82533 41.4033 8.78238 41.2936 8.72989C41.1981 8.64877 41.0884 8.63445 40.9691 8.62968C40.9261 8.62014 40.8784 8.60582 40.8355 8.59628C40.7878 8.56288 40.7305 8.55333 40.6685 8.54856C40.6589 8.54856 40.6541 8.54856 40.6446 8.54856C40.6207 8.53425 40.5921 8.53425 40.5635 8.52948C40.511 8.51993 40.4585 8.50562 40.4012 8.49607C40.2819 8.43404 40.1579 8.40064 40.0243 8.41972C40.0147 8.41972 40.0052 8.41972 39.9956 8.41972C39.9527 8.40541 39.9097 8.37678 39.862 8.39586C39.7952 8.40541 39.7332 8.39586 39.6759 8.36723C39.633 8.34337 39.5805 8.36723 39.5375 8.34337C39.5137 8.34337 39.4851 8.34337 39.4612 8.3386C39.4135 8.31952 39.3658 8.33383 39.318 8.31952C39.3037 8.31952 39.2894 8.31952 39.2703 8.31474C39.2321 8.28134 39.1797 8.27657 39.1319 8.2718C38.7979 8.22408 38.4591 8.22885 38.1203 8.22885C36.0207 8.21931 33.9259 8.22885 31.8263 8.22885C31.7452 8.22885 31.6641 8.22885 31.5925 8.26703C31.5448 8.26703 31.497 8.2718 31.4589 8.27657C31.4589 8.33383 31.4589 8.38632 31.4589 8.43881C31.4589 10.7245 31.4589 13.0102 31.4589 15.3007C31.4589 19.1801 31.4589 23.0549 31.4541 26.9343C31.4541 27.0966 31.5066 27.0966 31.6259 27.0966C34.656 27.0966 37.6813 27.0966 40.7114 27.0966C40.7591 27.0966 40.8116 27.0966 40.8593 27.0966C40.9118 27.1395 40.9786 27.1395 41.0407 27.13C41.327 27.1013 41.618 27.1013 41.9044 27.0536C41.9521 27.0441 42.0046 27.0441 42.0427 27.0059H42.0475H42.0571C42.1239 26.9821 42.2002 27.0441 42.2575 26.9821C42.267 26.9821 42.2718 26.9821 42.2813 26.9773C42.329 26.9964 42.3768 26.9964 42.4245 26.9916C42.8492 26.9248 43.2739 26.8484 43.6986 26.7482C43.8847 26.691 44.0803 26.6528 44.2664 26.5908C44.3093 26.5765 44.3523 26.5621 44.3952 26.5526C44.4334 26.5383 44.4764 26.524 44.5145 26.5096C44.5336 26.5049 44.5479 26.5001 44.567 26.4906C44.61 26.4715 44.6529 26.4619 44.7006 26.4476C44.7102 26.4476 44.7245 26.4428 44.734 26.4381C44.7579 26.4285 44.777 26.4237 44.8008 26.4142C44.8867 26.3951 44.9631 26.3617 45.0442 26.3331C45.0872 26.314 45.1301 26.2949 45.1778 26.2806C45.2208 26.2615 45.2685 26.252 45.3067 26.2281C45.321 26.2186 45.3305 26.2042 45.3401 26.1899C45.3735 26.1804 45.4116 26.1661 45.445 26.1565C45.5118 26.1422 45.5834 26.1327 45.6359 26.0754V26.0659H45.6502C45.7075 26.0611 45.7647 26.0563 45.7982 25.9991C45.8411 25.9609 45.8984 25.9466 45.9556 25.937C45.9843 25.9275 46.0177 25.9227 46.0415 25.8941C46.0558 25.8893 46.0749 25.8798 46.0892 25.875C46.156 25.8798 46.2085 25.8559 46.2562 25.8082C46.2706 25.7986 46.2896 25.7891 46.304 25.7748C46.323 25.7605 46.3517 25.7748 46.3612 25.7462C46.3899 25.7175 46.4233 25.6984 46.4662 25.6984C46.5187 25.6841 46.576 25.6841 46.6046 25.6221C46.6237 25.603 46.6475 25.5839 46.6762 25.5887C46.7096 25.5744 46.743 25.5648 46.7621 25.5362C46.7716 25.5076 46.7955 25.5123 46.8145 25.5123C46.867 25.5028 46.9243 25.4885 46.9482 25.4312C47.0913 25.3406 47.2345 25.2547 47.3776 25.164C47.4062 25.1497 47.4492 25.1497 47.454 25.1067C47.5017 25.0686 47.5494 25.0208 47.6114 25.0018C47.6973 24.9636 47.7785 24.9254 47.8262 24.8395C48.0314 24.7345 48.1888 24.5771 48.3367 24.4053C48.3558 24.3719 48.3797 24.3432 48.4179 24.3242C48.5229 24.286 48.5897 24.2049 48.6326 24.1094C48.6326 24.0903 48.6326 24.0665 48.6612 24.0617C48.771 23.9997 48.8521 23.909 48.9046 23.7945C49.0048 23.742 49.0525 23.6513 49.0907 23.5559C49.1575 23.4939 49.2148 23.4223 49.2482 23.3364C49.272 23.2744 49.3102 23.2219 49.3531 23.1742C49.4963 23.031 49.5965 22.8592 49.6538 22.6636C49.6442 22.6302 49.6681 22.6063 49.6872 22.5824C49.7444 22.5538 49.7397 22.4918 49.7588 22.4441C49.8017 22.3582 49.8065 22.258 49.8685 22.1768C49.9019 22.1387 49.9162 22.0909 49.921 22.0432C49.921 22.0146 49.9067 21.9812 49.9449 21.9621C49.9973 21.9192 49.9926 21.8571 50.0021 21.7999C50.0021 21.7903 50.0021 21.7856 50.0021 21.776C50.0498 21.7283 50.0641 21.6758 50.0451 21.6138C50.0641 21.504 50.0737 21.399 50.1119 21.2941C50.1309 21.2607 50.1119 21.2177 50.131 21.1843C50.1405 21.1127 50.1071 21.0364 50.1596 20.9743C50.193 20.8932 50.1596 20.8026 50.1834 20.7167C50.1834 20.6499 50.1834 20.5831 50.1882 20.5163C50.1978 20.4113 50.2025 20.3015 50.2073 20.1918C50.2073 20.1727 50.2073 20.1584 50.2073 20.1393C50.2407 20.0486 50.2216 19.958 50.2073 19.8673L50.2168 19.8434ZM34.9423 10.6863C35.4433 10.6863 35.9444 10.6863 36.5361 10.6863C37.0705 10.6911 37.6956 10.6577 38.3207 10.715C39.4612 10.8247 40.5635 11.0633 41.5512 11.6789C42.0332 11.9795 42.4388 12.3708 42.6583 12.9148C42.6869 12.9816 42.7394 13.0675 42.7012 13.1152C42.6631 13.1629 42.5676 13.1152 42.5008 13.1104C41.8996 13.0245 41.2936 12.9625 40.6875 12.9625C38.7788 12.9625 36.8653 12.9625 34.9566 12.9625C34.8564 12.9625 34.8182 12.9434 34.823 12.8336C34.8278 12.156 34.8278 11.4737 34.823 10.7913C34.823 10.6911 34.8564 10.6768 34.9471 10.6768L34.9423 10.6863ZM45.865 21.6901C45.2064 22.425 44.3762 22.8831 43.4552 23.198C42.601 23.4891 41.7278 23.7038 40.8307 23.7802C40.4728 23.8136 40.1149 23.8231 39.757 23.8279C38.1203 23.8279 36.4788 23.8279 34.8421 23.8279C34.718 23.8279 34.6989 23.7945 34.6989 23.68C34.6989 22.4536 34.6989 21.2273 34.6989 20.0009C34.6989 18.7745 34.6989 17.5482 34.6989 16.3218C34.6989 16.2264 34.7085 16.1835 34.823 16.1835C36.5838 16.1882 38.3398 16.1596 40.1006 16.1978C41.6849 16.2359 43.2071 16.5938 44.6195 17.343C45.2064 17.6532 45.7075 18.0779 46.0892 18.6314C46.7334 19.5619 46.6332 20.8264 45.865 21.6853V21.6901Z" fill="white"/>
<path d="M33.9688 32.6066C33.9593 32.4968 33.9211 32.4014 33.8352 32.3298C33.8066 32.3298 33.8066 32.3012 33.8066 32.2821C33.7779 32.201 33.7159 32.158 33.6443 32.1246C33.6252 32.1199 33.5966 32.1246 33.5918 32.0912C33.5012 31.9863 33.3675 31.9481 33.2292 31.886C33.3532 31.8145 33.4582 31.7524 33.5107 31.6284C33.5489 31.5568 33.5871 31.4852 33.6252 31.4184C33.6395 31.4041 33.63 31.3802 33.6491 31.3659C33.6491 31.3564 33.6491 31.3468 33.6491 31.3373C33.6729 31.3039 33.6491 31.2562 33.6682 31.2228C33.6682 31.156 33.6682 31.0844 33.6682 31.0176C33.6682 30.9889 33.6777 30.9603 33.6491 30.9365C33.6491 30.9221 33.6491 30.9031 33.6443 30.8887C33.6205 30.8458 33.6443 30.7838 33.5871 30.7504C33.5584 30.7408 33.5632 30.717 33.5632 30.6979C33.5441 30.6311 33.525 30.569 33.4534 30.5356C33.4105 30.4927 33.3676 30.445 33.3198 30.402C33.3103 30.3782 33.296 30.3543 33.2626 30.3591C33.0478 30.235 32.814 30.1873 32.5707 30.1777C32.5325 30.1587 32.4943 30.1539 32.4514 30.1539C32.1794 30.1539 31.9074 30.1491 31.6354 30.1539C31.5781 30.1539 31.5209 30.1252 31.4684 30.1682C31.4684 30.5356 31.4684 30.9031 31.4684 31.2657C31.4684 32.0721 31.4684 32.8834 31.4684 33.6898C31.4588 33.7327 31.4397 33.7805 31.4779 33.8234C31.8692 33.8234 32.2557 33.8186 32.647 33.8234C32.9381 33.8329 33.2196 33.7948 33.4868 33.6802C33.5012 33.6802 33.5107 33.6707 33.5155 33.6564C33.5441 33.6373 33.568 33.623 33.5966 33.6039C33.63 33.5896 33.6682 33.5896 33.6729 33.5419C33.7111 33.4989 33.7493 33.4607 33.7875 33.4178C33.859 33.3748 33.9068 33.3128 33.9163 33.2269C33.9163 33.1601 33.9593 33.1076 33.9783 33.0408C34.0165 32.8881 33.9736 32.7402 33.9688 32.5923V32.6066ZM32.0792 30.6406C32.2844 30.6501 32.4895 30.6215 32.6947 30.6597C32.9333 30.7026 33.0908 30.8553 33.1146 31.0748C33.1433 31.3755 33.0335 31.5854 32.7902 31.6809C32.5993 31.7572 32.3941 31.7381 32.1937 31.7381C32.0076 31.7381 32.0076 31.7381 32.0076 31.5616C32.0076 31.4423 32.0076 31.323 32.0076 31.1989C32.0076 31.0367 32.0076 30.8792 32.0076 30.717C32.0076 30.6645 32.0171 30.6358 32.0792 30.6358V30.6406ZM32.8808 33.3462C32.6136 33.3653 32.3464 33.3462 32.0792 33.3558C32.0124 33.3558 32.0124 33.3224 32.0124 33.2746C32.0124 33.1124 32.0124 32.9549 32.0124 32.7927C32.0124 32.6304 32.0124 32.473 32.0124 32.3107C32.0124 32.2726 32.0076 32.2248 32.0696 32.2296C32.3702 32.2392 32.6709 32.1962 32.9619 32.263C33.296 32.3346 33.4582 32.5446 33.4391 32.8547C33.4248 33.1124 33.1958 33.3319 32.8808 33.351V33.3462Z" fill="white"/>
<path d="M50.9422 31.418C50.5509 31.418 50.1549 31.418 49.7636 31.418C49.7159 31.418 49.6729 31.418 49.63 31.4418C49.5632 31.4752 49.482 31.4561 49.42 31.4991C49.3866 31.523 49.3293 31.4895 49.3103 31.5516V31.5611H49.2959C49.2482 31.5611 49.2291 31.5993 49.2005 31.6279C49.2005 31.6375 49.191 31.6375 49.1814 31.6375C49.148 31.6518 49.1098 31.6709 49.0955 31.709C49.024 31.7568 49.0049 31.8379 48.9619 31.9047C48.9333 31.9238 48.9571 31.962 48.9381 31.9858C48.919 32.0192 48.8999 32.0526 48.9094 32.0908V32.1719C48.8856 32.2244 48.8856 32.2769 48.9094 32.3342C48.9094 32.3676 48.9142 32.4057 48.919 32.4391C48.9285 32.5823 48.9667 32.7111 49.1003 32.7923C49.1576 32.8925 49.2435 32.9593 49.358 33.007C49.2721 33.0595 49.1766 33.0786 49.1289 33.1692C49.0478 33.2503 49.043 33.341 49.0717 33.4508C49.0955 33.5605 49.2005 33.5939 49.2864 33.7084C49.1767 33.6464 49.1385 33.7275 49.0764 33.7371C48.981 33.7418 48.9142 33.7991 48.8617 33.8754C48.8474 33.8898 48.8379 33.9041 48.8235 33.9184C48.752 33.9518 48.7376 34.0186 48.7233 34.0806C48.6852 34.1284 48.7138 34.1904 48.6899 34.2381C48.6804 34.2906 48.6613 34.3431 48.6899 34.4003C48.7186 34.4528 48.6708 34.5196 48.7186 34.5674C48.7329 34.5817 48.7233 34.6055 48.7424 34.6151C48.771 34.6533 48.7997 34.6914 48.8283 34.7296C48.8522 34.7535 48.876 34.7773 48.8999 34.8012C48.9094 34.8107 48.9237 34.8203 48.9333 34.8346C48.9571 34.8775 49.0049 34.8871 49.0478 34.9062C49.0574 34.9062 49.0621 34.9062 49.0669 34.9157C49.1528 35.0159 49.2673 35.0445 49.3962 35.0398C49.5823 35.0827 49.7684 35.0636 49.9545 35.0732C50.0022 35.0827 50.0451 35.0923 50.0881 35.0684L50.0976 35.0589H50.1119C50.1501 35.0589 50.1883 35.0589 50.2217 35.0445C50.3744 35.0207 50.5032 34.9348 50.6416 34.8775C50.6941 34.8584 50.737 34.8298 50.7609 34.7726C50.7657 34.7439 50.7847 34.7296 50.8134 34.7153C50.8516 34.701 50.8563 34.6676 50.8706 34.6389C50.9852 34.3908 50.9756 34.1522 50.8325 33.9136C50.8086 33.8468 50.7609 33.8086 50.6989 33.78C50.6893 33.78 50.6845 33.78 50.6798 33.7705C50.6321 33.7037 50.5509 33.6989 50.4841 33.6703C50.4746 33.6703 50.4698 33.6703 50.465 33.6655C50.4507 33.6464 50.4221 33.6559 50.403 33.6464C50.3935 33.6464 50.3887 33.6464 50.3839 33.6416C50.3171 33.5939 50.236 33.613 50.1644 33.5939C50.1262 33.5557 50.0785 33.5796 50.0356 33.5653C49.9974 33.5605 49.9545 33.5844 49.9258 33.5462C49.8399 33.4794 49.7254 33.4842 49.63 33.4412C49.5918 33.4364 49.5632 33.4174 49.5489 33.384C49.525 33.279 49.587 33.2265 49.6586 33.1692C49.6681 33.1692 49.6777 33.1692 49.6872 33.1692C49.8399 33.1549 49.9879 33.1406 50.1358 33.0976C50.1787 33.0881 50.2169 33.0642 50.2503 33.0356C50.2933 33.0165 50.3314 32.9974 50.3744 32.9784C50.4794 32.9259 50.5652 32.8543 50.5986 32.7398C50.6082 32.7207 50.6177 32.7064 50.6273 32.6873C50.6416 32.6825 50.6464 32.6682 50.6416 32.6586C50.6655 32.5871 50.6893 32.5155 50.7132 32.4487C50.7323 32.3676 50.7275 32.2864 50.7132 32.2053C50.6798 32.1242 50.6464 32.0478 50.6177 31.9667C50.6177 31.9524 50.6177 31.9381 50.6177 31.9286C50.5827 31.8554 50.605 31.8188 50.6845 31.8188C50.7752 31.8188 50.8706 31.8522 50.9565 31.8045C50.9708 31.6756 50.9804 31.5516 50.9565 31.4275L50.9422 31.418ZM49.7111 33.9423C49.9067 33.9518 50.0976 33.9757 50.2789 34.0663C50.3887 34.1236 50.4698 34.1999 50.4698 34.3288C50.4698 34.4576 50.3982 34.5483 50.2837 34.596C49.964 34.7201 49.6395 34.7296 49.3246 34.5912C49.086 34.4862 49.0764 34.2047 49.2912 34.052C49.4152 33.9661 49.5584 33.9423 49.7111 33.9423ZM49.8065 32.7064C49.5345 32.7064 49.3389 32.5298 49.3341 32.2817C49.3341 32.0431 49.5489 31.8427 49.8113 31.8427C50.0642 31.8427 50.2694 32.0335 50.2742 32.2674C50.2742 32.5298 50.0833 32.7064 49.8065 32.7064Z" fill="white"/>
<path d="M8.28229 33.5703C8.28229 32.4919 8.28229 31.4183 8.28229 30.3398C8.28229 30.3064 8.28229 30.2778 8.28229 30.2444C8.28707 30.1871 8.25844 30.1585 8.20595 30.1585C8.06279 30.1537 7.92441 30.1394 7.78603 30.1824C7.78603 30.5832 7.78603 30.984 7.78603 31.3848C7.73831 31.4326 7.68582 31.4278 7.62379 31.4135C7.6047 31.4135 7.59038 31.4135 7.5713 31.4087C7.53789 31.3992 7.50926 31.3562 7.46632 31.3848C7.35656 31.3848 7.25158 31.3848 7.14183 31.3848C7.04163 31.3419 6.95573 31.3848 6.87461 31.4373C6.86507 31.4373 6.85552 31.4373 6.85075 31.4421C6.80303 31.4373 6.76486 31.4469 6.741 31.4898C6.71714 31.4994 6.69328 31.5137 6.66943 31.5232C6.51196 31.5853 6.38312 31.6712 6.31154 31.8334C6.29245 31.8525 6.27814 31.8763 6.25905 31.8954C6.20656 31.9384 6.17793 31.9909 6.17793 32.0577C6.17793 32.0672 6.17793 32.0768 6.17316 32.0815C6.09204 32.1483 6.12067 32.2438 6.09681 32.3249C6.09681 32.344 6.09681 32.3583 6.09204 32.3774C6.07772 32.5015 6.07772 32.6255 6.09204 32.7544C6.0634 32.7925 6.11112 32.8259 6.09681 32.8641C6.1159 32.8975 6.10158 32.9357 6.12067 32.9739C6.13498 33.0073 6.12067 33.0502 6.1493 33.0836C6.16361 33.1313 6.16839 33.1791 6.20179 33.2172C6.22088 33.2459 6.21133 33.284 6.24951 33.2983C6.25905 33.3031 6.25905 33.3127 6.25905 33.3222C6.26859 33.3556 6.27336 33.389 6.30677 33.4081C6.31631 33.4176 6.32585 33.432 6.3354 33.4415C6.35449 33.4844 6.35926 33.5322 6.42129 33.5322C6.43083 33.5417 6.44038 33.5513 6.44992 33.556C6.45946 33.5942 6.49287 33.6037 6.5215 33.6181C6.5549 33.6658 6.61216 33.6801 6.65988 33.7039C6.72192 33.7851 6.81735 33.7803 6.90802 33.8042C6.96051 33.8137 7.00345 33.828 7.06071 33.828C7.46632 33.828 7.87192 33.828 8.27275 33.828C8.32047 33.7421 8.28707 33.6515 8.28707 33.5656L8.28229 33.5703ZM7.69536 33.432C7.56652 33.4272 7.43769 33.432 7.30885 33.432C6.85553 33.4176 6.63125 33.2268 6.5883 32.7734C6.51673 32.0386 7.06548 31.6664 7.72877 31.8859C7.7908 31.905 7.7908 31.9479 7.7908 31.9956C7.7908 32.2199 7.7908 32.4442 7.7908 32.6637C7.7908 32.8832 7.7908 33.1122 7.7908 33.3317C7.7908 33.4081 7.77171 33.432 7.69536 33.4272V33.432Z" fill="white"/>
<path d="M26.0285 32.491C26.0285 32.448 26.0237 32.4003 26.0189 32.3574C26.0046 32.324 26.0189 32.281 25.9999 32.2476C25.9999 32.2285 25.9903 32.2142 25.9903 32.1951C25.9951 32.1713 25.9903 32.157 25.976 32.1379C25.976 32.1283 25.976 32.1188 25.976 32.1093C25.9521 31.8707 25.8185 31.7036 25.6276 31.5748C25.6181 31.5319 25.5752 31.5366 25.5465 31.5223C25.1123 31.3219 24.6876 31.3219 24.282 31.6034C24.2295 31.6178 24.2104 31.6655 24.177 31.7036C24.1293 31.7323 24.1054 31.7848 24.072 31.8277C23.9718 31.8802 23.9623 31.9804 23.9384 32.0711C23.9098 32.0854 23.9098 32.114 23.9098 32.1379C23.8812 32.1713 23.8812 32.2095 23.8859 32.2476C23.8859 32.2667 23.8812 32.281 23.8764 32.3001C23.8287 32.3765 23.8 32.4528 23.8478 32.5435C23.8478 32.6341 23.8382 32.72 23.8573 32.8107C23.8478 32.8489 23.8573 32.8871 23.8764 32.9205C23.8955 32.992 23.9146 33.0588 23.9384 33.1304C23.9432 33.1734 23.9623 33.2115 23.9861 33.2449C23.9957 33.264 24.0052 33.2831 24.0148 33.307C24.0386 33.3356 24.0386 33.3833 24.072 33.4072C24.1007 33.4597 24.1293 33.5074 24.177 33.5456C24.22 33.6124 24.2629 33.6744 24.344 33.6983L24.3918 33.7317C24.4252 33.7794 24.4729 33.7985 24.5301 33.8032L24.6065 33.8366C24.6065 33.8366 24.6637 33.8366 24.6876 33.8605C24.7926 33.9034 24.9023 33.8748 25.0073 33.8939C25.0789 33.9082 25.1505 33.9082 25.222 33.8939C25.2411 33.8939 25.2602 33.8939 25.2745 33.8939C25.327 33.9178 25.3652 33.8891 25.4081 33.87C25.4606 33.8557 25.5084 33.8271 25.5656 33.8366C25.6563 33.8223 25.7517 33.8176 25.809 33.7317C25.9187 33.6649 26.0333 33.5981 25.9999 33.4358C26.0189 33.4072 26.0142 33.3833 25.9999 33.3547C25.9999 33.2831 25.9903 33.2163 25.9903 33.1447C25.914 33.1209 25.8901 33.1972 25.8376 33.2163C25.8233 33.2259 25.809 33.2402 25.7947 33.2497C25.7613 33.2545 25.7279 33.2736 25.6992 33.2974C25.6897 33.2974 25.6849 33.307 25.6754 33.307C25.5656 33.307 25.475 33.3642 25.3747 33.4024C25.2698 33.4454 25.16 33.4358 25.0503 33.4263C25.0169 33.4024 24.9739 33.4215 24.9405 33.4072C24.8594 33.4072 24.783 33.3929 24.7258 33.3356C24.7067 33.2879 24.6542 33.2974 24.6256 33.2688C24.6065 33.2688 24.5969 33.2593 24.5969 33.2449C24.5779 33.2115 24.554 33.1829 24.5206 33.1638C24.5158 33.1543 24.511 33.1495 24.5063 33.14C24.5063 33.0779 24.4681 33.0398 24.4252 33.0063C24.4204 32.9873 24.4156 32.9729 24.4061 32.9539C24.3965 32.9348 24.4061 32.9109 24.3822 32.8918C24.344 32.8584 24.3536 32.8107 24.3488 32.763C24.3488 32.6819 24.4108 32.7153 24.4442 32.7153C24.8642 32.7153 25.2793 32.7153 25.6992 32.7153C25.8042 32.7153 25.914 32.7296 26.0189 32.7057C26.038 32.6341 26.0333 32.5626 26.0189 32.491H26.0285ZM25.3986 32.3812C25.2507 32.3812 25.1028 32.3812 24.9548 32.3812C24.7783 32.3812 24.6065 32.3812 24.4299 32.3812C24.3727 32.3812 24.3488 32.3717 24.3583 32.3097C24.3965 32.0424 24.6494 31.8134 24.931 31.7943C25.2268 31.7752 25.4463 31.9232 25.5274 32.1999C25.5752 32.3669 25.5656 32.3812 25.3986 32.3812Z" fill="white"/>
<path d="M13.0349 33.4662C13.0349 33.428 13.0062 33.4137 12.9681 33.428L12.8917 33.4853C12.8106 33.5282 12.7486 33.5044 12.6961 33.4328C12.6818 32.9938 12.6818 32.5548 12.6961 32.1158C12.6961 32.0633 12.6961 32.006 12.677 31.9535C12.6436 31.8438 12.5911 31.7388 12.5338 31.6386C12.5338 31.6052 12.51 31.5861 12.4813 31.5766C12.4718 31.5718 12.4623 31.5622 12.4575 31.5575C12.4384 31.5288 12.4098 31.5098 12.3764 31.5002C12.3239 31.4907 12.2857 31.462 12.2428 31.4334C12.2189 31.3809 12.1664 31.4 12.1282 31.3857C12.1187 31.3857 12.1139 31.3857 12.1044 31.3809C12.0662 31.3761 12.0376 31.3427 11.9994 31.3571C11.8849 31.3571 11.7656 31.3571 11.651 31.3571C11.5556 31.3427 11.4697 31.3809 11.3838 31.4095C11.3552 31.4191 11.3409 31.4525 11.3075 31.4477C11.2645 31.4382 11.2454 31.4668 11.2216 31.4954C11.1977 31.5193 11.1595 31.5098 11.1452 31.5432C11.1309 31.5575 11.1118 31.567 11.0975 31.5813C11.0355 31.6195 11.0069 31.672 11.0116 31.7483C11.0164 31.8772 11.0116 32.0013 11.0116 32.1301C11.0116 32.1539 10.9878 32.1969 11.045 32.1921C11.0737 32.1683 11.1071 32.1539 11.1214 32.1158C11.15 32.0824 11.212 32.0871 11.2216 32.0299C11.2454 32.0203 11.2645 32.006 11.2788 31.9869C11.3457 31.9201 11.4268 31.8867 11.5174 31.8724C11.6463 31.882 11.7656 31.7913 11.8992 31.8438C11.9135 31.8438 11.9326 31.8438 11.9469 31.8486C11.9612 31.8629 11.9803 31.8724 11.9994 31.8724C12.133 31.9488 12.195 32.0681 12.1903 32.2208C12.1664 32.2494 12.1903 32.2732 12.1903 32.3019C12.2141 32.3591 12.1569 32.3591 12.133 32.3782C12.0901 32.4021 12.0328 32.3782 11.9994 32.4307C11.8944 32.4689 11.7847 32.5071 11.6797 32.55C11.6654 32.55 11.6558 32.55 11.651 32.5643C11.6176 32.5739 11.5842 32.5882 11.5508 32.5977C11.5222 32.6073 11.4793 32.5977 11.4649 32.6407C11.3457 32.6884 11.2311 32.7457 11.1357 32.8363C11.0832 32.8554 11.0593 32.8984 11.0403 32.9461C11.0307 32.9652 11.0212 32.9795 11.0116 32.9986C10.9591 33.0367 10.9782 33.094 10.9639 33.1465C10.9162 33.1942 10.9591 33.2467 10.9544 33.2944C10.9448 33.3326 10.9353 33.366 10.9591 33.3994C10.983 33.4328 10.9496 33.4757 10.9878 33.5044C11.0212 33.595 11.0355 33.7048 11.1452 33.7477C11.1548 33.7764 11.1882 33.7668 11.2025 33.7811C11.2168 33.805 11.2407 33.8193 11.2645 33.8241C11.3027 33.8479 11.3409 33.8766 11.3886 33.8766C11.4411 33.91 11.4936 33.9147 11.5508 33.8861C11.7417 33.8909 11.9135 33.8241 12.0805 33.743C12.1425 33.7286 12.2046 33.6905 12.2523 33.7716C12.2666 33.8193 12.3096 33.8336 12.3477 33.8527C12.4957 33.9004 12.6388 33.8813 12.7867 33.8527C12.8679 33.8241 12.9537 33.8098 13.0062 33.7286C13.0062 33.7191 13.0158 33.7143 13.0253 33.7191C13.0635 33.6332 13.0396 33.5473 13.0444 33.4614L13.0349 33.4662ZM12.1616 33.3898C12.0614 33.4662 11.9612 33.5378 11.8276 33.5473C11.6701 33.5616 11.5318 33.4948 11.4745 33.366C11.4077 33.2276 11.4363 33.0749 11.5604 32.9652C11.7417 32.8125 11.966 32.7409 12.1998 32.655C12.1998 32.884 12.1998 33.0988 12.1998 33.3135C12.1998 33.3517 12.1807 33.3708 12.1569 33.3898H12.1616Z" fill="white"/>
<path d="M36.7937 33.4224C36.7555 33.4462 36.7078 33.4462 36.6792 33.4844C36.6219 33.5035 36.5599 33.5608 36.5026 33.4844C36.4692 33.0216 36.4835 32.5635 36.4931 32.1006C36.4692 32.0529 36.4931 32.0004 36.474 31.9574C36.474 31.9384 36.4645 31.924 36.4597 31.905C36.4692 31.8811 36.4597 31.8668 36.4454 31.8477C36.4072 31.7761 36.369 31.7045 36.3261 31.6377C36.3165 31.5662 36.2593 31.5423 36.1972 31.528C36.097 31.4803 36.0016 31.4373 35.9014 31.3896C35.8632 31.3514 35.8155 31.3657 35.7678 31.3657C35.6437 31.3657 35.5149 31.3657 35.3908 31.3657C35.3526 31.3514 35.3192 31.3753 35.2858 31.3896C35.1808 31.4135 35.0806 31.4516 34.9947 31.5137C34.9661 31.5137 34.9518 31.528 34.9375 31.5518C34.9136 31.5709 34.8898 31.5948 34.8659 31.6139C34.8134 31.6282 34.78 31.6616 34.7752 31.7141C34.7609 31.862 34.7609 32.0052 34.7752 32.1531C34.7848 32.2438 34.8325 32.239 34.885 32.1865C34.947 32.1245 35.0186 32.072 35.0902 32.0195C35.1379 31.9718 35.2095 31.9574 35.2524 31.9002C35.3479 31.8811 35.4433 31.8477 35.534 31.8477C35.7439 31.8477 35.9062 31.9384 35.9777 32.1435C35.9777 32.1722 35.9777 32.196 35.9825 32.2247C35.9777 32.2533 35.9777 32.2819 35.9825 32.3058C35.9825 32.3964 35.9014 32.3917 35.8489 32.4108C35.7773 32.4155 35.7201 32.4537 35.658 32.4871C35.6485 32.4871 35.6389 32.4871 35.6294 32.4919C35.5006 32.4919 35.3956 32.5635 35.281 32.6016C35.1713 32.6684 35.0425 32.6971 34.9613 32.8068C34.9518 32.8164 34.9375 32.8259 34.9279 32.8402C34.8373 32.8832 34.7848 32.9548 34.7752 33.0597C34.7752 33.0693 34.7752 33.0788 34.7705 33.0836C34.7561 33.117 34.7371 33.1504 34.7466 33.1886C34.7466 33.2506 34.7466 33.3126 34.7466 33.3747C34.7466 33.3747 34.7418 33.3747 34.7371 33.3842C34.7371 33.389 34.7371 33.3938 34.7466 33.4033C34.7657 33.4367 34.7371 33.4797 34.7752 33.5083C34.7752 33.5321 34.7752 33.5465 34.7943 33.5655C34.9041 33.7946 35.0902 33.8948 35.3431 33.89C35.491 33.89 35.6246 33.8423 35.763 33.8041C35.8728 33.7803 35.9873 33.6848 36.0827 33.8328C36.1686 33.9139 36.2831 33.8709 36.3833 33.89C36.4406 33.9091 36.4931 33.8996 36.5456 33.8614C36.6315 33.8137 36.7174 33.766 36.808 33.7182C36.8653 33.6133 36.8557 33.4892 36.7889 33.4176L36.7937 33.4224ZM35.8871 33.451C35.7439 33.5321 35.6055 33.5846 35.4481 33.5226C35.2429 33.4415 35.1761 33.179 35.3192 33.012C35.4862 32.8211 35.7296 32.7591 35.9586 32.6732C36.0111 32.6541 36.0016 32.6971 36.0016 32.7257C36.0016 32.8259 36.0016 32.9213 36.0016 33.0216C36.0016 33.0693 36.0016 33.1218 36.0016 33.1695C36.0016 33.2792 36.0111 33.3842 35.8871 33.451Z" fill="white"/>
<path d="M50.1932 28.377H18.8281V29.088H50.1932V28.377Z" fill="#23A94A"/>
<path d="M18.8281 28.377H0.776367V29.088H18.8281V28.377Z" fill="#F99C1C"/>
<path d="M5.74852 1.24023H0.38501V6.60374H5.74852V1.24023Z" fill="#23A94A"/>
<path d="M8.40648 0H3.04297V5.36351H8.40648V0Z" fill="#F99C1C"/>
</svg>
