<?xml version="1.0" encoding="utf-8"?>
<!-- Generator: Adobe Illustrator 27.1.0, SVG Export Plug-In . SVG Version: 6.00 Build 0)  -->
<svg version="1.1" id="Layer_1" xmlns="http://www.w3.org/2000/svg" xmlns:xlink="http://www.w3.org/1999/xlink" x="0px" y="0px"
	 viewBox="0 0 144 144" style="enable-background:new 0 0 144 144;" xml:space="preserve">
<style type="text/css">
	.st0{fill:#FFFFFF;}
</style>
<g>
	<path class="st0" d="M71.88,0.04c39.36-0.61,72.18,32.5,72.12,72.01c-0.06,39.31-32.73,71.94-72.06,71.91
		C32.49,143.94-0.35,111.11,0,71.69C0.36,31.99,32.1,0.05,71.88,0.04z M112.8,72.06c-0.3-6.89,0.23-13.78-0.57-20.68
		c-1.26-10.82-8.82-18.72-19.67-19.59c-13.67-1.1-27.39-1.1-41.06-0.01c-10.9,0.87-18.71,8.55-19.66,19.52
		c-1.18,13.66-1.11,27.38-0.03,41.06c0.88,11.06,8.69,18.88,19.73,19.76c13.67,1.09,27.39,1.09,41.06-0.01
		c10.79-0.87,18.37-8.82,19.63-19.64C113.02,85.66,112.5,78.86,112.8,72.06z"/>
	<path class="st0" d="M37.81,71.96c-0.2-6.07,0.09-12.12,0.42-18.18c0.5-9.29,6.44-15.13,15.77-15.61
		c12.03-0.62,24.05-0.62,36.07,0.01c9.31,0.49,15.18,6.38,15.67,15.7c0.63,12.02,0.63,24.05,0,36.07
		c-0.49,9.4-6.48,15.29-15.92,15.76c-11.93,0.59-23.86,0.6-35.79-0.01c-9.44-0.48-15.36-6.41-15.82-15.86
		C37.92,83.9,37.64,77.93,37.81,71.96z M72.04,92.61c11.66-0.02,20.65-9.09,20.61-20.8C92.61,60.29,83.6,51.3,72.06,51.28
		c-11.73-0.03-20.75,8.95-20.75,20.65C51.3,83.61,60.35,92.63,72.04,92.61z M93.98,45.33c-2.45,0-4.56,2.23-4.5,4.75
		c0.06,2.59,1.89,4.38,4.46,4.36c2.55-0.02,4.74-2.2,4.65-4.62C98.51,47.59,96.18,45.33,93.98,45.33z"/>
	<path class="st0" d="M72.05,57.85c7.68,0.06,14.07,6.52,14.02,14.16c-0.05,7.67-6.51,14.08-14.15,14.03
		c-7.62-0.05-14.09-6.57-14.04-14.16C57.94,64.25,64.46,57.79,72.05,57.85z"/>
</g>
</svg>
