<svg width="81" height="23" viewBox="0 0 81 23" fill="none" xmlns="http://www.w3.org/2000/svg">
<path d="M36.1307 9.77808C36.1307 11.4721 36.1641 13.1613 36.1211 14.8553C36.0591 17.4846 34.0549 19.6319 31.4209 19.9707C28.93 20.2904 26.4868 18.6059 25.7854 16.0912C25.5245 15.1591 25.8697 14.693 26.8209 14.693C27.6798 14.693 28.5339 14.693 29.3929 14.693C29.6028 14.693 29.7746 14.674 29.8653 14.9746C30.0275 15.5329 30.4618 15.8335 31.0439 15.7142C31.6452 15.5949 31.9076 15.1655 31.9076 14.5403C31.8981 11.2621 31.9172 7.98388 31.8933 4.71042C31.8933 4.19984 31.9792 3.99942 32.5423 4.02806C33.5682 4.08055 34.5989 4.06623 35.6249 4.02806C36.0639 4.01374 36.1497 4.17121 36.145 4.57204C36.1259 6.30898 36.1354 8.04115 36.1354 9.77808C36.1354 9.77808 36.1354 9.77808 36.1307 9.77808Z" fill="#F26522"/>
<path d="M73.7085 8.99966C74.7106 8.35546 75.7365 8.03575 76.8627 8.198C78.9384 8.49385 80.2936 9.97788 80.37 12.2159C80.4511 14.5684 80.3938 16.9256 80.4034 19.2829C80.4034 19.5406 80.3604 19.6837 80.055 19.679C79.1961 19.6646 78.3419 19.6599 77.483 19.679C77.0249 19.6885 77.1013 19.3831 77.1013 19.1111C77.1013 17.2883 77.1013 15.4702 77.1013 13.6474C77.1013 13.3468 77.0965 13.0461 77.0679 12.7503C76.982 11.8246 76.5334 11.3426 75.6936 11.2519C74.7583 11.1517 74.1094 11.5717 73.8374 12.4544C73.7371 12.7837 73.7038 13.1225 73.7085 13.4661C73.7133 15.308 73.6799 17.1499 73.7276 18.9918C73.7419 19.5931 73.5463 19.7124 73.0071 19.679C72.3247 19.636 71.6376 19.6503 70.9504 19.6742C70.5782 19.6837 70.416 19.5931 70.4208 19.1779C70.4351 15.7709 70.4351 12.3686 70.4208 8.96148C70.4208 8.50339 70.6021 8.42704 70.9934 8.44136C71.6805 8.46521 72.3629 8.46521 73.05 8.44136C73.4365 8.42704 73.7276 8.47476 73.7085 8.99489V8.99966Z" fill="#F26522"/>
<path d="M56.2056 16.5783C56.2056 17.4516 56.1913 18.2819 56.2151 19.1122C56.2199 19.3889 56.0815 19.4939 55.862 19.556C53.6097 20.2288 50.7371 19.5273 50.7896 16.1727C50.8134 14.8223 50.7705 13.4719 50.8039 12.1263C50.8182 11.6348 50.6989 11.4009 50.1788 11.4964C49.6634 11.5918 49.4583 11.42 49.506 10.8569C49.5632 10.2175 49.5441 9.57334 49.506 8.92914C49.4821 8.514 49.6444 8.37561 50.0213 8.44719C50.7085 8.5808 50.8564 8.25631 50.8039 7.64075C50.7514 7.02519 50.8087 6.40008 50.7848 5.77975C50.7705 5.43618 50.8468 5.28348 51.2334 5.29779C52.0255 5.32642 52.8176 5.32165 53.6097 5.29779C53.9628 5.28825 54.044 5.41709 54.0344 5.74157C54.0153 6.47166 54.0535 7.19697 54.0201 7.92706C53.9962 8.37084 54.1633 8.46627 54.5689 8.45673C55.0795 8.44719 55.7284 8.22769 56.0624 8.5474C56.4203 8.89097 56.1722 9.55902 56.1817 10.0839C56.2008 11.4916 56.1865 11.525 54.7502 11.4821C54.1633 11.463 53.9915 11.6252 54.0153 12.2169C54.0631 13.3478 54.0249 14.4883 54.0297 15.624C54.0297 16.6213 54.335 16.879 55.3323 16.7406C55.6043 16.7024 55.8763 16.6404 56.2008 16.5783H56.2056Z" fill="#F26522"/>
<path d="M48.4945 12.994C48.0221 8.14585 43.1453 7.27261 40.497 8.86639C38.2256 10.2359 37.1806 13.056 37.944 15.8809C38.5501 18.1142 40.3347 19.6364 42.7254 19.9608C44.8584 20.2472 46.9198 19.2403 48.0364 17.3125C47.2825 17.093 46.5667 16.8878 45.8462 16.6778C45.6601 16.6253 45.474 16.5824 45.2926 16.5204C45.0349 16.4345 44.8536 16.5824 44.6437 16.6969C43.4746 17.365 41.9333 16.9451 41.2939 15.7903C40.9885 15.2463 41.0409 15.1509 41.6804 15.1509C43.737 15.1509 45.7984 15.1413 47.8551 15.1556C48.2845 15.1556 48.4706 15.0173 48.5231 14.5878C48.5899 14.0486 48.5422 13.5189 48.4897 12.9845L48.4945 12.994ZM45.1018 12.4452C45.0016 12.6027 44.7868 12.5121 44.6246 12.5168C43.4937 12.5216 42.3627 12.5168 41.1411 12.5168C41.5229 11.6436 42.0573 11.1569 42.921 11.0901C43.737 11.028 44.4576 11.1998 44.9443 11.9251C45.0445 12.0731 45.2211 12.2544 45.1018 12.4452Z" fill="#F26522"/>
<path d="M63.1821 8.15625C59.88 8.15625 57.4082 10.6901 57.4178 14.0685C57.4321 17.4422 59.8705 19.976 63.1153 19.9903C66.4269 20.0046 68.9417 17.4279 68.9226 14.0351C68.9035 10.6853 66.4365 8.16102 63.1821 8.15625ZM65.3771 15.3426C64.9715 16.4592 63.9837 17.0461 62.8051 16.903C61.7267 16.7741 60.8868 15.815 60.7341 14.5362C60.7151 14.3691 60.7151 14.1926 60.7151 14.1258C60.7294 12.0166 62.242 10.7855 63.979 11.3772C64.5516 11.5729 64.9715 11.9498 65.2387 12.4891C65.7064 13.4196 65.7255 14.3835 65.3771 15.3474V15.3426Z" fill="#F26522"/>
<path d="M16.8574 11.6215C16.8574 11.841 16.8526 12.0605 16.8383 12.28C16.8335 12.3802 16.7858 12.4184 16.6951 12.4374C15.9984 12.6236 15.3018 12.8096 14.6099 12.9958C11.5273 13.8213 8.44945 14.6468 5.36686 15.4723C4.22163 15.7777 3.07639 16.0831 1.93593 16.3933C1.84526 16.4171 1.78324 16.4028 1.72598 16.3169C1.06747 15.3101 0.638002 14.2173 0.456673 13.0244C0.366009 12.4327 0.332602 11.8362 0.370777 11.235C0.375548 11.1395 0.418494 11.1013 0.504387 11.0775C1.28696 10.8675 2.06955 10.6576 2.85212 10.4524C5.87268 9.64118 8.89322 8.83474 11.9138 8.02353C13.0352 7.72291 14.1565 7.42228 15.2731 7.12166C15.3686 7.0978 15.4258 7.11212 15.4831 7.19801C16.1416 8.20486 16.5711 9.2976 16.7572 10.4906C16.8144 10.8675 16.8431 11.2445 16.8574 11.6215Z" fill="#F26522"/>
<path d="M1.47307 7.97043C1.35854 7.97043 1.32036 7.87977 1.37762 7.77956C1.50646 7.55052 1.64008 7.32147 1.79278 7.10674C2.95233 5.44138 4.50793 4.32955 6.46437 3.79033C7.3233 3.55652 8.19654 3.46585 9.0841 3.51834C10.425 3.59946 11.6704 3.98598 12.8252 4.66834C12.8872 4.70652 12.9683 4.72561 12.954 4.82104C12.9445 4.91648 12.8586 4.92125 12.7918 4.94034C11.6561 5.24573 10.5252 5.54636 9.38949 5.85175C6.77454 6.55321 4.16436 7.24989 1.54941 7.95135C1.52078 7.96089 1.48738 7.96566 1.47307 7.97043Z" fill="#F26522"/>
<path d="M8.73117 20.0097C7.16601 20.0192 5.71539 19.6327 4.37928 18.8406C4.32202 18.8072 4.24567 18.7833 4.25521 18.6927C4.26475 18.5972 4.35065 18.5924 4.41746 18.5734C5.8156 18.1964 7.21373 17.8242 8.61187 17.4472C10.9644 16.8173 13.3169 16.1875 15.6694 15.5576C15.7314 15.5385 15.7934 15.5194 15.8412 15.5814C15.8841 15.6435 15.8507 15.696 15.8221 15.7532C15.0824 17.075 14.0613 18.1248 12.7538 18.8835C11.8996 19.3798 10.9882 19.709 10.0148 19.8808C9.59009 19.9524 9.16063 19.9906 8.74071 20.0049L8.73117 20.0097Z" fill="#F26522"/>
<path d="M20.9134 0.568359H20.0354V22.2658H20.9134V0.568359Z" fill="#F26522"/>
</svg>
