<svg width="79" height="17" viewBox="0 0 79 17" fill="none" xmlns="http://www.w3.org/2000/svg">
<path d="M8.71553 0.924695C4.5736 0.919923 1.24288 4.21724 1.22856 8.34486C1.21425 12.4868 4.54018 15.8223 8.7012 15.827C12.8384 15.827 16.1882 12.5154 16.1977 8.40211C16.2073 4.26019 12.8765 0.929465 8.72027 0.919922L8.71553 0.924695ZM13.4539 8.8793C13.1867 10.3299 12.2944 11.4179 11.1873 12.3484C11.0823 12.4343 11.0155 12.4391 10.9105 12.3436C10.0898 11.5611 9.26427 10.7832 8.40057 9.9625C9.24041 9.69528 9.79393 9.18469 10.0612 8.39735C10.1423 8.15398 10.3284 8.25896 10.4715 8.24942C10.7101 8.23511 10.9439 8.23033 11.0871 7.99652C11.2827 7.6768 11.1014 7.18531 10.7388 7.21871C10.1328 7.27597 10.0182 6.89422 9.85597 6.4409C10.1089 6.4409 10.3475 6.44567 10.5908 6.4409C10.9249 6.43136 11.1491 6.28344 11.1587 5.93032C11.1682 5.57721 10.9535 5.39587 10.6195 5.39587C9.28337 5.38633 7.95203 5.38633 6.61592 5.39587C6.27712 5.39587 6.06239 5.59629 6.0767 5.93509C6.09102 6.27866 6.31053 6.44091 6.6541 6.44568C7.07879 6.44568 7.50825 6.44091 7.93294 6.44568C8.42444 6.45999 8.77277 6.70812 9.05431 7.1853C8.23356 7.1853 7.48915 7.1853 6.74952 7.1853C6.31051 7.1853 6.06716 7.39049 6.07193 7.72452C6.08147 8.049 6.31529 8.2351 6.73044 8.23988C7.48439 8.23988 8.23357 8.23988 9.04001 8.23988C8.80619 8.71706 8.46739 8.9461 7.99498 8.97951C7.77548 8.99859 7.55597 8.99382 7.33647 8.97951C7.0597 8.96519 6.84974 9.07017 6.73999 9.32308C6.6207 9.5903 6.73998 9.79071 6.93562 9.97204C7.94725 10.9216 8.94457 11.8808 9.96574 12.816C10.233 13.0594 10.2186 13.1596 9.93233 13.3696C9.15453 13.9422 8.4292 13.9947 7.58936 13.4459C6.11964 12.4916 4.86467 11.3702 4.20139 9.70482C3.9962 9.19423 3.86736 8.66456 3.87213 8.11103C3.87213 7.1519 3.86736 6.19754 3.87213 5.2384C3.8769 4.35562 4.27772 3.97388 5.17005 3.87367C7.28396 3.63985 9.39789 3.6494 11.5118 3.79732C11.9079 3.82596 12.3039 3.89753 12.6904 3.97865C13.139 4.07409 13.535 4.46537 13.535 4.92824C13.5398 6.24049 13.6973 7.56228 13.4587 8.86021L13.4539 8.8793Z" fill="#07549C"/>
<path d="M24.1142 4.56445V10.4004C24.1142 11.3022 23.8613 11.9989 23.3507 12.4904C22.8401 12.9771 22.1577 13.2205 21.294 13.2205C20.4303 13.2205 19.6669 12.9628 19.1229 12.4522C18.5789 11.9417 18.3069 11.2116 18.3069 10.2668H20.3826C20.3826 10.6246 20.4542 10.8966 20.6021 11.078C20.75 11.2593 20.96 11.3547 21.2368 11.3547C21.4897 11.3547 21.6853 11.2736 21.8237 11.1114C21.9621 10.9491 22.0289 10.7105 22.0289 10.4051V4.56922H24.1189L24.1142 4.56445Z" fill="#07549C"/>
<path d="M25.9514 5.29478C25.7176 5.08005 25.603 4.81282 25.603 4.49311C25.603 4.1734 25.7176 3.89664 25.9514 3.6819C26.1852 3.46717 26.4811 3.35742 26.8485 3.35742C27.2159 3.35742 27.5022 3.46717 27.7313 3.6819C27.9651 3.89664 28.0796 4.16863 28.0796 4.49311C28.0796 4.81759 27.9651 5.07527 27.7313 5.29478C27.4974 5.50951 27.2064 5.61926 26.8485 5.61926C26.4906 5.61926 26.1852 5.50951 25.9514 5.29478ZM27.884 6.32549V13.1349H25.7987V6.32549H27.884Z" fill="#07549C"/>
<path d="M30.6991 12.8058C30.1647 12.5195 29.7448 12.1139 29.4442 11.5842C29.1388 11.0545 28.9861 10.439 28.9861 9.72798C28.9861 9.01698 29.1388 8.41096 29.4489 7.87652C29.7591 7.34208 30.179 6.93647 30.7183 6.65016C31.2575 6.36385 31.8587 6.2207 32.5268 6.2207C33.1948 6.2207 33.7961 6.36385 34.3353 6.65016C34.8697 6.93647 35.2944 7.34208 35.6046 7.87652C35.9147 8.41096 36.0674 9.02652 36.0674 9.72798C36.0674 10.4294 35.91 11.045 35.5998 11.5794C35.2849 12.1139 34.8602 12.5195 34.3162 12.8058C33.7722 13.0921 33.171 13.2353 32.5029 13.2353C31.8349 13.2353 31.2336 13.0921 30.7039 12.8058H30.6991ZM33.5193 10.9877C33.8008 10.6967 33.9392 10.2767 33.9392 9.73275C33.9392 9.18877 33.8008 8.76885 33.5289 8.47777C33.2569 8.18669 32.918 8.03876 32.522 8.03876C32.1259 8.03876 31.7776 8.18192 31.5104 8.473C31.2431 8.76408 31.1095 9.18399 31.1095 9.73752C31.1095 10.2911 31.2431 10.7014 31.5056 10.9925C31.768 11.2836 32.1021 11.4315 32.4981 11.4315C32.8942 11.4315 33.2378 11.2836 33.5193 10.9925V10.9877Z" fill="#07549C"/>
<path d="M46.8805 4.56445V13.1346H44.7953V7.99538L42.877 13.1346H41.1925L39.2647 7.98584V13.1346H37.1794V4.56445H39.6465L42.0515 10.4958L44.4326 4.56445H46.8853H46.8805Z" fill="#07549C"/>
<path d="M49.6816 12.8058C49.1472 12.5195 48.7272 12.1139 48.4266 11.5842C48.1212 11.0545 47.9685 10.439 47.9685 9.72798C47.9685 9.01698 48.1212 8.41096 48.4314 7.87652C48.7416 7.34208 49.1615 6.93647 49.7007 6.65016C50.2399 6.36385 50.8412 6.2207 51.5092 6.2207C52.1773 6.2207 52.7785 6.36385 53.3177 6.65016C53.8522 6.93647 54.2768 7.34208 54.587 7.87652C54.8972 8.41096 55.0499 9.02652 55.0499 9.72798C55.0499 10.4294 54.8924 11.045 54.5823 11.5794C54.2673 12.1139 53.8426 12.5195 53.2986 12.8058C52.7546 13.0921 52.1534 13.2353 51.4853 13.2353C50.8173 13.2353 50.216 13.0921 49.6864 12.8058H49.6816ZM52.5017 10.9877C52.7833 10.6967 52.9216 10.2767 52.9216 9.73275C52.9216 9.18877 52.7833 8.76885 52.5113 8.47777C52.2393 8.18669 51.9005 8.03876 51.5044 8.03876C51.1084 8.03876 50.76 8.18192 50.4928 8.473C50.2256 8.76408 50.092 9.18399 50.092 9.73752C50.092 10.2911 50.2256 10.7014 50.488 10.9925C50.7505 11.2836 51.0845 11.4315 51.4806 11.4315C51.8766 11.4315 52.2202 11.2836 52.5017 10.9925V10.9877Z" fill="#07549C"/>
<path d="M62.2172 7.0278C62.6944 7.54315 62.933 8.25416 62.933 9.15603V13.1357H60.8572V9.43756C60.8572 8.97947 60.7379 8.62636 60.5041 8.37345C60.2655 8.12055 59.9506 7.99648 59.5497 7.99648C59.1489 7.99648 58.834 8.12055 58.5954 8.37345C58.3568 8.62636 58.2423 8.97947 58.2423 9.43756V13.1357H56.157V6.32635H58.2423V7.22822C58.4522 6.9276 58.7385 6.68901 59.0964 6.51245C59.4543 6.33589 59.8551 6.25 60.3037 6.25C61.1006 6.25 61.74 6.50768 62.2124 7.02303L62.2172 7.0278Z" fill="#07549C"/>
<path d="M70.7682 10.2299H66.0441C66.0775 10.6546 66.2111 10.9743 66.4545 11.1986C66.6931 11.4228 66.9889 11.5326 67.3373 11.5326C67.8574 11.5326 68.22 11.3131 68.4252 10.8741H70.6489C70.5344 11.3226 70.3292 11.7235 70.0333 12.0814C69.7375 12.4392 69.3653 12.7208 68.9167 12.926C68.4682 13.1311 67.9671 13.2314 67.4136 13.2314C66.7455 13.2314 66.1539 13.0882 65.6337 12.8019C65.1136 12.5156 64.708 12.11 64.4121 11.5803C64.1211 11.0506 63.9731 10.4351 63.9731 9.72408C63.9731 9.01308 64.1163 8.39752 64.4074 7.86785C64.6984 7.33817 65.0993 6.93257 65.6242 6.64626C66.1443 6.35996 66.7408 6.2168 67.4184 6.2168C68.096 6.2168 68.6638 6.35518 69.1744 6.63195C69.685 6.90871 70.0858 7.30477 70.3769 7.81536C70.668 8.32594 70.8111 8.92718 70.8111 9.60955C70.8111 9.8052 70.7968 10.0104 70.773 10.2203L70.7682 10.2299ZM68.6686 9.07034C68.6686 8.71246 68.5445 8.42614 68.3012 8.21619C68.0578 8.00623 67.7524 7.89647 67.385 7.89647C67.0175 7.89647 66.7408 7.99668 66.5022 8.20187C66.2636 8.40706 66.1157 8.69337 66.0584 9.07034H68.6686Z" fill="#07549C"/>
<path d="M78.8612 6.32617L74.5904 16.3708H72.3429L73.9033 12.9065L71.1309 6.32617H73.4643L75.039 10.5874L76.5993 6.32617H78.8564H78.8612Z" fill="#07549C"/>
</svg>
