<?xml version="1.0" encoding="utf-8"?>
<!-- Generator: Adobe Illustrator 27.1.0, SVG Export Plug-In . SVG Version: 6.00 Build 0)  -->
<svg version="1.1" id="Layer_1" xmlns="http://www.w3.org/2000/svg" xmlns:xlink="http://www.w3.org/1999/xlink" x="0px" y="0px"
	 viewBox="0 0 144 144" style="enable-background:new 0 0 144 144;" xml:space="preserve">
<style type="text/css">
	.st0{fill:#FFFFFF;}
</style>
<g>
	<path class="st0" d="M143.94,72.09c-0.39,17.59-5.91,33.28-17.5,46.69c-3.59,4.16-7.8,4.84-11.42,1.88
		c-3.53-2.88-3.62-7.49-0.12-11.56c9.52-11.09,14.18-23.95,13.84-38.52c-0.31-13.43-4.94-25.31-13.72-35.55
		c-4.1-4.78-3.24-10.58,1.84-12.82c3.13-1.38,6.29-0.69,8.79,2.09c9.69,10.79,15.42,23.45,17.54,37.75
		C143.69,65.37,144.17,68.7,143.94,72.09z"/>
	<path class="st0" d="M0,68.48c0.35-14.19,5.92-29.97,17.63-43.44c3.53-4.06,7.91-4.64,11.44-1.56c3.35,2.91,3.36,7.35,0.02,11.35
		c-18.71,22.47-18.73,51.94-0.05,74.29c3.36,4.02,3.39,8.41,0.07,11.35c-3.5,3.11-7.81,2.56-11.46-1.48C6.59,106.74,0,89.21,0,68.48
		z"/>
	<path class="st0" d="M28.75,72.21c-0.09-11.76,4.05-21.48,11.57-29.86c3.47-3.87,7.84-4.4,11.21-1.44
		c3.42,2.99,3.43,7.62,0.03,11.58C41.1,64.67,41.04,79.25,51.41,91.34c3.47,4.05,3.54,8.59,0.18,11.59
		c-3.48,3.11-8.05,2.41-11.7-1.77C32.56,92.76,28.58,83.1,28.75,72.21z"/>
	<path class="st0" d="M115.18,71.63c0.07,12.1-4.16,21.92-11.84,30.33c-2.72,2.97-5.96,3.62-9.08,2.17
		c-3.04-1.41-4.69-4.31-4.35-7.6c0.18-1.73,0.85-3.31,2.06-4.49c10.8-10.57,10.87-29.14,0.08-39.97c-2.19-2.2-2.79-5.03-1.6-8.07
		c1.09-2.78,3.21-4.25,6.06-4.65c3.22-0.46,5.54,1.22,7.54,3.5C111.38,51.26,115.36,60.94,115.18,71.63z"/>
	<path class="st0" d="M82.93,72.08C82.9,78.38,78.21,83,71.88,82.96c-6.3-0.03-10.91-4.71-10.88-11.05
		c0.03-6.3,4.71-10.91,11.05-10.88C78.35,61.07,82.96,65.74,82.93,72.08z"/>
</g>
</svg>
