<svg width="44" height="34" viewBox="0 0 44 34" fill="none" xmlns="http://www.w3.org/2000/svg">
<path d="M8.53666 33.2787V31.0645C8.53666 30.2199 8.0213 29.6616 7.13374 29.6616C6.68997 29.6616 6.20801 29.8096 5.87876 30.2915C5.62108 29.8859 5.24886 29.6616 4.69533 29.6616C4.3279 29.6616 3.95571 29.7714 3.66463 30.177V29.7332H2.8916V33.2739H3.66463V31.3175C3.66463 30.6876 3.9939 30.3917 4.50925 30.3917C5.02461 30.3917 5.28228 30.721 5.28228 31.3175V33.2739H6.05531V31.3175C6.05531 30.6876 6.42272 30.3917 6.8999 30.3917C7.41526 30.3917 7.67296 30.721 7.67296 31.3175V33.2739H8.5271L8.53666 33.2787ZM20.0128 29.738H18.7579V28.6691H17.9848V29.738H17.2834V30.4394H17.9848V32.0619C17.9848 32.8731 18.3141 33.3502 19.2016 33.3502C19.5309 33.3502 19.9031 33.2405 20.1608 33.0926L19.9365 32.4245C19.7122 32.5724 19.4545 32.6106 19.2684 32.6106C18.901 32.6106 18.7531 32.3863 18.7531 32.0237V30.4394H20.0081V29.738H20.0128ZM26.5789 29.6616C26.1351 29.6616 25.8392 29.8859 25.6531 30.177V29.7332H24.8801V33.2739H25.6531V31.2793C25.6531 30.6923 25.9108 30.3535 26.3927 30.3535C26.5407 30.3535 26.722 30.3917 26.8747 30.4251L27.099 29.6855C26.9463 29.6569 26.7268 29.6569 26.5789 29.6569V29.6616ZM16.6535 30.0291C16.286 29.7714 15.7659 29.6616 15.2124 29.6616C14.3249 29.6616 13.7379 30.1054 13.7379 30.8069C13.7379 31.3938 14.1817 31.7326 14.9547 31.8376L15.3222 31.8758C15.7278 31.9473 15.952 32.0619 15.952 32.2432C15.952 32.5009 15.6562 32.687 15.1408 32.687C14.6255 32.687 14.2151 32.5009 13.9574 32.3195L13.59 32.9065C13.9956 33.2023 14.5491 33.3502 15.1026 33.3502C16.1333 33.3502 16.7251 32.8683 16.7251 32.205C16.7251 31.5751 16.2431 31.2459 15.5083 31.1361L15.1408 31.0979C14.8116 31.0598 14.5539 30.9882 14.5539 30.7687C14.5539 30.511 14.8116 30.3631 15.2219 30.3631C15.6657 30.3631 16.1095 30.5492 16.329 30.6589L16.6535 30.0291ZM37.2391 29.6616C36.7953 29.6616 36.4994 29.8859 36.3133 30.177V29.7332H35.5403V33.2739H36.3133V31.2793C36.3133 30.6923 36.571 30.3535 37.0529 30.3535C37.2009 30.3535 37.3822 30.3917 37.5349 30.4251L37.7592 29.695C37.6065 29.6569 37.3918 29.6569 37.2391 29.6569V29.6616ZM27.3519 31.5083C27.3519 32.5772 28.0915 33.3502 29.2368 33.3502C29.7521 33.3502 30.1243 33.2405 30.4917 32.9446L30.1243 32.3148C29.8285 32.539 29.5374 32.644 29.1986 32.644C28.5687 32.644 28.1297 32.2002 28.1297 31.4988C28.1297 30.7973 28.5735 30.3917 29.1986 30.3535C29.5278 30.3535 29.8285 30.4633 30.1243 30.6828L30.4917 30.0529C30.1243 29.7571 29.7521 29.6473 29.2368 29.6473C28.0915 29.6473 27.3519 30.4204 27.3519 31.4892V31.5083ZM34.5096 31.5083V29.738H33.7366V30.1818C33.4789 29.8525 33.1067 29.6664 32.6295 29.6664C31.6322 29.6664 30.8592 30.4394 30.8592 31.5083C30.8592 32.5772 31.6322 33.3502 32.6295 33.3502C33.1449 33.3502 33.5171 33.1641 33.7366 32.8349V33.2787H34.5096V31.5083ZM31.6704 31.5083C31.6704 30.8784 32.076 30.3631 32.7392 30.3631C33.3691 30.3631 33.8081 30.845 33.8081 31.5083C33.8081 32.1382 33.3644 32.6536 32.7392 32.6536C32.076 32.6154 31.6704 32.1334 31.6704 31.5083ZM22.413 29.6616C21.3823 29.6616 20.6427 30.4013 20.6427 31.5036C20.6427 32.6058 21.3823 33.3455 22.4512 33.3455C22.9666 33.3455 23.482 33.1975 23.8923 32.8635L23.5249 32.31C23.229 32.5343 22.8568 32.6774 22.4942 32.6774C22.0122 32.6774 21.535 32.4531 21.4253 31.8328H24.045V31.537C24.0784 30.3965 23.4151 29.6569 22.4226 29.6569L22.413 29.6616ZM22.413 30.3297C22.895 30.3297 23.2243 30.6255 23.3006 31.1743H21.4587C21.5303 30.6971 21.8643 30.3297 22.4178 30.3297H22.413ZM41.6339 31.5131V28.3398H40.8609V30.1818C40.6032 29.8525 40.231 29.6664 39.7538 29.6664C38.7565 29.6664 37.9835 30.4394 37.9835 31.5083C37.9835 32.5772 38.7565 33.3502 39.7538 33.3502C40.2692 33.3502 40.6414 33.1641 40.8609 32.8349V33.2787H41.6339V31.5083V31.5131ZM38.7947 31.5131C38.7947 30.8832 39.2003 30.3679 39.8635 30.3679C40.4934 30.3679 40.9324 30.8498 40.9324 31.5131C40.9324 32.143 40.4887 32.6583 39.8635 32.6583C39.1955 32.6202 38.7947 32.1382 38.7947 31.5131ZM12.8933 31.5131V29.7428H12.1203V30.1865C11.8626 29.8573 11.4904 29.6712 11.0132 29.6712C10.0159 29.6712 9.24288 30.4442 9.24288 31.5131C9.24288 32.582 10.0159 33.355 11.0132 33.355C11.5286 33.355 11.9008 33.1689 12.1203 32.8397V33.2834H12.8933V31.5131ZM10.0159 31.5131C10.0159 30.8832 10.4215 30.3679 11.0848 30.3679C11.7147 30.3679 12.1537 30.8498 12.1537 31.5131C12.1537 32.143 11.7099 32.6583 11.0848 32.6583C10.4167 32.6202 10.0159 32.1382 10.0159 31.5131Z" fill="white"/>
<path d="M28.0199 2.83984H16.3958V23.7213H28.0199V2.83984Z" fill="#F15B22"/>
<path d="M17.1688 13.2799C17.1688 9.0378 19.1634 5.27285 22.2222 2.83922C19.9699 1.06888 17.1306 0 14.0289 0C6.68513 0 0.749023 5.9409 0.749023 13.2799C0.749023 20.619 6.6899 26.5599 14.0289 26.5599C17.1258 26.5599 19.9699 25.491 22.2222 23.7206C19.1587 21.3204 17.1688 17.5221 17.1688 13.2799Z" fill="#EA1D25"/>
<path d="M43.7002 13.2799C43.7002 20.6237 37.7593 26.5599 30.4202 26.5599C27.3233 26.5599 24.4793 25.491 22.2271 23.7206C25.324 21.2823 27.2804 17.5221 27.2804 13.2799C27.2804 9.0378 25.2858 5.27285 22.2271 2.83922C24.4746 1.06888 27.3186 0 30.4155 0C37.7593 0 43.7002 5.97907 43.7002 13.2799Z" fill="#F69E1E"/>
</svg>
