<?xml version="1.0" encoding="utf-8"?>
<!-- Generator: Adobe Illustrator 23.1.0, SVG Export Plug-In . SVG Version: 6.00 Build 0)  -->
<svg version="1.1" id="Layer_1" xmlns="http://www.w3.org/2000/svg" xmlns:xlink="http://www.w3.org/1999/xlink" x="0px" y="0px"
	 viewBox="0 0 184 65" enable-background="new 0 0 184 65" xml:space="preserve">
<g>
	<g>
		<path fill="#FFFFFF" d="M45.944,23.713c-0.119,0.051-0.097,0.18-0.144,0.269c-0.293,0.558-0.728,0.908-1.372,0.961
			c-0.155,0.013-0.311,0.023-0.467,0.023c-10.972,0.001-21.944,0.001-32.915,0.002c-0.488,0-0.956-0.045-1.353-0.371
			c-1.006-0.827-0.788-2.32,0.437-2.884c1.486-0.684,2.982-1.346,4.474-2.016c3.986-1.792,7.973-3.584,11.96-5.374
			c0.214-0.096,0.435-0.175,0.653-0.261c0.192,0,0.384,0,0.576,0c0.777,0.101,1.434,0.519,2.129,0.828
			c2.346,1.043,4.687,2.098,7.027,3.156c2.066,0.935,4.138,1.857,6.201,2.797c0.546,0.249,1.093,0.496,1.643,0.735
			c0.634,0.276,1.095,0.676,1.152,1.414C45.944,23.233,45.944,23.473,45.944,23.713z"/>
		<path fill="#FFFFFF" d="M45.944,49.643c-0.12,0.05-0.101,0.177-0.144,0.268c-0.306,0.642-0.811,0.986-1.522,1.025
			c-0.06,0.003-0.12,0.002-0.18,0.002c-11.066,0-22.131,0-33.197,0c-0.858,0-1.503-0.416-1.746-1.12
			c-0.372-1.075,0.364-2.154,1.536-2.248c0.143-0.011,0.288-0.006,0.432-0.006c10.886,0,21.771,0,32.657,0
			c1.298,0,1.706,0.27,2.165,1.432C45.944,49.211,45.944,49.427,45.944,49.643z"/>
		<path fill="#FFFFFF" d="M42.155,43.233c-0.33-0.003-0.408-0.09-0.407-0.415c0.011-4.753,0.009-9.505,0.004-14.258
			c0-0.268-0.005-0.439,0.363-0.419c0.38,0.02,0.692-0.178,0.83-0.566c0.11-0.31,0.041-0.597-0.176-0.836
			c-0.238-0.263-0.56-0.286-0.891-0.286c-7.321,0.002-14.642,0.002-21.963,0.002c-2.304,0-4.609-0.002-6.913,0.001
			c-0.599,0.001-0.975,0.312-0.995,0.805c-0.02,0.509,0.321,0.875,0.91,0.883c0.31,0.004,0.333,0.119,0.333,0.371
			c-0.006,4.777-0.004,9.553-0.004,14.33c0,0.06-0.006,0.121,0.001,0.18c0.02,0.164-0.058,0.211-0.209,0.198
			c-0.095-0.008-0.192,0.002-0.287,0.007c-1.251,0.064-1.989,1.395-1.375,2.487c0.379,0.674,0.998,0.875,1.727,0.875
			c4.789-0.003,9.577-0.002,14.366-0.002c4.777,0,9.553,0,14.33-0.001c0.167,0,0.336-0.008,0.502-0.028
			c0.925-0.113,1.585-0.851,1.543-1.718C43.798,43.927,43.104,43.242,42.155,43.233z M21.267,43.228
			c-1.44-0.015-2.881-0.016-4.321,0c-0.279,0.003-0.331-0.078-0.331-0.34c0.008-4.801,0.009-9.603-0.001-14.404
			c0-0.27,0.066-0.336,0.334-0.333c1.452,0.015,2.905,0.014,4.357,0.001c0.254-0.002,0.316,0.065,0.315,0.317
			c-0.01,2.413-0.006,4.825-0.006,7.238c0,2.389-0.005,4.777,0.007,7.166C21.622,43.154,21.552,43.231,21.267,43.228z
			 M29.664,43.227c-1.452-0.011-2.904-0.014-4.355,0.002c-0.275,0.003-0.333-0.073-0.332-0.338c0.011-2.412,0.006-4.823,0.006-7.235
			c0-2.376,0.005-4.751-0.007-7.127c-0.001-0.282,0.042-0.385,0.359-0.38c1.451,0.02,2.903,0.014,4.355,0.003
			c0.246-0.002,0.323,0.059,0.323,0.316c-0.008,4.811-0.009,9.623,0.001,14.434C30.015,43.192,29.915,43.229,29.664,43.227z
			 M38.388,42.848c0.001,0.284-0.043,0.387-0.361,0.382c-1.452-0.02-2.904-0.014-4.356-0.004c-0.23,0.002-0.308-0.052-0.307-0.295
			c0.007-4.825,0.006-9.65,0-14.474c0-0.23,0.053-0.307,0.298-0.305c1.464,0.012,2.928,0.013,4.393-0.001
			c0.265-0.003,0.337,0.056,0.335,0.33c-0.012,2.412-0.007,4.825-0.007,7.237C38.382,38.095,38.377,40.472,38.388,42.848z"/>
	</g>
	<g>
		<path fill="#FFFFFF" d="M67.246,38.563h-3.987l-6.438-11.195h-0.092c0.027,0.465,0.051,0.935,0.071,1.407
			c0.021,0.473,0.04,0.943,0.061,1.412s0.04,0.939,0.061,1.412v6.964h-2.804V23.765h3.958l6.427,11.083h0.071
			c-0.014-0.459-0.03-0.914-0.051-1.366s-0.039-0.904-0.056-1.356s-0.032-0.904-0.045-1.356v-7.004h2.823V38.563z"/>
		<path fill="#FFFFFF" d="M75.396,27.035c1.046,0,1.946,0.201,2.702,0.602c0.756,0.402,1.34,0.984,1.751,1.746
			c0.412,0.763,0.617,1.694,0.617,2.794v1.498h-7.298c0.034,0.87,0.296,1.554,0.785,2.05s1.169,0.743,2.039,0.743
			c0.722,0,1.384-0.073,1.984-0.223c0.601-0.147,1.218-0.37,1.852-0.668v2.389c-0.56,0.277-1.146,0.479-1.756,0.607
			c-0.61,0.129-1.352,0.192-2.222,0.192c-1.134,0-2.138-0.209-3.012-0.627c-0.873-0.419-1.559-1.057-2.055-1.913
			c-0.495-0.857-0.743-1.937-0.743-3.239c0-1.322,0.224-2.424,0.673-3.305c0.448-0.881,1.074-1.542,1.878-1.984
			C73.395,27.256,74.329,27.035,75.396,27.035z M75.415,29.231c-0.601,0-1.098,0.191-1.493,0.576
			c-0.395,0.385-0.622,0.989-0.683,1.813h4.332c-0.007-0.459-0.09-0.867-0.248-1.225c-0.158-0.358-0.395-0.642-0.708-0.851
			C76.301,29.336,75.901,29.231,75.415,29.231z"/>
		<path fill="#FFFFFF" d="M87.743,36.307c0.338,0,0.667-0.034,0.987-0.102s0.639-0.151,0.956-0.253v2.298
			c-0.33,0.148-0.74,0.271-1.229,0.369s-1.024,0.146-1.604,0.146c-0.675,0-1.28-0.109-1.816-0.329
			c-0.537-0.219-0.959-0.6-1.266-1.144c-0.307-0.543-0.461-1.301-0.461-2.272v-5.455h-1.478v-1.306l1.7-1.032l0.892-2.389h1.974
			v2.409h3.168v2.318h-3.168v5.455c0,0.433,0.123,0.754,0.369,0.967S87.339,36.307,87.743,36.307z"/>
		<path fill="#FFFFFF" d="M92.217,23.765h4.605c1.971,0,3.462,0.277,4.474,0.83c1.013,0.553,1.519,1.525,1.519,2.915
			c0,0.56-0.09,1.066-0.269,1.518c-0.179,0.453-0.437,0.823-0.773,1.113c-0.338,0.291-0.749,0.479-1.235,0.567v0.102
			c0.492,0.101,0.938,0.274,1.336,0.521c0.398,0.247,0.717,0.604,0.957,1.073c0.239,0.469,0.359,1.092,0.359,1.867
			c0,0.897-0.22,1.667-0.658,2.308c-0.438,0.642-1.064,1.133-1.878,1.474c-0.813,0.341-1.779,0.511-2.899,0.511h-5.537V23.765z
			 M95.354,29.626h1.822c0.911,0,1.542-0.144,1.893-0.43c0.351-0.287,0.526-0.711,0.526-1.271c0-0.567-0.207-0.973-0.622-1.22
			c-0.415-0.246-1.071-0.37-1.969-0.37h-1.65V29.626z M95.354,32.116v3.856h2.045c0.944,0,1.603-0.183,1.974-0.547
			s0.557-0.854,0.557-1.468c0-0.364-0.081-0.685-0.243-0.962c-0.161-0.276-0.434-0.492-0.814-0.647s-0.906-0.232-1.574-0.232H95.354
			z"/>
		<path fill="#FFFFFF" d="M110.537,27.014c1.519,0,2.683,0.331,3.492,0.992c0.811,0.661,1.215,1.667,1.215,3.016v7.541h-2.156
			l-0.597-1.538h-0.081c-0.324,0.404-0.654,0.735-0.992,0.991c-0.337,0.257-0.726,0.445-1.164,0.567
			c-0.438,0.121-0.972,0.182-1.599,0.182c-0.668,0-1.268-0.128-1.797-0.385c-0.53-0.256-0.946-0.649-1.25-1.179
			s-0.456-1.203-0.456-2.02c0-1.201,0.422-2.087,1.266-2.657c0.844-0.569,2.108-0.886,3.796-0.946l1.964-0.061v-0.496
			c0-0.594-0.155-1.028-0.466-1.306c-0.311-0.276-0.742-0.415-1.296-0.415c-0.547,0-1.083,0.078-1.609,0.232
			c-0.526,0.156-1.053,0.352-1.579,0.588l-1.022-2.085c0.601-0.317,1.274-0.567,2.02-0.749
			C108.971,27.105,109.741,27.014,110.537,27.014z M112.178,33.32l-1.194,0.04c-0.999,0.027-1.692,0.206-2.08,0.537
			c-0.389,0.33-0.582,0.766-0.582,1.306c0,0.473,0.138,0.808,0.415,1.007c0.276,0.199,0.638,0.299,1.083,0.299
			c0.661,0,1.22-0.195,1.675-0.587s0.684-0.948,0.684-1.67V33.32z"/>
		<path fill="#FFFFFF" d="M124.851,27.035c1.208,0,2.18,0.329,2.915,0.987s1.104,1.712,1.104,3.163v7.379h-3.087v-6.609
			c0-0.81-0.147-1.421-0.44-1.832c-0.294-0.412-0.754-0.617-1.382-0.617c-0.945,0-1.589,0.32-1.934,0.961
			c-0.344,0.642-0.516,1.565-0.516,2.773v5.324h-3.088V27.247h2.358l0.415,1.447h0.173c0.242-0.391,0.544-0.708,0.905-0.951
			c0.361-0.243,0.763-0.422,1.205-0.537C123.921,27.092,124.378,27.035,124.851,27.035z"/>
		<path fill="#FFFFFF" d="M135.135,22.814v7.044c0,0.426-0.018,0.851-0.051,1.275c-0.034,0.426-0.071,0.851-0.111,1.275h0.04
			c0.209-0.297,0.424-0.59,0.643-0.881c0.22-0.29,0.454-0.569,0.704-0.84l3.168-3.441h3.482l-4.494,4.909l4.767,6.407h-3.563
			l-3.26-4.585l-1.325,1.063v3.522h-3.088v-15.75H135.135z"/>
		<path fill="#FFFFFF" d="M146.45,22.814c0.459,0,0.854,0.106,1.185,0.318c0.33,0.213,0.496,0.609,0.496,1.189
			c0,0.574-0.166,0.97-0.496,1.189c-0.331,0.219-0.726,0.329-1.185,0.329c-0.466,0-0.862-0.11-1.189-0.329s-0.49-0.616-0.49-1.189
			c0-0.58,0.163-0.977,0.49-1.189C145.588,22.92,145.984,22.814,146.45,22.814z M147.989,27.247v11.316h-3.088V27.247H147.989z"/>
		<path fill="#FFFFFF" d="M157.655,27.035c1.208,0,2.18,0.329,2.915,0.987s1.104,1.712,1.104,3.163v7.379h-3.087v-6.609
			c0-0.81-0.147-1.421-0.44-1.832c-0.294-0.412-0.754-0.617-1.382-0.617c-0.945,0-1.589,0.32-1.934,0.961
			c-0.344,0.642-0.516,1.565-0.516,2.773v5.324h-3.088V27.247h2.358l0.415,1.447h0.173c0.242-0.391,0.544-0.708,0.905-0.951
			c0.361-0.243,0.763-0.422,1.205-0.537C156.726,27.092,157.183,27.035,157.655,27.035z"/>
		<path fill="#FFFFFF" d="M168.162,43.544c-1.579,0-2.785-0.275-3.619-0.825c-0.833-0.55-1.25-1.321-1.25-2.313
			c0-0.682,0.213-1.251,0.638-1.71c0.426-0.459,1.05-0.786,1.873-0.982c-0.317-0.135-0.594-0.355-0.83-0.663
			c-0.236-0.307-0.354-0.632-0.354-0.977c0-0.432,0.125-0.791,0.374-1.078c0.25-0.286,0.611-0.568,1.084-0.845
			c-0.595-0.257-1.065-0.668-1.412-1.235c-0.348-0.566-0.521-1.234-0.521-2.004c0-0.823,0.181-1.523,0.541-2.1
			c0.361-0.577,0.888-1.017,1.579-1.321s1.534-0.456,2.525-0.456c0.209,0,0.452,0.014,0.729,0.041
			c0.276,0.027,0.531,0.057,0.764,0.091c0.233,0.034,0.39,0.061,0.471,0.081h3.947v1.569l-1.771,0.456
			c0.161,0.25,0.283,0.517,0.364,0.8s0.121,0.584,0.121,0.9c0,1.215-0.424,2.161-1.271,2.84c-0.847,0.678-2.022,1.017-3.527,1.017
			c-0.357-0.02-0.695-0.047-1.012-0.081c-0.155,0.122-0.273,0.25-0.354,0.385c-0.081,0.136-0.122,0.277-0.122,0.426
			s0.063,0.271,0.188,0.369s0.314,0.172,0.567,0.223s0.568,0.076,0.946,0.076h1.923c1.241,0,2.188,0.267,2.839,0.8
			c0.651,0.532,0.978,1.315,0.978,2.348c0,1.322-0.552,2.349-1.655,3.077S170.227,43.544,168.162,43.544z M168.293,41.529
			c0.736,0,1.368-0.069,1.898-0.208c0.529-0.138,0.937-0.334,1.22-0.587s0.425-0.555,0.425-0.905c0-0.284-0.083-0.508-0.248-0.674
			c-0.165-0.165-0.415-0.281-0.749-0.349s-0.761-0.102-1.28-0.102h-1.6c-0.378,0-0.717,0.061-1.017,0.183
			c-0.301,0.121-0.538,0.291-0.714,0.511s-0.263,0.474-0.263,0.765c0,0.425,0.203,0.759,0.612,1.002
			C166.986,41.408,167.558,41.529,168.293,41.529z M168.789,32.945c0.581,0,1.006-0.179,1.275-0.536
			c0.271-0.357,0.405-0.844,0.405-1.457c0-0.682-0.141-1.193-0.42-1.533c-0.28-0.342-0.7-0.512-1.261-0.512
			c-0.566,0-0.991,0.17-1.275,0.512c-0.283,0.34-0.425,0.852-0.425,1.533c0,0.613,0.14,1.1,0.42,1.457
			S168.216,32.945,168.789,32.945z"/>
	</g>
</g>
</svg>
