<svg width="96" height="23" viewBox="0 0 96 23" fill="none" xmlns="http://www.w3.org/2000/svg">
<path d="M21.9463 6.3454C21.8795 6.37403 21.889 6.45038 21.8652 6.4981C21.6982 6.81781 21.4453 7.01822 21.0778 7.05162C20.9872 7.06117 20.8965 7.06594 20.8106 7.06594C14.5022 7.06594 8.18918 7.06594 1.88085 7.06594C1.59932 7.06594 1.33209 7.04208 1.10305 6.85121C0.525657 6.37403 0.64968 5.51511 1.35591 5.19062C2.21006 4.79933 3.06899 4.41759 3.92792 4.03107C6.21839 3.00036 8.51365 1.96965 10.8089 0.93894C10.933 0.881679 11.057 0.838734 11.1859 0.791016C11.2956 0.791016 11.4054 0.791016 11.5151 0.791016C11.9637 0.848277 12.3407 1.09164 12.7415 1.2682C14.0919 1.86944 15.4375 2.47546 16.7832 3.08148C17.9714 3.62069 19.1643 4.15037 20.3477 4.68958C20.6627 4.83274 20.9776 4.97589 21.2925 5.11427C21.6552 5.27174 21.9224 5.50079 21.9558 5.92548V6.34063L21.9463 6.3454Z" fill="#33669A"/>
<path d="M21.9462 21.2576C21.8746 21.2862 21.889 21.3578 21.8651 21.4103C21.6886 21.7777 21.3974 21.9781 20.9918 22.002C20.9584 22.002 20.9251 22.002 20.8869 22.002C14.5213 22.002 8.15569 22.002 1.79487 22.002C1.30338 22.002 0.931184 21.7634 0.78803 21.3578C0.573299 20.7374 0.997978 20.1171 1.6708 20.0646C1.75192 20.0598 1.83783 20.0646 1.91895 20.0646C8.17956 20.0646 14.4402 20.0646 20.7008 20.0646C21.4452 20.0646 21.6838 20.2221 21.9462 20.8901V21.2623V21.2576Z" fill="#33669A"/>
<path d="M19.7654 17.5724C19.5745 17.5724 19.5316 17.5199 19.5316 17.3338C19.5363 14.5996 19.5363 11.8653 19.5316 9.13587C19.5316 8.98317 19.5315 8.88297 19.7415 8.89728C19.961 8.90682 20.1375 8.79707 20.2187 8.57279C20.2807 8.39624 20.2425 8.22923 20.1185 8.09084C19.9801 7.93815 19.7987 7.92383 19.6079 7.92383C15.3991 7.92383 11.1856 7.92383 6.97691 7.92383C5.65034 7.92383 4.32857 7.92383 3.00201 7.92383C2.65844 7.92383 2.4389 8.10516 2.42936 8.38669C2.41982 8.67777 2.61551 8.88773 2.9543 8.8925C3.13086 8.8925 3.14513 8.95931 3.14513 9.10723C3.14513 11.8558 3.14513 14.5996 3.14513 17.3481C3.14513 17.3815 3.14513 17.4197 3.14513 17.4531C3.15467 17.5486 3.11173 17.5724 3.02584 17.5677C2.97335 17.5677 2.9161 17.5677 2.85883 17.5677C2.13829 17.6058 1.71364 18.3693 2.06676 18.9992C2.28626 19.3857 2.63935 19.5002 3.05927 19.5002C5.8126 19.5002 8.56591 19.5002 11.324 19.5002C14.0821 19.5002 16.8164 19.5002 19.5649 19.5002C19.6604 19.5002 19.7558 19.5002 19.856 19.4859C20.3857 19.4191 20.7674 18.9944 20.7436 18.4982C20.7197 17.9733 20.3189 17.5772 19.7749 17.5724H19.7654ZM7.74994 17.5724C6.91964 17.5629 6.09414 17.5629 5.26384 17.5724C5.1016 17.5724 5.07296 17.5295 5.07296 17.3768C5.07773 14.6139 5.07773 11.8558 5.07296 9.09292C5.07296 8.93545 5.11115 8.90205 5.26384 8.90205C6.09891 8.91159 6.93398 8.91159 7.76904 8.90205C7.91697 8.90205 7.95037 8.94023 7.95037 9.08338C7.9456 10.472 7.95037 11.8606 7.95037 13.2444C7.95037 14.6282 7.95037 15.993 7.95037 17.3672C7.95037 17.5295 7.91217 17.5724 7.74516 17.5724H7.74994ZM12.579 17.5724C11.7439 17.5677 10.9089 17.5629 10.0738 17.5724C9.91633 17.5724 9.88298 17.5295 9.88298 17.3768C9.88775 15.9882 9.88298 14.6044 9.88298 13.2158C9.88298 11.8272 9.88298 10.4815 9.88298 9.11678C9.88298 8.95454 9.9068 8.89728 10.0881 8.89728C10.9232 8.90682 11.7583 8.90682 12.5933 8.89728C12.7365 8.89728 12.7794 8.93068 12.7794 9.0786C12.7794 11.8463 12.7747 14.6139 12.7794 17.3816C12.7794 17.5486 12.7222 17.5677 12.579 17.5677V17.5724ZM17.599 17.3529C17.599 17.5152 17.5751 17.5772 17.389 17.5724C16.554 17.5629 15.7189 17.5629 14.8838 17.5724C14.7502 17.5724 14.7073 17.5438 14.7073 17.4006C14.7073 14.6234 14.7073 11.851 14.7073 9.07384C14.7073 8.94022 14.7359 8.89728 14.879 8.89728C15.7189 8.90205 16.5635 8.90682 17.4033 8.89728C17.556 8.89728 17.5989 8.93068 17.5942 9.08815C17.5846 10.4767 17.5942 11.8653 17.5942 13.2492C17.5942 14.633 17.5942 15.9834 17.5942 17.3481L17.599 17.3529Z" fill="#33669A"/>
<path d="M34.2003 17.009H31.905L28.2021 10.5718H28.1496C28.1639 10.8391 28.1783 11.111 28.1926 11.383C28.2021 11.655 28.2164 11.927 28.226 12.1942C28.2355 12.4615 28.2498 12.7335 28.2594 13.0054V17.009H26.6465V8.49609H28.9226L32.6208 14.8712H32.6638C32.6542 14.6088 32.6447 14.3463 32.6351 14.0839C32.6256 13.8214 32.6113 13.5638 32.6017 13.3061C32.5922 13.0484 32.5826 12.7859 32.5779 12.5283V8.50086H34.2003V17.0138V17.009Z" fill="#33669A"/>
<path d="M38.8862 10.375C39.4874 10.375 40.0076 10.4895 40.4418 10.7233C40.876 10.9524 41.21 11.2912 41.4486 11.7254C41.6872 12.1644 41.8017 12.6989 41.8017 13.3335V14.1972H37.6026C37.6217 14.6983 37.7743 15.0895 38.0559 15.3759C38.3374 15.6622 38.7287 15.8053 39.2298 15.8053C39.6449 15.8053 40.0266 15.7624 40.3702 15.6765C40.7138 15.5906 41.0717 15.4617 41.4344 15.29V16.6642C41.1146 16.8217 40.7759 16.941 40.4227 17.0126C40.0696 17.0889 39.6449 17.1223 39.1439 17.1223C38.4901 17.1223 37.9127 17.003 37.4117 16.7597C36.9107 16.5211 36.5146 16.1537 36.2283 15.6574C35.942 15.1659 35.7988 14.5456 35.7988 13.7964C35.7988 13.0472 35.9277 12.403 36.1854 11.8972C36.443 11.3914 36.8009 11.0097 37.2637 10.7567C37.7266 10.5038 38.2611 10.375 38.8766 10.375H38.8862ZM38.8957 11.6395C38.5522 11.6395 38.2659 11.7493 38.0368 11.9688C37.8078 12.1883 37.6789 12.5366 37.6455 13.009H40.1364C40.1364 12.7466 40.0839 12.508 39.9933 12.3028C39.9026 12.0976 39.7642 11.9354 39.5877 11.8113C39.4063 11.692 39.1773 11.63 38.8957 11.63V11.6395Z" fill="#33669A"/>
<path d="M45.9865 15.7099C46.1822 15.7099 46.3683 15.6908 46.5544 15.6526C46.7405 15.6144 46.9218 15.5667 47.1032 15.5095V16.8312C46.9123 16.9171 46.6784 16.9887 46.3969 17.0412C46.1154 17.0937 45.81 17.1271 45.476 17.1271C45.0895 17.1271 44.7411 17.0651 44.4309 16.9362C44.1207 16.8122 43.8774 16.5927 43.7009 16.2777C43.5243 15.9675 43.4336 15.5285 43.4336 14.9702V11.8304H42.5842V11.0812L43.5625 10.4895L44.073 9.11523H45.2087V10.4991H47.0316V11.8304H45.2087V14.9702C45.2087 15.2184 45.2803 15.4045 45.4187 15.5285C45.5571 15.6526 45.7479 15.7099 45.9818 15.7099H45.9865Z" fill="#33669A"/>
<path d="M48.5586 8.495H51.207C52.3427 8.495 53.1968 8.65247 53.779 8.97218C54.3611 9.2919 54.6522 9.85019 54.6522 10.6471C54.6522 10.9716 54.5997 11.2626 54.4995 11.5203C54.3945 11.7828 54.2466 11.9927 54.0557 12.1597C53.8601 12.3268 53.6263 12.4365 53.3447 12.4842V12.5415C53.6263 12.5988 53.8839 12.699 54.113 12.8421C54.342 12.9853 54.5234 13.1905 54.6618 13.4577C54.8001 13.7249 54.8669 14.0876 54.8669 14.5313C54.8669 15.0467 54.7429 15.4905 54.49 15.8579C54.2371 16.2253 53.8792 16.5116 53.4115 16.7073C52.9439 16.9029 52.3904 17.0031 51.7462 17.0031H48.5634V8.49023L48.5586 8.495ZM50.3624 11.8639H51.4121C51.937 11.8639 52.2997 11.7828 52.5001 11.6158C52.7005 11.4487 52.8007 11.2054 52.8007 10.8857C52.8007 10.566 52.6814 10.3274 52.4429 10.1842C52.2043 10.0411 51.8273 9.96949 51.3119 9.96949H50.3624V11.8591V11.8639ZM50.3624 13.2954V15.5143H51.5362C52.0802 15.5143 52.4572 15.4094 52.6719 15.1994C52.8866 14.9894 52.9916 14.7079 52.9916 14.3548C52.9916 14.1448 52.9439 13.9587 52.8532 13.8012C52.7626 13.6438 52.6051 13.5197 52.3856 13.429C52.1661 13.3384 51.8655 13.2954 51.4789 13.2954H50.3624Z" fill="#33669A"/>
<path d="M59.0947 10.3652C59.9679 10.3652 60.636 10.5561 61.1036 10.9378C61.5713 11.3196 61.8003 11.897 61.8003 12.67V17.0076H60.5597L60.2161 16.1248H60.1683C59.9822 16.3586 59.7914 16.5495 59.5957 16.6926C59.4001 16.8406 59.1806 16.9503 58.9277 17.0171C58.6748 17.0887 58.3694 17.1221 58.0067 17.1221C57.6202 17.1221 57.2766 17.0505 56.9712 16.9026C56.6658 16.7547 56.4273 16.5304 56.2507 16.225C56.0741 15.9196 55.9883 15.5331 55.9883 15.0655C55.9883 14.3736 56.2316 13.863 56.7183 13.5385C57.205 13.2092 57.9304 13.0279 58.9038 12.9945L60.0348 12.9611V12.6748C60.0348 12.3312 59.9441 12.0831 59.7675 11.9256C59.591 11.7681 59.3429 11.687 59.0231 11.687C58.7034 11.687 58.398 11.73 58.0974 11.8206C57.7968 11.9113 57.4914 12.021 57.1907 12.1594L56.6038 10.9617C56.9474 10.7804 57.3387 10.6372 57.7634 10.5323C58.1928 10.4273 58.6366 10.3748 59.0947 10.3748V10.3652ZM60.0395 13.9918L59.3524 14.0157C58.7798 14.03 58.3789 14.135 58.1546 14.3258C57.9304 14.5167 57.8206 14.7648 57.8206 15.075C57.8206 15.347 57.9018 15.5379 58.0592 15.6524C58.2167 15.7669 58.4266 15.8242 58.6843 15.8242C59.066 15.8242 59.3858 15.7097 59.6482 15.4854C59.9107 15.2611 60.0395 14.9414 60.0395 14.5263V13.9918Z" fill="#33669A"/>
<path d="M67.331 10.3748C68.0276 10.3748 68.586 10.5657 69.0059 10.9426C69.4258 11.3196 69.6406 11.9256 69.6406 12.7607V17.0028H67.8654V13.1997C67.8654 12.7321 67.7796 12.3837 67.6125 12.1451C67.4455 11.9065 67.1783 11.792 66.8156 11.792C66.2716 11.792 65.8995 11.9781 65.7038 12.3455C65.5082 12.713 65.408 13.2474 65.408 13.9393V17.0028H63.6328V10.4941H64.988L65.2266 11.3244H65.3268C65.4652 11.1001 65.6418 10.9188 65.8469 10.7756C66.0569 10.6372 66.286 10.5323 66.5389 10.4654C66.7918 10.3986 67.0542 10.3652 67.3262 10.3652L67.331 10.3748Z" fill="#33669A"/>
<path d="M73.2432 7.95117V12.0024C73.2432 12.2458 73.2337 12.4939 73.2146 12.7373C73.1955 12.9807 73.1717 13.2288 73.1526 13.4721H73.1764C73.2957 13.3004 73.4198 13.1334 73.5438 12.9663C73.6679 12.7993 73.8063 12.6371 73.9494 12.4844L75.7723 10.5041H77.7764L75.1902 13.329L77.9339 17.0128H75.8868L74.0115 14.374L73.248 14.9848V17.0128H71.4729V7.95594H73.248L73.2432 7.95117Z" fill="#33669A"/>
<path d="M79.752 7.95117C80.0144 7.95117 80.2435 8.01321 80.4344 8.1325C80.6253 8.25657 80.7207 8.48084 80.7207 8.81487C80.7207 9.14889 80.6253 9.37317 80.4344 9.49724C80.2435 9.62131 80.0192 9.68811 79.752 9.68811C79.4848 9.68811 79.2558 9.62608 79.0697 9.49724C78.8836 9.3684 78.7881 9.14412 78.7881 8.81487C78.7881 8.48561 78.8836 8.2518 79.0697 8.1325C79.2558 8.00844 79.4848 7.95117 79.752 7.95117ZM80.6395 10.4993V17.0081H78.8645V10.4993H80.6395Z" fill="#33669A"/>
<path d="M86.1986 10.3748C86.8953 10.3748 87.4536 10.5657 87.8735 10.9426C88.2935 11.3196 88.5082 11.9256 88.5082 12.7607V17.0028H86.7331V13.1997C86.7331 12.7321 86.6472 12.3837 86.4802 12.1451C86.3131 11.9065 86.046 11.792 85.6833 11.792C85.1393 11.792 84.7671 11.9781 84.5714 12.3455C84.3758 12.713 84.2756 13.2474 84.2756 13.9393V17.0028H82.5005V10.4941H83.8557L84.0943 11.3244H84.1945C84.3329 11.1001 84.5094 10.9188 84.7146 10.7756C84.9246 10.6372 85.1536 10.5323 85.4065 10.4654C85.6594 10.3986 85.9219 10.3652 86.1939 10.3652L86.1986 10.3748Z" fill="#33669A"/>
<path d="M92.2398 19.8709C91.3331 19.8709 90.6364 19.7134 90.1593 19.3985C89.6821 19.0835 89.4387 18.6398 89.4387 18.0672C89.4387 17.6759 89.5628 17.3466 89.8062 17.0842C90.0495 16.8217 90.4122 16.6308 90.8846 16.5211C90.7033 16.4447 90.541 16.3159 90.4074 16.1393C90.2738 15.9628 90.2022 15.7767 90.2022 15.5763C90.2022 15.3281 90.2738 15.1229 90.4169 14.9559C90.5601 14.7937 90.77 14.6267 91.042 14.4692C90.6985 14.3213 90.4312 14.0827 90.2308 13.7582C90.0304 13.4337 89.9302 13.0472 89.9302 12.6034C89.9302 12.131 90.0352 11.7254 90.2404 11.3962C90.4503 11.0621 90.7509 10.8092 91.147 10.6375C91.5431 10.4657 92.0298 10.375 92.5977 10.375C92.7169 10.375 92.8553 10.3845 93.0176 10.3989C93.175 10.4132 93.3229 10.4323 93.4565 10.4514C93.5902 10.4704 93.6809 10.4847 93.7286 10.4991H96V11.4009L94.9836 11.6634C95.0742 11.8065 95.1458 11.9592 95.1935 12.1215C95.2412 12.2837 95.2651 12.4555 95.2651 12.6416C95.2651 13.3383 95.0217 13.8823 94.535 14.2736C94.0483 14.6649 93.3707 14.8605 92.507 14.8605C92.3018 14.851 92.1061 14.8319 91.9248 14.8128C91.8341 14.8844 91.7674 14.9559 91.7197 15.0323C91.6719 15.1086 91.6481 15.1897 91.6481 15.2756C91.6481 15.3615 91.6862 15.4331 91.7578 15.4856C91.8294 15.5381 91.9391 15.5858 92.0823 15.6144C92.2254 15.6431 92.4115 15.6574 92.6263 15.6574H93.7333C94.4491 15.6574 94.9931 15.8101 95.3653 16.1155C95.7422 16.4209 95.9284 16.8742 95.9284 17.4659C95.9284 18.2246 95.6087 18.8163 94.974 19.2362C94.3394 19.6562 93.4279 19.8661 92.2398 19.8661V19.8709ZM92.3161 18.7113C92.7408 18.7113 93.1034 18.6732 93.4088 18.5921C93.7142 18.5109 93.948 18.4012 94.1103 18.2533C94.2725 18.1053 94.3536 17.9335 94.3536 17.7331C94.3536 17.5709 94.306 17.442 94.2105 17.3466C94.1151 17.2512 93.9719 17.1844 93.7811 17.1462C93.5902 17.108 93.342 17.0889 93.0462 17.0889H92.1253C91.9057 17.0889 91.7149 17.1223 91.5383 17.1939C91.3665 17.2655 91.2281 17.3609 91.1279 17.4898C91.0277 17.6186 90.9752 17.7618 90.9752 17.9288C90.9752 18.1721 91.0897 18.363 91.3283 18.5062C91.5622 18.6445 91.8914 18.7161 92.3161 18.7161V18.7113ZM92.6024 13.7725C92.9365 13.7725 93.1798 13.6675 93.3372 13.4624C93.4947 13.2572 93.5711 12.9756 93.5711 12.6225C93.5711 12.2312 93.49 11.9354 93.3278 11.7397C93.1655 11.5441 92.9269 11.4439 92.6024 11.4439C92.2779 11.4439 92.0346 11.5393 91.8676 11.7397C91.7053 11.9354 91.6242 12.2312 91.6242 12.6225C91.6242 12.9756 91.7053 13.2572 91.8676 13.4624C92.0298 13.6675 92.2732 13.7725 92.6024 13.7725Z" fill="#33669A"/>
</svg>
