<svg width="80" height="21" viewBox="0 0 80 21" fill="none" xmlns="http://www.w3.org/2000/svg">
<path d="M74.9269 1.54102L79.4076 10.4357L69.988 19.3351L74.9269 1.54102Z" fill="#23A94A"/>
<path d="M71.8251 1.54102L76.2962 10.4357L66.8862 19.3351L71.8251 1.54102Z" fill="#F99C1C"/>
<path d="M0 16.0983L4.46641 0.0078125H11.605C13.8382 0.0078125 15.327 0.360928 16.0858 1.09101C16.8397 1.81156 16.9829 2.99019 16.5295 4.65078C16.2528 5.629 15.8376 6.44498 15.265 7.09395C14.6972 7.74291 13.948 8.2535 13.0223 8.63047C13.8048 8.81657 14.3059 9.19354 14.5254 9.75184C14.7497 10.3149 14.721 11.1309 14.4538 12.2045L13.9098 14.4521V14.5141C13.7523 15.144 13.8001 15.4828 14.053 15.5066L13.8907 16.1031H9.06166C9.07598 15.7261 9.10938 15.3873 9.13801 15.101C9.17141 14.81 9.21436 14.5857 9.25731 14.4282L9.70586 12.8201C9.9349 11.9851 9.94922 11.4029 9.73449 11.0641C9.51975 10.7205 9.04735 10.5487 8.2934 10.5487H6.26538L4.71932 16.0983H0ZM7.27701 6.92216H9.45295C10.2164 6.92216 10.7795 6.81241 11.1231 6.58814C11.4714 6.35909 11.7291 5.97734 11.8818 5.42381C12.0393 4.86074 12.0011 4.46468 11.7768 4.24518C11.5525 4.01613 11.0133 3.90638 10.1687 3.90638H8.11684L7.28178 6.92216H7.27701Z" fill="#29387E"/>
<path d="M29.7905 4.22656L26.4979 16.1036H22.4944L22.9859 14.3619C22.2797 15.0538 21.5591 15.5787 20.8338 15.9127C20.1133 16.2563 19.3546 16.4233 18.5529 16.4233C17.8896 16.4233 17.3218 16.304 16.8637 16.0654C16.4008 15.8268 16.0572 15.4689 15.8234 14.9918C15.6182 14.5766 15.5276 14.0613 15.561 13.4457C15.5991 12.8397 15.8139 11.8185 16.2099 10.3917L17.9182 4.23133H22.294L20.5905 10.3631C20.3423 11.2602 20.2803 11.8901 20.4044 12.2337C20.5284 12.582 20.8672 12.7586 21.416 12.7586C21.9647 12.7586 22.4324 12.5581 22.8141 12.1525C23.2006 11.7469 23.5013 11.1457 23.7255 10.344L25.4147 4.22656H29.7857H29.7905Z" fill="#29387E"/>
<path d="M28.2014 16.0983L32.6631 0.0078125H38.7996C40.1548 0.0078125 41.1998 0.0889336 41.949 0.265491C42.6934 0.432504 43.2803 0.704498 43.7146 1.09101C44.2585 1.59683 44.5926 2.21716 44.731 2.96633C44.8598 3.71551 44.7834 4.58398 44.5019 5.60514C44.0009 7.40411 43.1276 8.78317 41.8774 9.74707C40.6272 10.6967 39.0764 11.1738 37.2249 11.1738H34.3523L32.9875 16.0983H28.2014ZM35.4402 7.24187H36.9815C37.9788 7.24187 38.6803 7.1178 39.0907 6.87921C39.4867 6.63585 39.773 6.21116 39.9448 5.60037C40.1166 4.98481 40.0737 4.55057 39.8112 4.31198C39.5583 4.07339 38.9189 3.94933 37.893 3.94933H36.3517L35.4355 7.2371L35.4402 7.24187Z" fill="#29387E"/>
<path d="M49.6554 16.0999L49.6984 14.9738C48.9921 15.5034 48.2764 15.8995 47.5606 16.1524C46.8448 16.4053 46.0813 16.5341 45.2654 16.5341C44.0247 16.5341 43.161 16.1953 42.66 15.5464C42.1685 14.8926 42.0873 13.9574 42.4214 12.7596C42.7458 11.581 43.3185 10.7078 44.144 10.1542C44.9647 9.59116 46.339 9.19032 48.2668 8.93265C48.5102 8.89447 48.8394 8.86107 49.2498 8.81335C50.6766 8.64634 51.4735 8.26936 51.65 7.64903C51.7407 7.31023 51.6834 7.05733 51.4735 6.90463C51.2683 6.74716 50.8913 6.66604 50.3426 6.66604C49.8892 6.66604 49.5218 6.76147 49.2212 6.95712C48.9206 7.15753 48.6963 7.44385 48.5436 7.84945H44.2776C44.6641 6.51335 45.4515 5.50172 46.6301 4.82889C47.8087 4.14175 49.3596 3.8125 51.2826 3.8125C52.1892 3.8125 52.9957 3.89839 53.7115 4.07972C54.4272 4.25628 54.9521 4.50441 55.2909 4.80981C55.7108 5.18678 55.959 5.62101 56.0258 6.09819C56.1069 6.57537 56.0162 7.25774 55.7681 8.15007L53.931 14.7686C53.8737 14.9833 53.8594 15.1789 53.8928 15.3555C53.931 15.5225 54.0025 15.6657 54.1361 15.7706L54.0359 16.1047H49.6411L49.6554 16.0999ZM50.7195 10.7984C50.2567 10.9845 49.6506 11.1659 48.9015 11.3615C47.7228 11.6764 47.0596 12.1011 46.9164 12.6213C46.8162 12.9553 46.8591 13.2177 47.0214 13.4134C47.1836 13.5995 47.4652 13.6949 47.8612 13.6949C48.5865 13.6949 49.1735 13.5136 49.6077 13.1509C50.0419 12.7835 50.3712 12.2061 50.5955 11.4092C50.6336 11.2422 50.6718 11.1181 50.6909 11.0275L50.7195 10.7984Z" fill="#29387E"/>
<path d="M54.0835 20.78L55.0569 17.2631H56.3072C56.7271 17.2631 57.0563 17.182 57.2902 17.0293C57.5287 16.8718 57.6862 16.6094 57.7816 16.2563C57.8294 16.0988 57.858 15.9366 57.8771 15.7505C57.8914 15.5501 57.8914 15.3449 57.8771 15.1015L57.209 4.22656H61.6373L61.5705 11.432L65.4404 4.22656H69.5585L62.7205 16.0463C61.9427 17.3681 61.3796 18.2748 61.0217 18.771C60.6686 19.2578 60.3346 19.6395 60.0053 19.8972C59.5854 20.2551 59.113 20.5032 58.6024 20.6511C58.0918 20.799 57.3188 20.8754 56.2738 20.8754C55.9731 20.8754 55.6296 20.8706 55.2526 20.8515C54.8804 20.8372 54.4843 20.8134 54.0835 20.7847" fill="#29387E"/>
</svg>
