<svg width="91" height="29" viewBox="0 0 91 29" fill="none" xmlns="http://www.w3.org/2000/svg">
<path d="M90.4195 9.017C89.6036 6.67881 87.3751 5.00391 84.7602 5.00391H84.7077C83.0089 5.00391 81.4724 5.71013 80.3844 6.84582C79.2917 5.71013 77.76 5.00391 76.0612 5.00391H76.0087C74.5151 5.00391 73.1456 5.55266 72.0958 6.45931V5.99644C72.0576 5.53835 71.6807 5.17569 71.2178 5.17569H67.2047C66.7132 5.17569 66.3171 5.57175 66.3171 6.06325V27.8561C66.3171 28.3476 66.7132 28.7436 67.2047 28.7436H71.2178C71.6663 28.7436 72.0338 28.4096 72.091 27.9754V12.3334C72.091 12.2809 72.091 12.2284 72.0958 12.1759C72.1579 11.4792 72.6732 10.9019 73.4796 10.8303H74.2192C74.558 10.8589 74.8444 10.9782 75.0686 11.1595C75.417 11.4363 75.6126 11.8658 75.6126 12.3334L75.6269 27.899C75.6269 28.3905 76.023 28.7914 76.5145 28.7914H80.5276C81 28.7914 81.3865 28.4144 81.4104 27.942V12.3095C81.4104 11.7942 81.6442 11.3313 82.0594 11.0546C82.2645 10.9209 82.5127 10.8351 82.799 10.8064H83.5386C84.4071 10.8828 84.932 11.5413 84.932 12.3048L84.9463 27.8513C84.9463 28.3428 85.3423 28.7389 85.8338 28.7389H89.8469C90.3336 28.7389 90.7345 28.3428 90.7345 27.8513V11.1404C90.7345 9.99999 90.6056 9.51326 90.4291 9.017" fill="#21BAED"/>
<path d="M63.2536 5.2333H60.9583V1.51606V1.50652C60.9583 1.05797 60.5957 0.695312 60.1471 0.695312C60.0946 0.695312 60.0421 0.704856 59.9944 0.7144C57.451 1.41108 57.9616 4.93745 53.3139 5.23807H52.8606C52.7938 5.23807 52.727 5.24762 52.6649 5.26193C52.2689 5.3526 51.9683 5.70571 51.9683 6.12563V10.1387C51.9683 10.6254 52.3643 11.0263 52.8558 11.0263H55.2751V28.0425C55.2751 28.5293 55.6616 28.9205 56.1483 28.9205H60.1137C60.5957 28.9205 60.9917 28.5293 60.9917 28.0425V11.0215H63.2393C63.726 11.0215 64.1268 10.6254 64.1268 10.1339V6.12086C64.1268 5.63413 63.7308 5.2333 63.2393 5.2333" fill="#21BAED"/>
<path d="M48.8188 5.23242H44.8058C44.319 5.23242 43.9182 5.62848 43.9182 6.11998V14.4181C43.9086 14.9335 43.4935 15.3439 42.9782 15.3439H41.2985C40.7783 15.3439 40.3584 14.924 40.3584 14.4038L40.3441 6.11998C40.3441 5.63325 39.9481 5.23242 39.4566 5.23242H35.4435C34.952 5.23242 34.5559 5.62848 34.5559 6.11998V15.215C34.5559 18.6698 37.0182 21.1321 40.473 21.1321C40.473 21.1321 43.064 21.1321 43.1452 21.1464C43.6128 21.1989 43.9755 21.5902 43.9755 22.0769C43.9755 22.5636 43.6176 22.9454 43.1547 23.0026C43.1309 23.0026 43.1118 23.0122 43.0879 23.0169L37.2186 23.036C36.7271 23.036 36.331 23.4321 36.331 23.9236V27.9367C36.331 28.4282 36.7271 28.8242 37.2186 28.8242H43.7798C47.2394 28.8242 49.6969 26.362 49.6969 22.9072V6.11998C49.6969 5.63325 49.3008 5.23242 48.8093 5.23242" fill="#223469"/>
<path d="M9.97638 12.5866V15.0632C9.97638 15.5833 9.55644 16.0033 9.03631 16.0033H6.48819V11.0453H9.03631C9.55644 11.0453 9.97638 11.4653 9.97638 11.9854V12.5866ZM10.3295 5.23329H1.5589C1.07695 5.23329 0.69043 5.62458 0.69043 6.10176V10.0337C0.69043 10.0337 0.69043 10.048 0.69043 10.0576C0.69043 10.0767 0.69043 10.0958 0.69043 10.1101V27.9041C0.69043 28.3861 1.05309 28.7822 1.50164 28.7917H5.59108C6.07781 28.7917 6.47863 28.3956 6.47863 27.9041L6.49293 21.8058H10.3343C13.5457 21.8058 15.7837 19.5773 15.7837 16.3516V10.6922C15.7837 7.46649 13.5457 5.22852 10.3343 5.22852" fill="#223469"/>
<path d="M26.6251 22.0069V22.632C26.6251 22.6845 26.6156 22.7322 26.6108 22.7799C26.6013 22.8228 26.587 22.8706 26.5727 22.9087C26.4486 23.2618 26.0955 23.5147 25.6803 23.5147H24.0102C23.4901 23.5147 23.0654 23.1187 23.0654 22.632V21.8732C23.0654 21.8732 23.0654 21.8542 23.0654 21.8446V19.8309V19.2058C23.0654 18.7143 23.4901 18.323 24.0102 18.323H25.6803C26.2052 18.323 26.6251 18.7191 26.6251 19.2058V22.0069ZM25.9857 5.25781H20.417C19.9255 5.25781 19.5247 5.63001 19.5247 6.08811V7.64849C19.5247 7.64849 19.5247 7.66757 19.5247 7.67712C19.5247 7.68666 19.5247 7.70098 19.5247 7.71052V9.84829C19.5247 10.335 19.9494 10.7311 20.4695 10.7311H25.771C26.1909 10.7979 26.5202 11.1033 26.5679 11.5805V12.0958C26.5202 12.5491 26.1909 12.8832 25.7901 12.9213H23.1656C19.6726 12.9213 17.1865 15.2404 17.1865 18.4996V23.1664C17.1865 26.4065 19.3243 28.7112 22.7934 28.7112H30.0704C31.3779 28.7112 32.4372 27.7235 32.4372 26.5067V11.2798C32.4372 7.58645 30.5333 5.25781 25.9857 5.25781Z" fill="#223469"/>
</svg>
