<?xml version="1.0" encoding="utf-8"?>
<!-- Generator: Adobe Illustrator 27.1.1, SVG Export Plug-In . SVG Version: 6.00 Build 0)  -->
<svg version="1.1" id="Layer_1" xmlns="http://www.w3.org/2000/svg" xmlns:xlink="http://www.w3.org/1999/xlink" x="0px" y="0px"
	 viewBox="0 0 497 500" style="enable-background:new 0 0 497 500;" xml:space="preserve">
<style type="text/css">
	.st0{fill:#FFFFFF;}
</style>
<g>
	<g>
		<path class="st0" d="M-319.5,557.2c-66,0-128.1-25.7-174.8-72.4S-566.7,376-566.7,310s25.7-128.1,72.4-174.8
			s108.8-72.4,174.8-72.4s128.1,25.7,174.8,72.4S-72.3,244-72.3,310S-98,438.1-144.7,484.8S-253.5,557.2-319.5,557.2z M-319.5,74.8
			c-129.7,0-235.2,105.5-235.2,235.2s105.5,235.2,235.2,235.2S-84.3,439.7-84.3,310S-189.8,74.8-319.5,74.8z"/>
	</g>
	<path class="st0" d="M-319.5,110.2c-110.4,0-199.8,89.4-199.8,199.8s89.5,199.8,199.8,199.8s199.8-89.4,199.8-199.8
		S-209.1,110.2-319.5,110.2z M-193.9,274.3c-3.2,2.3-6.4,4.6-9.6,7c-21,15.3-42.1,30.6-63.1,45.9c0.9,2.7,1.7,5.4,2.6,8
		c8.5,26.1,16.9,52.1,25.4,78.2c1.3,4-3.8,8.2-7.3,5.6c-3.2-2.3-6.4-4.6-9.6-7c-21.3-15.5-42.6-31-64-46.5c-2.3,1.7-4.7,3.4-7,5.1
		c-22.2,16.1-44.3,32.2-66.5,48.3c-3.6,2.6-8.6-1.7-7.3-5.6c1.2-3.7,2.4-7.5,3.7-11.2c8.1-25,16.2-50,24.4-74.9
		c-2.1-1.5-4.2-3-6.2-4.5c-22.2-16.1-44.3-32.2-66.5-48.3c-3.8-2.8-2.8-9.3,2.5-9.3c3.9,0,7.9,0,11.8,0c26.2,0,52.4,0,78.6,0
		c0.8-2.5,1.6-5.1,2.5-7.6c8.4-25.8,16.8-51.6,25.1-77.4c0.1-1.8,1.3-3.1,2.8-3.8c0.7-0.3,1.4-0.5,2.2-0.5h0.1c0.1,0,0.2,0,0.2,0
		c0.7,0,1.4,0.2,2.1,0.5c1.5,0.7,2.7,2,2.8,3.8c1.1,3.5,2.3,7,3.4,10.5c8.1,24.8,16.1,49.7,24.2,74.5c2.7,0,5.5,0,8.2,0
		c27.4,0,54.8,0,82.2,0C-191.1,265-190.1,271.6-193.9,274.3z M-160.8,277.4c-3.4-16.1-9.1-31.7-17.1-46.1
		c-28.5-51.1-83.2-83-141.6-83.3c-6.4,0-6.4-10,0-10c17.8,0.1,35.6,2.7,52.5,8.2c58.4,18.8,103.2,68.6,115.8,128.5
		C-149.8,281-159.5,283.7-160.8,277.4z M-157.7,317.3c0.4-9.6,0-19.1-1.2-28.6c-0.8-6.4,9.2-6.3,10,0c1.2,9.5,1.5,19,1.2,28.6
		C-147.9,323.7-157.9,323.8-157.7,317.3z"/>
</g>
</svg>
