<?xml version="1.0" encoding="UTF-8"?>
<svg id="Layer_2" data-name="Layer 2" xmlns="http://www.w3.org/2000/svg" viewBox="0 0 494.4 494.4">
  <defs>
    <style>
      .cls-1 {
        fill: #fff;
      }
    </style>
  </defs>
  <g id="Layer_1-2" data-name="Layer 1">
    <g>
      <path class="cls-1" d="m247.2,494.4c-66,0-128.1-25.7-174.8-72.4C25.7,375.3,0,313.2,0,247.2S25.7,119.1,72.4,72.4C119.1,25.7,181.2,0,247.2,0s128.1,25.7,174.8,72.4c46.7,46.7,72.4,108.8,72.4,174.8s-25.7,128.1-72.4,174.8-108.8,72.4-174.8,72.4Zm0-482.4C117.5,12,12,117.5,12,247.2s105.5,235.2,235.2,235.2,235.2-105.5,235.2-235.2S376.9,12,247.2,12Z"/>
      <path class="cls-1" d="m247.2,47.4c-110.4,0-199.8,89.4-199.8,199.8s89.5,199.8,199.8,199.8,199.8-89.4,199.8-199.8S357.6,47.4,247.2,47.4Zm125.6,164.1c-3.2,2.3-6.4,4.6-9.6,7-21,15.3-42.1,30.6-63.1,45.9.9,2.7,1.7,5.4,2.6,8,8.5,26.1,16.9,52.1,25.4,78.2,1.3,4-3.8,8.2-7.3,5.6-3.2-2.3-6.4-4.6-9.6-7-21.3-15.5-42.6-31-64-46.5-2.3,1.7-4.7,3.4-7,5.1-22.2,16.1-44.3,32.2-66.5,48.3-3.6,2.6-8.6-1.7-7.3-5.6,1.2-3.7,2.4-7.5,3.7-11.2,8.1-25,16.2-50,24.4-74.9-2.1-1.5-4.2-3-6.2-4.5-22.2-16.1-44.3-32.2-66.5-48.3-3.8-2.8-2.8-9.3,2.5-9.3h90.4c.8-2.5,1.6-5.1,2.5-7.6,8.4-25.8,16.8-51.6,25.1-77.4.1-1.8,1.3-3.1,2.8-3.8.7-.3,1.4-.5,2.2-.5h.3c.7,0,1.4.2,2.1.5,1.5.7,2.7,2,2.8,3.8,1.1,3.5,2.3,7,3.4,10.5,8.1,24.8,16.1,49.7,24.2,74.5h90.4c5.1-.1,6.1,6.5,2.3,9.2Zm33.1,3.1c-3.4-16.1-9.1-31.7-17.1-46.1-28.5-51.1-83.2-83-141.6-83.3-6.4,0-6.4-10,0-10,17.8.1,35.6,2.7,52.5,8.2,58.4,18.8,103.2,68.6,115.8,128.5,1.4,6.3-8.3,9-9.6,2.7Zm3.1,39.9c.4-9.6,0-19.1-1.2-28.6-.8-6.4,9.2-6.3,10,0,1.2,9.5,1.5,19,1.2,28.6-.2,6.4-10.2,6.5-10,0Z"/>
    </g>
  </g>
</svg>