<?xml version="1.0" encoding="utf-8"?>
<!-- Generator: Adobe Illustrator 27.1.0, SVG Export Plug-In . SVG Version: 6.00 Build 0)  -->
<svg version="1.1" id="Layer_1" xmlns="http://www.w3.org/2000/svg" xmlns:xlink="http://www.w3.org/1999/xlink" x="0px" y="0px"
	 viewBox="0 0 144 144" style="enable-background:new 0 0 144 144;" xml:space="preserve">
<style type="text/css">
	.st0{fill:#FFFFFF;}
</style>
<g>
	<path class="st0" d="M3.5,84c1.12-3.85,2.11-7.75,3.37-11.56c4.7-14.27,11.66-27.34,21.74-38.53
		C38.74,22.65,51.49,15.13,65.38,9.43c5.54-2.27,11.25-4,17.06-5.47c1.84-0.47,3.12-0.2,4.49,1.17
		c17.34,17.41,34.72,34.78,52.11,52.14c1.17,1.16,1.59,2.26,1.17,3.97c-4.41,18.3-12.23,34.91-24.81,48.99
		c-10.03,11.22-22.75,18.66-36.54,24.33c-5.54,2.28-11.25,4.01-17.05,5.5c-1.93,0.5-3.28,0.22-4.73-1.24
		c-17.26-17.35-34.59-34.65-51.89-51.96C4.41,86.07,3.45,85.36,3.5,84z M45.34,78.3c-1.46-0.04-2.48,0.54-3.27,1.77
		c-0.81,1.26-0.75,2.51,0.14,3.65c0.8,1.02,1.73,1.95,2.65,2.88c4.27,4.31,3.91,3.4-0.02,7.44c-0.33,0.33-0.68,0.65-0.96,1.02
		c-1.27,1.71-1.44,3.55,0.12,5.07c1.55,1.51,3.39,1.34,5.07,0.01c0.65-0.52,1.22-1.16,1.81-1.75c2.88-2.86,2.88-2.86,5.85,0.1
		c1.06,1.05,2.1,2.13,3.22,3.11c1.47,1.28,3.04,1.33,4.55,0.04c1.49-1.28,1.6-2.9,0.82-4.57c-0.3-0.65-0.87-1.21-1.38-1.74
		c-5.15-5.44-5.12-5.4,0.33-10.36c1.22-1.11,2.11-1.27,3.26,0c1.26,1.38,2.61,2.67,3.97,3.96c1.7,1.62,3.54,2.11,5.44,0.33
		c1.6-1.5,1.49-3.52-0.21-5.45c-0.19-0.21-0.39-0.4-0.58-0.6c-5.32-5.51-5.3-5.48,0.5-10.59c1.17-1.04,2.01-1.07,3.06,0.03
		c1.42,1.49,2.87,2.94,4.39,4.33c1.61,1.47,3.39,1.59,5.02,0.09c1.77-1.63,1.58-3.45,0.12-5.22c-0.3-0.36-0.63-0.68-0.96-1.02
		c-5.16-5.32-5.13-5.29,0.53-10.39c1.16-1.04,1.97-1.13,3.03,0.01c1.34,1.43,2.72,2.83,4.19,4.13c1.8,1.6,4.21,1.62,5.53,0.12
		c1.59-1.82,1.23-3.58-0.34-5.22c-0.58-0.61-1.18-1.2-1.77-1.8c-3.82-3.83-3.82-3.83-0.01-7.83c0.26-0.27,0.54-0.52,0.76-0.82
		c1.27-1.71,1.45-3.54-0.1-5.07c-1.54-1.52-3.36-1.32-5.08-0.05c-1.69,1.25-2.68,4.07-4.86,3.82c-2.13-0.25-3.29-2.84-4.98-4.3
		c-0.14-0.12-0.27-0.26-0.4-0.39c-1.69-1.64-3.48-2.22-5.4-0.42c-1.52,1.42-1.47,3.66,0.18,5.51c1.24,1.39,2.54,2.75,3.95,3.97
		c2.13,1.84,0.57,3.18-0.78,3.93c-1.99,1.11-2.44,5.73-6.12,3.05c-1.72-1.25-3.03-3.05-4.66-4.43c-1.56-1.32-3.29-1.32-4.78,0.18
		c-1.55,1.57-1.55,3.3-0.19,5.02c0.29,0.36,0.63,0.69,0.96,1.02c5.32,5.51,5.29,5.48-0.47,10.59c-1.16,1.03-1.99,1.11-3.06-0.01
		c-1.42-1.49-2.87-2.94-4.38-4.33c-1.6-1.48-3.39-1.6-5.02-0.11c-1.77,1.62-1.63,3.46-0.14,5.2c0.91,1.06,1.94,2.02,2.93,3.01
		c2.93,2.94,2.93,2.94,0.07,5.81c-4.08,4.09-4.07,4.08-8.16,0.04C48.46,79.82,47.38,78.29,45.34,78.3z"/>
	<path class="st0" d="M143.91,27.39c0.32,6.65-0.24,13.25-1.07,19.83c-0.09,0.73,0.04,1.67-0.81,1.93c-0.83,0.26-1.3-0.58-1.81-1.09
		c-14.74-14.72-29.47-29.45-44.19-44.2c-0.5-0.5-1.36-0.97-1.03-1.81c0.31-0.79,1.23-0.7,1.96-0.81c9.93-1.42,19.93-1.46,29.91-1.04
		c9.67,0.4,16.56,7.43,17.01,17.1C144.04,20.66,143.91,24.03,143.91,27.39z"/>
	<path class="st0" d="M26.92,143.98c-3.91-0.14-7.86,0.29-11.75-0.38c-8.63-1.48-14.49-7.72-14.9-16.43
		c-0.47-10.17-0.44-20.35,1-30.48c0.09-0.64-0.01-1.42,0.67-1.74c0.9-0.43,1.34,0.43,1.83,0.92c14.81,14.78,29.61,29.58,44.39,44.39
		c0.48,0.48,1.38,0.94,0.88,1.82c-0.41,0.72-1.29,0.62-2.03,0.72C40.35,143.65,33.66,144.2,26.92,143.98z"/>
</g>
</svg>
