<?xml version="1.0" encoding="utf-8"?>
<!-- Generator: Adobe Illustrator 23.1.0, SVG Export Plug-In . SVG Version: 6.00 Build 0)  -->
<svg version="1.1" id="Layer_1" xmlns="http://www.w3.org/2000/svg" xmlns:xlink="http://www.w3.org/1999/xlink" x="0px" y="0px"
	 viewBox="0 0 184 65" enable-background="new 0 0 184 65" xml:space="preserve">
<g>
	<path fill="#FFFFFF" d="M50.7,22.695c-1.477-0.491-2.897-1.142-4.409-1.54c-3.597-0.948-7.217-1.749-10.965-1.73
		c-1.28,0.007-2.553,0.105-3.796,0.453c-1.682,0.471-2.923,1.375-3.236,3.215c-1.085,0.005-2.13,0.292-3.187,0.477
		c-3.38,0.591-6.76,1.183-10.137,1.792c-0.261,0.047-0.523,0.082-0.778-0.033c-0.192-0.095-0.061-0.325-0.186-0.448
		c0-0.69,0-1.38,0-2.07c0.247-0.283,0.134-0.665,0.27-0.978c0.166-0.321,0.49-0.335,0.783-0.387
		c5.573-1.003,11.151-1.979,16.726-2.969c6.015-1.069,12.031-2.13,18.047-3.193c0.381-0.067,0.813-0.353,1.185,0.062
		c0.005,2.283,0.005,4.565-0.006,6.846C51.011,22.387,51.19,22.769,50.7,22.695z"/>
	<path fill="#FFFFFF" d="M14.133,25.245c1.197-0.037,2.352-0.349,3.524-0.549c2.921-0.498,5.839-1.014,8.758-1.524
		c0.516-0.09,1.036-0.166,1.547-0.283c0.217-0.05,0.306-0.003,0.333,0.203c-0.15,1.433,0.391,2.537,1.585,3.333
		c-0.058,0.433-0.444,0.355-0.701,0.403c-2.256,0.424-4.52,0.812-6.779,1.221c-2.519,0.456-5.047,0.859-7.556,1.367
		c-0.404-0.862-0.524-1.799-0.713-2.717c-0.019-0.094,0.008-0.205-0.124-0.237c0-0.284,0-0.568,0-0.852
		C14.127,25.516,14.01,25.339,14.133,25.245z"/>
	<path fill="#FFFFFF" d="M14.133,25.245c-0.01,0.133,0.023,0.281-0.126,0.365c0-0.243,0-0.487,0-0.73
		C14.15,24.967,14.122,25.113,14.133,25.245z"/>
	<path fill="#FFFFFF" d="M89.032,30.035c-1.137,2.462-2.549,4.767-4.076,7.003c-0.6,0.879-1.176,1.78-1.924,2.549
		c-1.595,0.158-3.16,0.501-4.734,0.779c-7.029,1.244-14.058,2.487-21.087,3.732c-0.322,0.057-0.686,0.186-0.94-0.18
		c-0.006-2.218-0.003-4.434-0.001-6.651c0.118-0.305,0.412-0.303,0.658-0.346c3.987-0.701,7.969-1.424,11.956-2.123
		c0.282-0.049,0.578,0.034,0.845-0.108c0.49-0.633,0.981-1.267,1.471-1.9c1.105-0.255,2.233-0.385,3.348-0.587
		c4.371-0.792,8.746-1.554,13.12-2.328c0.3-0.053,0.599-0.123,0.902-0.131C88.769,29.74,89.039,29.686,89.032,30.035z"/>
	<path fill="#FFFFFF" d="M48.495,32.679c2.906,2.644,4.338,5.945,4.407,9.853c-0.184,0.183-0.424,0.23-0.665,0.272
		c-4.599,0.799-9.192,1.632-13.791,2.431c-0.324,0.056-0.67,0.228-0.995-0.024c0.813-2.459-0.091-4.289-2.468-4.99
		c-0.803-0.237-1.631-0.31-2.462-0.372c-3.334-0.247-6.598-0.813-9.682-2.171c-0.184-0.081-0.358-0.183-0.537-0.275
		c0.027-0.41,0.371-0.375,0.629-0.423c2.413-0.449,4.831-0.87,7.248-1.298c5.752-1.02,11.505-2.031,17.255-3.062
		C47.796,32.556,48.152,32.467,48.495,32.679z"/>
	<path fill="#FFFFFF" d="M37.452,45.211c1.526-0.26,3.052-0.516,4.577-0.782c2.674-0.467,5.346-0.942,8.02-1.41
		c0.95-0.167,1.902-0.324,2.853-0.486c0.129,2.401-0.329,4.681-1.419,6.83c-1.163,0.379-2.381,0.495-3.576,0.707
		c-8.21,1.461-16.421,2.918-24.633,4.37c-2.498,0.441-4.994,0.891-7.493,1.325c-0.275,0.048-0.561,0.139-0.818-0.067
		c-0.092-1.333-0.011-2.667-0.043-4.001c-0.009-0.399,0.239-0.514,0.564-0.581c0.993-0.204,1.995-0.36,2.993-0.536
		c3.913-0.689,7.824-1.385,11.735-2.086c0.49-0.088,1.014,0.005,1.47-0.266c1.064-0.212,2.139-0.361,3.152-0.792
		C35.947,46.964,36.869,46.292,37.452,45.211z"/>
	<path fill="#FFFFFF" d="M94.277,35.59c0.508-5.645,3.102-9.877,8.452-12.121c3.968-1.664,8.155-2.057,12.421-1.741
		c0.288,0.021,0.541,0.05,0.539,0.476c-0.015,3.326-0.008,6.652-0.011,9.978c0,0.071-0.051,0.142-0.078,0.213
		c-0.078-0.071-0.134-0.161-0.141-0.262c-0.036-0.517-0.361-0.484-0.737-0.416c-1.775,0.322-3.553,0.629-5.329,0.948
		c-4.609,0.828-9.223,1.629-13.833,2.453C95.093,35.203,94.676,35.355,94.277,35.59z"/>
	<path fill="#FFFFFF" d="M15.009,55.681c1.33-0.223,2.661-0.439,3.99-0.669c2.678-0.464,5.355-0.933,8.032-1.406
		c2.359-0.417,4.717-0.846,7.076-1.264c2.676-0.474,5.354-0.938,8.03-1.413c2.121-0.376,4.238-0.782,6.363-1.135
		c0.991-0.165,1.963-0.472,2.984-0.431c-0.987,1.94-2.34,3.567-3.986,5.007c-2.734,2.392-5.989,3.548-9.465,4.217
		c-3.822,0.736-7.681,0.54-11.534,0.32c-2.817-0.161-5.612-0.529-8.384-1.045c-1.055-0.196-2.121-0.374-3.131-0.766
		C14.897,56.623,14.857,56.15,15.009,55.681z"/>
	<path fill="#FFFFFF" d="M50.94,15.264c-3.81,0.682-7.618,1.368-11.429,2.044c-3.514,0.623-7.03,1.229-10.544,1.85
		c-3.613,0.639-7.224,1.29-10.836,1.93c-1.289,0.228-2.592,0.381-3.854,0.745c0.354-2.033,1.08-3.914,2.294-5.595
		c1.671-0.329,3.352-0.596,5.028-0.895c6.875-1.228,13.755-2.433,20.63-3.665c1.439-0.258,2.878-0.518,4.32-0.753
		c0.479-0.078,0.927-0.279,1.414-0.309c0.389,0.125,0.778,0.25,1.166,0.376c0.352,0.221,0.757,0.273,1.151,0.359
		c0.227,0.098,0.453,0.196,0.68,0.293C51.046,12.852,51.082,14.058,50.94,15.264z"/>
	<path fill="#FFFFFF" d="M48.495,32.679c-1.118,0.022-2.191,0.337-3.283,0.517c-2.904,0.478-5.796,1.024-8.693,1.544
		c-3.81,0.684-7.619,1.371-11.429,2.05c-0.794,0.142-1.591,0.264-2.389,0.381c-0.175,0.026-0.313,0.072-0.398,0.232
		c-2.625-1.2-4.779-2.941-6.268-5.444c0.153-0.36,0.492-0.387,0.809-0.444c4.332-0.78,8.667-1.544,13.002-2.308
		c2.098-0.37,4.192-0.76,6.292-1.113c0.457-0.077,0.861-0.356,1.342-0.309C41.58,28.454,45.376,29.807,48.495,32.679z"/>
	<path fill="#FFFFFF" d="M150.964,18.793c0,3.571,0,7.142,0,10.713c-0.415,0.301-0.918,0.303-1.39,0.387
		c-3.53,0.63-7.063,1.247-10.592,1.88c-0.314,0.056-0.638,0.171-0.929-0.076c0-3.53,0-7.061,0-10.591
		c0.205-0.23,0.49-0.274,0.769-0.322c3.854-0.668,7.702-1.373,11.557-2.037C150.576,18.713,150.78,18.65,150.964,18.793z"/>
	<path fill="#FFFFFF" d="M150.965,38.271c0,3.328,0,6.656,0,9.983c-0.14,0.277-0.417,0.301-0.672,0.346
		c-3.829,0.674-7.656,1.358-11.484,2.034c-0.254,0.045-0.52,0.134-0.756-0.067c0-3.368,0-6.736,0-10.105
		c0.182-0.184,0.422-0.23,0.663-0.273c3.773-0.665,7.545-1.332,11.318-2C150.348,38.135,150.674,38.026,150.965,38.271z"/>
	<path fill="#FFFFFF" d="M87.809,49.347c0.319,0.379,0.462,0.851,0.663,1.289c1.088,2.372,2.08,4.782,2.834,7.285
		c0.155,0.515,0.098,0.667-0.498,0.664c-4.934-0.026-9.868-0.019-14.803-0.008c-0.414,0.001-0.648-0.06-0.749-0.536
		c-0.434-2.038-1.13-4.003-1.746-5.989c0.062-0.418,0.434-0.365,0.696-0.417c1.553-0.305,3.115-0.559,4.674-0.837
		c2.717-0.485,5.432-0.976,8.152-1.441C87.29,49.313,87.549,49.224,87.809,49.347z"/>
	<path fill="#FFFFFF" d="M138.053,50.567c1.689-0.288,3.379-0.57,5.066-0.867c2.482-0.436,4.962-0.882,7.442-1.327
		c0.137-0.025,0.269-0.079,0.404-0.119c0.01,3.305,0.015,6.609,0.034,9.914c0.002,0.327-0.117,0.407-0.426,0.407
		c-4.043-0.008-8.086-0.008-12.129,0c-0.31,0.001-0.425-0.078-0.423-0.406C138.042,55.636,138.045,53.102,138.053,50.567z"/>
	<path fill="#FFFFFF" d="M107.187,45.819c0.052,2.962,0.052,5.925,0.001,8.887c-0.191,0.173-0.436,0.208-0.674,0.25
		c-3.812,0.661-7.62,1.347-11.43,2.021c-0.312,0.055-0.639,0.172-0.929-0.079c0-2.922,0-5.843,0-8.765
		c0.185-0.26,0.475-0.295,0.754-0.344c3.821-0.669,7.641-1.348,11.46-2.029C106.641,45.711,106.929,45.607,107.187,45.819z"/>
	<path fill="#FFFFFF" d="M150.965,38.271c-1.391,0.091-2.742,0.431-4.111,0.663c-2.678,0.454-5.351,0.938-8.027,1.408
		c-0.257,0.045-0.516,0.081-0.774,0.121c0-2.922,0-5.843,0-8.765c1.149-0.077,2.266-0.352,3.395-0.547
		c2.677-0.462,5.352-0.936,8.028-1.403c0.495-0.086,0.975-0.264,1.488-0.241C150.965,32.428,150.965,35.35,150.965,38.271z"/>
	<path fill="#FFFFFF" d="M56.327,43.993c1.196-0.034,2.35-0.347,3.52-0.546c2.68-0.456,5.357-0.932,8.034-1.405
		c2.36-0.417,4.719-0.842,7.079-1.265c2.557-0.459,5.113-0.919,7.669-1.383c0.193-0.035,0.311,0.041,0.403,0.192
		c-0.17,0.234-0.061,0.403,0.062,0.64c0.511,0.989,1.188,1.885,1.622,2.915c-0.172,0.205-0.422,0.229-0.659,0.272
		c-4.311,0.772-8.627,1.521-12.936,2.304c-0.141,0.026-0.281,0.033-0.423,0.021c-0.32-0.534-0.64-1.067-0.96-1.601
		c-0.286-0.028-0.164,0.194-0.175,0.31c-0.041,0.468,0.056,0.942-0.056,1.408c-0.169,0.167-0.391,0.205-0.61,0.244
		c-3.968,0.716-7.942,1.403-11.91,2.114c-0.248,0.045-0.525,0.143-0.713-0.145C56.3,46.71,56.193,45.35,56.327,43.993z"/>
	<path fill="#FFFFFF" d="M70.698,45.737c0.657-0.403,1.423-0.374,2.141-0.511c2.409-0.459,4.828-0.862,7.244-1.284
		c1.544-0.27,3.089-0.534,4.633-0.801c1.098,2.035,2.215,4.061,3.093,6.206c-1.263,0.34-2.563,0.491-3.845,0.725
		c-3.241,0.591-6.489,1.143-9.732,1.724c-0.245,0.044-0.529,0.038-0.721,0.255c-0.764-1.854-1.463-3.736-2.415-5.508
		C70.954,46.28,70.83,46.007,70.698,45.737z"/>
	<path fill="#FFFFFF" d="M94.277,35.59c0.077-0.529,0.525-0.524,0.895-0.591c3.387-0.612,6.776-1.215,10.164-1.817
		c3.23-0.574,6.462-1.143,9.693-1.715c0.407-0.072,0.629,0.048,0.572,0.503c-0.017,0.14-0.002,0.283-0.001,0.425
		c-0.098,0.085-0.209,0.078-0.324,0.044c-0.372,0.123-0.765-0.027-1.137,0.09c-1.026,0.179-2.053,0.324-3.063,0.615
		c-2.138,0.616-3.086,2.175-3.518,4.181c-0.128,0.592-0.182,1.199-0.269,1.799c-0.189,0.213-0.449,0.254-0.711,0.3
		c-3.788,0.672-7.575,1.347-11.365,2.007c-0.345,0.06-0.706,0.232-1.059,0.006C94.157,39.487,94.024,37.535,94.277,35.59z"/>
	<path fill="#FFFFFF" d="M56.227,31.21c-0.007-2.739-0.017-5.477-0.02-8.216c-0.003-3.632,0.008-7.264-0.01-10.895
		c-0.002-0.475,0.075-0.679,0.617-0.782c4.086-0.771,8.165-1.579,12.237-2.417c0.566-0.116,0.57,0.075,0.569,0.507
		c-0.008,8.176-0.006,16.353-0.003,24.529c0,0.262,0.03,0.524,0.045,0.786c-0.465-0.038-0.342-0.419-0.349-0.668
		c-0.031-1.129-0.014-2.259-0.012-3.388c0.001-0.585-0.02-1.17,0.015-1.754c-0.021-2.213-0.029-4.427,0.002-6.639
		c-0.01-1.984,0-3.968-0.005-5.953c-0.002-0.829-0.043-0.863-0.876-0.715c-3.714,0.661-7.43,1.315-11.144,1.977
		c-0.738,0.131-0.779,0.177-0.783,0.954c-0.009,2.005,0.008,4.009-0.007,6.014c-0.003,2.156,0.072,4.312-0.039,6.467
		c-0.024,0.076-0.064,0.142-0.121,0.197C56.306,31.213,56.267,31.212,56.227,31.21z"/>
	<path fill="#FFFFFF" d="M56.327,48.132c1.503-0.263,3.006-0.526,4.509-0.79c2.67-0.468,5.34-0.935,8.01-1.404
		c0.217-0.038,0.434-0.08,0.651-0.12c0.125,0.354,0.056,0.719,0.058,1.079c0.007,1.8,0.006,3.6,0.003,5.399
		c-0.17,0.427-0.584,0.395-0.924,0.455c-2.873,0.502-5.741,1.03-8.615,1.523c-0.958,0.164-1.91,0.366-2.871,0.511
		c-0.464,0.07-0.647,0.281-0.653,0.759c-0.013,0.946,0.109,1.898-0.076,2.84c-0.036,0.071-0.094,0.102-0.173,0.093
		c-0.074-2.76-0.039-5.52-0.017-8.281C56.355,49.513,56.167,48.814,56.327,48.132z"/>
	<path fill="#FFFFFF" d="M120.476,15.392c-2.199-3.538,0.034-8.499,4.213-9.361c4.233-0.873,8.087,2.535,7.721,6.833
		c-0.01,0.117-0.06,0.231-0.092,0.346c-3.692,0.564-7.353,1.305-11.038,1.912C120.996,15.169,120.744,15.301,120.476,15.392z"/>
	<path fill="#FFFFFF" d="M94.154,41.437c4.378-0.771,8.756-1.542,13.134-2.313c-0.002,0.042-0.003,0.084-0.005,0.126
		c-0.114,0.456,0.038,0.929-0.087,1.384c-0.003,1.729-0.007,3.457-0.01,5.186c-1.688,0.287-3.378,0.567-5.064,0.864
		c-2.481,0.436-4.959,0.883-7.438,1.328c-0.178,0.032-0.354,0.081-0.53,0.121C94.154,45.9,94.154,43.669,94.154,41.437z"/>
	<path fill="#FFFFFF" d="M69.497,28.898c0.001,1.743-0.003,3.486,0.007,5.23c0.001,0.204-0.11,0.457,0.16,0.597
		c0.015-0.024,0.037-0.035,0.065-0.033c-0.411,0.415-0.978,0.3-1.469,0.396c-2.189,0.426-4.388,0.799-6.585,1.181
		c-1.781,0.31-3.565,0.606-5.347,0.908c-0.13-0.597-0.059-1.203-0.053-1.803c0.015-1.388-0.083-2.777,0.052-4.163l0.001,0
		c0.22-0.208,0.506-0.249,0.784-0.298c3.875-0.686,7.749-1.375,11.624-2.063C68.987,28.804,69.255,28.707,69.497,28.898z"/>
	<path fill="#FFFFFF" d="M89.032,30.035c-0.116-0.199-0.305-0.178-0.485-0.146c-2.593,0.467-5.183,0.95-7.778,1.405
		c-3.011,0.528-6.028,1.028-9.039,1.556c-0.201,0.035-0.352-0.067-0.53-0.059c1.07-1.549,2.086-3.133,3.058-4.745
		c0.232-0.174,0.492-0.262,0.78-0.313c5.134-0.908,10.266-1.834,15.405-2.713c0.247-0.042,0.569-0.276,0.771,0.114
		C90.615,26.826,89.886,28.458,89.032,30.035z"/>
	<path fill="#FFFFFF" d="M119.612,58.496c-0.176-0.168-0.087-0.384-0.087-0.574c-0.004-11.705,0.001-23.411-0.013-35.116
		c-0.001-0.497,0.114-0.645,0.627-0.642c3.943,0.022,7.886,0.019,11.828,0.002c0.443-0.002,0.581,0.091,0.581,0.563
		c-0.014,11.766-0.01,23.533-0.009,35.299c0,0.28,0.07,0.556-0.399,0.554c-4.105-0.015-8.211-0.008-12.316-0.012
		c-0.073,0-0.145-0.05-0.218-0.076c0.29-0.255,0.647-0.204,0.987-0.205c3.428-0.004,6.856-0.002,10.285-0.002
		c0.183,0,0.365,0.002,0.548-0.001c0.751-0.012,0.802-0.056,0.807-0.788c0.007-1.154,0.001-2.308,0.003-3.462
		c0.001-0.83-0.01-1.66,0.011-2.49c-0.015-2.596-0.026-5.192,0.004-7.787c-0.022-3.023-0.031-6.047,0.003-9.07
		c-0.015-2.432-0.002-4.864-0.007-7.296c0-0.182-0.005-0.365-0.003-0.547c0.005-0.397-0.168-0.546-0.569-0.466
		c-0.677,0.135-1.357,0.256-2.037,0.372c-2.942,0.502-5.877,1.042-8.817,1.555c-1.009,0.176-1.007,0.189-1.009,1.202
		c-0.005,2.493,0.01,4.986-0.006,7.48c0.029,2.983,0.028,5.966,0.002,8.948c0.024,2.637,0.027,5.275,0,7.912
		c0.033,1.325,0.011,2.65,0.011,3.974C119.817,58.065,119.79,58.304,119.612,58.496z"/>
	<path fill="#FFFFFF" d="M138.053,16.723c-0.008-1.74-0.002-3.481-0.035-5.221c-0.007-0.387,0.209-0.422,0.471-0.469
		c2.312-0.414,4.624-0.828,6.936-1.24c1.714-0.306,3.43-0.601,5.141-0.921c0.307-0.057,0.437-0.049,0.432,0.318
		c-0.024,1.74-0.025,3.48-0.034,5.221c-0.139,0.278-0.417,0.301-0.672,0.346c-3.829,0.67-7.657,1.352-11.484,2.034
		C138.555,16.836,138.289,16.925,138.053,16.723z"/>
	<path fill="#FFFFFF" d="M91.214,25.135c-0.947-0.027-1.851,0.25-2.771,0.405c-2.694,0.456-5.383,0.937-8.074,1.413
		c-2.037,0.36-4.074,0.728-6.111,1.092c0.954-1.851,1.906-3.704,2.636-5.659c0.135-0.362,0.407-0.272,0.652-0.272
		c4.003-0.004,8.005-0.003,12.008-0.003c0.792,0,1.585,0.007,2.377-0.004c0.288-0.004,0.408,0.033,0.284,0.368
		C91.886,23.364,91.635,24.282,91.214,25.135z"/>
	<path fill="#FFFFFF" d="M47.963,10.616c-0.879,0.578-1.923,0.539-2.896,0.733c-2.153,0.428-4.324,0.772-6.487,1.153
		c-2.698,0.474-5.397,0.947-8.094,1.427c-2.361,0.419-4.72,0.847-7.08,1.27c-2.102,0.377-4.203,0.756-6.306,1.121
		c-0.167,0.029-0.352-0.052-0.529-0.081c0.618-1.027,1.386-1.924,2.322-2.676c5.569-1.002,11.144-1.968,16.713-2.972
		c2.175-0.392,4.367-0.697,6.518-1.215c0.082-0.02,0.16,0.005,0.238,0.029c1.675,0.254,3.325,0.636,4.979,0.996
		C47.553,10.447,47.756,10.543,47.963,10.616z"/>
	<path fill="#FFFFFF" d="M138.053,16.723c1.689-0.288,3.379-0.57,5.066-0.867c2.482-0.436,4.961-0.882,7.441-1.327
		c0.137-0.025,0.269-0.079,0.404-0.119c0,1.461,0,2.921,0,4.382c-1.962,0.36-3.922,0.728-5.886,1.079
		c-2.34,0.419-4.683,0.823-7.025,1.234C138.053,19.645,138.053,18.184,138.053,16.723z"/>
	<path fill="#FFFFFF" d="M37.479,27.786c-1.281,0.721-2.748,0.681-4.13,0.971c-1.968,0.413-3.96,0.71-5.941,1.059
		c-2.873,0.506-5.749,0.996-8.616,1.529c-0.924,0.172-1.886,0.198-2.757,0.614c-0.53-0.786-0.944-1.626-1.191-2.543
		c0.407-0.502,1.031-0.389,1.553-0.491c1.952-0.381,3.921-0.675,5.88-1.021c2.434-0.43,4.864-0.881,7.297-1.318
		c0.125-0.022,0.239-0.04,0.305-0.161c1.175,0.791,2.542,0.759,3.867,0.884C34.997,27.427,36.252,27.491,37.479,27.786z"/>
	<path fill="#FFFFFF" d="M42.361,9.404c-1.682,0.665-3.491,0.734-5.238,1.095c-1.969,0.407-3.96,0.709-5.942,1.058
		c-2.873,0.506-5.746,1.014-8.62,1.517c-1.05,0.184-2.104,0.344-3.152,0.542c-0.196,0.037-0.353,0.036-0.518-0.054
		c2.454-2.227,5.399-3.443,8.592-4.138c3.138-0.683,6.319-0.693,9.506-0.556c1.641,0.07,3.278,0.196,4.906,0.428
		C42.055,9.318,42.224,9.295,42.361,9.404z"/>
	<path fill="#FFFFFF" d="M169.978,33.706c0.001,8.073-0.006,16.146,0.015,24.219c0.001,0.556-0.155,0.663-0.679,0.66
		c-3.922-0.022-7.844-0.021-11.766-0.001c-0.486,0.003-0.603-0.13-0.603-0.607c0.014-15.436,0.016-30.872,0-46.309
		c-0.001-0.506,0.211-0.591,0.614-0.661c3.956-0.693,7.912-1.388,11.861-2.118c0.505-0.093,0.564,0.021,0.564,0.476
		c-0.011,7.607-0.007,15.213-0.006,22.82C169.978,32.692,169.978,33.199,169.978,33.706z"/>
	<path fill="#FFFFFF" d="M15.009,55.681c-0.008,0.471-0.017,0.943-0.025,1.414c-0.141-0.158-0.074-0.349-0.074-0.524
		c-0.004-3.489,0.003-6.978-0.008-10.467c-0.001-0.438,0.014-0.626,0.55-0.424c5.232,1.965,10.635,2.877,16.231,2.549
		c-0.195,0.433-0.638,0.309-0.957,0.369c-2.909,0.545-5.824,1.054-8.739,1.567c-2.181,0.383-4.363,0.765-6.549,1.124
		c-0.333,0.055-0.459,0.183-0.456,0.503C14.995,53.089,15.001,54.385,15.009,55.681z"/>
	<path fill="#FFFFFF" d="M120.476,15.392c0.018-0.243,0.154-0.335,0.391-0.377c3.631-0.64,7.26-1.29,10.891-1.93
		c0.19-0.033,0.41-0.079,0.561,0.124c-0.505,2.538-1.875,4.395-4.397,5.171c-2.504,0.77-4.719,0.102-6.577-1.72
		C120.979,16.303,120.633,15.904,120.476,15.392z"/>
	<path fill="#FFFFFF" d="M94.154,56.898c1.153-0.053,2.265-0.356,3.395-0.55c2.915-0.501,5.828-1.014,8.742-1.521
		c0.297-0.052,0.586-0.165,0.896-0.12c0.01,1.154,0.007,2.309,0.038,3.463c0.011,0.397-0.196,0.406-0.491,0.405
		c-1.929-0.007-3.859-0.004-5.788-0.004c-2.092,0-4.184-0.011-6.275,0.009c-0.414,0.004-0.593-0.086-0.545-0.528
		C94.167,57.67,94.147,57.282,94.154,56.898z"/>
	<path fill="#FFFFFF" d="M56.245,58.478c0.028-0.005,0.056-0.012,0.083-0.019c0.303-0.231,0.659-0.17,0.999-0.171
		c3.675-0.005,7.35-0.002,11.025-0.004c0.94,0,0.949-0.011,0.951-0.948c0.002-1.358-0.002-2.716,0.003-4.074
		c0.001-0.302-0.028-0.614,0.191-0.87c0-2.191,0-4.383,0-6.574c0.001-0.502-0.005-1.003,0.009-1.504
		c0.003-0.11-0.068-0.413,0.232-0.179c-0.243,0.162-0.115,0.408-0.115,0.608c-0.009,4.4-0.015,8.8,0.005,13.199
		c0.002,0.494-0.11,0.643-0.627,0.64c-4.062-0.023-8.125-0.011-12.187-0.018C56.626,58.566,56.408,58.666,56.245,58.478z"/>
	<path fill="#FFFFFF" d="M56.327,31.211c0,1.988,0.001,3.977,0.001,5.965c0,2.272,0,4.545,0,6.817c0,1.38,0,2.759,0,4.139
		c-0.057,0.687,0.114,1.385-0.1,2.065c-0.007-2.13-0.021-4.259-0.02-6.389c0.002-4.199,0.013-8.398,0.02-12.598
		C56.261,31.21,56.294,31.211,56.327,31.211z"/>
	<path fill="#FFFFFF" d="M50.94,15.264c0.007-1.207,0.013-2.413,0.02-3.62c0.158,0.126,0.082,0.3,0.082,0.45
		c0.005,3.414,0.008,6.828-0.003,10.242c-0.001,0.164,0.197,0.644-0.339,0.358c0.294-0.037,0.259-0.26,0.259-0.46
		C50.954,19.912,50.947,17.588,50.94,15.264z"/>
	<path fill="#FFFFFF" d="M50.28,11.351c-0.417-0.015-0.848,0.019-1.151-0.359C49.545,11.011,49.916,11.169,50.28,11.351z"/>
	<path fill="#FFFFFF" d="M107.197,40.634c0.025-0.462-0.116-0.934,0.087-1.384C107.285,39.713,107.317,40.178,107.197,40.634z"/>
	<path fill="#FFFFFF" d="M114.139,32.529c0.365-0.2,0.757-0.068,1.137-0.09C114.905,32.563,114.521,32.535,114.139,32.529z"/>
	<path fill="#FFFFFF" d="M56.328,24.515c0-2.109,0.013-4.218-0.01-6.327c-0.006-0.519,0.174-0.67,0.684-0.752
		c2.367-0.382,4.725-0.822,7.086-1.243c1.666-0.297,3.332-0.593,4.996-0.899c0.494-0.091,0.412,0.249,0.412,0.521
		c0.003,2.129,0.001,4.259,0,6.388c-0.194,0.206-0.452,0.252-0.715,0.299c-3.797,0.671-7.595,1.338-11.392,2.011
		C57.044,24.574,56.681,24.743,56.328,24.515z"/>
	<path fill="#FFFFFF" d="M56.328,24.515c2.925-0.52,5.85-1.044,8.776-1.56c1.463-0.258,2.929-0.502,4.393-0.753
		c0,2.232,0,4.464,0,6.696c-3.122,0.56-6.244,1.124-9.367,1.677c-1.265,0.224-2.535,0.424-3.802,0.635
		C56.327,28.978,56.328,26.747,56.328,24.515z"/>
	<path fill="#FFFFFF" d="M69.497,52.393c0.001,1.841-0.002,3.682,0.006,5.522c0.002,0.338-0.012,0.573-0.469,0.571
		c-4.235-0.02-8.47-0.021-12.705-0.028c0-1.075,0.007-2.15-0.006-3.225c-0.004-0.327,0.051-0.487,0.441-0.553
		c2.722-0.458,5.439-0.95,8.156-1.439C66.447,52.968,67.971,52.677,69.497,52.393z"/>
	<path fill="#FFFFFF" d="M119.639,45.942c0-3.002,0-6.005-0.001-9.007c0.173-0.195,0.407-0.248,0.65-0.291
		c3.826-0.681,7.651-1.371,11.48-2.032c0.217-0.037,0.438-0.099,0.654,0.013c0,3.042,0,6.084-0.001,9.126
		c-0.229,0.204-0.526,0.204-0.802,0.251c-3.744,0.635-7.477,1.335-11.22,1.976C120.147,46.02,119.884,46.132,119.639,45.942z"/>
	<path fill="#FFFFFF" d="M132.422,34.624c-1.265,0.241-2.529,0.492-3.797,0.72c-2.181,0.393-4.365,0.772-6.548,1.157
		c-0.813,0.144-1.626,0.288-2.439,0.433c-0.004-2.714-0.006-5.429-0.015-8.143c-0.001-0.294,0.032-0.458,0.403-0.521
		c2.501-0.421,4.996-0.876,7.492-1.324c1.427-0.256,2.857-0.494,4.276-0.792c0.505-0.106,0.648,0.001,0.644,0.509
		C132.419,29.317,132.425,31.97,132.422,34.624z"/>
	<path fill="#FFFFFF" d="M119.639,45.942c3.583-0.644,7.163-1.303,10.75-1.92c0.671-0.115,1.339-0.305,2.033-0.271
		c0,2.598,0,5.197,0,7.795c-0.14,0.281-0.421,0.299-0.676,0.344c-3.783,0.663-7.564,1.333-11.344,2.011
		c-0.252,0.045-0.52,0.146-0.763-0.045C119.639,51.217,119.639,48.579,119.639,45.942z"/>
	<path fill="#FFFFFF" d="M119.639,53.855c3.569-0.642,7.137-1.289,10.708-1.922c0.693-0.123,1.4-0.169,2.075-0.388
		c0.003,2.126-0.008,4.251,0.019,6.377c0.006,0.479-0.174,0.566-0.604,0.564c-3.813-0.014-7.626-0.008-11.439-0.008
		c-0.264,0-0.527,0.009-0.791,0.014c0,0,0.005,0.004,0.005,0.004C119.621,56.949,119.63,55.402,119.639,53.855z"/>
	<path fill="#FFFFFF" d="M169.86,43.751c0.004,4.741,0.003,9.482,0.019,14.223c0.001,0.409-0.145,0.511-0.532,0.51
		c-3.917-0.011-7.835-0.013-11.752,0.002c-0.449,0.002-0.536-0.17-0.534-0.57c0.014-3.991,0.012-7.982,0.015-11.974
		c0.206-0.192,0.474-0.219,0.731-0.263c3.771-0.638,7.531-1.339,11.299-1.992C169.362,43.643,169.625,43.549,169.86,43.751z"/>
	<path fill="#FFFFFF" d="M157.076,24.03c-0.003-3.383,0-6.766-0.016-10.149c-0.002-0.4,0.104-0.517,0.527-0.59
		c3.293-0.569,6.577-1.186,9.865-1.783c0.634-0.115,1.281-0.171,1.904-0.327c0.466-0.117,0.521,0.071,0.519,0.448
		c-0.007,2.127-0.002,4.254-0.004,6.381c-0.001,1.276-0.007,2.552-0.011,3.829c-0.404,0.278-0.888,0.275-1.341,0.353
		c-3.462,0.598-6.916,1.244-10.38,1.832C157.793,24.083,157.431,24.254,157.076,24.03z"/>
	<path fill="#FFFFFF" d="M169.86,43.751c-1.743,0.304-3.485,0.617-5.231,0.909c-2.519,0.421-5.019,0.953-7.554,1.282
		c0-3.003,0-6.006,0.001-9.009c0.183-0.182,0.422-0.229,0.663-0.272c3.748-0.672,7.498-1.33,11.249-1.988
		c0.292-0.051,0.598-0.166,0.872,0.069C169.86,37.745,169.86,40.748,169.86,43.751z"/>
	<path fill="#FFFFFF" d="M169.86,34.741c-1.345,0.126-2.66,0.431-3.987,0.661c-2.675,0.465-5.348,0.939-8.023,1.409
		c-0.257,0.045-0.516,0.081-0.774,0.121c0-2.232,0-4.464,0-6.696c0.441-0.292,0.963-0.289,1.454-0.376
		c3.506-0.62,7.011-1.245,10.516-1.866c0.272-0.048,0.555-0.164,0.813,0.051C169.86,30.278,169.86,32.509,169.86,34.741z"/>
	<path fill="#FFFFFF" d="M169.86,28.046c-1.505,0.266-3.01,0.529-4.515,0.797c-2.594,0.462-5.188,0.927-7.783,1.386
		c-0.158,0.028-0.324,0.007-0.486,0.009c0-2.069,0-4.138-0.001-6.207c3.366-0.602,6.728-1.227,10.1-1.789
		c0.89-0.149,1.769-0.408,2.684-0.401C169.861,23.908,169.86,25.977,169.86,28.046z"/>
</g>
</svg>
