<svg width="71" height="25" viewBox="0 0 71 25" fill="none" xmlns="http://www.w3.org/2000/svg">
<path d="M55.9981 3.07864L61.7815 2.04793V24.2368H55.9981V3.07864ZM64.4394 3.07864V24.2225H70.2228V2.04793L64.4394 3.07864ZM47.7762 24.2225H53.5597V8.00314H47.7762V24.2225ZM9.56362 10.2936C8.82876 10.2459 7.13955 10.1361 7.13955 8.61394C7.13955 6.77679 9.57793 6.77679 10.4846 6.77679C12.0879 6.77679 14.1732 7.25397 15.6524 7.69775C15.6524 7.69775 16.4875 7.9936 17.1842 8.28468L17.2462 8.299V3.27429L17.1603 3.25043C15.4091 2.63963 13.3763 2.04793 9.58749 2.04793C3.0692 2.04793 0.764404 5.84629 0.764404 9.09112C0.764404 10.9664 1.57085 15.3756 9.03395 15.8909C9.67338 15.9291 11.3483 16.0245 11.3483 17.604C11.3483 18.9019 9.974 19.675 7.65967 19.675C5.12584 19.675 2.67312 19.026 1.17955 18.4152V23.5974C3.40798 24.1843 5.93228 24.4802 8.88603 24.4802C15.2564 24.4802 18.1099 20.8918 18.1099 17.3273C18.1099 13.2855 14.9224 10.661 9.55884 10.2936H9.56362ZM44.5171 7.76933C39.1775 7.94111 36.4671 10.3413 36.4671 15.1084V24.2368H42.2982V16.788C42.2982 13.9345 42.6656 12.7081 46.0584 12.5984V7.84568C45.4715 7.73593 44.5171 7.7741 44.5171 7.7741V7.76933ZM28.837 7.98883C28.7129 8.30854 27.7824 10.9283 25.5396 13.6386V2.04793L19.5749 3.2218V24.2225H25.5396V17.7281C27.267 20.324 28.1259 24.2225 28.1259 24.2225H35.2693C34.5583 21.2831 31.471 15.8671 31.471 15.8671C34.2386 12.3503 35.465 8.60439 35.6606 7.97929H28.837V7.9936V7.98883ZM50.6584 6.44754C52.2284 6.44754 53.512 5.17346 53.512 3.60354C53.512 2.03361 52.2379 0.75 50.6584 0.75C49.079 0.75 47.8144 2.02407 47.8144 3.60354C47.8144 5.18301 49.0885 6.44754 50.6584 6.44754Z" fill="url(#paint0_linear_3958_105760)"/>
<defs>
<linearGradient id="paint0_linear_3958_105760" x1="0.769176" y1="12.6127" x2="70.2181" y2="12.6127" gradientUnits="userSpaceOnUse">
<stop stop-color="#872266"/>
<stop offset="1" stop-color="#502455"/>
</linearGradient>
</defs>
</svg>
