<?xml version="1.0" encoding="UTF-8"?>
<svg id="Layer_2" data-name="Layer 2" xmlns="http://www.w3.org/2000/svg" viewBox="0 0 463.87 399.89">
  <defs>
    <style>
      .cls-1 {
        fill: #fff;
      }
    </style>
  </defs>
  <g id="Layer_1-2" data-name="Layer 1">
    <path class="cls-1" d="m431.88,0c-17.64,0-31.99,14.35-31.99,31.99,0,14.86,10.23,27.28,23.99,30.85v145.1h-23.99v-87.98c0-13.23-10.76-23.99-23.99-23.99H39.99c-13.23,0-23.99,10.76-23.99,23.99v231.94h84.67l16-16h182.57l16,16h84.66v-47.99h16c13.23,0,23.99-10.77,23.99-23.99V62.85c13.77-3.58,23.99-16,23.99-30.85,0-17.64-14.35-31.99-31.99-31.99Zm-47.99,303.92c0,8.82-7.17,16-16,16H31.99V111.97h335.91c8.82,0,16,7.17,16,16v175.95Z"/>
    <path class="cls-1" d="m159.96,287.92h95.97v16h-95.97v-16Z"/>
    <path class="cls-1" d="m47.99,127.96h95.97v16H47.99v-16Z"/>
    <path class="cls-1" d="m159.96,271.92h95.97V127.96h-95.97v143.96Zm16-111.97h63.98v18.07l-41,73.8-13.98-7.78,37.83-68.09h-46.83v-16Z"/>
    <path class="cls-1" d="m271.92,159.96v143.96h95.98v-143.96h-95.98Zm79.98,50.06l-41,73.8-13.98-7.78,37.83-68.09h-46.83v-16h63.98v18.07Z"/>
    <path class="cls-1" d="m271.92,127.96h95.97v16h-95.97v-16Z"/>
    <path class="cls-1" d="m407.89,367.9h-99.28l-16-16H123.28l-16,16H8c-4.41,0-8,3.59-8,8v23.99h415.89v-23.99c0-4.41-3.58-8-8-8Zm-247.93,16h-16v-16h16v16Zm55.98,0h-16v-16h16v16Zm55.98,0h-16v-16h16v16Z"/>
    <path class="cls-1" d="m47.99,303.92h95.97v-143.96H47.99v143.96Zm16-111.97h63.98v18.07l-41,73.8-13.98-7.78,37.83-68.09h-46.83v-16Z"/>
  </g>
</svg>