<?xml version="1.0" encoding="utf-8"?>
<!-- Generator: Adobe Illustrator 27.1.0, SVG Export Plug-In . SVG Version: 6.00 Build 0)  -->
<svg version="1.1" id="Layer_1" xmlns="http://www.w3.org/2000/svg" xmlns:xlink="http://www.w3.org/1999/xlink" x="0px" y="0px"
	 viewBox="0 0 144 144" style="enable-background:new 0 0 144 144;" xml:space="preserve">
<style type="text/css">
	.st0{fill:#FFFFFF;}
</style>
<g>
	<path class="st0" d="M144,45.3c-0.4,1.49-0.96,4.03-1.76,6.5c-6.99,21.61-14.01,43.2-21.07,64.78c-2.97,9.06-7.61,11.34-16.61,8.44
		c-14.71-4.75-29.42-9.48-44.12-14.31c-9.12-3-11.35-7.46-8.4-16.6c7.16-22.14,14.35-44.27,21.57-66.39
		c3.11-9.53,7.49-11.73,16.91-8.69c14.89,4.8,29.74,9.66,44.62,14.47C140.38,35.21,144.06,38.14,144,45.3z M119.92,66.99
		c0-8.41-7.56-13.6-14.97-9.72c-3.92,2.06-4.79,0.62-6.45-2.42c-3.82-6.72-11.77-7.28-16.79-1.29c-2.79,3.33-3.99,7.72-3.28,12.01
		c1.12,8.41,5.24,15.41,10.22,22.05c1.14,2.01,3.63,2.83,5.74,1.87c5.73-1.66,11.18-4.19,16.15-7.5
		C115.68,78.36,119.9,73.89,119.92,66.99z"/>
	<path class="st0" d="M41.97,123.54c-10.32,5.19-15.88,2.96-19.24-7.24C15.65,94.74,8.63,73.14,1.67,51.5
		C-1.99,40.14,0,36.49,11.19,32.77c4.23-1.4,8.54-2.63,12.72-4.2c3.92-1.48,5.6-0.32,5.51,3.83c-0.08,5.21,0,10.42,0,15.67
		c0,16.94,0,33.88,0,50.82C29.45,114.53,29.45,114.53,41.97,123.54z"/>
	<path class="st0" d="M52.46,115.74c-10.29,2.78-16.65-1.69-16.65-11.92c-0.04-23.84-0.04-47.7,0-71.55
		c0-8.47,3.81-12.31,12.17-12.49c5.03-0.1,10.07,0.2,15.09-0.09c5.32-0.3,5.85,1.82,4.35,6.32c-6.6,19.79-12.99,39.64-19.47,59.46
		C42.53,102.26,42.47,102.26,52.46,115.74z"/>
</g>
</svg>
