<?xml version="1.0" encoding="utf-8"?>
<!-- Generator: Adobe Illustrator 27.1.0, SVG Export Plug-In . SVG Version: 6.00 Build 0)  -->
<svg version="1.1" id="Layer_1" xmlns="http://www.w3.org/2000/svg" xmlns:xlink="http://www.w3.org/1999/xlink" x="0px" y="0px"
	 viewBox="0 0 144 144" style="enable-background:new 0 0 144 144;" xml:space="preserve">
<style type="text/css">
	.st0{fill:#FFFFFF;}
</style>
<g>
	<path class="st0" d="M71.92,0.07c39.4-0.61,72.15,32.56,72.08,72c-0.07,39.28-32.69,71.9-72.05,71.88
		C32.59,143.92-0.14,111.16,0,71.68C0.14,32.52,32.71-0.45,71.92,0.07z M59.33,101.26c0.17,0.78-0.6,2.14,0.58,2.6
		c1.04,0.41,1.8-0.75,2.53-1.43c2.12-1.97,4.36-3.84,6.26-6c1.8-2.04,3.17-1.74,5.13-0.21c4.78,3.73,9.69,7.3,14.63,10.81
		c3.32,2.35,5.59,1.48,6.63-2.44c0.69-2.61,1.18-5.28,1.74-7.92c3.34-15.78,6.7-31.56,10-47.34c0.92-4.4-1.25-6.26-5.51-4.86
		c-0.71,0.23-1.4,0.52-2.09,0.79c-15.06,5.8-30.12,11.6-45.18,17.41c-7.05,2.72-14.1,5.45-21.12,8.22c-1.28,0.51-2.81,1.07-2.71,2.8
		c0.09,1.64,1.65,1.87,2.86,2.25c4.62,1.48,9.29,2.79,13.87,4.38c2.15,0.75,3.8,0.49,5.72-0.74c12.27-7.84,24.61-15.56,36.94-23.28
		c1.14-0.71,2.7-2.18,3.7-0.93c1.15,1.43-0.96,2.29-1.85,3.11c-9.58,8.75-19.22,17.42-28.84,26.12c-1.1,0.99-2.19,1.92-2.29,3.66
		C60.09,92.54,59.68,96.81,59.33,101.26z"/>
</g>
</svg>
