<?xml version="1.0" encoding="utf-8"?>
<!-- Generator: Adobe Illustrator 27.1.0, SVG Export Plug-In . SVG Version: 6.00 Build 0)  -->
<svg version="1.1" id="Layer_1" xmlns="http://www.w3.org/2000/svg" xmlns:xlink="http://www.w3.org/1999/xlink" x="0px" y="0px"
	 viewBox="0 0 144 144" style="enable-background:new 0 0 144 144;" xml:space="preserve">
<style type="text/css">
	.st0{fill:#FFFFFF;}
</style>
<g>
	<path class="st0" d="M71.97,0.06C111.12-0.53,144.1,32.51,144,72.12c-0.1,39.52-33.07,71.91-72.1,71.83
		C32.35,143.86-0.17,110.86,0,71.63C0.17,32.7,32.58-0.41,71.97,0.06z M47.92,78.51c-1.64,1.2-3.07,0.91-4.38,0.89
		c-1.85-0.03-2.11,0.59-1.25,2.14c2.3,4.17,5.82,6.69,10.31,8.03c1.08,0.32,2.91-0.34,3.06,1.12c0.12,1.11-1.62,1.6-2.61,2.26
		c-0.54,0.36-1.14,0.64-1.72,0.94c-5.27,2.8-10.95,3.95-16.95,4.02c0.31,0.9,1.02,1.01,1.57,1.28c11.38,5.69,23.22,6.62,35.34,3
		c18.66-5.57,32.14-23.73,32.38-43.52c0.03-2.37,0.6-4.07,2.59-5.45c1.75-1.21,3.13-2.87,4.43-4.92c-2.62,0.19-4.76,1.73-7.55,1.08
		c2.07-2.36,4.68-4.02,5.5-7.41c-2.5,0.83-4.69,1.52-6.85,2.29c-1.47,0.53-2.61,0.24-3.85-0.76c-5.46-4.41-11.52-5.25-17.78-2.08
		c-6.06,3.06-8.9,8.24-8.72,15.07c0.08,3.23-0.35,3.56-3.5,3.11c-11.39-1.65-21.15-6.48-28.94-15.04c-1.39-1.53-2.02-1.23-2.55,0.54
		c-1.9,6.43-0.78,12.15,3.88,17.11c0.56,0.59,1.73,0.88,1.4,2.13c-2.23,0.42-4.12-0.9-6.37-1.24
		C36.07,71.07,40.51,75.78,47.92,78.51z"/>
</g>
</svg>
