<svg width="82" height="30" viewBox="0 0 82 30" fill="none" xmlns="http://www.w3.org/2000/svg">
<path d="M1.47224 25.4188H2.07349L1.51041 27.7618C1.42929 28.1101 1.44361 28.3726 1.55813 28.5444C1.67266 28.7209 1.88739 28.8068 2.19755 28.8068C2.50772 28.8068 2.76063 28.7209 2.96104 28.5444C3.16146 28.3678 3.29984 28.1101 3.38574 27.7618L3.94404 25.4188H4.55483L3.98221 27.8191C3.85814 28.3392 3.63386 28.7305 3.31415 28.9881C2.99444 29.2458 2.5793 29.3747 2.05917 29.3747C1.53905 29.3747 1.18593 29.2458 0.995055 28.9881C0.799411 28.7305 0.766013 28.3392 0.894852 27.8143L1.46747 25.4141L1.47224 25.4188Z" fill="#67696C"/>
<path d="M4.47865 29.272L5.43778 25.2637L7.26061 27.6209C7.30833 27.6878 7.36082 27.7593 7.40854 27.8357C7.45625 27.912 7.50874 27.9979 7.55646 28.0934L8.19589 25.4211H8.75896L7.79983 29.4295L5.93882 27.0292C5.8911 26.9624 5.84338 26.8956 5.80044 26.8241C5.75749 26.7525 5.71932 26.6761 5.68114 26.5998L5.03695 29.2815H4.47388L4.47865 29.272Z" fill="#67696C"/>
<path d="M8.71094 29.2716L9.63666 25.416H10.2475L9.3265 29.2716H8.71571H8.71094Z" fill="#67696C"/>
<path d="M10.2 29.2716L11.1257 25.416H13.2253L13.0964 25.9505H11.6076L11.3786 26.9144H12.8674L12.7338 27.4631H11.245L10.8107 29.2764H10.2V29.2716Z" fill="#67696C"/>
<path d="M12.9724 29.2716L13.8981 25.416H14.5089L13.588 29.2716H12.9772H12.9724Z" fill="#67696C"/>
<path d="M14.4611 29.2716L15.3868 25.416H17.4864L17.3576 25.9505H15.8688L15.6349 26.9191H17.1237L16.9901 27.4679H15.5013L15.2007 28.7133H16.6895L16.5559 29.2764H14.4563L14.4611 29.2716Z" fill="#67696C"/>
<path d="M18.0066 28.7038H18.522C18.8035 28.7038 19.023 28.6847 19.1709 28.6465C19.3236 28.6084 19.462 28.5415 19.5861 28.4509C19.7579 28.3268 19.901 28.1694 20.0155 27.988C20.1301 27.8019 20.216 27.5872 20.278 27.3391C20.3352 27.0909 20.3543 26.8762 20.3257 26.6949C20.2971 26.5088 20.2303 26.3561 20.1157 26.2272C20.0299 26.1366 19.9201 26.0698 19.7817 26.0316C19.6433 25.9934 19.4143 25.9743 19.0993 25.9743H18.6556L18.0018 28.7038H18.0066ZM17.2622 29.2716L18.1879 25.416H19.0135C19.5479 25.416 19.9201 25.4446 20.1253 25.4971C20.3305 25.5544 20.4975 25.6451 20.6311 25.7739C20.8077 25.9457 20.9222 26.1652 20.9699 26.4276C21.0176 26.6949 21.0033 27.0003 20.9174 27.3438C20.8363 27.6874 20.7074 27.988 20.5309 28.2552C20.3543 28.5177 20.1396 28.7372 19.8819 28.909C19.6863 29.0378 19.4763 29.1333 19.252 29.1857C19.0278 29.243 18.6937 29.2669 18.25 29.2669H17.2622V29.2716Z" fill="#67696C"/>
<path d="M23.8902 27.028H24.0477C24.3865 27.028 24.6203 26.9898 24.7539 26.9135C24.8875 26.8372 24.9734 26.7035 25.0212 26.5127C25.0689 26.3075 25.045 26.1643 24.9448 26.0784C24.8446 25.9925 24.6346 25.9496 24.3102 25.9496H24.1527L23.895 27.0232L23.8902 27.028ZM23.728 27.5434L23.3129 29.2755H22.7402L23.666 25.4199H24.5917C24.8637 25.4199 25.0641 25.4342 25.1834 25.4676C25.3027 25.4963 25.4077 25.5488 25.484 25.6203C25.5795 25.711 25.6463 25.8303 25.6749 25.983C25.7035 26.1357 25.6987 26.3027 25.6558 26.484C25.6129 26.6654 25.5365 26.8371 25.4363 26.9898C25.3313 27.1425 25.212 27.2666 25.0736 27.3525C24.9591 27.4241 24.8351 27.4718 24.7014 27.5004C24.5631 27.5291 24.3579 27.5434 24.0859 27.5434H23.7328H23.728Z" fill="#67696C"/>
<path d="M26.4097 27.7593H27.4595L27.283 26.8813C27.2734 26.8241 27.2687 26.762 27.2591 26.6857C27.2543 26.6141 27.2496 26.533 27.2448 26.4423C27.2066 26.5282 27.1637 26.6046 27.1207 26.6761C27.0826 26.7477 27.0396 26.8145 27.0014 26.8765L26.405 27.7546L26.4097 27.7593ZM27.7363 29.272L27.5454 28.2795H26.0566L25.3838 29.272H24.7444L27.5263 25.2637L28.3853 29.272H27.7411H27.7363Z" fill="#67696C"/>
<path d="M29.2586 29.2716L29.6785 27.5061L28.915 25.416H29.5592L30.0364 26.7235C30.046 26.7569 30.0603 26.7998 30.0746 26.8571C30.0889 26.9096 30.1032 26.9716 30.1175 27.0337C30.1557 26.9716 30.1939 26.9144 30.2368 26.8619C30.275 26.8094 30.3179 26.7569 30.3561 26.7139L31.4727 25.4208H32.0835L30.2893 27.5108L29.8646 29.2764H29.2586V29.2716Z" fill="#67696C"/>
<path d="M35.0899 27.3695C35.0899 27.3409 35.0995 27.255 35.1138 27.1214C35.1281 27.0069 35.1377 26.9162 35.1424 26.8399C35.1043 26.9258 35.0613 27.0164 35.0136 27.1023C34.9659 27.1882 34.9086 27.2789 34.8418 27.3695L33.3673 29.4262L32.8854 27.3266C32.8663 27.2407 32.8472 27.1548 32.8377 27.0785C32.8281 26.9973 32.8186 26.9162 32.8186 26.8399C32.7995 26.921 32.7709 27.0069 32.7375 27.0928C32.704 27.1834 32.6659 27.2741 32.6229 27.3695L31.764 29.2687H31.2009L33.0524 25.2461L33.5773 27.6797C33.5868 27.7179 33.5964 27.7847 33.6107 27.8706C33.625 27.9613 33.6393 28.071 33.6584 28.2046C33.7204 28.0949 33.8111 27.9517 33.9304 27.7847C33.9638 27.737 33.9877 27.7036 34.002 27.6797L35.6673 25.2461L35.6148 29.2687H35.047L35.0852 27.3648L35.0899 27.3695Z" fill="#67696C"/>
<path d="M36.106 29.2716L37.0317 25.416H39.1313L39.0024 25.9505H37.5136L37.2846 26.9191H38.7734L38.6398 27.4679H37.151L36.8504 28.7133H38.3392L38.2055 29.2764H36.106V29.2716Z" fill="#67696C"/>
<path d="M38.9071 29.272L39.8662 25.2637L41.6891 27.6209C41.7368 27.6878 41.7893 27.7593 41.837 27.8357C41.8847 27.912 41.9372 27.9979 41.9849 28.0934L42.6244 25.4211H43.1874L42.2283 29.4295L40.3673 27.0292C40.3196 26.9624 40.2719 26.8956 40.2289 26.8241C40.186 26.7525 40.1478 26.6761 40.1096 26.5998L39.4654 29.2815H38.9023L38.9071 29.272Z" fill="#67696C"/>
<path d="M45.1438 25.9485L44.3469 29.2745H43.7361L44.533 25.9485H43.5356L43.6645 25.4141H46.2699L46.1411 25.9485H45.1485H45.1438Z" fill="#67696C"/>
<path d="M45.7739 28.4994L46.3179 28.2656C46.3226 28.4374 46.3751 28.571 46.4801 28.6617C46.5803 28.7523 46.7282 28.7953 46.9191 28.7953C47.1004 28.7953 47.2579 28.7428 47.3867 28.6378C47.5204 28.5328 47.6063 28.3944 47.6492 28.2227C47.7017 27.9936 47.5681 27.7932 47.2436 27.6166C47.2006 27.588 47.1625 27.5689 47.1386 27.5594C46.776 27.3542 46.5421 27.1633 46.4467 26.9963C46.3513 26.8293 46.3274 26.6241 46.3894 26.3807C46.4658 26.0658 46.628 25.8129 46.8857 25.6173C47.1386 25.4216 47.4345 25.3262 47.7733 25.3262C48.05 25.3262 48.2695 25.3834 48.4318 25.4932C48.594 25.6029 48.6847 25.7604 48.7085 25.9656L48.1693 26.2185C48.1216 26.0992 48.0596 26.0085 47.9832 25.9513C47.9069 25.894 47.8114 25.8654 47.6921 25.8654C47.5299 25.8654 47.3867 25.9083 47.2674 25.999C47.1482 26.0849 47.0718 26.2042 47.0384 26.3521C46.9811 26.5859 47.1434 26.8007 47.5204 27.0011C47.549 27.0154 47.5728 27.0297 47.5872 27.0392C47.9164 27.2158 48.1312 27.3876 48.2314 27.5546C48.3316 27.7216 48.3507 27.9316 48.2886 28.1845C48.2027 28.5519 48.0214 28.8382 47.7446 29.0577C47.4679 29.2725 47.1386 29.3822 46.7569 29.3822C46.4372 29.3822 46.1938 29.3059 46.022 29.1579C45.855 29.0052 45.7691 28.7905 45.7739 28.509" fill="#67696C"/>
<path d="M50.2927 29.2716L51.2185 25.416H51.8292L50.9035 29.2716H50.2927Z" fill="#67696C"/>
<path d="M51.7816 29.272L52.7408 25.2637L54.5636 27.6209C54.6113 27.6878 54.6638 27.7593 54.7115 27.8357C54.7592 27.912 54.8117 27.9979 54.8594 28.0934L55.4989 25.4211H56.0619L55.1028 29.4295L53.2418 27.0292C53.1941 26.9624 53.1464 26.8956 53.1034 26.8241C53.0605 26.7525 53.0223 26.6761 52.9841 26.5998L52.3399 29.2815H51.7769L51.7816 29.272Z" fill="#67696C"/>
<path d="M58.0183 25.9485L57.2214 29.2745H56.6106L57.4075 25.9485H56.4102L56.539 25.4141H59.1444L59.0156 25.9485H58.023H58.0183Z" fill="#67696C"/>
<path d="M58.6815 29.2716L59.6073 25.416H61.7069L61.578 25.9505H60.0892L59.8554 26.9191H61.3442L61.2106 27.4679H59.7218L59.4212 28.7133H60.91L60.7763 29.2764H58.6768L58.6815 29.2716Z" fill="#67696C"/>
<path d="M62.623 27.0575H62.7328C63.0573 27.0575 63.2815 27.0193 63.4056 26.943C63.5297 26.8666 63.6156 26.7283 63.6633 26.5326C63.7158 26.3179 63.6919 26.17 63.6012 26.0841C63.5106 25.9982 63.3102 25.9552 63 25.9552H62.8902L62.623 27.0623V27.0575ZM62.4656 27.5442L62.0504 29.2716H61.4778L62.4035 25.416H63.2577C63.5058 25.416 63.6967 25.4303 63.8255 25.4685C63.9544 25.5019 64.0593 25.5592 64.1405 25.6355C64.2359 25.7262 64.2979 25.8503 64.3218 25.9982C64.3504 26.1461 64.3409 26.3083 64.3027 26.4849C64.2311 26.7951 64.0975 27.0384 63.9114 27.2102C63.7253 27.3868 63.4819 27.4918 63.1909 27.5252L64.0641 29.2812H63.3722L62.5323 27.5538H62.4608L62.4656 27.5442Z" fill="#67696C"/>
<path d="M64.4268 29.2716L65.3525 25.416H67.4521L67.3232 25.9505H65.8344L65.6054 26.9144H67.0942L66.9606 27.4631H65.4718L65.0375 29.2764H64.4268V29.2716Z" fill="#67696C"/>
<path d="M68.1584 27.7593H69.2082L69.0317 26.8813C69.0221 26.8241 69.0173 26.762 69.0078 26.6857C69.003 26.6141 68.9983 26.533 68.9935 26.4423C68.9505 26.5282 68.9124 26.6046 68.8694 26.6761C68.8312 26.7477 68.7883 26.8145 68.7501 26.8765L68.1537 27.7546L68.1584 27.7593ZM69.485 29.272L69.2941 28.2795H67.8053L67.1325 29.272H66.4883L69.2703 25.2637L70.1292 29.272H69.485Z" fill="#67696C"/>
<path d="M74.1088 26.3521C73.9704 26.1994 73.8177 26.0897 73.6412 26.0133C73.4646 25.937 73.2738 25.8988 73.059 25.8988C72.6487 25.8988 72.2812 26.0324 71.9615 26.3044C71.637 26.5764 71.4271 26.9247 71.3221 27.3542C71.2219 27.7693 71.2648 28.1129 71.4509 28.3849C71.637 28.6569 71.9233 28.7905 72.3003 28.7905C72.5246 28.7905 72.7441 28.7523 72.9636 28.6712C73.1831 28.5901 73.4074 28.466 73.6316 28.3038L73.4599 29.0148C73.2642 29.1341 73.0638 29.2247 72.8586 29.2868C72.6486 29.3488 72.4339 29.3774 72.2096 29.3774C71.9233 29.3774 71.6657 29.3297 71.4462 29.2343C71.2267 29.1388 71.0453 28.9957 70.9069 28.8096C70.7686 28.6235 70.6779 28.4088 70.6397 28.1559C70.6015 27.9077 70.6159 27.6405 70.6827 27.3542C70.7495 27.0727 70.864 26.8054 71.0215 26.5573C71.1789 26.3092 71.3746 26.0897 71.6036 25.9036C71.8374 25.7127 72.0856 25.5695 72.348 25.4741C72.6105 25.3787 72.8872 25.3262 73.1688 25.3262C73.3883 25.3262 73.5935 25.3596 73.7748 25.4264C73.9609 25.4932 74.1279 25.5934 74.2854 25.727L74.0993 26.3569L74.1088 26.3521Z" fill="#67696C"/>
<path d="M74.1659 29.2716L75.0916 25.416H77.1912L77.0624 25.9505H75.5736L75.3398 26.9191H76.8286L76.695 27.4679H75.2062L74.9055 28.7133H76.3943L76.2607 29.2764H74.1611L74.1659 29.2716Z" fill="#67696C"/>
<path d="M63.0193 22.053H58.8201L64.6655 0.947266H68.8695L63.024 22.053H63.0193Z" fill="#67696C"/>
<path d="M60.8385 1.62164C60.5474 1.22081 60.0988 1.01562 59.4881 1.01562H36.383L35.2377 5.14801H39.4417H56.2575L55.0359 9.5667H38.2201V9.55716H34.0209L30.5327 22.15H34.7367L37.0749 13.6991H55.976C56.5677 13.6991 57.1212 13.4987 57.6461 13.0931C58.1663 12.6922 58.5098 12.1912 58.6768 11.5995L61.015 3.14862C61.1868 2.53306 61.1248 2.02725 60.8385 1.62642" fill="#67696C"/>
<path d="M28.0848 20.7375C27.851 21.5726 27.0923 22.15 26.2238 22.15H4.54549C3.95378 22.15 3.51478 21.9495 3.22847 21.5487C2.94216 21.1479 2.88013 20.6468 3.04237 20.0551L8.32953 1.01562H12.5335L7.8094 18.0223H24.63L29.3541 1.01562H33.5581L28.08 20.7423L28.0848 20.7375Z" fill="#67696C"/>
<path d="M76.1176 0.990234L81.4382 11.5693L70.2578 22.1437L76.1224 0.990234H76.1176Z" fill="#23A94A"/>
<path d="M72.391 0.990234L77.7068 11.5693L66.5217 22.1437L72.391 0.990234Z" fill="#F99C1C"/>
</svg>
