<svg width="81" height="27" viewBox="0 0 81 27" fill="none" xmlns="http://www.w3.org/2000/svg">
<path d="M54.0789 0.696822C55.7013 0.792258 57.2855 1.10243 58.8125 1.67504C58.9366 1.72276 58.9747 1.76571 58.9509 1.90886C58.6693 3.60285 58.3974 5.30162 58.1206 6.99561C58.111 7.04332 58.1015 7.08627 58.0872 7.15308C57.9727 7.10536 57.8677 7.05764 57.7627 7.00992C56.0305 6.19394 54.2029 5.8456 52.2895 5.94104C51.5451 5.97921 50.815 6.09374 50.1421 6.4373C49.7413 6.64249 49.3882 6.90971 49.1544 7.30577C48.8203 7.87362 48.8299 8.43192 49.2116 8.97591C49.4693 9.34334 49.8224 9.61533 50.1898 9.86346C50.9867 10.3979 51.8505 10.8274 52.7094 11.2521C53.7687 11.777 54.7851 12.3687 55.687 13.1417C56.6557 13.9768 57.4096 14.9645 57.7866 16.21C58.049 17.0784 58.0824 17.966 57.9917 18.8583C57.8247 20.4282 57.2521 21.8312 56.2214 23.0384C55.2814 24.1407 54.1123 24.9233 52.7857 25.4864C51.4544 26.0542 50.061 26.3596 48.6247 26.5028C46.6826 26.6984 44.7547 26.5648 42.8413 26.2212C41.8105 26.0351 40.8037 25.787 39.8303 25.4052C39.4819 25.2716 39.4771 25.2716 39.5344 24.9137C39.7921 23.3104 40.0498 21.7071 40.3122 20.099C40.3361 19.9463 40.3599 19.7936 40.3886 19.6266C40.7894 19.8079 41.1759 19.994 41.5672 20.161C42.6265 20.6239 43.7097 21.0152 44.8597 21.1822C46.0527 21.354 47.2456 21.4494 48.4481 21.2633C49.1639 21.1536 49.8367 20.9245 50.4189 20.4807C51.149 19.9224 51.4353 19.0396 51.1347 18.2618C50.982 17.8658 50.71 17.5604 50.3903 17.2884C49.8033 16.7874 49.1305 16.4152 48.4481 16.0668C47.5272 15.5992 46.5967 15.1506 45.733 14.5828C44.7547 13.9338 43.8672 13.1942 43.1896 12.2255C42.4357 11.1423 42.1112 9.93981 42.1875 8.62279C42.345 6.06033 43.5857 4.13252 45.671 2.70575C47.0548 1.76093 48.6008 1.22172 50.2423 0.925869C50.8818 0.811345 51.5212 0.739768 52.1702 0.701593C52.2322 0.682506 52.2942 0.696821 52.3562 0.69205C52.4087 0.69205 52.4612 0.69205 52.5137 0.69205C52.6092 0.682506 52.7046 0.711137 52.8 0.677734H53.3965C53.5015 0.711137 53.6065 0.682506 53.7114 0.69205C53.7735 0.69205 53.8355 0.69205 53.9023 0.69205C53.9644 0.69205 54.0311 0.682506 54.0932 0.701593L54.0789 0.696822Z" fill="#2667AF"/>
<path d="M53.7019 0.698553C53.5969 0.693781 53.4872 0.731955 53.387 0.669922H53.7019C53.7019 0.669922 53.7162 0.679466 53.7114 0.68901C53.7114 0.693781 53.7114 0.698553 53.7067 0.698553H53.7019Z" fill="#2667AF"/>
<path d="M52.7905 0.673828C52.6998 0.73109 52.5996 0.697687 52.5042 0.702459C52.4946 0.697687 52.4946 0.688144 52.4946 0.683372C52.4946 0.6786 52.4994 0.673828 52.5042 0.673828H52.7857H52.7905Z" fill="#2667AF"/>
<path d="M52.3468 0.698553C52.2847 0.698553 52.2227 0.698553 52.1606 0.698553C52.1606 0.689009 52.1606 0.679465 52.1606 0.669922H52.3468C52.3468 0.669922 52.361 0.684238 52.3563 0.68901C52.3563 0.693781 52.3467 0.698553 52.342 0.698553H52.3468Z" fill="#2667AF"/>
<path d="M53.7019 0.698553C53.7019 0.698553 53.7019 0.679465 53.7019 0.669922H53.888C53.888 0.669922 53.9023 0.679466 53.8976 0.684238C53.8976 0.689009 53.8928 0.693781 53.888 0.693781C53.826 0.693781 53.7639 0.693781 53.7019 0.693781V0.698553Z" fill="#2667AF"/>
<path d="M53.8879 0.697687C53.8879 0.697687 53.8879 0.6786 53.8879 0.673828H54.074C54.074 0.673828 54.074 0.692915 54.074 0.697687C54.012 0.697687 53.95 0.697687 53.8879 0.697687Z" fill="#2667AF"/>
<path d="M52.3467 0.697687C52.3467 0.697687 52.3467 0.6786 52.3467 0.673828H52.5041C52.5041 0.673828 52.5041 0.692916 52.5041 0.702459C52.4516 0.702459 52.3992 0.702459 52.3467 0.702459V0.697687Z" fill="#2667AF"/>
<path d="M16.3434 14.5813C16.5152 15.0728 16.5725 15.5929 16.6822 16.0987C16.8301 16.7859 16.959 17.473 17.0974 18.1649C17.1833 18.1268 17.1833 18.0504 17.2023 17.9931C18.8486 13.5745 20.4901 9.15576 22.1364 4.73707C22.5659 3.58229 23.0001 2.42751 23.4248 1.26796C23.463 1.15821 23.5202 1.12958 23.63 1.12958C25.8202 1.12958 28.0057 1.12958 30.196 1.12958C30.2389 1.12958 30.2914 1.11527 30.3439 1.15344C30.1769 1.55905 30.0146 1.96942 29.8476 2.3798C26.6314 10.2628 23.42 18.1506 20.2086 26.0336C20.1561 26.1577 20.0988 26.1911 19.97 26.1911C17.7941 26.1911 15.6133 26.1911 13.4374 26.1911C13.299 26.1911 13.2513 26.1482 13.2179 26.0193C11.6384 20.0689 10.059 14.1184 8.47948 8.168C8.15977 6.96073 7.83529 5.75346 7.51558 4.5462C7.50604 4.50802 7.49172 4.46508 7.48218 4.4269C7.55853 4.36964 7.61102 4.4269 7.66351 4.46508C8.22658 4.79433 8.77534 5.14744 9.30501 5.53396C10.0828 6.09703 10.8224 6.70305 11.5239 7.36156C12.9888 8.73584 14.2104 10.2962 15.203 12.0379C15.5942 12.7298 15.933 13.4456 16.2337 14.1757C16.2862 14.3045 16.3482 14.4334 16.3482 14.5765L16.3434 14.5813Z" fill="#2667AF"/>
<path d="M32.1526 26.218C31.1171 26.218 30.0864 26.218 29.0509 26.218C28.9317 26.218 28.9078 26.1989 28.9317 26.0748C29.3134 23.7557 29.6856 21.4366 30.0626 19.1175C30.4348 16.8223 30.8022 14.5318 31.1744 12.2366C31.58 9.72184 31.9904 7.2071 32.396 4.69236C32.5821 3.54712 32.7682 2.40189 32.9543 1.25189C32.9686 1.15168 33.0068 1.12305 33.107 1.12305C35.1875 1.12305 37.2632 1.12305 39.3437 1.12305C39.4344 1.12305 39.4821 1.12305 39.463 1.24711C39.0765 3.61393 38.6948 5.97597 38.313 8.34279C37.8883 10.953 37.4636 13.5679 37.0389 16.1781C36.6095 18.8217 36.18 21.4653 35.7553 24.1041C35.6504 24.7626 35.5406 25.4211 35.4404 26.0796C35.4213 26.1894 35.3784 26.2084 35.2782 26.2084C34.2379 26.2084 33.1976 26.2084 32.1574 26.2084L32.1526 26.218Z" fill="#2667AF"/>
<path d="M16.3435 14.5798C15.9618 13.5777 15.4989 12.6138 14.9501 11.6928C13.2514 8.83928 10.9466 6.57744 8.14556 4.8071C7.969 4.69735 7.79243 4.5876 7.6111 4.48262C7.56816 4.45876 7.52999 4.41582 7.46796 4.43013C7.4441 4.35855 7.3773 4.34424 7.32481 4.31561C5.26816 3.1322 3.08267 2.27805 0.792204 1.68157C0.672909 1.64817 0.625191 1.61954 0.658594 1.48115C0.739714 1.13758 0.730163 1.13281 1.08328 1.13281C4.40923 1.13281 7.73518 1.13281 11.0611 1.13281C11.4524 1.13281 11.8437 1.17099 12.2254 1.26642C13.2943 1.5241 13.9242 2.21124 14.1342 3.26581C14.6448 5.81395 15.141 8.3621 15.6421 10.9102C15.8759 12.0841 16.1049 13.258 16.3387 14.4366C16.3483 14.4843 16.3865 14.532 16.334 14.5798H16.3435Z" fill="#F99C1C"/>
<path d="M80.8488 26.0883C80.5148 24.4754 80.176 22.8673 79.842 21.2544C79.3266 18.7779 78.8065 16.3013 78.2863 13.8247C77.771 11.3529 77.2509 8.88114 76.7355 6.40934C76.3776 4.69149 76.0197 2.97364 75.6619 1.25579C75.6428 1.16513 75.6094 1.12695 75.5092 1.12695C73.8008 1.13172 72.0925 1.12695 70.3842 1.1365C69.7878 1.1365 69.2104 1.2367 68.6711 1.5087C67.9458 1.87136 67.5116 2.48692 67.2062 3.21223C64.0425 10.7469 60.8836 18.2816 57.7199 25.8163C57.6674 25.9451 57.6149 26.074 57.5576 26.2076C57.6006 26.2076 57.6244 26.2123 57.6531 26.2123C59.8529 26.2123 62.0526 26.2123 64.2524 26.2123C64.3574 26.2123 64.3909 26.1694 64.4243 26.0787C64.8394 24.9192 65.2641 23.7596 65.6792 22.6001C65.7174 22.4951 65.7604 22.4474 65.8844 22.4474C68.571 22.4474 71.2527 22.4474 73.9392 22.4474C74.0442 22.4474 74.0919 22.4617 74.1158 22.581C74.3496 23.7405 74.5882 24.8953 74.8268 26.0549C74.8411 26.1312 74.8363 26.2123 74.9652 26.2123C76.9359 26.2076 78.9019 26.2123 80.8727 26.2076V26.1121C80.8727 26.1121 80.8488 26.0931 80.844 26.0787L80.8488 26.0883ZM72.899 17.332C71.1573 17.332 69.4108 17.332 67.6691 17.332C67.6595 17.332 67.65 17.332 67.6166 17.3225C68.7571 14.1969 69.9404 11.0905 71.057 7.92201C71.1334 8.28944 71.205 8.60915 71.2766 8.9384C71.8444 11.6965 72.4123 14.4546 72.9849 17.2079C73.004 17.2938 73.0183 17.3368 72.899 17.3368V17.332Z" fill="#2667AF"/>
</svg>
