<?xml version="1.0" encoding="utf-8"?>
<!-- Generator: Adobe Illustrator 27.1.0, SVG Export Plug-In . SVG Version: 6.00 Build 0)  -->
<svg version="1.1" id="Layer_1" xmlns="http://www.w3.org/2000/svg" xmlns:xlink="http://www.w3.org/1999/xlink" x="0px" y="0px"
	 viewBox="0 0 144 144" style="enable-background:new 0 0 144 144;" xml:space="preserve">
<style type="text/css">
	.st0{fill:#FFFFFF;}
</style>
<g>
	<path class="st0" d="M0,112.75c3.61-13.81,7.43-27.57,11.73-41.16C16.25,57.31,26.4,49.15,41.2,46.92c4.18-0.63,4.2-0.5,6.09,3.28
		c0.96,1.93,1.95,3.84,2.87,5.79c0.39,0.83,0.95,1.16,1.86,1.15c3.23-0.04,6.46-0.05,9.69,0c1.19,0.02,1.56-0.47,1.53-1.59
		c-0.03-1.21,0.04-2.43,0.15-3.64c0.42-4.61,4.06-7.84,8.71-7.79c4.4,0.04,8.01,3.43,8.34,7.89c0.1,1.31,0.14,2.62,0.16,3.93
		c0.02,0.82,0.37,1.2,1.19,1.19c3.47-0.01,6.93-0.02,10.4,0c0.8,0,1.15-0.47,1.46-1.09c1.29-2.6,2.66-5.16,3.86-7.8
		c0.58-1.27,1.36-1.69,2.72-1.58c12.84,1.04,22.58,7.02,29.1,18.17c2.63,4.51,3.69,9.59,5.11,14.53
		c2.95,10.25,6.01,20.48,8.75,30.79c4.03,15.21-7.79,30.05-23.45,29.68c-10.43-0.25-20.33-8.3-22.75-18.43
		c-0.28-1.16,0.37-1.48,1.11-1.92c6.34-3.83,8.55-11.55,5.19-18.1c-2.61-5.08-8.49-8.15-13.91-7.25
		c-6.25,1.03-10.88,5.57-11.71,11.6c-0.16,1.14-0.56,1.52-1.67,1.5c-2.71-0.05-5.43-0.05-8.15,0c-1.09,0.02-1.53-0.32-1.69-1.48
		c-0.9-6.44-6.4-11.47-12.67-11.7c-6.89-0.26-12.62,4.02-14.18,10.59c-1.38,5.8,1.16,11.68,6.5,14.9c0.88,0.53,1.26,0.99,0.96,2.1
		c-2.92,10.73-12.86,18.32-23.92,18.19c-10.37-0.12-20.15-8.1-22.38-18.26c-0.15-0.68-0.33-1.36-0.49-2.04C0,117.24,0,115,0,112.75z
		 M43.5,81.48c0.98,0,1.97-0.03,2.95,0.01c0.87,0.04,1.3-0.27,1.28-1.2c-0.04-1.87-0.03-3.75,0-5.62c0.02-0.91-0.38-1.25-1.26-1.24
		c-1.83,0.03-3.65-0.04-5.48,0.02c-1.24,0.04-1.8-0.35-1.73-1.68c0.09-1.82-0.01-3.65,0.03-5.48c0.02-0.97-0.37-1.34-1.33-1.33
		c-1.83,0.04-3.65,0.03-5.48,0c-0.89-0.01-1.27,0.36-1.25,1.26c0.03,1.73,0.01,3.46,0,5.2c-0.01,1.96-0.04,2-1.93,2
		c-1.73,0.01-3.47,0.03-5.2-0.01c-0.96-0.02-1.35,0.35-1.33,1.32c0.04,1.82,0.04,3.65,0,5.48c-0.03,1.01,0.44,1.29,1.37,1.27
		c1.87-0.04,3.75,0.03,5.62-0.02c1.09-0.03,1.51,0.4,1.48,1.48c-0.05,1.92,0.01,3.84-0.01,5.76c-0.01,0.79,0.24,1.23,1.12,1.22
		c1.97-0.03,3.93-0.02,5.9-0.01c0.7,0,1.03-0.31,1.02-1.02c-0.01-1.08,0-2.15,0-3.23C39.28,81.49,39.28,81.49,43.5,81.48z
		 M104.58,85.73c0,0.98,0.03,1.97-0.01,2.95c-0.04,0.89,0.31,1.28,1.23,1.26c1.83-0.04,3.65-0.05,5.48,0.01
		c1.07,0.04,1.38-0.43,1.35-1.42c-0.05-1.82,0.03-3.65-0.03-5.48c-0.04-1.13,0.36-1.61,1.54-1.57c1.87,0.07,3.75-0.02,5.62,0.03
		c0.97,0.02,1.34-0.35,1.32-1.32c-0.04-1.78-0.05-3.56,0-5.34c0.03-1.01-0.33-1.44-1.38-1.42c-1.87,0.05-3.75-0.02-5.62,0.02
		c-1.09,0.03-1.51-0.42-1.48-1.5c0.05-1.82-0.03-3.65,0.03-5.48c0.03-1.07-0.32-1.54-1.44-1.5c-1.73,0.06-3.47,0.06-5.2,0
		c-1.14-0.04-1.46,0.46-1.43,1.52c0.05,1.82-0.03,3.65,0.03,5.48c0.03,1.1-0.41,1.51-1.49,1.49c-1.92-0.04-3.84,0.01-5.76-0.01
		c-0.8-0.01-1.22,0.28-1.21,1.14c0.02,1.92,0.02,3.84,0,5.76c-0.01,0.85,0.36,1.17,1.19,1.15c1.83-0.03,3.65,0.06,5.48-0.03
		c1.31-0.06,1.93,0.35,1.8,1.74C104.51,84.04,104.57,84.89,104.58,85.73z M72.05,81.49c3.7,0,7.4-0.02,11.1,0.01
		c0.93,0.01,1.38-0.25,1.35-1.27c-0.06-1.82-0.05-3.65,0-5.48c0.03-0.97-0.34-1.33-1.31-1.32c-7.49,0.02-14.98,0.03-22.47,0
		c-1.07,0-1.38,0.43-1.35,1.43c0.06,1.73,0.07,3.47,0,5.2c-0.05,1.11,0.36,1.47,1.46,1.45C64.56,81.45,68.3,81.49,72.05,81.49z"/>
	<path class="st0" d="M104.76,17.88c-0.04,0.54-0.39,0.8-0.69,1.1c-1.38,1.4-2.81,2.75-4.15,4.18c-0.73,0.77-1.23,0.83-2.05,0.05
		c-4.91-4.61-10.62-7.85-17.23-9.24c-13-2.74-24.59,0.17-34.51,9.13c-0.9,0.82-1.43,0.89-2.26-0.02c-1.26-1.39-2.58-2.72-3.97-3.97
		c-0.95-0.86-0.81-1.41,0.07-2.23C46.77,10.48,54.77,6.41,63.96,4.9c13.43-2.21,25.64,0.81,36.5,9.05c1.3,0.99,2.48,2.14,3.7,3.22
		C104.41,17.39,104.59,17.67,104.76,17.88z"/>
	<path class="st0" d="M92.79,30.14c-0.18,0.21-0.4,0.51-0.66,0.77c-1.35,1.36-2.77,2.66-4.04,4.09c-0.87,0.99-1.46,0.84-2.39,0.06
		c-6.39-5.38-13.58-6.5-21.4-3.75c-2.32,0.81-4.42,2.07-6.18,3.78c-0.95,0.92-1.56,0.77-2.38-0.13c-1.22-1.35-2.51-2.65-3.87-3.87
		c-0.92-0.83-0.93-1.37,0.01-2.22c4.49-4.01,9.67-6.57,15.62-7.41c9.24-1.31,17.4,1.19,24.41,7.37
		C92.7,29.54,92.82,29.76,92.79,30.14z"/>
	<path class="st0" d="M47.12,107.66c-0.01-3.05,2.46-5.56,5.5-5.6c3.04-0.04,5.64,2.59,5.61,5.67c-0.03,3.03-2.57,5.52-5.6,5.49
		C49.54,113.19,47.13,110.75,47.12,107.66z"/>
	<path class="st0" d="M91.13,113.22c-3.06-0.04-5.52-2.54-5.51-5.58c0.02-3.02,2.55-5.58,5.55-5.58c3.08-0.01,5.6,2.58,5.56,5.7
		C96.7,110.8,94.19,113.26,91.13,113.22z"/>
</g>
</svg>
