<?xml version="1.0" encoding="utf-8"?>
<!-- Generator: Adobe Illustrator 27.1.0, SVG Export Plug-In . SVG Version: 6.00 Build 0)  -->
<svg version="1.1" id="Layer_1" xmlns="http://www.w3.org/2000/svg" xmlns:xlink="http://www.w3.org/1999/xlink" x="0px" y="0px"
	 viewBox="0 0 144 144" style="enable-background:new 0 0 144 144;" xml:space="preserve">
<style type="text/css">
	.st0{fill:#FFFFFF;}
</style>
<g>
	<path class="st0" d="M72.04,0.06c39.27-0.54,72.09,32.55,71.96,72.13c-0.13,39.23-32.79,71.85-72.18,71.75
		C32.45,143.85-0.21,111.03,0,71.55C0.21,32.46,32.73-0.48,72.04,0.06z M72.12,40.67c-10.04,0.42-19.93,0.69-29.79,1.29
		c-8.85,0.54-12.37,3.51-13.56,11.9c-1.74,12.33-1.82,24.73,0.18,37.05c1.14,7.06,4.11,9.68,11.28,10.64
		c2.31,0.31,4.64,0.45,6.96,0.61c18.27,1.26,36.54,1.06,54.79-0.25c8.8-0.63,12.11-3.59,13.28-11.86c1.71-12.05,1.75-24.18,0-36.24
		c-1.15-7.88-3.96-10.41-11.73-11.51C93.05,40.81,82.47,41.52,72.12,40.67z"/>
	<path class="st0" d="M62.85,71.77c0-3.73,0.02-7.46-0.01-11.2c-0.01-1.78,0.63-2.18,2.19-1.28c6.7,3.88,13.42,7.73,20.13,11.58
		c1.36,0.78,1.18,1.47-0.06,2.18c-6.72,3.85-13.43,7.71-20.14,11.58c-1.69,0.97-2.13,0.23-2.12-1.39
		C62.87,79.42,62.85,75.59,62.85,71.77z"/>
</g>
</svg>
