<?xml version="1.0" encoding="UTF-8"?>
<svg id="Layer_2" data-name="Layer 2" xmlns="http://www.w3.org/2000/svg" viewBox="0 0 511.93 369">
  <defs>
    <style>
      .cls-1 {
        fill: #fff;
      }
    </style>
  </defs>
  <g id="Layer_1-2" data-name="Layer 1">
    <path class="cls-1" d="m511.87,270.25c-1.1-47.5-15.6-110.9-38.8-169.6-10.6-26.9-22.1-50-33.2-66.7-14.8-22.4-28.1-32.8-42.1-32.8-7.9,0-15-.3-21.8-.6-17.2-.7-32.1-1.3-45,4-13.3,5.5-21,15.8-25.7,26.1h-98.6c-4.7-10.4-12.4-20.7-25.7-26.2C167.97-.85,153.17-.25,135.97.45c-6.9.3-14,.6-21.8.6-14,0-27.3,10.4-42.1,32.8-11.1,16.8-22.5,39.9-33.2,66.8C15.67,159.25,1.17,222.65.07,270.25c-1.9,83.4,37.4,97.6,61,98.7h2.1c23.6,0,49.5-18.1,79-55.1,13.9-17.4,25.1-34.8,31.2-44.6h165.2c6,9.8,17.3,27.1,31.2,44.6,30.5,38.1,57,56.2,81.1,55.1,23.6-1,62.9-15.3,61-98.7Zm-153.8-111.7c0,8.8-7.2,16-16,16h-3.9c-8.8,0-16-7.2-16-16s7.2-16,16-16h3.9c8.8.1,16,7.1,16,16Zm-168.3,0c0,8.8-7.2,16-16,16h-20.2v20.2c0,8.8-7.2,16-16,16s-16-7.2-16-16v-20.2h-20.2c-8.8,0-16-7.2-16-16s7.2-16,16-16h20.2v-20.2c0-8.8,7.2-16,16-16s16,7.2,16,16v20.2h20.2c8.9.1,16,7.1,16,16Zm200.6-36.3v4c0,8.8-7.2,16-16,16s-16-7.2-16-16v-4c0-8.8,7.2-16,16-16s16,7.2,16,16Zm0,68.7v3.9c0,8.8-7.2,16-16,16s-16-7.2-16-16v-3.9c0-8.8,7.2-16,16-16,8.8-.1,16,7.1,16,16Zm36.2-32.4c0,8.8-7.2,16-16,16h-4c-8.8,0-16-7.2-16-16s7.2-16,16-16h4c8.9.1,16,7.1,16,16Zm-134.2-96c-9.9,15.9-24.3,21.9-36.4,21.9s-26.5-6.1-36.4-21.9h72.8Z"/>
  </g>
</svg>